<svg width="45" height="45" viewBox="0 0 45 45" fill="none" xmlns="http://www.w3.org/2000/svg">
<g clip-path="url(#clip0_26_76)">
<path d="M22.5 0C10.0935 0 0 10.0935 0 22.5C0 34.9065 10.0935 45 22.5 45C34.9065 45 45 34.9065 45 22.5C45 10.0935 34.9065 0 22.5 0ZM22.5 43.5C10.9207 43.5 1.5 34.0793 1.5 22.5C1.5 10.9207 10.9207 1.5 22.5 1.5C34.0793 1.5 43.5 10.9207 43.5 22.5C43.5 34.0793 34.0793 43.5 22.5 43.5Z" fill="#0070E0"/>
<path d="M23.25 19.5157V11.9092C23.25 11.4944 22.914 11.1592 22.5 11.1592C22.086 11.1592 21.75 11.4944 21.75 11.9092V19.5157C20.7007 19.7887 19.8795 20.6099 19.6065 21.6592H14.25C13.836 21.6592 13.5 21.9944 13.5 22.4092C13.5 22.8239 13.836 23.1592 14.25 23.1592H19.6065C19.9417 24.4492 21.1065 25.4092 22.5 25.4092C24.1545 25.4092 25.5 24.0637 25.5 22.4092C25.5 21.0149 24.54 19.8509 23.25 19.5157ZM22.5 23.9092C21.6727 23.9092 21 23.2364 21 22.4092C21 21.5819 21.6727 20.9092 22.5 20.9092C23.3272 20.9092 24 21.5819 24 22.4092C24 23.2364 23.3272 23.9092 22.5 23.9092Z" fill="#0070E0"/>
<path d="M22.5 7.40918C22.914 7.40918 23.25 7.07393 23.25 6.65918V5.90918C23.25 5.49443 22.914 5.15918 22.5 5.15918C22.086 5.15918 21.75 5.49443 21.75 5.90918V6.65918C21.75 7.07393 22.086 7.40918 22.5 7.40918Z" fill="#0070E0"/>
<path d="M22.5 37.4092C22.086 37.4092 21.75 37.7444 21.75 38.1592V38.9092C21.75 39.3239 22.086 39.6592 22.5 39.6592C22.914 39.6592 23.25 39.3239 23.25 38.9092V38.1592C23.25 37.7444 22.914 37.4092 22.5 37.4092Z" fill="#0070E0"/>
<path d="M39 21.6592H38.25C37.836 21.6592 37.5 21.9944 37.5 22.4092C37.5 22.8239 37.836 23.1592 38.25 23.1592H39C39.414 23.1592 39.75 22.8239 39.75 22.4092C39.75 21.9944 39.414 21.6592 39 21.6592Z" fill="#0070E0"/>
<path d="M6.75 21.6592H6C5.586 21.6592 5.25 21.9944 5.25 22.4092C5.25 22.8239 5.586 23.1592 6 23.1592H6.75C7.164 23.1592 7.5 22.8239 7.5 22.4092C7.5 21.9944 7.164 21.6592 6.75 21.6592Z" fill="#0070E0"/>
<path d="M33.6369 10.2114L33.1067 10.7416C32.8134 11.0349 32.8134 11.5089 33.1067 11.8021C33.2529 11.9484 33.4449 12.0219 33.6369 12.0219C33.8289 12.0219 34.0209 11.9484 34.1672 11.8021L34.6974 11.2719C34.9907 10.9786 34.9907 10.5046 34.6974 10.2114C34.4042 9.91811 33.9302 9.91886 33.6369 10.2114Z" fill="#0070E0"/>
<path d="M10.8332 33.0158L10.3029 33.546C10.0097 33.8393 10.0097 34.3133 10.3029 34.6065C10.4492 34.7528 10.6412 34.8263 10.8332 34.8263C11.0252 34.8263 11.2172 34.7528 11.3634 34.6065L11.8937 34.0763C12.1869 33.783 12.1869 33.309 11.8937 33.0158C11.6004 32.7225 11.1257 32.7233 10.8332 33.0158Z" fill="#0070E0"/>
<path d="M34.1672 33.0158C33.8739 32.7226 33.3999 32.7226 33.1067 33.0158C32.8134 33.3091 32.8134 33.7831 33.1067 34.0763L33.6369 34.6066C33.7832 34.7528 33.9752 34.8263 34.1672 34.8263C34.3592 34.8263 34.5512 34.7528 34.6974 34.6066C34.9907 34.3133 34.9907 33.8393 34.6974 33.5461L34.1672 33.0158Z" fill="#0070E0"/>
<path d="M11.3634 10.2111C11.0702 9.9179 10.5962 9.9179 10.3029 10.2111C10.0097 10.5044 10.0097 10.9784 10.3029 11.2716L10.8332 11.8019C10.9794 11.9481 11.1714 12.0216 11.3634 12.0216C11.5554 12.0216 11.7474 11.9481 11.8937 11.8019C12.1869 11.5086 12.1869 11.0346 11.8937 10.7414L11.3634 10.2111Z" fill="#0070E0"/>
</g>
<defs>
<clipPath id="clip0_26_76">
<rect width="45" height="45" fill="white"/>
</clipPath>
</defs>
</svg>
