<svg width="25" height="25" viewBox="0 0 25 25" fill="none" xmlns="http://www.w3.org/2000/svg">
<path d="M24.5689 20.6896H0.431054C0.193017 20.6896 0 20.4966 0 20.2586V4.74136C0 4.50332 0.193017 4.3103 0.431054 4.3103H24.5689C24.807 4.3103 25 4.50332 25 4.74136V20.2586C25 20.4967 24.8069 20.6896 24.5689 20.6896Z" fill="#007DFE"/>
<path d="M12.6761 6.18582L12.8489 6.70403L13.3952 6.70827C13.4659 6.70881 13.4952 6.79905 13.4383 6.84109L12.9989 7.1656L13.1636 7.68639C13.185 7.75378 13.1082 7.80964 13.0506 7.76847L12.6062 7.4508L12.1619 7.76847C12.1043 7.80959 12.0275 7.75383 12.0489 7.68639L12.2136 7.1656L11.7742 6.84109C11.7173 6.79905 11.7466 6.70881 11.8173 6.70827L12.3636 6.70403L12.5364 6.18582C12.5587 6.11873 12.6537 6.11873 12.6761 6.18582Z" fill="#FFE15A"/>
<path d="M12.6761 17.3118L12.8489 17.83L13.3952 17.8343C13.4659 17.8348 13.4952 17.925 13.4383 17.9671L12.9989 18.2916L13.1636 18.8124C13.185 18.8798 13.1082 18.9356 13.0506 18.8945L12.6062 18.5768L12.1619 18.8945C12.1043 18.9356 12.0275 18.8798 12.0489 18.8124L12.2136 18.2916L11.7742 17.9671C11.7173 17.925 11.7466 17.8348 11.8173 17.8343L12.3636 17.83L12.5364 17.3118C12.5587 17.2447 12.6537 17.2447 12.6761 17.3118Z" fill="#FFE15A"/>
<path d="M18.2386 11.7488L18.4114 12.267L18.9577 12.2713C19.0284 12.2718 19.0577 12.362 19.0008 12.4041L18.5614 12.7286L18.7261 13.2494C18.7474 13.3168 18.6707 13.3726 18.6131 13.3315L18.1687 13.0138L17.7244 13.3315C17.6668 13.3726 17.59 13.3168 17.6114 13.2494L17.7761 12.7286L17.3367 12.4041C17.2798 12.362 17.3091 12.2718 17.3798 12.2713L17.9261 12.267L18.0989 11.7488C18.1212 11.6817 18.2162 11.6817 18.2386 11.7488Z" fill="#FFE15A"/>
<path d="M7.11259 11.7488L7.28544 12.267L7.83168 12.2713C7.90243 12.2718 7.93173 12.362 7.87484 12.4041L7.43539 12.7286L7.60013 13.2494C7.62147 13.3168 7.54471 13.3726 7.48715 13.3315L7.04276 13.0138L6.59838 13.3315C6.54086 13.3726 6.46405 13.3168 6.48539 13.2494L6.65014 12.7286L6.21068 12.4041C6.1538 12.362 6.1831 12.2718 6.25385 12.2713L6.80009 12.267L6.97294 11.7488C6.9953 11.6817 7.09027 11.6817 7.11259 11.7488Z" fill="#FFE15A"/>
<path d="M7.94803 8.84377L8.12089 9.36199L8.66713 9.36623C8.73788 9.36677 8.76717 9.45701 8.71029 9.49905L8.27084 9.82356L8.43558 10.3444C8.45692 10.4117 8.38016 10.4676 8.32259 10.4264L7.87821 10.1088L7.43383 10.4264C7.37631 10.4676 7.2995 10.4118 7.32084 10.3444L7.48558 9.82356L7.04613 9.49905C6.98925 9.45701 7.01854 9.36677 7.0893 9.36623L7.63554 9.36199L7.80839 8.84377C7.83075 8.77668 7.92562 8.77668 7.94803 8.84377Z" fill="#FFE15A"/>
<path d="M17.5828 14.4068L17.7557 14.925L18.3019 14.9292C18.3726 14.9298 18.4019 15.02 18.3451 15.062L17.9056 15.3865L18.0703 15.9073C18.0917 15.9747 18.0149 16.0306 17.9574 15.9894L17.513 15.6718L17.0686 15.9894C17.0111 16.0305 16.9343 15.9748 16.9556 15.9073L17.1203 15.3865L16.6809 15.062C16.624 15.02 16.6533 14.9298 16.7241 14.9292L17.2703 14.925L17.4432 14.4068C17.4655 14.3397 17.5604 14.3397 17.5828 14.4068Z" fill="#FFE15A"/>
<path d="M15.5467 6.8074L15.7195 7.32561L16.2658 7.32986C16.3365 7.33039 16.3658 7.42063 16.3089 7.46267L15.8695 7.78718L16.0342 8.30798C16.0556 8.37536 15.9788 8.43122 15.9212 8.39006L15.4768 8.07238L15.0325 8.39006C14.9749 8.43117 14.8981 8.37541 14.9195 8.30798L15.0842 7.78718L14.6448 7.46267C14.5879 7.42063 14.6172 7.33039 14.6879 7.32986L15.2342 7.32561L15.407 6.8074C15.4293 6.74031 15.5242 6.74031 15.5467 6.8074Z" fill="#FFE15A"/>
<path d="M9.98417 16.4431L10.157 16.9614L10.7033 16.9656C10.774 16.9661 10.8033 17.0564 10.7464 17.0984L10.307 17.4229L10.4717 17.9437C10.4931 18.0111 10.4163 18.067 10.3587 18.0258L9.91434 17.7081L9.46996 18.0258C9.41244 18.0669 9.33563 18.0112 9.35697 17.9437L9.52172 17.4229L9.08227 17.0984C9.02538 17.0564 9.05468 16.9661 9.12543 16.9656L9.67167 16.9614L9.84452 16.4431C9.86688 16.376 9.96175 16.376 9.98417 16.4431Z" fill="#FFE15A"/>
<path d="M17.4432 8.84377L17.2703 9.36199L16.7241 9.36623C16.6533 9.36677 16.624 9.45701 16.6809 9.49905L17.1203 9.82356L16.9556 10.3444C16.9343 10.4117 17.011 10.4676 17.0686 10.4264L17.513 10.1088L17.9574 10.4264C18.0149 10.4676 18.0917 10.4118 18.0703 10.3444L17.9056 9.82356L18.3451 9.49905C18.4019 9.45701 18.3726 9.36677 18.3019 9.36623L17.7557 9.36199L17.5828 8.84377C17.5604 8.77668 17.4655 8.77668 17.4432 8.84377Z" fill="#FFE15A"/>
<path d="M7.80839 14.4068L7.63554 14.925L7.0893 14.9292C7.01854 14.9298 6.98925 15.02 7.04613 15.062L7.48558 15.3865L7.32084 15.9073C7.2995 15.9747 7.37626 16.0306 7.43383 15.9894L7.87821 15.6718L8.32259 15.9894C8.38011 16.0305 8.45692 15.9748 8.43558 15.9073L8.27084 15.3865L8.71029 15.062C8.76717 15.02 8.73788 14.9298 8.66713 14.9292L8.12089 14.925L7.94803 14.4068C7.92562 14.3397 7.83075 14.3397 7.80839 14.4068Z" fill="#FFE15A"/>
<path d="M9.84452 6.8074L9.67167 7.32561L9.12543 7.32986C9.05468 7.33039 9.02538 7.42063 9.08227 7.46267L9.52172 7.78718L9.35697 8.30798C9.33563 8.37536 9.41239 8.43122 9.46996 8.39006L9.91434 8.07238L10.3587 8.39006C10.4162 8.43117 10.4931 8.37541 10.4717 8.30798L10.307 7.78718L10.7464 7.46267C10.8033 7.42063 10.774 7.33039 10.7033 7.32986L10.157 7.32561L9.98417 6.8074C9.96175 6.74031 9.86688 6.74031 9.84452 6.8074Z" fill="#FFE15A"/>
<path d="M15.407 16.4431L15.2342 16.9614L14.6879 16.9656C14.6172 16.9661 14.5879 17.0564 14.6448 17.0984L15.0842 17.4229L14.9195 17.9437C14.8981 18.0111 14.9749 18.067 15.0325 18.0258L15.4768 17.7081L15.9212 18.0258C15.9787 18.0669 16.0556 18.0112 16.0342 17.9437L15.8695 17.4229L16.3089 17.0984C16.3658 17.0564 16.3365 16.9661 16.2658 16.9656L15.7195 16.9614L15.5467 16.4431C15.5243 16.376 15.4294 16.376 15.407 16.4431Z" fill="#FFE15A"/>
</svg>
