<svg width="25" height="25" viewBox="0 0 25 25" fill="none" xmlns="http://www.w3.org/2000/svg">
<path d="M24.5689 20.6896H0.431054C0.193017 20.6896 0 20.4966 0 20.2586V4.74136C0 4.50332 0.193017 4.3103 0.431054 4.3103H24.5689C24.807 4.3103 25 4.50332 25 4.74136V20.2586C25 20.4967 24.8069 20.6896 24.5689 20.6896Z" fill="#007DFE"/>
<path d="M25 7.32764H0V17.6723H25V7.32764Z" fill="#F5F5F5"/>
<path d="M14.7392 12.5001L15.859 10.5606H13.6195L12.4996 8.62085L11.3796 10.5606H9.14014L10.2599 12.5001L9.14014 14.4396H11.3796L12.4996 16.3794L13.6195 14.4396H15.859L14.7392 12.5001ZM14.7604 11.195L14.373 11.8659L13.9857 11.195H14.7604ZM14.0068 12.5001L13.2533 13.8053H11.7458L10.9923 12.5001L11.7458 11.195H13.2533L14.0068 12.5001ZM12.4996 9.8895L12.8871 10.5607H12.1121L12.4996 9.8895ZM10.2387 11.195H11.0134L10.626 11.8659L10.2387 11.195ZM10.2387 13.8053L10.6261 13.1344L11.0134 13.8053H10.2387ZM12.4996 15.1108L12.1121 14.4396H12.8871L12.4996 15.1108ZM14.373 13.1344L14.7604 13.8053H13.9857L14.373 13.1344Z" fill="#007DFE"/>
</svg>
