<svg width="16" height="15" viewBox="0 0 16 15" fill="none" xmlns="http://www.w3.org/2000/svg">
<path d="M4.54443 13.8281H2.47C2.21987 13.8281 2.06896 13.6885 2.00128 13.6053C1.88445 13.4616 1.83918 13.2745 1.87718 13.092C2.48565 10.1694 5.06494 8.03493 8.04256 7.96567C8.09216 7.96752 8.14188 7.96875 8.19189 7.96875C8.24234 7.96875 8.29249 7.96749 8.34253 7.96562C9.07065 7.98223 9.78186 8.11913 10.4588 8.37334C10.7618 8.48716 11.0996 8.33373 11.2133 8.03077C11.3271 7.72784 11.1737 7.39002 10.8708 7.27626C10.7738 7.23981 10.6761 7.20571 10.5779 7.17337C11.5477 6.44593 12.1763 5.28718 12.1763 3.98438C12.1763 1.7874 10.3889 0 8.19189 0C5.99489 0 4.20751 1.7874 4.20751 3.98438C4.20751 5.28835 4.83716 6.44801 5.80838 7.17533C4.91861 7.46824 4.08365 7.92375 3.35292 8.52481C2.01312 9.62687 1.08156 11.164 0.729914 12.8532C0.619699 13.3825 0.751711 13.9261 1.09211 14.3447C1.43078 14.7611 1.93302 15 2.47 15H4.54443C4.86804 15 5.13036 14.7377 5.13036 14.4141C5.13036 14.0904 4.86804 13.8281 4.54443 13.8281ZM5.37939 3.98438C5.37939 2.43354 6.64106 1.17188 8.19189 1.17188C9.74272 1.17188 11.0044 2.43354 11.0044 3.98438C11.0044 5.48927 9.81628 6.72182 8.32882 6.79351C8.28321 6.79269 8.23759 6.79198 8.19189 6.79198C8.14607 6.79198 8.10028 6.79266 8.05451 6.79348C6.56726 6.72158 5.37939 5.48912 5.37939 3.98438Z" fill="white"/>
<path d="M15.2429 10.0959C14.992 9.53487 14.4271 9.17136 13.8022 9.16992H11.9748C11.9735 9.16992 11.9723 9.16992 11.971 9.16992C11.3118 9.16992 10.7367 9.5584 10.5053 10.1604C10.4745 10.2405 10.4368 10.3414 10.3975 10.459H6.56122C6.40282 10.459 6.25118 10.5231 6.14081 10.6368L5.13429 11.6735C4.9126 11.9019 4.91371 12.2654 5.13678 12.4924L6.16217 13.5357C6.27233 13.6478 6.42291 13.7109 6.58006 13.7109H8.48436C8.80797 13.7109 9.0703 13.4486 9.0703 13.125C9.0703 12.8014 8.80797 12.539 8.48436 12.539H6.82575L6.37375 12.0791L6.80902 11.6309H10.8371C11.107 11.6309 11.342 11.4464 11.4062 11.1843C11.4536 10.9907 11.5131 10.8046 11.5991 10.5809C11.6558 10.4333 11.7982 10.3418 11.9724 10.3418C11.9727 10.3418 11.9731 10.3418 11.9735 10.3418H13.8008C13.9665 10.3422 14.1091 10.4312 14.173 10.5742C14.3303 10.9261 14.5181 11.4709 14.5195 12.0679C14.5209 12.6693 14.3333 13.2266 14.1756 13.5882C14.112 13.7341 13.9682 13.8281 13.8076 13.8281C13.8073 13.8281 13.807 13.8281 13.8067 13.8281H11.9573C11.7952 13.8277 11.6434 13.7234 11.5795 13.5686C11.511 13.4025 11.4516 13.2128 11.3979 12.9886C11.3226 12.6739 11.0063 12.4799 10.6917 12.5551C10.377 12.6305 10.1829 12.9467 10.2583 13.2614C10.3263 13.5455 10.4041 13.7922 10.4962 14.0154C10.7422 14.612 11.3147 14.9985 11.956 15H13.8053C13.8066 15 13.8077 15 13.809 15C14.4345 14.9999 14.9998 14.63 15.2498 14.0566C15.4523 13.5922 15.6933 12.8697 15.6914 12.0651C15.6895 11.2627 15.4464 10.5514 15.2429 10.0959Z" fill="white"/>
<path d="M13.3184 12.6562C13.642 12.6562 13.9043 12.3939 13.9043 12.0703C13.9043 11.7467 13.642 11.4844 13.3184 11.4844C12.9948 11.4844 12.7324 11.7467 12.7324 12.0703C12.7324 12.3939 12.9948 12.6562 13.3184 12.6562Z" fill="white"/>
</svg>
