<svg width="20" height="16" viewBox="0 0 20 16" fill="none" xmlns="http://www.w3.org/2000/svg">
<path d="M19.5885 14.6477H0.650391V15.4711H19.5885V14.6477Z" fill="#0070E0"/>
<path d="M19.3016 1.67646C17.9262 0.87484 16.3634 1.30066 15.2947 1.79898L12.1091 3.28446L6.63023 0.528809L3.3674 0.668992L7.89167 5.25563L5.00834 6.6253L2.00851 5.48362L0 6.42015L1.81513 8.67415C1.62337 8.90293 1.44959 9.22505 1.60735 9.56338C1.81341 10.0052 2.42243 10.2279 3.42141 10.2279C3.62628 10.2279 3.84756 10.2185 4.08507 10.1997C5.18167 10.1131 6.37057 9.83321 7.11397 9.48656L18.5014 4.17653C19.4849 3.71786 19.9748 3.23625 19.9991 2.70409C20.0117 2.42809 19.9009 2.02566 19.3016 1.67646ZM18.1533 3.43024L6.76596 8.74031C6.13261 9.03567 5.09278 9.28314 4.1169 9.37075C3.11943 9.46029 2.58612 9.34786 2.40835 9.25238C2.44495 9.20228 2.51329 9.12356 2.63939 9.01257L2.93516 8.75225L1.30039 6.72226L2.04087 6.37693L5.04392 7.51992L9.29136 5.50223L5.25672 1.41194L6.45151 1.3606L12.0954 4.19921L15.6426 2.54518C16.9381 1.94109 18.0296 1.88823 18.8869 2.38779L18.887 2.38783C19.103 2.51368 19.1785 2.62348 19.1765 2.66655C19.1764 2.66951 19.1517 2.96478 18.1533 3.43024Z" fill="#0070E0"/>
</svg>
