<svg width="18" height="20" viewBox="0 0 18 20" fill="none" xmlns="http://www.w3.org/2000/svg">
<path d="M17.4966 12.5148C17.2335 10.9865 15.9377 10.0872 14.897 9.60189L11.8002 8.15784L10.428 2.35284L8.275 0L7.6856 6.24365L4.87011 4.95511L3.84509 2.00572L1.88376 1.09117L1.3387 3.85542C1.04776 3.85623 0.699552 3.92936 0.545674 4.25941C0.303223 4.77946 0.665218 5.5364 1.62173 6.50925C2.37235 7.27264 3.32492 7.98398 4.04859 8.32145L15.1262 13.4871C15.6868 13.7484 16.1476 13.8788 16.5164 13.8788C16.7781 13.8788 16.9935 13.8131 17.165 13.682C17.3797 13.5179 17.6115 13.1822 17.4966 12.5148ZM16.6728 13.0378C16.6706 13.0394 16.4373 13.2038 15.4689 12.7523L4.39124 7.58664C3.77703 7.30024 2.94436 6.68189 2.26995 6.01133C1.58435 5.32963 1.33213 4.86313 1.2888 4.66847C1.34924 4.66502 1.44892 4.66729 1.60523 4.69105L1.98879 4.74934L2.47904 2.26325L3.19188 2.59566L4.21799 5.54828L8.38563 7.45558L8.9105 1.89538L9.68755 2.74459L11.1016 8.72657L14.5544 10.3367C15.8132 10.9236 16.5342 11.7027 16.6977 12.6523V12.6524C16.7385 12.8899 16.7052 13.013 16.6728 13.0378Z" fill="#0070E0"/>
<path d="M5.68485 12.0454C5.71947 12.0484 5.75396 12.0499 5.7883 12.0499C6.06123 12.0499 6.32302 11.9549 6.53462 11.7774C6.77282 11.5775 6.91891 11.2969 6.94603 10.9871C6.97311 10.6773 6.87797 10.3755 6.67812 10.1373C6.26554 9.64553 5.5298 9.58116 5.038 9.99378V9.99383C4.79981 10.1937 4.65371 10.4744 4.62659 10.7841C4.59952 11.0939 4.69466 11.3957 4.89454 11.6339C5.09443 11.8722 5.37511 12.0183 5.68485 12.0454ZM5.43425 10.8548C5.44248 10.7608 5.48683 10.6756 5.55914 10.6149C5.70844 10.4897 5.9318 10.5092 6.05706 10.6585C6.11774 10.7308 6.14665 10.8224 6.13842 10.9164C6.13019 11.0105 6.08584 11.0957 6.01352 11.1564C5.9412 11.217 5.84963 11.2458 5.75555 11.2377C5.6615 11.2295 5.57629 11.1851 5.51561 11.1128C5.45492 11.0405 5.42602 10.9489 5.43425 10.8548Z" fill="#0070E0"/>
<path d="M8.31068 13.226C8.57481 13.226 8.84033 13.1368 9.05809 12.9541C9.5498 12.5415 9.61413 11.8057 9.20151 11.314C8.78897 10.8223 8.05323 10.7579 7.56148 11.1705C7.32324 11.3704 7.17715 11.6511 7.15003 11.9609C7.12295 12.2707 7.21809 12.5724 7.41798 12.8106C7.64786 13.0846 7.97815 13.226 8.31068 13.226ZM7.95764 12.0315C7.96587 11.9375 8.01026 11.8523 8.08258 11.7916C8.15485 11.7309 8.24659 11.7021 8.34051 11.7103C8.43456 11.7185 8.51976 11.7628 8.58045 11.8352C8.64113 11.9075 8.67003 11.9991 8.6618 12.0931C8.65357 12.1871 8.60919 12.2724 8.53691 12.333C8.38761 12.4583 8.16422 12.4387 8.039 12.2894C7.97832 12.2172 7.94945 12.1256 7.95764 12.0315Z" fill="#0070E0"/>
<path d="M14.0777 15.9152C14.3418 15.9152 14.6074 15.826 14.8251 15.6433C15.0633 15.4434 15.2093 15.1628 15.2364 14.853C15.2635 14.5432 15.1683 14.2415 14.9685 14.0033C14.5559 13.5115 13.8202 13.4471 13.3284 13.8598C12.8367 14.2724 12.7723 15.0081 13.1849 15.4999C13.4149 15.7739 13.7452 15.9152 14.0777 15.9152ZM13.8496 14.4808C13.9218 14.4201 14.0135 14.3912 14.1075 14.3995C14.2015 14.4077 14.2867 14.4521 14.3474 14.5244C14.4081 14.5967 14.437 14.6883 14.4288 14.7824C14.4206 14.8764 14.3762 14.9616 14.3039 15.0223C14.1546 15.1474 13.9313 15.1279 13.806 14.9787C13.6807 14.8294 13.7003 14.6061 13.8496 14.4808Z" fill="#0070E0"/>
<path d="M17.1219 19.1892H0.877441V19.9999H17.1219V19.1892Z" fill="#0070E0"/>
</svg>
