<svg width="45" height="45" viewBox="0 0 45 45" fill="none" xmlns="http://www.w3.org/2000/svg">
<g clip-path="url(#clip0_26_91)">
<path d="M44.2028 19.2779C43.7363 18.5734 43.029 18.0879 42.2068 17.9039C42.7372 16.8894 42.7156 15.6236 42.0399 14.6036C41.5592 13.8774 40.8342 13.4084 40.0449 13.2309C40.1856 12.9625 40.2896 12.6727 40.3518 12.3671C40.5241 11.5174 40.3559 10.6516 39.877 9.92887C39.4104 9.22403 38.7031 8.73857 37.8809 8.55489C38.4113 7.54037 38.3897 6.27454 37.714 5.25418C36.7263 3.76244 34.7082 3.35217 33.2162 4.34026L29.9855 6.47985C28.2634 5.60643 26.4318 4.98673 24.5308 4.6338C23.93 3.72159 23.2313 2.87358 22.4492 2.11552L21.1126 0.820166C20.1338 -0.128778 18.5988 -0.271257 17.4624 0.48165C16.118 1.37189 15.7486 3.19012 16.6388 4.53458C16.6738 4.58779 16.7082 4.64135 16.7421 4.69491C12.361 5.58137 8.36816 7.90635 5.41283 11.3131C2.20585 15.0104 0.439453 19.7455 0.439453 24.6461C0.439453 25.5854 0.503655 26.5265 0.630684 27.4425C1.6095 34.5633 6.35285 40.6999 13.0092 43.4578C15.4777 44.4809 18.0969 45 20.793 45C25.0629 45 29.1502 43.6923 32.6133 41.2186C36.0012 38.7982 38.5359 35.458 39.9439 31.5592C40.0754 31.196 39.8869 30.7947 39.5237 30.6635C39.1601 30.5324 38.7591 30.7205 38.628 31.0841C37.3168 34.7147 34.9558 37.8252 31.7996 40.0798C28.5755 42.3832 24.7694 43.6006 20.793 43.6006C18.7372 43.6006 16.7298 43.2762 14.8086 42.6362L20.5015 38.8662C20.5019 38.8658 20.5022 38.8658 20.5026 38.8655C20.5029 38.8655 20.5029 38.8652 20.5033 38.8648L25.2346 35.7316H25.2349C25.6596 35.4501 25.9497 35.0203 26.0513 34.5207C26.153 34.0212 26.0541 33.5117 25.7726 33.087L25.7101 32.9923L26.6292 32.3836C27.2849 31.9493 28.0735 31.779 28.8501 31.9036C29.9745 32.0842 31.1164 31.837 32.0653 31.2084L39.6885 26.1601C39.6363 26.8214 39.5505 27.4789 39.4306 28.1253C39.3599 28.5054 39.6109 28.8707 39.991 28.9411C40.0339 28.9493 40.0771 28.9531 40.1194 28.9531C40.45 28.9531 40.7439 28.7176 40.8063 28.3808C41.0003 27.3374 41.1119 26.2686 41.1407 25.1985L43.2889 23.7758C44.0116 23.2972 44.505 22.5656 44.6773 21.7162C44.85 20.8665 44.6814 20.0006 44.2028 19.2779ZM28.627 7.37935L26.4891 8.79522L26.0682 7.66122C25.8924 7.18812 25.6909 6.72429 25.4677 6.27042C26.5523 6.54542 27.6083 6.91621 28.627 7.37935ZM6.46992 12.2302C9.31023 8.95589 13.1791 6.75485 17.4116 5.99164C18.0907 7.63684 18.2535 9.47499 17.8476 11.227L16.1417 18.5971C15.8735 18.3108 15.5254 18.1133 15.1333 18.0337C14.6335 17.9317 14.1243 18.0309 13.6996 18.3125L8.86735 21.5122C8.867 21.5122 8.867 21.5122 8.86666 21.5126C8.86666 21.5126 8.86632 21.5126 8.86632 21.5129L1.89686 26.1282C1.85875 25.6366 1.83884 25.1412 1.83884 24.6461C1.83884 20.0826 3.4837 15.673 6.46992 12.2302ZM24.6801 34.2416C24.653 34.3748 24.5754 34.4898 24.4618 34.565H24.4621L20.3065 37.3168L12.5938 25.8144C12.3785 25.4934 11.9439 25.4079 11.6229 25.6232C11.3022 25.8385 11.2164 26.2728 11.4316 26.5938L19.1396 38.0896L13.2073 42.0182C7.31244 39.4399 3.09403 33.9948 2.07985 27.6588L9.05755 23.0531L9.86058 24.2513C9.99585 24.4525 10.2169 24.5613 10.4425 24.5613C10.5764 24.5613 10.712 24.5232 10.8315 24.4428C11.1525 24.2276 11.2383 23.7929 11.0231 23.4719L10.2255 22.2823L14.4724 19.4791C14.5854 19.4039 14.721 19.3778 14.8542 19.4049C14.9874 19.432 15.1024 19.5096 15.1776 19.6229L24.606 33.8599C24.6808 33.9728 24.7072 34.1084 24.6801 34.2416ZM43.3061 21.4374C43.2079 21.9208 42.9274 22.3369 42.5161 22.6092L40.0603 24.2355C40.0596 24.2358 40.0589 24.2365 40.0579 24.2369L31.2925 30.0418C30.6368 30.4761 29.8482 30.6467 29.0716 30.5217C27.9475 30.3415 26.8056 30.5883 25.8563 31.217L24.9373 31.8257L17.2152 20.1654L19.2113 11.5428C19.7253 9.32153 19.4544 6.98178 18.4752 4.94348C18.4663 4.92219 18.4567 4.90159 18.4457 4.88133C18.2576 4.49613 18.044 4.12225 17.8054 3.76176C17.3412 3.06069 17.5338 2.11278 18.2353 1.64826C18.8278 1.25584 19.6285 1.33 20.1386 1.82473L21.4752 3.12043C22.9209 4.52222 24.0556 6.26081 24.756 8.14839L25.4838 10.1091C25.4852 10.1129 25.4866 10.116 25.488 10.1194C25.4897 10.1239 25.4917 10.1287 25.4935 10.1331C25.4986 10.1452 25.5034 10.1561 25.5086 10.1654C25.5226 10.1949 25.5381 10.2241 25.5566 10.2519C25.7702 10.5743 26.2041 10.6625 26.5262 10.449L33.989 5.50721C34.8377 4.94519 35.9854 5.17831 36.5474 6.027C37.1094 6.8757 36.8763 8.02343 36.0276 8.58545L35.3798 9.0146C35.3798 9.0146 35.3794 9.0146 35.3791 9.01494L33.934 9.97213C33.932 9.9735 33.9306 9.97487 33.9286 9.9759C33.9203 9.98174 33.9124 9.98723 33.9059 9.99273C33.6072 10.2121 33.53 10.6292 33.737 10.9417C33.9502 11.2641 34.3845 11.3523 34.7069 11.1387L36.1529 10.1809C36.5639 9.9093 37.0559 9.81351 37.5389 9.9117C38.022 10.0099 38.4384 10.2904 38.7104 10.7017C38.9826 11.1126 39.0787 11.6053 38.9806 12.0884C38.8824 12.5718 38.6019 12.9879 38.1906 13.2601L36.097 14.6468C35.7746 14.86 35.6864 15.294 35.8999 15.6164C36.0345 15.8196 36.257 15.9298 36.4839 15.9298C36.6164 15.9298 36.7507 15.892 36.8695 15.8134L37.1936 15.5988L38.3148 14.8562C39.1639 14.2942 40.3113 14.5273 40.8733 15.376C41.4353 16.2251 41.2022 17.3725 40.3535 17.9348L39.3077 18.6273C39.3022 18.6307 39.2968 18.6345 39.2913 18.6383L38.2599 19.3212C37.9375 19.5344 37.8493 19.9687 38.0629 20.291C38.1974 20.4943 38.4199 20.6045 38.6468 20.6045C38.7794 20.6045 38.9136 20.5667 39.0324 20.4881L39.3565 20.2735C39.3565 20.2735 39.3565 20.2732 39.3568 20.2732L40.4781 19.5309C40.8891 19.2587 41.3814 19.1625 41.8648 19.2611C42.3482 19.3589 42.7643 19.6398 43.0366 20.0507C43.3085 20.4617 43.4043 20.9543 43.3061 21.4374Z" fill="#0070E0"/>
</g>
<defs>
<clipPath id="clip0_26_91">
<rect width="45" height="45" fill="white"/>
</clipPath>
</defs>
</svg>
