<svg width="45" height="45" viewBox="0 0 45 45" fill="none" xmlns="http://www.w3.org/2000/svg">
<path d="M23.0876 24.5591C23.0043 24.5411 22.9189 24.5379 22.8345 24.5505C21.9894 24.4521 21.3518 23.737 21.3504 22.8865C21.3504 22.4788 21.0199 22.1483 20.6122 22.1483C20.2046 22.1483 19.8741 22.4788 19.8741 22.8865C19.8763 24.3069 20.8263 25.551 22.1959 25.9269V26.6651C22.1959 27.0727 22.5264 27.4032 22.934 27.4032C23.3417 27.4032 23.6722 27.0727 23.6722 26.6651V25.9716C25.2529 25.6408 26.3273 24.1685 26.1612 22.5621C25.9947 20.9557 24.6413 19.735 23.0263 19.7346C22.1007 19.7346 21.3504 18.9842 21.3504 18.0587C21.3504 17.1331 22.1007 16.3828 23.0263 16.3828C23.9518 16.3828 24.7022 17.1331 24.7022 18.0587C24.7022 18.4663 25.0327 18.7968 25.4403 18.7968C25.848 18.7968 26.1785 18.4663 26.1785 18.0587C26.1763 16.5673 25.1315 15.281 23.6722 14.9732V14.3014C23.6722 13.8937 23.3417 13.5632 22.934 13.5632C22.5264 13.5632 22.1959 13.8937 22.1959 14.3014V15.0182C20.6728 15.4341 19.6925 16.9129 19.9022 18.4779C20.112 20.0428 21.4473 21.2109 23.0263 21.2105C23.9396 21.2105 24.6846 21.9418 24.7011 22.8547C24.7181 23.7677 24.0001 24.526 23.0876 24.5591Z" fill="#0070E0"/>
<path d="M12.3228 20.5293C12.3228 26.4408 17.1148 31.2329 23.0264 31.2329C28.9379 31.2329 33.7299 26.4408 33.7299 20.5293C33.7299 14.6178 28.9379 9.82568 23.0264 9.82568C17.1177 9.83217 12.3296 14.6206 12.3228 20.5293ZM23.0264 11.3019C28.1226 11.3019 32.2537 15.433 32.2537 20.5293C32.2537 25.6256 28.1226 29.7566 23.0264 29.7566C17.9301 29.7566 13.799 25.6256 13.799 20.5293C13.8048 15.4355 17.9326 11.3077 23.0264 11.3019Z" fill="#0070E0"/>
<path d="M37.3686 33.0525L31.5865 35.7844C30.7882 34.2995 29.2568 33.3545 27.5715 33.3069L22.2337 33.1602C21.3885 33.1361 20.5592 32.922 19.8078 32.5338L19.2646 32.2524C16.4837 30.8028 13.1689 30.8064 10.3908 32.2617L10.4247 31.0313C10.4359 30.6236 10.1148 30.2841 9.70713 30.273L3.85399 30.1119C3.44636 30.1007 3.10721 30.4218 3.09604 30.8294L2.74247 43.6739C2.7313 44.0815 3.05243 44.4211 3.46006 44.4322L9.3132 44.5933H9.33338C9.73344 44.5933 10.0607 44.2751 10.0715 43.8754L10.0884 43.2609L11.609 42.4467C12.2059 42.1256 12.9037 42.0492 13.5556 42.2337L22.6359 44.7822C22.6518 44.7869 22.6677 44.7905 22.6839 44.7941C23.3402 44.9314 24.0091 45.0002 24.6795 44.9999C26.0995 45.0006 27.503 44.6946 28.7936 44.1021C28.8253 44.0877 28.856 44.0707 28.8852 44.0516L42.0508 35.5357C42.3787 35.3235 42.4847 34.8928 42.2926 34.5525C41.3152 32.8182 39.1473 32.1576 37.3686 33.0525ZM4.23855 42.9769L4.55139 31.6079L8.92863 31.7283L8.61579 43.0976L4.23855 42.9769ZM28.1287 42.7837C26.5252 43.5074 24.7343 43.7071 23.0108 43.3549L13.955 40.8129C12.9357 40.525 11.8448 40.6443 10.9124 41.1456L10.1353 41.5619L10.3433 34.0029C12.8056 32.3652 15.9636 32.1969 18.586 33.5632L19.1291 33.8447C20.0784 34.3348 21.1254 34.6051 22.1933 34.6361L27.5315 34.7828C29.0308 34.8261 30.3041 35.8936 30.6083 37.3627L22.6572 37.1432C22.2496 37.132 21.9104 37.4535 21.8989 37.8608C21.8877 38.2684 22.2092 38.6079 22.6165 38.6191L31.3911 38.8606H31.4117C31.8114 38.8602 32.1383 38.542 32.1491 38.1426C32.1581 37.8219 32.1343 37.5007 32.0777 37.185L38.0084 34.3828C38.0141 34.3802 38.0199 34.3774 38.0257 34.3745C38.8669 33.9488 39.884 34.0912 40.576 34.7317L28.1287 42.7837Z" fill="#0070E0"/>
<path d="M23.7643 7.75036V0.73813C23.7643 0.330501 23.4338 0 23.0262 0C22.6186 0 22.2881 0.330501 22.2881 0.73813V7.75036C22.2881 8.15799 22.6186 8.48849 23.0262 8.48849C23.4338 8.48849 23.7643 8.15799 23.7643 7.75036Z" fill="#0070E0"/>
<path d="M29.3 7.75039V4.4288C29.3 4.02117 28.9695 3.69067 28.5619 3.69067C28.1542 3.69067 27.8237 4.02117 27.8237 4.4288V7.75039C27.8237 8.15802 28.1542 8.48852 28.5619 8.48852C28.9695 8.48852 29.3 8.15802 29.3 7.75039Z" fill="#0070E0"/>
<path d="M18.2282 7.75039V4.4288C18.2282 4.02117 17.8977 3.69067 17.4901 3.69067C17.0825 3.69067 16.752 4.02117 16.752 4.4288V7.75039C16.752 8.15802 17.0825 8.48852 17.4901 8.48852C17.8977 8.48852 18.2282 8.15802 18.2282 7.75039Z" fill="#0070E0"/>
</svg>
