<svg width="178" height="176" viewBox="0 0 178 176" fill="none" xmlns="http://www.w3.org/2000/svg">
<rect width="178" height="176" rx="10" fill="white"/>
<rect x="0.5" y="0.5" width="177" height="175" rx="9.5" stroke="#A9B7C8" stroke-opacity="0.5"/>
<path d="M17.328 117.8H22.416C23.632 117.8 24.704 118.035 25.632 118.504C26.5707 118.963 27.296 119.613 27.808 120.456C28.3307 121.299 28.592 122.28 28.592 123.4C28.592 124.52 28.3307 125.501 27.808 126.344C27.296 127.187 26.5707 127.843 25.632 128.312C24.704 128.771 23.632 129 22.416 129H17.328V117.8ZM22.288 126.872C23.408 126.872 24.2987 126.563 24.96 125.944C25.632 125.315 25.968 124.467 25.968 123.4C25.968 122.333 25.632 121.491 24.96 120.872C24.2987 120.243 23.408 119.928 22.288 119.928H19.92V126.872H22.288ZM38.8028 124.728C38.8028 124.76 38.7868 124.984 38.7548 125.4H32.2428C32.3601 125.933 32.6374 126.355 33.0748 126.664C33.5121 126.973 34.0561 127.128 34.7068 127.128C35.1548 127.128 35.5494 127.064 35.8908 126.936C36.2428 126.797 36.5681 126.584 36.8668 126.296L38.1948 127.736C37.3841 128.664 36.2001 129.128 34.6428 129.128C33.6721 129.128 32.8134 128.941 32.0668 128.568C31.3201 128.184 30.7441 127.656 30.3388 126.984C29.9334 126.312 29.7308 125.549 29.7308 124.696C29.7308 123.853 29.9281 123.096 30.3228 122.424C30.7281 121.741 31.2774 121.213 31.9708 120.84C32.6748 120.456 33.4588 120.264 34.3228 120.264C35.1654 120.264 35.9281 120.445 36.6108 120.808C37.2934 121.171 37.8268 121.693 38.2108 122.376C38.6054 123.048 38.8028 123.832 38.8028 124.728ZM34.3388 122.152C33.7734 122.152 33.2988 122.312 32.9148 122.632C32.5308 122.952 32.2961 123.389 32.2108 123.944H36.4508C36.3654 123.4 36.1308 122.968 35.7468 122.648C35.3628 122.317 34.8934 122.152 34.3388 122.152ZM40.4645 120.392H42.9605V129H40.4645V120.392ZM41.7125 119.192C41.2538 119.192 40.8805 119.059 40.5925 118.792C40.3045 118.525 40.1605 118.195 40.1605 117.8C40.1605 117.405 40.3045 117.075 40.5925 116.808C40.8805 116.541 41.2538 116.408 41.7125 116.408C42.1712 116.408 42.5445 116.536 42.8325 116.792C43.1205 117.048 43.2645 117.368 43.2645 117.752C43.2645 118.168 43.1205 118.515 42.8325 118.792C42.5445 119.059 42.1712 119.192 41.7125 119.192ZM50.509 120.264C51.5757 120.264 52.4343 120.584 53.085 121.224C53.7463 121.864 54.077 122.813 54.077 124.072V129H51.581V124.456C51.581 123.773 51.4317 123.267 51.133 122.936C50.8343 122.595 50.4023 122.424 49.837 122.424C49.2077 122.424 48.7063 122.621 48.333 123.016C47.9597 123.4 47.773 123.976 47.773 124.744V129H45.277V120.392H47.661V121.4C47.9917 121.037 48.4023 120.76 48.893 120.568C49.3837 120.365 49.9223 120.264 50.509 120.264ZM65.2013 117.128V129H62.8173V128.008C62.1986 128.755 61.3026 129.128 60.1293 129.128C59.3186 129.128 58.5826 128.947 57.9213 128.584C57.2706 128.221 56.7586 127.704 56.3853 127.032C56.0119 126.36 55.8253 125.581 55.8253 124.696C55.8253 123.811 56.0119 123.032 56.3853 122.36C56.7586 121.688 57.2706 121.171 57.9213 120.808C58.5826 120.445 59.3186 120.264 60.1293 120.264C61.2279 120.264 62.0866 120.611 62.7053 121.304V117.128H65.2013ZM60.5613 127.08C61.1906 127.08 61.7133 126.867 62.1293 126.44C62.5453 126.003 62.7533 125.421 62.7533 124.696C62.7533 123.971 62.5453 123.395 62.1293 122.968C61.7133 122.531 61.1906 122.312 60.5613 122.312C59.9213 122.312 59.3933 122.531 58.9773 122.968C58.5613 123.395 58.3533 123.971 58.3533 124.696C58.3533 125.421 58.5613 126.003 58.9773 126.44C59.3933 126.867 59.9213 127.08 60.5613 127.08ZM75.9434 124.728C75.9434 124.76 75.9274 124.984 75.8954 125.4H69.3834C69.5007 125.933 69.778 126.355 70.2154 126.664C70.6527 126.973 71.1967 127.128 71.8474 127.128C72.2954 127.128 72.69 127.064 73.0314 126.936C73.3834 126.797 73.7087 126.584 74.0074 126.296L75.3354 127.736C74.5247 128.664 73.3407 129.128 71.7834 129.128C70.8127 129.128 69.954 128.941 69.2074 128.568C68.4607 128.184 67.8847 127.656 67.4794 126.984C67.074 126.312 66.8714 125.549 66.8714 124.696C66.8714 123.853 67.0687 123.096 67.4634 122.424C67.8687 121.741 68.418 121.213 69.1114 120.84C69.8154 120.456 70.5994 120.264 71.4634 120.264C72.306 120.264 73.0687 120.445 73.7514 120.808C74.434 121.171 74.9674 121.693 75.3514 122.376C75.746 123.048 75.9434 123.832 75.9434 124.728ZM71.4794 122.152C70.914 122.152 70.4394 122.312 70.0554 122.632C69.6714 122.952 69.4367 123.389 69.3514 123.944H73.5914C73.506 123.4 73.2714 122.968 72.8874 122.648C72.5034 122.317 72.034 122.152 71.4794 122.152ZM86.3731 117.128V129H83.9891V128.008C83.3705 128.755 82.4745 129.128 81.3011 129.128C80.4905 129.128 79.7545 128.947 79.0931 128.584C78.4425 128.221 77.9305 127.704 77.5571 127.032C77.1838 126.36 76.9971 125.581 76.9971 124.696C76.9971 123.811 77.1838 123.032 77.5571 122.36C77.9305 121.688 78.4425 121.171 79.0931 120.808C79.7545 120.445 80.4905 120.264 81.3011 120.264C82.3998 120.264 83.2585 120.611 83.8771 121.304V117.128H86.3731ZM81.7331 127.08C82.3625 127.08 82.8851 126.867 83.3011 126.44C83.7171 126.003 83.9251 125.421 83.9251 124.696C83.9251 123.971 83.7171 123.395 83.3011 122.968C82.8851 122.531 82.3625 122.312 81.7331 122.312C81.0931 122.312 80.5651 122.531 80.1491 122.968C79.7331 123.395 79.5251 123.971 79.5251 124.696C79.5251 125.421 79.7331 126.003 80.1491 126.44C80.5651 126.867 81.0931 127.08 81.7331 127.08ZM98.3025 120.264C99.1025 120.264 99.8278 120.451 100.479 120.824C101.14 121.187 101.657 121.704 102.031 122.376C102.404 123.037 102.591 123.811 102.591 124.696C102.591 125.581 102.404 126.36 102.031 127.032C101.657 127.693 101.14 128.211 100.479 128.584C99.8278 128.947 99.1025 129.128 98.3025 129.128C97.1185 129.128 96.2172 128.755 95.5985 128.008V129H93.2145V117.128H95.7105V121.304C96.3398 120.611 97.2038 120.264 98.3025 120.264ZM97.8705 127.08C98.5105 127.08 99.0332 126.867 99.4385 126.44C99.8545 126.003 100.062 125.421 100.062 124.696C100.062 123.971 99.8545 123.395 99.4385 122.968C99.0332 122.531 98.5105 122.312 97.8705 122.312C97.2305 122.312 96.7025 122.531 96.2865 122.968C95.8812 123.395 95.6785 123.971 95.6785 124.696C95.6785 125.421 95.8812 126.003 96.2865 126.44C96.7025 126.867 97.2305 127.08 97.8705 127.08ZM108.357 129.128C107.451 129.128 106.635 128.941 105.909 128.568C105.195 128.184 104.635 127.656 104.229 126.984C103.824 126.312 103.621 125.549 103.621 124.696C103.621 123.843 103.824 123.08 104.229 122.408C104.635 121.736 105.195 121.213 105.909 120.84C106.635 120.456 107.451 120.264 108.357 120.264C109.264 120.264 110.075 120.456 110.789 120.84C111.504 121.213 112.064 121.736 112.469 122.408C112.875 123.08 113.077 123.843 113.077 124.696C113.077 125.549 112.875 126.312 112.469 126.984C112.064 127.656 111.504 128.184 110.789 128.568C110.075 128.941 109.264 129.128 108.357 129.128ZM108.357 127.08C108.997 127.08 109.52 126.867 109.925 126.44C110.341 126.003 110.549 125.421 110.549 124.696C110.549 123.971 110.341 123.395 109.925 122.968C109.52 122.531 108.997 122.312 108.357 122.312C107.717 122.312 107.189 122.531 106.773 122.968C106.357 123.395 106.149 123.971 106.149 124.696C106.149 125.421 106.357 126.003 106.773 126.44C107.189 126.867 107.717 127.08 108.357 127.08ZM118.077 120.264C119.41 120.264 120.434 120.584 121.149 121.224C121.864 121.853 122.221 122.808 122.221 124.088V129H119.885V127.928C119.416 128.728 118.541 129.128 117.261 129.128C116.6 129.128 116.024 129.016 115.533 128.792C115.053 128.568 114.685 128.259 114.429 127.864C114.173 127.469 114.045 127.021 114.045 126.52C114.045 125.72 114.344 125.091 114.941 124.632C115.549 124.173 116.482 123.944 117.741 123.944H119.725C119.725 123.4 119.56 122.984 119.229 122.696C118.898 122.397 118.402 122.248 117.741 122.248C117.282 122.248 116.829 122.323 116.381 122.472C115.944 122.611 115.57 122.803 115.261 123.048L114.365 121.304C114.834 120.973 115.394 120.717 116.045 120.536C116.706 120.355 117.384 120.264 118.077 120.264ZM117.885 127.448C118.312 127.448 118.69 127.352 119.021 127.16C119.352 126.957 119.586 126.664 119.725 126.28V125.4H118.013C116.989 125.4 116.477 125.736 116.477 126.408C116.477 126.728 116.6 126.984 116.845 127.176C117.101 127.357 117.448 127.448 117.885 127.448ZM126.864 121.528C127.163 121.112 127.563 120.797 128.064 120.584C128.576 120.371 129.163 120.264 129.824 120.264V122.568C129.547 122.547 129.36 122.536 129.264 122.536C128.549 122.536 127.989 122.739 127.584 123.144C127.179 123.539 126.976 124.136 126.976 124.936V129H124.48V120.392H126.864V121.528ZM139.998 117.128V129H137.614V128.008C136.995 128.755 136.099 129.128 134.926 129.128C134.115 129.128 133.379 128.947 132.718 128.584C132.067 128.221 131.555 127.704 131.182 127.032C130.809 126.36 130.622 125.581 130.622 124.696C130.622 123.811 130.809 123.032 131.182 122.36C131.555 121.688 132.067 121.171 132.718 120.808C133.379 120.445 134.115 120.264 134.926 120.264C136.025 120.264 136.883 120.611 137.502 121.304V117.128H139.998ZM135.358 127.08C135.987 127.08 136.51 126.867 136.926 126.44C137.342 126.003 137.55 125.421 137.55 124.696C137.55 123.971 137.342 123.395 136.926 122.968C136.51 122.531 135.987 122.312 135.358 122.312C134.718 122.312 134.19 122.531 133.774 122.968C133.358 123.395 133.15 123.971 133.15 124.696C133.15 125.421 133.358 126.003 133.774 126.44C134.19 126.867 134.718 127.08 135.358 127.08ZM142.308 120.392H144.804V129H142.308V120.392ZM143.556 119.192C143.098 119.192 142.724 119.059 142.436 118.792C142.148 118.525 142.004 118.195 142.004 117.8C142.004 117.405 142.148 117.075 142.436 116.808C142.724 116.541 143.098 116.408 143.556 116.408C144.015 116.408 144.388 116.536 144.676 116.792C144.964 117.048 145.108 117.368 145.108 117.752C145.108 118.168 144.964 118.515 144.676 118.792C144.388 119.059 144.015 119.192 143.556 119.192ZM152.353 120.264C153.419 120.264 154.278 120.584 154.929 121.224C155.59 121.864 155.921 122.813 155.921 124.072V129H153.425V124.456C153.425 123.773 153.275 123.267 152.977 122.936C152.678 122.595 152.246 122.424 151.681 122.424C151.051 122.424 150.55 122.621 150.177 123.016C149.803 123.4 149.617 123.976 149.617 124.744V129H147.121V120.392H149.505V121.4C149.835 121.037 150.246 120.76 150.737 120.568C151.227 120.365 151.766 120.264 152.353 120.264ZM167.157 120.392V127.56C167.157 129.139 166.746 130.312 165.925 131.08C165.104 131.848 163.904 132.232 162.325 132.232C161.493 132.232 160.704 132.131 159.957 131.928C159.21 131.725 158.592 131.432 158.101 131.048L159.093 129.256C159.456 129.555 159.914 129.789 160.469 129.96C161.024 130.141 161.578 130.232 162.133 130.232C162.997 130.232 163.632 130.035 164.037 129.64C164.453 129.256 164.661 128.669 164.661 127.88V127.512C164.01 128.227 163.104 128.584 161.941 128.584C161.152 128.584 160.426 128.413 159.765 128.072C159.114 127.72 158.597 127.229 158.213 126.6C157.829 125.971 157.637 125.245 157.637 124.424C157.637 123.603 157.829 122.877 158.213 122.248C158.597 121.619 159.114 121.133 159.765 120.792C160.426 120.44 161.152 120.264 161.941 120.264C163.189 120.264 164.138 120.675 164.789 121.496V120.392H167.157ZM162.437 126.536C163.098 126.536 163.637 126.344 164.053 125.96C164.48 125.565 164.693 125.053 164.693 124.424C164.693 123.795 164.48 123.288 164.053 122.904C163.637 122.509 163.098 122.312 162.437 122.312C161.776 122.312 161.232 122.509 160.805 122.904C160.378 123.288 160.165 123.795 160.165 124.424C160.165 125.053 160.378 125.565 160.805 125.96C161.232 126.344 161.776 126.536 162.437 126.536Z" fill="#686361"/>
<g clip-path="url(#clip0_126_30)">
<path fill-rule="evenodd" clip-rule="evenodd" d="M72.0098 68.5499L79.4582 66.7083L83.8874 65.6131L83.7772 59.7673L72.0098 66.0392V68.5499Z" fill="#37BBDA"/>
<path fill-rule="evenodd" clip-rule="evenodd" d="M90.5664 65.6132L90.7425 56.2827L106.575 64.7209V67.9004C104.871 66.7197 102.804 66.0272 100.574 66.0272C98.9964 66.0272 97.5002 66.3743 96.1557 66.9954L94.9953 66.7084L90.5664 65.6132Z" fill="#37BBDA"/>
<path fill-rule="evenodd" clip-rule="evenodd" d="M102.947 66.2971C98.2743 67.3786 94.7734 71.5805 94.7734 76.5741C94.7734 81.5674 98.2743 85.7694 102.947 86.8508C107.62 85.7694 111.121 81.5674 111.121 76.5741C111.121 71.5805 107.62 67.3786 102.947 66.2971Z" fill="#F95C4B"/>
<path fill-rule="evenodd" clip-rule="evenodd" d="M87.2151 80.1436L91.2674 81.5396C90.4764 80.0599 90.0276 78.3693 90.0276 76.5741C90.0276 75.6976 90.1354 74.8465 90.337 74.0325V74.0291L90.5423 65.6132L90.7428 56.2583L90.7977 53.6995L90.9282 47.5918C90.9392 47.0882 90.8423 46.6068 90.6604 46.1677C88.6887 46.2515 87.0627 47.8881 87.1053 49.877L87.221 55.2781L87.315 58.5679L87.4912 67.8983L87.7229 77.384L83.832 80.753V81.3092L87.2151 80.1436Z" fill="#69DAF4"/>
<path d="M107.43 67.4391V64.721C107.43 64.3969 107.251 64.0992 106.966 63.9461L91.6327 55.7383L91.8064 47.6108C91.8322 46.4102 91.3756 45.2676 90.5204 44.3939C89.6531 43.5078 88.4481 43 87.2142 43C85.9809 43 84.7762 43.5081 83.909 44.3939C83.0538 45.2676 82.5972 46.4099 82.6226 47.6108L82.7386 53.0185L82.8172 55.7634L67.4655 63.9454C67.1789 64.0982 67 64.3962 67 64.721V69.5718C67 69.842 67.1243 70.0974 67.3371 70.2639C67.55 70.4305 67.8274 70.4899 68.0897 70.425L78.5792 67.8312V68.8007C78.5792 69.2862 78.9727 69.6796 79.4582 69.6796C79.9436 69.6796 80.3371 69.2862 80.3371 68.8007V67.3965L83.0356 66.7291L83.2306 74.7059L79.6528 77.8037C79.4599 77.9705 79.349 78.2129 79.349 78.468V82.5508C79.349 82.8347 79.4863 83.1011 79.7177 83.2663C79.8684 83.3737 80.0473 83.4297 80.2282 83.4297C80.3244 83.4297 80.4208 83.4136 80.5142 83.3816L87.2148 81.0735L90.668 82.2631C92.6431 85.6888 96.3438 87.9997 100.574 87.9997C106.875 87.9997 112 82.8742 112 76.5739C112 72.844 110.203 69.5258 107.43 67.4391ZM105.672 65.2477V66.3463C104.628 65.8244 103.513 65.4691 102.36 65.2882C102.339 65.2851 102.318 65.2813 102.297 65.2782C102.231 65.2683 102.166 65.2593 102.1 65.2504C102.06 65.2453 102.022 65.2401 101.983 65.2353C101.925 65.2281 101.868 65.2216 101.81 65.2154C101.761 65.2102 101.713 65.2051 101.664 65.2006C101.612 65.1958 101.561 65.191 101.509 65.1869C101.452 65.1821 101.395 65.1783 101.338 65.1745C101.293 65.1714 101.247 65.1684 101.201 65.1656C101.135 65.1622 101.067 65.1594 101 65.157C100.963 65.1556 100.926 65.1539 100.889 65.1529C100.785 65.1502 100.68 65.1481 100.574 65.1481C99.0066 65.1481 97.4912 65.4595 96.065 66.0733L95.8498 66.0205V65.1941C95.8498 64.7086 95.4563 64.3152 94.9708 64.3152C94.4857 64.3152 94.0919 64.7086 94.0919 65.1941V65.5858L91.4357 64.9287L91.5905 57.7093L105.672 65.2477ZM91.3938 66.7291L93.8561 67.3382C92.8821 68.0485 92.0241 68.9089 91.3169 69.8853L91.3938 66.7291ZM79.4582 64.3152C78.9727 64.3152 78.5792 64.709 78.5792 65.1941V66.0205L68.7578 68.4491V65.2487L82.8598 57.7327L82.9954 64.9284L80.3371 65.5858V65.1941C80.3371 64.7086 79.9436 64.3152 79.4582 64.3152ZM89.6954 80.0686L87.5008 79.3129C87.3154 79.2487 87.1139 79.2487 86.9285 79.3129L81.1068 81.3183V78.8697L84.6945 75.7636C84.893 75.5916 85.0042 75.34 84.998 75.0773L84.7663 65.5917L84.5901 56.266C84.5901 56.2643 84.5898 56.2629 84.5898 56.2612C84.5898 56.2598 84.5898 56.2588 84.5898 56.2574L84.38 47.5731C84.3646 46.8486 84.6434 46.1562 85.1652 45.6233C85.7039 45.0733 86.4506 44.7575 87.2148 44.7575C87.9787 44.7575 88.7255 45.073 89.2641 45.6233C89.786 46.1562 90.0648 46.8486 90.0493 47.5731L89.8639 56.2396L89.6634 65.5913L89.4602 73.9166C89.4564 73.9327 89.4533 73.9488 89.4495 73.965C89.4355 74.025 89.4221 74.0855 89.409 74.1459C89.4008 74.184 89.3919 74.2221 89.384 74.2602C89.363 74.3618 89.3434 74.4642 89.3252 74.5668C89.3228 74.5788 89.3211 74.5912 89.3191 74.6032C89.3029 74.6956 89.2878 74.7879 89.2741 74.8806C89.2703 74.9067 89.2669 74.9328 89.2631 74.9589C89.2518 75.0378 89.2411 75.1172 89.2315 75.1968C89.2281 75.2274 89.2247 75.2579 89.2212 75.2885C89.2126 75.3637 89.2051 75.4392 89.1979 75.5147C89.1951 75.5473 89.192 75.58 89.1893 75.6129C89.1831 75.6867 89.178 75.7609 89.1732 75.835C89.1711 75.8683 89.1687 75.9016 89.1666 75.935C89.1625 76.0119 89.1594 76.0888 89.1567 76.166C89.1556 76.1959 89.1539 76.2254 89.1532 76.2553C89.1502 76.3614 89.1484 76.4674 89.1484 76.5739C89.1484 76.7091 89.1519 76.8434 89.1563 76.9776C89.1574 77.0037 89.1584 77.0298 89.1594 77.0562C89.2027 78.0951 89.3853 79.099 89.6895 80.049C89.6916 80.0555 89.6933 80.0624 89.6954 80.0686ZM100.574 86.2422C96.4228 86.2422 92.8742 83.6113 91.5071 79.9299C91.4985 79.9065 91.4899 79.8835 91.4817 79.8602C91.4641 79.8118 91.447 79.763 91.4302 79.7139C91.4116 79.6597 91.3934 79.6054 91.3759 79.5512C91.3677 79.5265 91.3598 79.5017 91.3519 79.477C91.1479 78.8271 91.0123 78.1556 90.9485 77.4751C90.9478 77.4658 90.9471 77.4566 90.9461 77.4473C90.9385 77.3659 90.9327 77.2842 90.9272 77.2022C90.9258 77.1819 90.9244 77.162 90.9234 77.1417C90.9193 77.0683 90.9159 76.9948 90.9131 76.9213C90.9124 76.8987 90.9114 76.8763 90.9107 76.8537C90.908 76.7603 90.9062 76.6673 90.9062 76.5742C90.9062 76.4822 90.908 76.3905 90.9107 76.2985C90.9114 76.2714 90.9128 76.245 90.9135 76.2182C90.9159 76.1523 90.919 76.0867 90.9227 76.0208C90.9244 75.9909 90.9262 75.961 90.9282 75.9312C90.9327 75.8673 90.9375 75.8038 90.9426 75.7399C90.9454 75.7111 90.9478 75.6823 90.9505 75.6534C90.9567 75.5861 90.9643 75.5188 90.9718 75.4519C90.9749 75.4275 90.9773 75.4028 90.9804 75.3788C90.9911 75.2916 91.0031 75.2044 91.0161 75.1175C91.0168 75.1137 91.0171 75.1099 91.0178 75.1062C91.0312 75.0183 91.046 74.9311 91.0618 74.8439C91.0686 74.8061 91.0762 74.7687 91.0834 74.7309C91.0927 74.6835 91.1019 74.6358 91.1119 74.5881C91.1219 74.5404 91.1325 74.493 91.1431 74.4456C91.1507 74.4109 91.1589 74.3766 91.1668 74.3423C92.1216 70.3182 95.5978 67.2595 99.8278 66.9347C99.8381 66.9341 99.8484 66.9334 99.8587 66.9327C99.9291 66.9275 100 66.9231 100.071 66.9193C100.102 66.9179 100.133 66.9169 100.163 66.9155C100.215 66.9135 100.268 66.9111 100.32 66.9097C100.404 66.9076 100.488 66.9062 100.573 66.9062H100.575C100.683 66.9062 100.792 66.9087 100.9 66.9124C100.93 66.9135 100.959 66.9145 100.988 66.9159C101.084 66.9196 101.18 66.9251 101.276 66.932C101.289 66.933 101.303 66.9334 101.317 66.9344C101.418 66.9423 101.519 66.9523 101.62 66.9629C101.658 66.967 101.697 66.9715 101.735 66.9763C101.807 66.9849 101.878 66.9941 101.95 67.0044C102.008 67.013 102.066 67.0216 102.123 67.0309C102.188 67.0412 102.253 67.0522 102.317 67.0638C102.373 67.0741 102.428 67.0848 102.483 67.0958C102.521 67.1033 102.559 67.1116 102.597 67.1198C102.721 67.1462 102.845 67.1747 102.968 67.206C102.976 67.2084 102.984 67.2101 102.993 67.2122C107.157 68.2885 110.243 72.0777 110.243 76.5742C110.242 81.905 105.905 86.2422 100.574 86.2422Z" fill="black"/>
<path d="M104.235 72.913C103.892 72.57 103.335 72.57 102.992 72.913L100.574 75.331L98.1556 72.913C97.8126 72.5697 97.2561 72.5697 96.9128 72.913C96.5694 73.256 96.5694 73.8125 96.9128 74.1558L99.3308 76.5742L96.9128 78.9922C96.5694 79.3355 96.5694 79.8921 96.9128 80.2354C97.0844 80.4071 97.3093 80.4929 97.5342 80.4929C97.7591 80.4929 97.9839 80.4071 98.1556 80.2354L100.574 77.817L102.992 80.2354C103.164 80.4071 103.389 80.4929 103.613 80.4929C103.838 80.4929 104.063 80.4071 104.235 80.2354C104.578 79.8921 104.578 79.3355 104.235 78.9922L101.817 76.5742L104.235 74.1558C104.578 73.8129 104.578 73.2563 104.235 72.913Z" fill="black"/>
<path d="M80.3379 62.6484C80.3379 62.163 79.9444 61.7695 79.459 61.7695C78.9735 61.7695 78.5801 62.163 78.5801 62.6484V62.669C78.5801 63.1545 78.9735 63.5479 79.459 63.5479C79.9444 63.5479 80.3379 63.1545 80.3379 62.669V62.6484Z" fill="black"/>
<path d="M94.9707 63.5479C95.4562 63.5479 95.8496 63.1545 95.8496 62.669V62.6484C95.8496 62.163 95.4562 61.7695 94.9707 61.7695C94.4852 61.7695 94.0918 62.163 94.0918 62.6484V62.669C94.0918 63.1545 94.4852 63.5479 94.9707 63.5479Z" fill="black"/>
</g>
<defs>
<clipPath id="clip0_126_30">
<rect width="45" height="45" fill="white" transform="translate(67 43)"/>
</clipPath>
</defs>
</svg>
