<svg width="178" height="176" viewBox="0 0 178 176" fill="none" xmlns="http://www.w3.org/2000/svg">
<rect width="178" height="176" rx="10" fill="white"/>
<rect x="0.5" y="0.5" width="177" height="175" rx="9.5" stroke="#A9B7C8" stroke-opacity="0.5"/>
<path d="M35.92 119.88V122.84H41.104V124.92H35.92V129H33.328V117.8H41.792V119.88H35.92ZM43.3708 117.128H45.8668V129H43.3708V117.128ZM48.1833 120.392H50.6793V129H48.1833V120.392ZM49.4313 119.192C48.9726 119.192 48.5993 119.059 48.3113 118.792C48.0233 118.525 47.8793 118.195 47.8793 117.8C47.8793 117.405 48.0233 117.075 48.3113 116.808C48.5993 116.541 48.9726 116.408 49.4313 116.408C49.8899 116.408 50.2633 116.536 50.5513 116.792C50.8393 117.048 50.9833 117.368 50.9833 117.752C50.9833 118.168 50.8393 118.515 50.5513 118.792C50.2633 119.059 49.8899 119.192 49.4313 119.192ZM61.8758 120.392V127.56C61.8758 129.139 61.4651 130.312 60.6438 131.08C59.8224 131.848 58.6224 132.232 57.0438 132.232C56.2118 132.232 55.4224 132.131 54.6758 131.928C53.9291 131.725 53.3104 131.432 52.8198 131.048L53.8118 129.256C54.1744 129.555 54.6331 129.789 55.1878 129.96C55.7424 130.141 56.2971 130.232 56.8518 130.232C57.7158 130.232 58.3504 130.035 58.7558 129.64C59.1718 129.256 59.3798 128.669 59.3798 127.88V127.512C58.7291 128.227 57.8224 128.584 56.6598 128.584C55.8704 128.584 55.1451 128.413 54.4838 128.072C53.8331 127.72 53.3158 127.229 52.9318 126.6C52.5478 125.971 52.3558 125.245 52.3558 124.424C52.3558 123.603 52.5478 122.877 52.9318 122.248C53.3158 121.619 53.8331 121.133 54.4838 120.792C55.1451 120.44 55.8704 120.264 56.6598 120.264C57.9078 120.264 58.8571 120.675 59.5078 121.496V120.392H61.8758ZM57.1558 126.536C57.8171 126.536 58.3558 126.344 58.7718 125.96C59.1984 125.565 59.4118 125.053 59.4118 124.424C59.4118 123.795 59.1984 123.288 58.7718 122.904C58.3558 122.509 57.8171 122.312 57.1558 122.312C56.4944 122.312 55.9504 122.509 55.5238 122.904C55.0971 123.288 54.8838 123.795 54.8838 124.424C54.8838 125.053 55.0971 125.565 55.5238 125.96C55.9504 126.344 56.4944 126.536 57.1558 126.536ZM69.4309 120.264C70.4975 120.264 71.3562 120.584 72.0069 121.224C72.6682 121.864 72.9989 122.813 72.9989 124.072V129H70.5029V124.456C70.5029 123.773 70.3535 123.267 70.0549 122.936C69.7562 122.595 69.3242 122.424 68.7589 122.424C68.1295 122.424 67.6282 122.621 67.2549 123.016C66.8815 123.4 66.6949 123.976 66.6949 124.744V129H64.1989V117.128H66.6949V121.288C67.0255 120.957 67.4255 120.707 67.8949 120.536C68.3642 120.355 68.8762 120.264 69.4309 120.264ZM80.8134 128.584C80.568 128.765 80.264 128.904 79.9014 129C79.5494 129.085 79.176 129.128 78.7814 129.128C77.7574 129.128 76.9627 128.867 76.3974 128.344C75.8427 127.821 75.5654 127.053 75.5654 126.04V122.504H74.2374V120.584H75.5654V118.488H78.0614V120.584H80.2054V122.504H78.0614V126.008C78.0614 126.371 78.152 126.653 78.3334 126.856C78.5254 127.048 78.792 127.144 79.1334 127.144C79.528 127.144 79.864 127.037 80.1414 126.824L80.8134 128.584ZM90.8418 129.128C89.9351 129.128 89.1191 128.941 88.3938 128.568C87.6791 128.184 87.1191 127.656 86.7138 126.984C86.3084 126.312 86.1058 125.549 86.1058 124.696C86.1058 123.843 86.3084 123.08 86.7138 122.408C87.1191 121.736 87.6791 121.213 88.3938 120.84C89.1191 120.456 89.9351 120.264 90.8418 120.264C91.7484 120.264 92.5591 120.456 93.2738 120.84C93.9884 121.213 94.5484 121.736 94.9538 122.408C95.3591 123.08 95.5618 123.843 95.5618 124.696C95.5618 125.549 95.3591 126.312 94.9538 126.984C94.5484 127.656 93.9884 128.184 93.2738 128.568C92.5591 128.941 91.7484 129.128 90.8418 129.128ZM90.8418 127.08C91.4818 127.08 92.0044 126.867 92.4098 126.44C92.8258 126.003 93.0338 125.421 93.0338 124.696C93.0338 123.971 92.8258 123.395 92.4098 122.968C92.0044 122.531 91.4818 122.312 90.8418 122.312C90.2018 122.312 89.6738 122.531 89.2578 122.968C88.8418 123.395 88.6338 123.971 88.6338 124.696C88.6338 125.421 88.8418 126.003 89.2578 126.44C89.6738 126.867 90.2018 127.08 90.8418 127.08ZM102.462 120.264C103.529 120.264 104.387 120.584 105.038 121.224C105.699 121.864 106.03 122.813 106.03 124.072V129H103.534V124.456C103.534 123.773 103.385 123.267 103.086 122.936C102.787 122.595 102.355 122.424 101.79 122.424C101.161 122.424 100.659 122.621 100.286 123.016C99.9128 123.4 99.7261 123.976 99.7261 124.744V129H97.2301V120.392H99.6141V121.4C99.9448 121.037 100.355 120.76 100.846 120.568C101.337 120.365 101.875 120.264 102.462 120.264ZM118.376 128.584C118.131 128.765 117.827 128.904 117.464 129C117.112 129.085 116.739 129.128 116.344 129.128C115.32 129.128 114.525 128.867 113.96 128.344C113.405 127.821 113.128 127.053 113.128 126.04V122.504H111.8V120.584H113.128V118.488H115.624V120.584H117.768V122.504H115.624V126.008C115.624 126.371 115.715 126.653 115.896 126.856C116.088 127.048 116.355 127.144 116.696 127.144C117.091 127.144 117.427 127.037 117.704 126.824L118.376 128.584ZM119.777 120.392H122.273V129H119.777V120.392ZM121.025 119.192C120.566 119.192 120.193 119.059 119.905 118.792C119.617 118.525 119.473 118.195 119.473 117.8C119.473 117.405 119.617 117.075 119.905 116.808C120.193 116.541 120.566 116.408 121.025 116.408C121.484 116.408 121.857 116.536 122.145 116.792C122.433 117.048 122.577 117.368 122.577 117.752C122.577 118.168 122.433 118.515 122.145 118.792C121.857 119.059 121.484 119.192 121.025 119.192ZM135.614 120.264C136.691 120.264 137.544 120.584 138.174 121.224C138.814 121.853 139.134 122.803 139.134 124.072V129H136.638V124.456C136.638 123.773 136.494 123.267 136.206 122.936C135.928 122.595 135.528 122.424 135.006 122.424C134.419 122.424 133.955 122.616 133.614 123C133.272 123.373 133.102 123.933 133.102 124.68V129H130.606V124.456C130.606 123.101 130.062 122.424 128.974 122.424C128.398 122.424 127.939 122.616 127.598 123C127.256 123.373 127.086 123.933 127.086 124.68V129H124.59V120.392H126.974V121.384C127.294 121.021 127.683 120.744 128.141 120.552C128.611 120.36 129.123 120.264 129.678 120.264C130.286 120.264 130.835 120.387 131.326 120.632C131.816 120.867 132.211 121.213 132.51 121.672C132.862 121.224 133.304 120.877 133.838 120.632C134.382 120.387 134.974 120.264 135.614 120.264ZM149.897 124.728C149.897 124.76 149.881 124.984 149.849 125.4H143.337C143.454 125.933 143.731 126.355 144.169 126.664C144.606 126.973 145.15 127.128 145.801 127.128C146.249 127.128 146.643 127.064 146.985 126.936C147.337 126.797 147.662 126.584 147.961 126.296L149.289 127.736C148.478 128.664 147.294 129.128 145.737 129.128C144.766 129.128 143.907 128.941 143.161 128.568C142.414 128.184 141.838 127.656 141.433 126.984C141.027 126.312 140.825 125.549 140.825 124.696C140.825 123.853 141.022 123.096 141.417 122.424C141.822 121.741 142.371 121.213 143.065 120.84C143.769 120.456 144.553 120.264 145.417 120.264C146.259 120.264 147.022 120.445 147.705 120.808C148.387 121.171 148.921 121.693 149.305 122.376C149.699 123.048 149.897 123.832 149.897 124.728ZM145.433 122.152C144.867 122.152 144.393 122.312 144.009 122.632C143.625 122.952 143.39 123.389 143.305 123.944H147.545C147.459 123.4 147.225 122.968 146.841 122.648C146.457 122.317 145.987 122.152 145.433 122.152Z" fill="#686361"/>
<g clip-path="url(#clip0_126_24)">
<path fill-rule="evenodd" clip-rule="evenodd" d="M71.9053 68.576L79.4584 66.7083L83.8872 65.6131L83.7805 59.9531L71.9053 66.2823V68.576Z" fill="#37BBDA"/>
<path fill-rule="evenodd" clip-rule="evenodd" d="M90.5664 65.6132L90.7425 56.2827L106.575 64.7212V67.9004C104.871 66.7197 102.804 66.0272 100.574 66.0272C98.9967 66.0272 97.5002 66.3743 96.156 66.9954L94.9953 66.7084L90.5664 65.6132Z" fill="#37BBDA"/>
<path fill-rule="evenodd" clip-rule="evenodd" d="M103.368 66.405C98.9077 67.6345 95.6152 71.732 95.6152 76.5742C95.6152 81.4165 98.9077 85.514 103.368 86.7438C107.829 85.514 111.121 81.4165 111.121 76.5742C111.121 71.732 107.829 67.6345 103.368 66.405Z" fill="#77CD6A"/>
<path fill-rule="evenodd" clip-rule="evenodd" d="M91.2665 81.5397C90.4755 80.0599 90.0267 78.3694 90.0267 76.5742C90.0267 75.6977 90.1346 74.8466 90.3361 74.0326V74.0291L90.5417 65.6133L90.7419 56.2588L90.7968 53.7L90.9276 47.5923C90.9396 47.0299 90.8178 46.496 90.5929 46.0171C88.5827 46.0562 86.909 47.711 86.9523 49.7284L87.068 55.1296L87.1621 58.4193L87.3382 67.7498L87.5699 77.2358L83.6787 80.6045V81.3618L87.2142 80.1437L91.2665 81.5397Z" fill="#69DAF4"/>
<path d="M107.43 67.4394V64.7213C107.43 64.3972 107.251 64.0992 106.965 63.9464L91.6327 55.7383L91.8067 47.6112C91.8325 46.4102 91.3755 45.268 90.5207 44.3942C89.6534 43.5081 88.4484 43 87.2148 43C85.9809 43 84.7762 43.5081 83.909 44.3942C83.0537 45.2676 82.5971 46.4102 82.6229 47.6108L82.7386 53.0185L82.8172 55.7637L67.4655 63.9457C67.1792 64.0982 67 64.3965 67 64.7213V69.5718C67 69.842 67.1243 70.0974 67.3371 70.2639C67.55 70.4304 67.8277 70.4898 68.09 70.4249L78.5796 67.8311V68.8007C78.5796 69.2861 78.973 69.6796 79.4585 69.6796C79.9436 69.6796 80.3374 69.2861 80.3374 68.8007V67.3965L83.0355 66.7294L83.2306 74.7061L79.6528 77.8036C79.4598 77.9704 79.3493 78.2128 79.3493 78.4679V82.5507C79.3493 82.8346 79.4866 83.1014 79.7177 83.2662C79.8687 83.374 80.0476 83.4296 80.2282 83.4296C80.3243 83.4296 80.4211 83.4138 80.5145 83.3819L87.2148 81.0734L90.6679 82.263C92.6431 85.689 96.3437 87.9999 100.574 87.9999C106.874 87.9999 112 82.8745 112 76.5742C112 72.8443 110.203 69.5261 107.43 67.4394ZM105.672 65.2476V66.3462C104.626 65.8237 103.51 65.468 102.355 65.2874C102.336 65.2847 102.317 65.2813 102.299 65.2785C102.231 65.2682 102.164 65.2593 102.097 65.2504C102.059 65.2452 102.022 65.2404 101.984 65.2356C101.925 65.2284 101.867 65.2219 101.808 65.2153C101.761 65.2102 101.713 65.2054 101.665 65.2009C101.613 65.1958 101.561 65.191 101.508 65.1868C101.452 65.1824 101.396 65.1786 101.34 65.1748C101.293 65.1717 101.247 65.1683 101.201 65.1659C101.134 65.1621 101.068 65.1597 101.001 65.1573C100.963 65.1559 100.926 65.1539 100.889 65.1529C100.785 65.1501 100.68 65.1484 100.574 65.1484C99.0065 65.1484 97.4911 65.4594 96.065 66.0736L95.85 66.0204V65.1941C95.85 64.7086 95.4566 64.3152 94.9711 64.3152C94.4857 64.3152 94.0922 64.7086 94.0922 65.1941V65.5858L91.4359 64.929L91.5904 57.7096L105.672 65.2476ZM91.3941 66.7294L93.856 67.3381C92.882 68.0484 92.0244 68.9091 91.3168 69.8856L91.3941 66.7294ZM79.4585 64.3155C78.973 64.3155 78.5796 64.7089 78.5796 65.1944V66.0204L68.7578 68.4491V65.2486L82.8594 57.7326L82.9954 64.9283L80.3374 65.5858V65.1941C80.3374 64.7089 79.9439 64.3155 79.4585 64.3155ZM89.6953 80.0688L87.5008 79.3128C87.3157 79.249 87.1139 79.249 86.9285 79.3128L81.1071 81.3182V78.8696L84.6945 75.7636C84.8929 75.5919 85.0042 75.3403 84.998 75.0776L84.7659 65.592L84.5898 56.2663C84.5898 56.2649 84.5898 56.2632 84.5894 56.2615C84.5894 56.2605 84.5898 56.2591 84.5898 56.2581L84.496 52.9745L84.3803 47.5734C84.3645 46.8493 84.6433 46.1568 85.1652 45.624C85.7038 45.0733 86.4509 44.7578 87.2148 44.7578C87.9787 44.7578 88.7258 45.0733 89.2644 45.6237C89.7859 46.1568 90.0647 46.849 90.0493 47.5734L89.8635 56.2399L89.6634 65.5944V65.5947L89.4601 73.9168C89.4564 73.9326 89.4533 73.9488 89.4495 73.9646C89.4351 74.0264 89.4217 74.0882 89.4083 74.1503C89.4004 74.1867 89.3918 74.2231 89.3843 74.2598C89.363 74.3621 89.3434 74.4648 89.3249 74.5678C89.3231 74.5784 89.3214 74.5887 89.3197 74.5994C89.3032 74.6931 89.2881 74.7875 89.274 74.8823C89.2703 74.907 89.2668 74.932 89.2634 74.9568C89.2521 75.0371 89.2414 75.1174 89.2315 75.1981C89.228 75.228 89.2246 75.2579 89.2215 75.2877C89.2129 75.3636 89.205 75.4398 89.1978 75.516C89.1951 75.5483 89.192 75.5802 89.1892 75.6125C89.1831 75.687 89.1776 75.7619 89.1731 75.8367C89.1707 75.8693 89.1683 75.9023 89.1666 75.9352C89.1625 76.0121 89.1594 76.0894 89.1566 76.1666C89.1556 76.1965 89.1542 76.226 89.1532 76.2556C89.1505 76.3616 89.1484 76.4677 89.1484 76.5742C89.1484 76.7094 89.1518 76.844 89.1563 76.9779C89.1573 77.004 89.1583 77.0304 89.1594 77.0565C89.203 78.0964 89.3856 79.1007 89.6902 80.0513C89.6919 80.0572 89.6936 80.063 89.6953 80.0688ZM100.574 86.2421C96.4251 86.2421 92.8786 83.6147 91.5098 79.9363C91.4995 79.9088 91.4892 79.881 91.4792 79.8532C91.4627 79.8086 91.4473 79.7636 91.4315 79.7186C91.4109 79.6586 91.3906 79.5981 91.3714 79.5374C91.3652 79.5185 91.359 79.4996 91.3529 79.4807C91.1482 78.8294 91.0123 78.1562 90.9484 77.4743C90.9477 77.4654 90.9467 77.4568 90.9464 77.4486C90.9388 77.3662 90.9326 77.2838 90.9271 77.2014C90.9258 77.1815 90.9244 77.1619 90.9234 77.1424C90.9189 77.0685 90.9158 76.9947 90.9131 76.9209C90.9124 76.8986 90.9114 76.8759 90.9107 76.8536C90.9079 76.7606 90.9062 76.6672 90.9062 76.5742C90.9062 76.4821 90.9079 76.3905 90.9103 76.2985C90.911 76.2717 90.9124 76.2453 90.9134 76.2185C90.9158 76.1526 90.9186 76.0863 90.9223 76.0204C90.9241 75.9908 90.9261 75.9617 90.9282 75.9321C90.9323 75.8676 90.9371 75.8031 90.9426 75.7388C90.945 75.7107 90.9477 75.6825 90.9501 75.6544C90.9567 75.5857 90.9642 75.5174 90.9721 75.4487C90.9749 75.4257 90.9773 75.4027 90.98 75.3797C90.991 75.2898 91.0034 75.1995 91.0171 75.1099C91.0171 75.1089 91.0171 75.1082 91.0174 75.1071C91.0308 75.0189 91.0459 74.9307 91.0617 74.8428C91.0683 74.8064 91.0755 74.7707 91.0827 74.7346C91.0919 74.6855 91.1019 74.6361 91.1119 74.587C91.1218 74.54 91.1321 74.4933 91.1428 74.4466C91.1506 74.4116 91.1589 74.3765 91.1668 74.3415C92.1216 70.3181 95.5977 67.2595 99.8274 66.9347C99.8377 66.934 99.8484 66.9337 99.8587 66.933C99.9294 66.9275 100 66.923 100.071 66.9193C100.102 66.9179 100.133 66.9168 100.164 66.9155C100.216 66.9134 100.268 66.911 100.32 66.9096C100.404 66.9076 100.489 66.9062 100.574 66.9062C100.683 66.9062 100.791 66.9086 100.9 66.9124C100.929 66.9134 100.959 66.9144 100.988 66.9158C101.084 66.9196 101.179 66.9251 101.274 66.9316C101.288 66.933 101.303 66.9333 101.317 66.9344C101.418 66.9423 101.519 66.9522 101.619 66.9629C101.658 66.967 101.697 66.9714 101.736 66.9762C101.806 66.9848 101.877 66.9941 101.947 67.004C102.008 67.013 102.069 67.0222 102.13 67.0322C102.192 67.0422 102.253 67.0525 102.315 67.0634C102.372 67.0741 102.429 67.0851 102.486 67.0964C102.521 67.1033 102.556 67.1112 102.591 67.1184C102.721 67.1462 102.851 67.1764 102.98 67.2094C102.983 67.21 102.986 67.2111 102.989 67.2118C107.155 68.2867 110.242 72.0766 110.242 76.5742C110.242 81.9049 105.905 86.2421 100.574 86.2421Z" fill="black"/>
<path d="M104.699 72.913L99.2408 78.3708L96.4495 75.5799C96.1066 75.2366 95.55 75.2366 95.2067 75.5799C94.8634 75.9229 94.8634 76.4794 95.2067 76.8228L98.6193 80.2354C98.791 80.407 99.0159 80.4929 99.2408 80.4929C99.4656 80.4929 99.6905 80.407 99.8622 80.2354L105.942 74.1562C106.285 73.8128 106.285 73.2563 105.942 72.913C105.598 72.57 105.042 72.57 104.699 72.913Z" fill="black"/>
<path d="M80.3379 62.6484C80.3379 62.163 79.9444 61.7695 79.459 61.7695C78.9735 61.7695 78.5801 62.163 78.5801 62.6484V62.6694C78.5801 63.1545 78.9735 63.5483 79.459 63.5483C79.9444 63.5483 80.3379 63.1545 80.3379 62.6694V62.6484Z" fill="black"/>
<path d="M94.9707 63.5483C95.4562 63.5483 95.8496 63.1545 95.8496 62.6694V62.6484C95.8496 62.163 95.4562 61.7695 94.9707 61.7695C94.4852 61.7695 94.0918 62.163 94.0918 62.6484V62.6694C94.0918 63.1545 94.4852 63.5483 94.9707 63.5483Z" fill="black"/>
</g>
<defs>
<clipPath id="clip0_126_24">
<rect width="45" height="45" fill="white" transform="translate(67 43)"/>
</clipPath>
</defs>
</svg>
