<svg width="178" height="176" viewBox="0 0 178 176" fill="none" xmlns="http://www.w3.org/2000/svg">
<rect x="0.5" y="0.5" width="177" height="175" rx="9.5" stroke="#A9B7C8" stroke-opacity="0.5"/>
<path d="M44.92 119.88V122.84H50.104V124.92H44.92V129H42.328V117.8H50.792V119.88H44.92ZM52.3708 117.128H54.8668V129H52.3708V117.128ZM57.1833 120.392H59.6793V129H57.1833V120.392ZM58.4313 119.192C57.9726 119.192 57.5993 119.059 57.3113 118.792C57.0233 118.525 56.8793 118.195 56.8793 117.8C56.8793 117.405 57.0233 117.075 57.3113 116.808C57.5993 116.541 57.9726 116.408 58.4313 116.408C58.8899 116.408 59.2633 116.536 59.5513 116.792C59.8393 117.048 59.9833 117.368 59.9833 117.752C59.9833 118.168 59.8393 118.515 59.5513 118.792C59.2633 119.059 58.8899 119.192 58.4313 119.192ZM70.8758 120.392V127.56C70.8758 129.139 70.4651 130.312 69.6438 131.08C68.8224 131.848 67.6224 132.232 66.0438 132.232C65.2118 132.232 64.4224 132.131 63.6758 131.928C62.9291 131.725 62.3104 131.432 61.8198 131.048L62.8118 129.256C63.1744 129.555 63.6331 129.789 64.1878 129.96C64.7424 130.141 65.2971 130.232 65.8518 130.232C66.7158 130.232 67.3504 130.035 67.7558 129.64C68.1718 129.256 68.3798 128.669 68.3798 127.88V127.512C67.7291 128.227 66.8224 128.584 65.6598 128.584C64.8704 128.584 64.1451 128.413 63.4838 128.072C62.8331 127.72 62.3158 127.229 61.9318 126.6C61.5478 125.971 61.3558 125.245 61.3558 124.424C61.3558 123.603 61.5478 122.877 61.9318 122.248C62.3158 121.619 62.8331 121.133 63.4838 120.792C64.1451 120.44 64.8704 120.264 65.6598 120.264C66.9078 120.264 67.8571 120.675 68.5078 121.496V120.392H70.8758ZM66.1558 126.536C66.8171 126.536 67.3558 126.344 67.7718 125.96C68.1984 125.565 68.4118 125.053 68.4118 124.424C68.4118 123.795 68.1984 123.288 67.7718 122.904C67.3558 122.509 66.8171 122.312 66.1558 122.312C65.4944 122.312 64.9504 122.509 64.5238 122.904C64.0971 123.288 63.8838 123.795 63.8838 124.424C63.8838 125.053 64.0971 125.565 64.5238 125.96C64.9504 126.344 65.4944 126.536 66.1558 126.536ZM78.4309 120.264C79.4975 120.264 80.3562 120.584 81.0069 121.224C81.6682 121.864 81.9989 122.813 81.9989 124.072V129H79.5029V124.456C79.5029 123.773 79.3535 123.267 79.0549 122.936C78.7562 122.595 78.3242 122.424 77.7589 122.424C77.1295 122.424 76.6282 122.621 76.2549 123.016C75.8815 123.4 75.6949 123.976 75.6949 124.744V129H73.1989V117.128H75.6949V121.288C76.0255 120.957 76.4255 120.707 76.8949 120.536C77.3642 120.355 77.8762 120.264 78.4309 120.264ZM89.8134 128.584C89.568 128.765 89.264 128.904 88.9014 129C88.5494 129.085 88.176 129.128 87.7814 129.128C86.7574 129.128 85.9627 128.867 85.3974 128.344C84.8427 127.821 84.5654 127.053 84.5654 126.04V122.504H83.2374V120.584H84.5654V118.488H87.0614V120.584H89.2054V122.504H87.0614V126.008C87.0614 126.371 87.152 126.653 87.3334 126.856C87.5254 127.048 87.792 127.144 88.1334 127.144C88.528 127.144 88.864 127.037 89.1414 126.824L89.8134 128.584ZM104.514 117.128V129H102.13V128.008C101.511 128.755 100.615 129.128 99.4418 129.128C98.6311 129.128 97.8951 128.947 97.2338 128.584C96.5831 128.221 96.0711 127.704 95.6978 127.032C95.3244 126.36 95.1378 125.581 95.1378 124.696C95.1378 123.811 95.3244 123.032 95.6978 122.36C96.0711 121.688 96.5831 121.171 97.2338 120.808C97.8951 120.445 98.6311 120.264 99.4418 120.264C100.54 120.264 101.399 120.611 102.018 121.304V117.128H104.514ZM99.8738 127.08C100.503 127.08 101.026 126.867 101.442 126.44C101.858 126.003 102.066 125.421 102.066 124.696C102.066 123.971 101.858 123.395 101.442 122.968C101.026 122.531 100.503 122.312 99.8738 122.312C99.2338 122.312 98.7058 122.531 98.2898 122.968C97.8738 123.395 97.6658 123.971 97.6658 124.696C97.6658 125.421 97.8738 126.003 98.2898 126.44C98.7058 126.867 99.2338 127.08 99.8738 127.08ZM115.256 124.728C115.256 124.76 115.24 124.984 115.208 125.4H108.696C108.813 125.933 109.091 126.355 109.528 126.664C109.965 126.973 110.509 127.128 111.16 127.128C111.608 127.128 112.003 127.064 112.344 126.936C112.696 126.797 113.021 126.584 113.32 126.296L114.648 127.736C113.837 128.664 112.653 129.128 111.096 129.128C110.125 129.128 109.267 128.941 108.52 128.568C107.773 128.184 107.197 127.656 106.792 126.984C106.387 126.312 106.184 125.549 106.184 124.696C106.184 123.853 106.381 123.096 106.776 122.424C107.181 121.741 107.731 121.213 108.424 120.84C109.128 120.456 109.912 120.264 110.776 120.264C111.619 120.264 112.381 120.445 113.064 120.808C113.747 121.171 114.28 121.693 114.664 122.376C115.059 123.048 115.256 123.832 115.256 124.728ZM110.792 122.152C110.227 122.152 109.752 122.312 109.368 122.632C108.984 122.952 108.749 123.389 108.664 123.944H112.904C112.819 123.4 112.584 122.968 112.2 122.648C111.816 122.317 111.347 122.152 110.792 122.152ZM116.918 117.128H119.414V129H116.918V117.128ZM125.202 120.264C126.535 120.264 127.559 120.584 128.274 121.224C128.989 121.853 129.346 122.808 129.346 124.088V129H127.01V127.928C126.541 128.728 125.666 129.128 124.386 129.128C123.725 129.128 123.149 129.016 122.658 128.792C122.178 128.568 121.81 128.259 121.554 127.864C121.298 127.469 121.17 127.021 121.17 126.52C121.17 125.72 121.469 125.091 122.066 124.632C122.674 124.173 123.607 123.944 124.866 123.944H126.85C126.85 123.4 126.685 122.984 126.354 122.696C126.023 122.397 125.527 122.248 124.866 122.248C124.407 122.248 123.954 122.323 123.506 122.472C123.069 122.611 122.695 122.803 122.386 123.048L121.49 121.304C121.959 120.973 122.519 120.717 123.17 120.536C123.831 120.355 124.509 120.264 125.202 120.264ZM125.01 127.448C125.437 127.448 125.815 127.352 126.146 127.16C126.477 126.957 126.711 126.664 126.85 126.28V125.4H125.138C124.114 125.4 123.602 125.736 123.602 126.408C123.602 126.728 123.725 126.984 123.97 127.176C124.226 127.357 124.573 127.448 125.01 127.448ZM139.993 120.392L136.105 129.528C135.71 130.52 135.22 131.219 134.633 131.624C134.057 132.029 133.358 132.232 132.537 132.232C132.089 132.232 131.646 132.163 131.209 132.024C130.772 131.885 130.414 131.693 130.137 131.448L131.049 129.672C131.241 129.843 131.46 129.976 131.705 130.072C131.961 130.168 132.212 130.216 132.457 130.216C132.798 130.216 133.076 130.131 133.289 129.96C133.502 129.8 133.694 129.528 133.865 129.144L133.897 129.064L130.169 120.392H132.745L135.161 126.232L137.593 120.392H139.993Z" fill="#686361"/>
<g clip-path="url(#clip0_126_25)">
<path fill-rule="evenodd" clip-rule="evenodd" d="M72.5078 68.427L79.4584 66.7083L83.8872 65.6131L83.7726 59.5374L72.5078 65.5414V68.427Z" fill="#37BBDA"/>
<path fill-rule="evenodd" clip-rule="evenodd" d="M90.5664 65.6132L90.7425 56.2827L106.575 64.7212V67.9004C104.871 66.7197 102.804 66.0272 100.574 66.0272C98.9967 66.0272 97.5002 66.3743 96.156 66.9954L94.9956 66.7084L90.5664 65.6132Z" fill="#37BBDA"/>
<path fill-rule="evenodd" clip-rule="evenodd" d="M103.24 66.3699C98.7147 67.5561 95.3594 71.6855 95.3594 76.5741C95.3594 81.4627 98.7147 85.5922 103.24 86.7784C107.766 85.5922 111.121 81.4627 111.121 76.5741C111.121 71.6855 107.765 67.5561 103.24 66.3699Z" fill="#E3E5E5"/>
<path fill-rule="evenodd" clip-rule="evenodd" d="M87.2144 80.1437L91.2666 81.5396C90.4756 80.0599 90.0269 78.3694 90.0269 76.5741C90.0269 75.6976 90.1347 74.8465 90.3362 74.0325V74.0291L90.5415 65.6132L90.742 56.2587L90.797 53.6999L90.9274 47.5922C90.9398 47.0209 90.8141 46.4788 90.5827 45.9944C88.6323 46.1018 87.0331 47.7289 87.0753 49.7012L87.191 55.1027L87.2851 58.3921L87.4612 67.7226L87.693 77.2083L83.8018 80.5773V81.3192L87.2144 80.1437Z" fill="#69DAF4"/>
<path d="M110.491 82.2442C111.451 80.5726 112 78.6362 112 76.5742C112 74.5119 111.451 72.5755 110.491 70.9036C110.484 70.8895 110.477 70.8751 110.469 70.8613C110.458 70.8424 110.446 70.8246 110.434 70.8067C109.664 69.4952 108.64 68.3499 107.43 67.4391V64.7213C107.43 64.3969 107.251 64.0992 106.966 63.9465L91.6327 55.7383L91.8068 47.6108C91.8325 46.4102 91.3756 45.268 90.5204 44.3942C89.6531 43.5081 88.4484 43 87.2148 43C85.9813 43 84.7762 43.5081 83.909 44.3942C83.0538 45.268 82.5972 46.4102 82.6229 47.6108L82.8172 55.7634L67.4655 63.9458C67.1789 64.0982 67 64.3966 67 64.7213V69.5718C67 69.842 67.1243 70.0974 67.3371 70.2639C67.55 70.4305 67.8278 70.4899 68.0897 70.425L78.5796 67.8312V68.8007C78.5796 69.2862 78.973 69.6796 79.4585 69.6796C79.944 69.6796 80.3374 69.2862 80.3374 68.8007V67.3965L83.0356 66.7294L83.2306 74.7062L79.6528 77.8037C79.4599 77.9705 79.3493 78.2129 79.3493 78.468V82.5508C79.3493 82.8347 79.4866 83.1011 79.7177 83.2663C79.8688 83.3737 80.0476 83.4297 80.2282 83.4297C80.3244 83.4297 80.4212 83.4136 80.5142 83.3816L87.2148 81.0735L90.6666 82.2627C90.6711 82.2706 90.6745 82.2792 90.6793 82.2871C90.6869 82.3005 90.6961 82.3122 90.7047 82.3249C91.6966 84.0209 93.1131 85.4395 94.8074 86.4344C94.8253 86.4465 94.8428 86.4585 94.8613 86.4691C94.8709 86.4746 94.8812 86.4787 94.8909 86.4839C96.5659 87.4479 98.5067 88 100.574 88C102.642 88 104.583 87.4479 106.258 86.4839C106.267 86.4784 106.277 86.4746 106.287 86.4691C106.306 86.4585 106.324 86.4461 106.341 86.4341C108.035 85.4395 109.452 84.0209 110.444 82.3249C110.452 82.3122 110.462 82.3005 110.469 82.2871C110.477 82.273 110.484 82.2586 110.491 82.2442ZM105.672 65.2477V66.3463C104.628 65.8241 103.513 65.4691 102.359 65.2882C102.339 65.2847 102.318 65.2813 102.297 65.2782C102.232 65.2683 102.166 65.2593 102.1 65.2504C102.061 65.2453 102.022 65.2401 101.982 65.2353C101.925 65.2281 101.868 65.2219 101.811 65.2157C101.762 65.2102 101.712 65.2051 101.662 65.2006C101.612 65.1958 101.561 65.191 101.511 65.1869C101.452 65.1824 101.394 65.1783 101.335 65.1745C101.291 65.1714 101.247 65.1684 101.203 65.1659C101.133 65.1622 101.063 65.1594 100.992 65.1567C100.959 65.1556 100.925 65.1539 100.891 65.1529C100.786 65.1502 100.68 65.1484 100.574 65.1484C100.523 65.1484 100.472 65.1495 100.421 65.1502C98.9081 65.1701 97.4448 65.4794 96.065 66.0733L95.8501 66.0205V65.1941C95.8501 64.7086 95.4566 64.3152 94.9712 64.3152C94.4857 64.3152 94.0923 64.7086 94.0923 65.1941V65.5858L91.436 64.9287L91.5905 57.7097L105.672 65.2477ZM91.3169 69.8853L91.3941 66.7294L93.8564 67.3382C92.8821 68.0485 92.0245 68.9089 91.3169 69.8853ZM79.4585 64.3152C78.973 64.3152 78.5796 64.7086 78.5796 65.1941V66.0205L68.7578 68.4491V65.2487L82.8598 57.7327L82.9954 64.9284L80.3374 65.5858V65.1941C80.3374 64.7086 79.944 64.3152 79.4585 64.3152ZM87.5012 79.3129C87.3158 79.2487 87.1139 79.2487 86.9285 79.3129L81.1071 81.3183V78.8697L84.6945 75.7636C84.893 75.5916 85.0042 75.34 84.9977 75.0777L84.3804 47.5734C84.3804 47.5717 84.3804 47.5734 84.3804 47.5717C84.3804 47.5703 84.3804 47.5717 84.3804 47.5703V47.5734C84.3646 46.849 84.6434 46.1569 85.1652 45.624C85.7039 45.0737 86.451 44.7578 87.2148 44.7578C87.9787 44.7578 88.7258 45.0733 89.2645 45.6237C89.786 46.1569 90.0648 46.849 90.0493 47.5734L89.4495 73.9653L89.4602 73.9169C89.4564 73.933 89.4533 73.9492 89.4495 73.9653C89.4355 74.0254 89.4221 74.0855 89.409 74.1459C89.4008 74.184 89.3919 74.2225 89.384 74.2606C89.363 74.3622 89.3434 74.4642 89.3252 74.5668C89.3228 74.5795 89.3211 74.5929 89.3187 74.6059C89.3029 74.6973 89.2878 74.7889 89.2741 74.881C89.2703 74.907 89.2669 74.9335 89.2631 74.9599C89.2518 75.0389 89.2415 75.1175 89.2319 75.1968C89.2281 75.2277 89.2247 75.2586 89.2212 75.2895C89.2126 75.3643 89.2051 75.4395 89.1982 75.5147C89.1951 75.5477 89.192 75.5803 89.1893 75.6133C89.1831 75.6871 89.178 75.7612 89.1732 75.8354C89.1711 75.8687 89.1687 75.9023 89.1666 75.9356C89.1625 76.0122 89.1594 76.0891 89.1567 76.166C89.1556 76.1959 89.1539 76.2261 89.1532 76.256C89.1502 76.3617 89.1484 76.4678 89.1484 76.5742C89.1484 76.7095 89.1519 76.8441 89.1563 76.9783C89.1574 77.0044 89.1584 77.0302 89.1594 77.0562C89.2027 78.0962 89.3857 79.1007 89.6902 80.0514C89.6919 80.0572 89.6933 80.0631 89.6954 80.0689L87.5012 79.3129ZM106.148 84.4696L105.971 84.1634C105.728 83.7431 105.191 83.5989 104.77 83.8417C104.35 84.0847 104.206 84.622 104.449 85.0423L104.626 85.3506C103.646 85.8051 102.577 86.1001 101.453 86.202V85.845C101.453 85.3595 101.06 84.9661 100.574 84.9661C100.089 84.9661 99.6953 85.3595 99.6953 85.845V86.202C98.5716 86.1001 97.5025 85.8051 96.522 85.3506L96.7002 85.0423C96.9429 84.622 96.7987 84.0847 96.3785 83.8417C95.9579 83.5989 95.4206 83.7431 95.1779 84.1634L95.0011 84.4696C94.1016 83.8331 93.3153 83.0469 92.6788 82.1477L92.9851 81.9709C93.4053 81.7282 93.5495 81.1905 93.3068 80.7703C93.0644 80.3497 92.5267 80.2059 92.1062 80.4483L91.7979 80.6265C91.6931 80.4006 91.5967 80.1698 91.5091 79.935C91.4992 79.9082 91.4892 79.8814 91.4796 79.8547C91.4631 79.8093 91.4473 79.7637 91.4315 79.7177C91.4113 79.6586 91.3914 79.5996 91.3725 79.5402C91.366 79.5203 91.3591 79.5 91.3526 79.4798C91.1483 78.8292 91.0123 78.1559 90.9485 77.4744C90.9478 77.4672 90.9471 77.46 90.9464 77.4531H91.3035C91.7886 77.4531 92.1824 77.0597 92.1824 76.5742C92.1824 76.0888 91.7886 75.6953 91.3035 75.6953H90.9464C90.9478 75.6812 90.9488 75.6675 90.9502 75.6538C90.9567 75.5858 90.9639 75.5182 90.9718 75.4505C90.9746 75.4268 90.977 75.4028 90.9801 75.3791C90.9911 75.2909 91.0031 75.2026 91.0161 75.1148C91.0168 75.112 91.0171 75.1093 91.0175 75.1065C91.0309 75.0183 91.0456 74.9307 91.0618 74.8432C91.0683 74.8064 91.0759 74.7697 91.0827 74.733C91.092 74.6842 91.1016 74.6358 91.1119 74.5874C91.1215 74.5404 91.1322 74.4933 91.1428 74.4463C91.1507 74.4113 91.1586 74.3763 91.1668 74.3412C91.3172 73.7088 91.5297 73.0998 91.7975 72.522L92.1062 72.6998C92.2445 72.7798 92.3956 72.8179 92.5446 72.8179C92.8484 72.8179 93.1437 72.6603 93.3068 72.3781C93.5495 71.9579 93.4053 71.4203 92.9851 71.1779L92.6788 71.0007C93.3153 70.1016 94.1016 69.3153 95.0007 68.6788L95.1779 68.9851C95.3406 69.2669 95.6359 69.4245 95.9397 69.4245C96.0887 69.4245 96.2398 69.3868 96.3781 69.3068C96.7987 69.064 96.9429 68.5264 96.6998 68.1062L96.522 67.7979C97.5025 67.3433 98.5713 67.0484 99.6953 66.9464V67.3035C99.6953 67.7889 100.089 68.1824 100.574 68.1824C101.06 68.1824 101.453 67.7889 101.453 67.3035V66.9474C101.509 66.9523 101.565 66.9571 101.621 66.9632C101.658 66.967 101.696 66.9715 101.733 66.9759C101.806 66.9845 101.879 66.9945 101.952 67.0048C102.008 67.013 102.064 67.0213 102.12 67.0302C102.186 67.0408 102.251 67.0522 102.317 67.0638C102.372 67.0741 102.428 67.0848 102.483 67.0958C102.521 67.1033 102.559 67.1116 102.596 67.1198C102.721 67.1462 102.846 67.1751 102.969 67.2067C102.977 67.2087 102.984 67.2104 102.992 67.2122C103.558 67.3587 104.105 67.5558 104.626 67.7979L104.448 68.1062C104.206 68.5264 104.35 69.064 104.77 69.3068C104.908 69.3868 105.06 69.4245 105.209 69.4245C105.512 69.4245 105.808 69.2669 105.971 68.9851L106.147 68.6788C107.047 69.3153 107.833 70.1016 108.47 71.0007L108.163 71.1779C107.743 71.4206 107.599 71.9579 107.842 72.3785C108.004 72.6603 108.3 72.8179 108.604 72.8179C108.753 72.8179 108.904 72.7798 109.042 72.7002L109.351 72.5223C109.805 73.5025 110.1 74.5716 110.202 75.6953H109.845C109.36 75.6953 108.966 76.0891 108.966 76.5742C108.966 77.0597 109.36 77.4531 109.845 77.4531H110.202C110.1 78.5772 109.805 79.6463 109.351 80.6265L109.042 80.4486C108.622 80.2059 108.084 80.3501 107.842 80.7703C107.599 81.1905 107.743 81.7282 108.163 81.9709L108.47 82.1477C107.833 83.0469 107.047 83.8331 106.148 84.4696Z" fill="black"/>
<path d="M104.052 75.6953H101.453V70.3796C101.453 69.8942 101.06 69.5007 100.574 69.5007C100.089 69.5007 99.6953 69.8942 99.6953 70.3796V76.5742C99.6953 77.0597 100.089 77.4531 100.574 77.4531H104.052C104.537 77.4531 104.931 77.0597 104.931 76.5742C104.931 76.0888 104.537 75.6953 104.052 75.6953Z" fill="black"/>
<path d="M80.3379 62.6484C80.3379 62.163 79.9444 61.7695 79.459 61.7695C78.9739 61.7695 78.5801 62.163 78.5801 62.6484V62.669C78.5801 63.1545 78.9739 63.5479 79.459 63.5479C79.9444 63.5479 80.3379 63.1545 80.3379 62.669V62.6484Z" fill="black"/>
<path d="M94.9707 63.5479C95.4562 63.5479 95.8496 63.1545 95.8496 62.669V62.6484C95.8496 62.163 95.4562 61.7695 94.9707 61.7695C94.4852 61.7695 94.0918 62.163 94.0918 62.6484V62.669C94.0918 63.1545 94.4852 63.5479 94.9707 63.5479Z" fill="black"/>
</g>
<defs>
<clipPath id="clip0_126_25">
<rect width="45" height="45" fill="white" transform="translate(67 43)"/>
</clipPath>
</defs>
</svg>
