<svg width="178" height="176" viewBox="0 0 178 176" fill="none" xmlns="http://www.w3.org/2000/svg">
<rect width="178" height="176" rx="10" fill="white"/>
<rect x="0.5" y="0.5" width="177" height="175" rx="9.5" stroke="#A9B7C8" stroke-opacity="0.5"/>
<path d="M31.688 129.192C30.5467 129.192 29.512 128.947 28.584 128.456C27.6667 127.955 26.9413 127.267 26.408 126.392C25.8853 125.507 25.624 124.509 25.624 123.4C25.624 122.291 25.8853 121.299 26.408 120.424C26.9413 119.539 27.6667 118.851 28.584 118.36C29.512 117.859 30.552 117.608 31.704 117.608C32.6747 117.608 33.5493 117.779 34.328 118.12C35.1173 118.461 35.7787 118.952 36.312 119.592L34.648 121.128C33.8907 120.253 32.952 119.816 31.832 119.816C31.1387 119.816 30.52 119.971 29.976 120.28C29.432 120.579 29.0053 121 28.696 121.544C28.3973 122.088 28.248 122.707 28.248 123.4C28.248 124.093 28.3973 124.712 28.696 125.256C29.0053 125.8 29.432 126.227 29.976 126.536C30.52 126.835 31.1387 126.984 31.832 126.984C32.952 126.984 33.8907 126.541 34.648 125.656L36.312 127.192C35.7787 127.843 35.1173 128.339 34.328 128.68C33.5387 129.021 32.6587 129.192 31.688 129.192ZM41.2959 120.264C42.6292 120.264 43.6532 120.584 44.3679 121.224C45.0825 121.853 45.4399 122.808 45.4399 124.088V129H43.1039V127.928C42.6345 128.728 41.7599 129.128 40.4799 129.128C39.8185 129.128 39.2425 129.016 38.7519 128.792C38.2719 128.568 37.9039 128.259 37.6479 127.864C37.3919 127.469 37.2639 127.021 37.2639 126.52C37.2639 125.72 37.5625 125.091 38.1599 124.632C38.7679 124.173 39.7012 123.944 40.9599 123.944H42.9439C42.9439 123.4 42.7785 122.984 42.4479 122.696C42.1172 122.397 41.6212 122.248 40.9599 122.248C40.5012 122.248 40.0479 122.323 39.5999 122.472C39.1625 122.611 38.7892 122.803 38.4799 123.048L37.5839 121.304C38.0532 120.973 38.6132 120.717 39.2639 120.536C39.9252 120.355 40.6025 120.264 41.2959 120.264ZM41.1039 127.448C41.5305 127.448 41.9092 127.352 42.2399 127.16C42.5705 126.957 42.8052 126.664 42.9439 126.28V125.4H41.2319C40.2079 125.4 39.6959 125.736 39.6959 126.408C39.6959 126.728 39.8185 126.984 40.0639 127.176C40.3199 127.357 40.6665 127.448 41.1039 127.448ZM52.9309 120.264C53.9975 120.264 54.8562 120.584 55.5069 121.224C56.1682 121.864 56.4989 122.813 56.4989 124.072V129H54.0029V124.456C54.0029 123.773 53.8535 123.267 53.5549 122.936C53.2562 122.595 52.8242 122.424 52.2589 122.424C51.6295 122.424 51.1282 122.621 50.7549 123.016C50.3815 123.4 50.1949 123.976 50.1949 124.744V129H47.6989V120.392H50.0829V121.4C50.4135 121.037 50.8242 120.76 51.3149 120.568C51.8055 120.365 52.3442 120.264 52.9309 120.264ZM63.0151 129.128C62.0978 129.128 61.2711 128.941 60.5351 128.568C59.8098 128.184 59.2391 127.656 58.8231 126.984C58.4178 126.312 58.2151 125.549 58.2151 124.696C58.2151 123.843 58.4178 123.08 58.8231 122.408C59.2391 121.736 59.8098 121.213 60.5351 120.84C61.2711 120.456 62.0978 120.264 63.0151 120.264C63.9218 120.264 64.7111 120.456 65.3831 120.84C66.0658 121.213 66.5618 121.752 66.8711 122.456L64.9351 123.496C64.4871 122.707 63.8418 122.312 62.9991 122.312C62.3485 122.312 61.8098 122.525 61.3831 122.952C60.9565 123.379 60.7431 123.96 60.7431 124.696C60.7431 125.432 60.9565 126.013 61.3831 126.44C61.8098 126.867 62.3485 127.08 62.9991 127.08C63.8525 127.08 64.4978 126.685 64.9351 125.896L66.8711 126.952C66.5618 127.635 66.0658 128.168 65.3831 128.552C64.7111 128.936 63.9218 129.128 63.0151 129.128ZM76.6309 124.728C76.6309 124.76 76.6149 124.984 76.5829 125.4H70.0709C70.1882 125.933 70.4655 126.355 70.9029 126.664C71.3402 126.973 71.8842 127.128 72.5349 127.128C72.9829 127.128 73.3775 127.064 73.7189 126.936C74.0709 126.797 74.3962 126.584 74.6949 126.296L76.0229 127.736C75.2122 128.664 74.0282 129.128 72.4709 129.128C71.5002 129.128 70.6415 128.941 69.8949 128.568C69.1482 128.184 68.5722 127.656 68.1669 126.984C67.7615 126.312 67.5589 125.549 67.5589 124.696C67.5589 123.853 67.7562 123.096 68.1509 122.424C68.5562 121.741 69.1055 121.213 69.7989 120.84C70.5029 120.456 71.2869 120.264 72.1509 120.264C72.9935 120.264 73.7562 120.445 74.4389 120.808C75.1215 121.171 75.6549 121.693 76.0389 122.376C76.4335 123.048 76.6309 123.832 76.6309 124.728ZM72.1669 122.152C71.6015 122.152 71.1269 122.312 70.7429 122.632C70.3589 122.952 70.1242 123.389 70.0389 123.944H74.2789C74.1935 123.4 73.9589 122.968 73.5749 122.648C73.1909 122.317 72.7215 122.152 72.1669 122.152ZM78.2926 117.128H80.7886V129H78.2926V117.128ZM83.1051 117.128H85.6011V129H83.1051V117.128ZM96.3496 124.728C96.3496 124.76 96.3336 124.984 96.3016 125.4H89.7896C89.907 125.933 90.1843 126.355 90.6216 126.664C91.059 126.973 91.603 127.128 92.2536 127.128C92.7016 127.128 93.0963 127.064 93.4376 126.936C93.7896 126.797 94.115 126.584 94.4136 126.296L95.7416 127.736C94.931 128.664 93.747 129.128 92.1896 129.128C91.219 129.128 90.3603 128.941 89.6136 128.568C88.867 128.184 88.291 127.656 87.8856 126.984C87.4803 126.312 87.2776 125.549 87.2776 124.696C87.2776 123.853 87.475 123.096 87.8696 122.424C88.275 121.741 88.8243 121.213 89.5176 120.84C90.2216 120.456 91.0056 120.264 91.8696 120.264C92.7123 120.264 93.475 120.445 94.1576 120.808C94.8403 121.171 95.3736 121.693 95.7576 122.376C96.1523 123.048 96.3496 123.832 96.3496 124.728ZM91.8856 122.152C91.3203 122.152 90.8456 122.312 90.4616 122.632C90.0776 122.952 89.843 123.389 89.7576 123.944H93.9976C93.9123 123.4 93.6776 122.968 93.2936 122.648C92.9096 122.317 92.4403 122.152 91.8856 122.152ZM106.779 117.128V129H104.395V128.008C103.777 128.755 102.881 129.128 101.707 129.128C100.897 129.128 100.161 128.947 99.4994 128.584C98.8487 128.221 98.3367 127.704 97.9634 127.032C97.59 126.36 97.4034 125.581 97.4034 124.696C97.4034 123.811 97.59 123.032 97.9634 122.36C98.3367 121.688 98.8487 121.171 99.4994 120.808C100.161 120.445 100.897 120.264 101.707 120.264C102.806 120.264 103.665 120.611 104.283 121.304V117.128H106.779ZM102.139 127.08C102.769 127.08 103.291 126.867 103.707 126.44C104.123 126.003 104.331 125.421 104.331 124.696C104.331 123.971 104.123 123.395 103.707 122.968C103.291 122.531 102.769 122.312 102.139 122.312C101.499 122.312 100.971 122.531 100.555 122.968C100.139 123.395 99.9314 123.971 99.9314 124.696C99.9314 125.421 100.139 126.003 100.555 126.44C100.971 126.867 101.499 127.08 102.139 127.08ZM116.357 120.584H118.565V122.504H116.421V129H113.925V122.504H112.597V120.584H113.925V120.2C113.925 119.219 114.213 118.44 114.789 117.864C115.375 117.288 116.197 117 117.253 117C117.626 117 117.978 117.043 118.309 117.128C118.65 117.203 118.933 117.315 119.157 117.464L118.501 119.272C118.213 119.069 117.877 118.968 117.493 118.968C116.735 118.968 116.357 119.384 116.357 120.216V120.584ZM119.813 117.128H122.309V129H119.813V117.128ZM124.636 120.392H127.132V129H124.636V120.392ZM125.884 119.192C125.426 119.192 125.052 119.059 124.764 118.792C124.476 118.525 124.332 118.195 124.332 117.8C124.332 117.405 124.476 117.075 124.764 116.808C125.052 116.541 125.426 116.408 125.884 116.408C126.343 116.408 126.716 116.536 127.004 116.792C127.292 117.048 127.436 117.368 127.436 117.752C127.436 118.168 127.292 118.515 127.004 118.792C126.716 119.059 126.343 119.192 125.884 119.192ZM138.329 120.392V127.56C138.329 129.139 137.918 130.312 137.097 131.08C136.276 131.848 135.076 132.232 133.497 132.232C132.665 132.232 131.876 132.131 131.129 131.928C130.382 131.725 129.764 131.432 129.273 131.048L130.265 129.256C130.628 129.555 131.086 129.789 131.641 129.96C132.196 130.141 132.75 130.232 133.305 130.232C134.169 130.232 134.804 130.035 135.209 129.64C135.625 129.256 135.833 128.669 135.833 127.88V127.512C135.182 128.227 134.276 128.584 133.113 128.584C132.324 128.584 131.598 128.413 130.937 128.072C130.286 127.72 129.769 127.229 129.385 126.6C129.001 125.971 128.809 125.245 128.809 124.424C128.809 123.603 129.001 122.877 129.385 122.248C129.769 121.619 130.286 121.133 130.937 120.792C131.598 120.44 132.324 120.264 133.113 120.264C134.361 120.264 135.31 120.675 135.961 121.496V120.392H138.329ZM133.609 126.536C134.27 126.536 134.809 126.344 135.225 125.96C135.652 125.565 135.865 125.053 135.865 124.424C135.865 123.795 135.652 123.288 135.225 122.904C134.809 122.509 134.27 122.312 133.609 122.312C132.948 122.312 132.404 122.509 131.977 122.904C131.55 123.288 131.337 123.795 131.337 124.424C131.337 125.053 131.55 125.565 131.977 125.96C132.404 126.344 132.948 126.536 133.609 126.536ZM145.884 120.264C146.951 120.264 147.809 120.584 148.46 121.224C149.121 121.864 149.452 122.813 149.452 124.072V129H146.956V124.456C146.956 123.773 146.807 123.267 146.508 122.936C146.209 122.595 145.777 122.424 145.212 122.424C144.583 122.424 144.081 122.621 143.708 123.016C143.335 123.4 143.148 123.976 143.148 124.744V129H140.652V117.128H143.148V121.288C143.479 120.957 143.879 120.707 144.348 120.536C144.817 120.355 145.329 120.264 145.884 120.264ZM157.267 128.584C157.021 128.765 156.717 128.904 156.355 129C156.003 129.085 155.629 129.128 155.235 129.128C154.211 129.128 153.416 128.867 152.851 128.344C152.296 127.821 152.019 127.053 152.019 126.04V122.504H150.691V120.584H152.019V118.488H154.515V120.584H156.659V122.504H154.515V126.008C154.515 126.371 154.605 126.653 154.786 126.856C154.979 127.048 155.245 127.144 155.587 127.144C155.981 127.144 156.317 127.037 156.595 126.824L157.267 128.584Z" fill="#686361"/>
<g clip-path="url(#clip0_126_26)">
<path fill-rule="evenodd" clip-rule="evenodd" d="M71.458 68.6873L79.4588 66.7087L83.8877 65.6135L83.7699 59.3691L71.458 65.9311V68.6873Z" fill="#37BBDA"/>
<path fill-rule="evenodd" clip-rule="evenodd" d="M90.5664 65.6134L90.7425 56.283L106.575 64.7215V67.9007C104.871 66.72 102.804 66.0275 100.574 66.0275C98.9967 66.0275 97.5002 66.3746 96.156 66.9957L94.9956 66.7086L90.5664 65.6134Z" fill="#37BBDA"/>
<path fill-rule="evenodd" clip-rule="evenodd" d="M102.947 66.2588C98.1868 67.2747 94.5977 71.5185 94.5977 76.5743C94.5977 81.63 98.1868 85.8738 102.947 86.8894C107.708 85.8738 111.297 81.63 111.297 76.5743C111.297 71.5185 107.708 67.2747 102.947 66.2588Z" fill="#FFA92C"/>
<path fill-rule="evenodd" clip-rule="evenodd" d="M87.2153 80.1442L91.2675 81.5398C90.4761 80.0601 90.0278 78.3696 90.0278 76.5743C90.0278 75.6978 90.1356 74.8467 90.3371 74.0327V74.0293L90.5424 65.6134L90.7429 56.2589L90.7978 53.6998L90.9283 47.592C90.9372 47.179 90.873 46.7815 90.7498 46.4093C90.5342 46.3702 90.3134 46.3489 90.0882 46.3489C88.0458 46.3489 86.3312 48.0202 86.3748 50.0619L86.4905 55.4634L86.5846 58.7528L86.761 68.0833L86.9928 77.5693L83.1016 80.938V81.5611L87.2153 80.1442Z" fill="#69DAF4"/>
<path d="M107.43 67.4391V64.7213C107.43 64.3972 107.251 64.0992 106.966 63.9465L91.6327 55.7383L91.8068 47.6108C91.8325 46.4102 91.3756 45.2676 90.5204 44.3942C89.6531 43.5081 88.4484 43 87.2148 43C85.9813 43 84.7762 43.5081 83.909 44.3942C83.0541 45.2676 82.5972 46.4102 82.6229 47.6108L82.7386 53.0185L82.8172 55.7634L67.4655 63.9458C67.1789 64.0986 67 64.3966 67 64.7213V69.5718C67 69.842 67.1243 70.0974 67.3371 70.2639C67.55 70.4305 67.8274 70.4899 68.0897 70.425L78.5796 67.8312V68.8007C78.5796 69.2862 78.973 69.6796 79.4585 69.6796C79.9436 69.6796 80.3374 69.2862 80.3374 68.8007V67.3965L83.0356 66.7291L83.2306 74.7062L79.6528 77.8033C79.4599 77.9702 79.3493 78.2129 79.3493 78.468V82.5508C79.3493 82.8347 79.4866 83.1011 79.7177 83.2663C79.8688 83.3737 80.0473 83.4297 80.2282 83.4297C80.3244 83.4297 80.4212 83.4136 80.5142 83.3816L87.2148 81.0735L90.668 82.2631C92.6431 85.6888 96.3438 88 100.574 88C106.875 88 112 82.8745 112 76.5742C112 72.844 110.203 69.5258 107.43 67.4391ZM105.672 65.2477V66.3463C104.634 65.8275 103.526 65.4736 102.38 65.2916C102.351 65.2868 102.321 65.282 102.29 65.2772C102.232 65.2683 102.173 65.2604 102.114 65.2525C102.067 65.2463 102.02 65.2398 101.974 65.2343C101.923 65.2281 101.872 65.2223 101.821 65.2168C101.765 65.2106 101.708 65.2047 101.651 65.1996C101.607 65.1955 101.563 65.1914 101.518 65.1876C101.452 65.1821 101.386 65.1776 101.32 65.1735C101.283 65.1711 101.246 65.1684 101.209 65.1663C101.129 65.1618 101.048 65.1587 100.966 65.156C100.943 65.155 100.92 65.1539 100.897 65.1532C100.789 65.1502 100.682 65.1484 100.575 65.1484C100.424 65.1484 100.273 65.1522 100.124 65.1581C98.7162 65.212 97.3542 65.5185 96.0654 66.0737L95.8501 66.0205V65.1944C95.8501 64.709 95.4566 64.3155 94.9712 64.3155C94.4857 64.3155 94.0923 64.709 94.0923 65.1944V65.5858L91.436 64.9291L91.5905 57.7097L105.672 65.2477ZM91.3941 66.7291L93.8561 67.3382C92.8821 68.0485 92.0245 68.9089 91.3169 69.8853L91.3941 66.7291ZM79.4585 64.3152C78.973 64.3152 78.5796 64.7086 78.5796 65.1941V66.0205L68.7578 68.4491V65.2487L82.8598 57.733L82.9954 64.9284L80.3374 65.5858V65.1941C80.3374 64.7086 79.9436 64.3152 79.4585 64.3152ZM89.6954 80.0689L87.5008 79.3129C87.3154 79.249 87.1139 79.249 86.9285 79.3129L81.1071 81.3183V78.8697L84.6945 75.7636C84.893 75.592 85.0042 75.3403 84.998 75.0777L84.7663 65.5917L84.5901 56.2663C84.5901 56.2646 84.5898 56.2629 84.5898 56.2612C84.5898 56.2602 84.5898 56.2588 84.5898 56.2578L84.4957 52.9746L84.3804 47.5734C84.3646 46.849 84.6437 46.1565 85.1652 45.6237C85.7039 45.0733 86.451 44.7578 87.2148 44.7578C87.9787 44.7578 88.7255 45.0733 89.2641 45.6237C89.786 46.1565 90.0648 46.849 90.0493 47.5734L89.8636 56.2399L89.6634 65.5913V65.5917L89.4602 73.9169C89.4564 73.933 89.453 73.9492 89.4495 73.965C89.4351 74.0254 89.4221 74.0858 89.409 74.1462C89.4008 74.1847 89.3919 74.2225 89.384 74.2609C89.363 74.3622 89.3434 74.4642 89.3252 74.5665C89.3225 74.5805 89.3204 74.595 89.318 74.6094C89.3026 74.699 89.2878 74.7893 89.2741 74.8796C89.27 74.9077 89.2665 74.9359 89.2624 74.964C89.2514 75.0406 89.2411 75.1175 89.2319 75.1944C89.2281 75.2274 89.2243 75.2603 89.2205 75.2936C89.2126 75.3657 89.2051 75.4382 89.1982 75.5106C89.1951 75.546 89.1917 75.5817 89.1889 75.6174C89.1831 75.6874 89.178 75.7578 89.1735 75.8278C89.1711 75.8653 89.1684 75.9023 89.1663 75.9398C89.1625 76.0101 89.1598 76.0809 89.157 76.1516C89.1556 76.1876 89.1539 76.2237 89.1529 76.2597C89.1505 76.3493 89.1495 76.4393 89.1491 76.5296C89.1488 76.5447 89.1484 76.5595 89.1484 76.5746C89.1484 76.5787 89.1488 76.5828 89.1488 76.5869C89.1488 76.7164 89.1519 76.8451 89.1563 76.9735C89.1574 77.0027 89.1584 77.0319 89.1594 77.0607C89.1714 77.3446 89.1938 77.6255 89.226 77.9036C89.2264 77.9046 89.2264 77.906 89.2267 77.907C89.3125 78.6448 89.4691 79.3613 89.6895 80.0497C89.6916 80.0559 89.6933 80.0624 89.6954 80.0689ZM100.574 86.2422C96.4231 86.2422 92.8749 83.612 91.5078 79.9305C91.4988 79.9069 91.4899 79.8832 91.4813 79.8591C91.4638 79.8111 91.447 79.7627 91.4302 79.7142C91.4116 79.6597 91.3934 79.6051 91.3759 79.5505C91.3677 79.5258 91.3594 79.5014 91.3519 79.477C91.1486 78.8285 91.013 78.158 90.9492 77.4789C90.9478 77.4662 90.9468 77.4538 90.9457 77.4411C90.9389 77.3635 90.933 77.2856 90.9279 77.208C90.9262 77.1843 90.9244 77.1606 90.9234 77.1369C90.9193 77.0686 90.9162 76.9999 90.9138 76.9316C90.9128 76.9042 90.9114 76.877 90.9107 76.8499C90.9083 76.7682 90.9073 76.6868 90.9069 76.6051C90.9069 76.5948 90.9066 76.5845 90.9066 76.5742C90.9066 76.5625 90.9069 76.5505 90.9069 76.5389C90.9073 76.4602 90.9083 76.3813 90.9107 76.3027C90.9114 76.2704 90.9131 76.2384 90.9141 76.2065C90.9165 76.1461 90.919 76.0857 90.9224 76.0256C90.9244 75.9919 90.9265 75.9583 90.9289 75.925C90.933 75.8649 90.9375 75.8052 90.9426 75.7454C90.9454 75.7135 90.9481 75.6816 90.9512 75.6497C90.9571 75.5858 90.9639 75.5223 90.9711 75.4588C90.9746 75.4313 90.9773 75.4035 90.9808 75.3764C90.9911 75.294 91.002 75.2123 91.0144 75.1305C91.0158 75.1216 91.0168 75.1134 91.0182 75.1048C91.0312 75.0179 91.046 74.9311 91.0618 74.8449C91.0686 74.8061 91.0765 74.768 91.0837 74.7295C91.093 74.6822 91.1023 74.6351 91.1122 74.5881C91.1219 74.5407 91.1325 74.4937 91.1431 74.4463C91.151 74.4109 91.1593 74.3759 91.1675 74.3406C92.1041 70.3954 95.4645 67.3783 99.582 66.9567C99.5916 66.9557 99.6009 66.955 99.6105 66.954C99.6802 66.9471 99.7502 66.9409 99.8206 66.9354C99.8502 66.933 99.8793 66.9313 99.9089 66.9296C99.9607 66.9258 100.013 66.9224 100.064 66.9196C100.129 66.9162 100.193 66.9138 100.258 66.9117C100.277 66.9114 100.295 66.9104 100.313 66.9097C100.4 66.9076 100.487 66.9062 100.575 66.9062C100.686 66.9062 100.798 66.9087 100.909 66.9124C100.932 66.9135 100.956 66.9145 100.979 66.9152C101.085 66.9196 101.192 66.9251 101.298 66.933C101.303 66.9334 101.307 66.9337 101.311 66.9341C101.417 66.942 101.522 66.9523 101.628 66.9636C101.66 66.9674 101.693 66.9711 101.726 66.9749C101.807 66.9845 101.888 66.9952 101.968 67.0068C102.009 67.013 102.05 67.0189 102.091 67.0254C102.168 67.0374 102.246 67.0508 102.323 67.0652C102.374 67.0741 102.425 67.0841 102.476 67.0944C102.521 67.1033 102.566 67.1129 102.611 67.1229C102.723 67.1466 102.834 67.1723 102.943 67.2001C102.962 67.2046 102.98 67.2091 102.997 67.2135C103.071 67.2324 103.143 67.252 103.215 67.2726C103.218 67.2736 103.221 67.2746 103.224 67.2753C107.271 68.4303 110.243 72.1618 110.243 76.5742C110.242 81.905 105.905 86.2422 100.574 86.2422Z" fill="black"/>
<path d="M80.3379 62.6484C80.3379 62.163 79.9444 61.7695 79.459 61.7695C78.9735 61.7695 78.5801 62.163 78.5801 62.6484V62.669C78.5801 63.1545 78.9735 63.5479 79.459 63.5479C79.9444 63.5479 80.3379 63.1545 80.3379 62.669V62.6484Z" fill="black"/>
<path d="M94.9707 63.5479C95.4562 63.5479 95.8496 63.1545 95.8496 62.669V62.6484C95.8496 62.163 95.4562 61.7695 94.9707 61.7695C94.4852 61.7695 94.0918 62.163 94.0918 62.6484V62.669C94.0918 63.1545 94.4852 63.5479 94.9707 63.5479Z" fill="black"/>
<path d="M100.574 79.7241C100.089 79.7241 99.6953 80.1176 99.6953 80.603V80.6305C99.6953 81.116 100.089 81.5094 100.574 81.5094C101.06 81.5094 101.453 81.116 101.453 80.6305V80.603C101.453 80.1176 101.06 79.7241 100.574 79.7241Z" fill="black"/>
<path d="M100.574 78.8775C101.06 78.8775 101.453 78.4841 101.453 77.9986V72.5178C101.453 72.0327 101.06 71.6389 100.574 71.6389C100.089 71.6389 99.6953 72.0327 99.6953 72.5178V77.9986C99.6953 78.4841 100.089 78.8775 100.574 78.8775Z" fill="black"/>
</g>
<defs>
<clipPath id="clip0_126_26">
<rect width="45" height="45" fill="white" transform="translate(67 43)"/>
</clipPath>
</defs>
</svg>
