<svg width="20" height="20" viewBox="0 0 20 20" fill="none" xmlns="http://www.w3.org/2000/svg">
<path d="M17.0709 2.92924C13.1657 -0.975967 6.83412 -0.975967 2.92891 2.92924C-0.976303 6.83424 -0.976303 13.166 2.92891 17.071C6.83412 20.9762 13.1657 20.9762 17.0709 17.071C20.9761 13.1658 20.9761 6.83424 17.0709 2.92924ZM11.7894 18.1H8.23933V6.97711H11.7894V18.1ZM11.5448 5.13415C11.1528 5.53953 10.5877 5.76309 9.95412 5.76309C8.78758 5.76309 7.90804 4.87078 7.90804 3.68699C7.90804 2.48618 8.81377 1.58067 10.0148 1.58067C11.2177 1.58067 12.0911 2.46659 12.0911 3.68699C12.1092 4.23162 11.9155 4.75091 11.5448 5.13415Z" fill="#0070E0"/>
</svg>
