<svg width="20" height="20" viewBox="0 0 20 20" fill="none" xmlns="http://www.w3.org/2000/svg">
<g clip-path="url(#clip0_73_917)">
<path d="M19.3544 3.10803H17.888V8.15284H18.4743V10.4693H17.3599V2.81511C17.3603 1.26023 16.0996 0 14.5448 0H5.27751C3.72306 0 2.4624 1.26023 2.4624 2.81511V10.3227H1.49466V7.85861H2.11045V2.81511H0.644531V7.85861H1.26032V10.5579H2.4624V16.0713C2.4624 17.1363 3.05519 18.0645 3.92875 18.5423V19.9996H6.39192V18.886H13.3713V20H15.8354V18.5705C16.7406 18.1036 17.3599 17.1597 17.3599 16.0709V10.7032H18.7091V8.15241H19.3544V3.10803ZM6.68571 0.585849H13.2542V2.11166H6.68571V0.585849ZM7.38917 15.9533H3.753V14.3121H7.38917V15.9533ZM16.1869 15.9533H12.5507V14.3121H16.1869V15.9533ZM16.1869 10.6746C16.1869 10.6746 15.483 12.9039 9.85277 12.9039C4.22168 12.9039 3.63496 10.6746 3.63496 10.6746V2.93185H16.1869V10.6746Z" fill="#424A60"/>
</g>
<defs>
<clipPath id="clip0_73_917">
<rect width="20" height="20" fill="white"/>
</clipPath>
</defs>
</svg>
