<svg width="30" height="30" viewBox="0 0 30 30" fill="none" xmlns="http://www.w3.org/2000/svg">
<path d="M29.9688 11.5153V27.5928C29.9688 28.9226 28.8913 30.0001 27.5622 30.0001H7.78754C6.65152 30.0001 5.69961 29.2129 5.44666 28.1542L5.43699 26.7779L5.38086 18.582V2.40727C5.38086 1.07748 6.45834 0 7.78754 0H18.4535C19.4121 0 22.5165 2.64686 25.2605 5.43439C27.7644 7.97865 29.9688 10.64 29.9688 11.5153Z" fill="#DDEAFB"/>
<path d="M29.9677 11.5153V17.4049C29.9677 17.3983 29.9671 17.3916 29.9671 17.3844C29.786 10.1578 23.8995 9.82344 21.9746 7.89845L25.2595 5.43447C27.7633 7.97867 29.9677 10.6401 29.9677 11.5153Z" fill="#CBE2FF"/>
<path d="M18.452 0H12.5625C12.5691 0 12.5758 0.000585937 12.583 0.000585937C19.8096 0.181699 20.144 6.0682 22.0689 7.99312L24.5329 4.70824C21.9887 2.20441 19.3273 0 18.452 0Z" fill="#CBE2FF"/>
<path d="M29.9694 11.5156V12.5338C29.9694 10.3901 28.231 8.65178 26.0874 8.65178H23.7246C22.3955 8.65178 21.3176 7.57383 21.3176 6.24469V3.88201C21.3176 1.7383 19.5793 0 17.4355 0H18.4537C20.2871 0 22.046 0.728496 23.3424 2.02482L27.9445 6.62695C29.2409 7.92334 29.9694 9.68221 29.9694 11.5156Z" fill="#BED8FB"/>
<path d="M25.8503 14.0644H9.3902C9.14018 14.0644 8.9375 13.8617 8.9375 13.6117C8.9375 13.3617 9.14018 13.159 9.3902 13.159H25.8503C26.1004 13.159 26.303 13.3617 26.303 13.6117C26.303 13.8617 26.1004 14.0644 25.8503 14.0644Z" fill="#617881"/>
<path d="M25.8503 16.4725H9.3902C9.14018 16.4725 8.9375 16.2699 8.9375 16.0198C8.9375 15.7698 9.14018 15.5672 9.3902 15.5672H25.8503C26.1004 15.5672 26.303 15.7698 26.303 16.0198C26.303 16.2699 26.1004 16.4725 25.8503 16.4725Z" fill="#617881"/>
<path d="M25.8503 18.8807H9.3902C9.14018 18.8807 8.9375 18.678 8.9375 18.428C8.9375 18.178 9.14018 17.9753 9.3902 17.9753H25.8503C26.1004 17.9753 26.303 18.178 26.303 18.428C26.303 18.678 26.1004 18.8807 25.8503 18.8807Z" fill="#617881"/>
<path d="M18.4297 21.2889H9.39019C9.14018 21.2889 8.9375 21.0862 8.9375 20.8362C8.9375 20.5861 9.14018 20.3835 9.39019 20.3835H18.4297C18.6797 20.3835 18.8824 20.5861 18.8824 20.8362C18.8824 21.0862 18.6797 21.2889 18.4297 21.2889Z" fill="#617881"/>
<path d="M15.4368 7.38512H9.3902C9.14018 7.38512 8.9375 7.18244 8.9375 6.93242C8.9375 6.6824 9.14018 6.47973 9.3902 6.47973H15.4368C15.6869 6.47973 15.8895 6.6824 15.8895 6.93242C15.8895 7.18244 15.6868 7.38512 15.4368 7.38512Z" fill="#617881"/>
<path d="M7.51377 30C11.6473 30 14.9982 26.6491 14.9982 22.5155C14.9982 18.3819 11.6473 15.031 7.51377 15.031C3.38021 15.031 0.0292969 18.3819 0.0292969 22.5155C0.0292969 26.6491 3.38021 30 7.51377 30Z" fill="#78D0B1"/>
<path d="M4.21623 27.8078C5.42338 29.015 6.94049 29.7234 8.5108 29.9331C6.27844 30.2319 3.93715 29.5235 2.22146 27.8078C-0.701426 24.8849 -0.701426 20.1461 2.22146 17.2233C3.93721 15.5075 6.27844 14.7991 8.5108 15.0979C6.94049 15.3077 5.42338 16.0161 4.21623 17.2233C1.29334 20.1461 1.29334 24.885 4.21623 27.8078Z" fill="#61AAB7"/>
<path d="M6.85647 26.9002C6.73741 26.9002 6.62192 26.8532 6.53638 26.7676L3.41192 23.6432C3.23509 23.4664 3.23509 23.1798 3.41192 23.0029C3.5887 22.8261 3.87534 22.8261 4.05218 23.0029L6.73425 25.685L10.1322 18.9531C10.2448 18.7299 10.5172 18.6403 10.7404 18.753C10.9635 18.8657 11.0532 19.1379 10.9405 19.3611L7.26065 26.6515C7.19521 26.7812 7.07157 26.8715 6.92819 26.8945C6.90429 26.8984 6.88032 26.9002 6.85647 26.9002Z" fill="#617881"/>
</svg>
