<svg width="30" height="30" viewBox="0 0 30 30" fill="none" xmlns="http://www.w3.org/2000/svg">
<g clip-path="url(#clip0_292_414)">
<path d="M24.7648 13.2286V27.8161C24.7648 29.0223 23.787 30.0001 22.5808 30.0001H4.63904C3.43283 30.0001 2.45508 29.0223 2.45508 27.8161V4.96439C2.45508 3.75789 3.43312 2.78043 4.63904 2.78043H14.3163L24.7648 13.2286Z" fill="#BED8FB"/>
<path d="M7.42029 27.2198C6.21408 27.2198 5.23633 26.242 5.23633 25.0359V2.18409C5.23627 0.977583 6.21432 0.00012207 7.42029 0.00012207H17.0975C18.7613 0.00012207 27.546 8.78473 27.546 10.4483V25.0359C27.546 26.2421 26.5681 27.2198 25.362 27.2198H7.42029Z" fill="#DDEAFB"/>
<path d="M27.5461 10.4485V11.3723C27.5461 9.42733 25.9688 7.8501 24.0238 7.8501H21.88C20.6741 7.8501 19.6961 6.87206 19.6961 5.66614V3.52237C19.6961 1.57735 18.1188 0.00012207 16.1738 0.00012207H17.0977C18.7612 0.00012207 20.3571 0.661059 21.5333 1.83733L25.7089 6.01295C26.8851 7.18917 27.5461 8.78502 27.5461 10.4485Z" fill="#BED8FB"/>
<path d="M14.2154 16.6738V23.0591C14.2154 23.3345 14.4387 23.5578 14.7142 23.5578H18.0654C18.3408 23.5578 18.5641 23.3345 18.5641 23.0591V16.6738H19.9888C20.4331 16.6738 20.6557 16.1366 20.3415 15.8224L17.158 12.639C16.7338 12.2147 16.0458 12.2147 15.6215 12.639L12.4381 15.8224C12.1239 16.1366 12.3464 16.6738 12.7908 16.6738H14.2154Z" fill="#80B4FB"/>
<path d="M12.5031 10.8866H20.276C20.8127 10.8866 21.2478 10.4515 21.2478 9.91475V9.88803C21.2478 9.35125 20.8127 8.91614 20.276 8.91614H12.5031C11.9664 8.91614 11.5312 9.35125 11.5312 9.88803V9.91475C11.5312 10.4515 11.9664 10.8866 12.5031 10.8866Z" fill="#80B4FB"/>
</g>
<defs>
<clipPath id="clip0_292_414">
<rect width="30" height="30" fill="white"/>
</clipPath>
</defs>
</svg>
