<svg width="30" height="30" viewBox="0 0 30 30" fill="none" xmlns="http://www.w3.org/2000/svg">
<path d="M29.4571 9.91365V23.755C29.4571 24.8998 28.5295 25.8274 27.3852 25.8274H10.361C9.38301 25.8274 8.56346 25.1497 8.34572 24.2382L8.3374 23.0534L8.28906 15.9974V2.0724C8.28906 0.927598 9.21666 0 10.361 0H19.5435C20.3687 0 23.0413 2.27871 25.4037 4.67853C27.5593 6.86895 29.4571 9.16014 29.4571 9.91365Z" fill="#DDEAFB"/>
<path d="M29.4576 9.91364V14.984C29.4576 14.9783 29.4571 14.9726 29.4571 14.9663C29.3012 8.74487 24.2334 8.45694 22.5762 6.79974L25.4042 4.67847C27.5598 6.86894 29.4576 9.16013 29.4576 9.91364Z" fill="#CBE2FF"/>
<path d="M19.543 0H14.4727C14.4784 0 14.4841 0.000527344 14.4904 0.000527344C20.7118 0.156445 20.9997 5.22422 22.6569 6.88143L24.7782 4.0534C22.5878 1.89779 20.2965 0 19.543 0Z" fill="#CBE2FF"/>
<path d="M29.4566 9.91395V10.7905C29.4566 8.94498 27.96 7.44844 26.1145 7.44844H24.0804C22.9361 7.44844 22.0081 6.52043 22.0081 5.37615V3.34207C22.0081 1.49654 20.5115 0 18.666 0H19.5426C21.121 0 22.6352 0.627129 23.7512 1.74322L27.7133 5.70527C28.8294 6.82131 29.4566 8.33555 29.4566 9.91395Z" fill="#BED8FB"/>
<path d="M25.9578 10.7097H15.3855C15.1294 10.7097 14.9219 10.5021 14.9219 10.2461C14.9219 9.99001 15.1294 9.78247 15.3855 9.78247H25.9578C26.2138 9.78247 26.4214 9.99001 26.4214 10.2461C26.4214 10.5021 26.2138 10.7097 25.9578 10.7097Z" fill="#80B4FB"/>
<path d="M16.9914 4.95932H11.7859C11.5298 4.95932 11.3223 4.75178 11.3223 4.49573C11.3223 4.23967 11.5298 4.03214 11.7859 4.03214H16.9914C17.2475 4.03214 17.455 4.23967 17.455 4.49573C17.455 4.75178 17.2475 4.95932 16.9914 4.95932Z" fill="#80B4FB"/>
<path d="M26.2981 24.9985L26.2976 24.9991C26.2265 25.957 26.1372 26.9144 26.0305 27.8724C25.9292 28.7849 25.1902 29.4945 24.2751 29.5677C17.1132 30.1442 9.95035 30.1442 2.7885 29.5677C1.86869 29.494 1.1334 28.7775 1.03151 27.8609C0.377716 21.9883 0.382931 16.1158 1.04615 10.2432C1.14389 9.37882 1.8149 8.68946 2.67565 8.56302C5.96862 8.07804 8.91822 8.06655 11.7502 8.52903C12.5963 8.66702 13.2491 9.35216 13.3452 10.2035C13.3578 10.3137 13.3698 10.424 13.3818 10.5343C13.4884 11.5116 14.3157 12.25 15.2987 12.2453C18.3921 12.2306 21.4854 12.3237 24.5787 12.5238C25.5455 12.5865 26.3132 13.3595 26.3723 14.3268C26.5892 17.8842 26.5646 21.4411 26.2981 24.9985Z" fill="#F1D333"/>
<path d="M26.2976 24.999C26.2265 25.957 26.1372 26.9144 26.0305 27.8724C25.9292 28.7848 25.1902 29.4945 24.2751 29.5677C17.1132 30.1442 9.95035 30.1442 2.7885 29.5677C1.86869 29.494 1.1334 28.7775 1.03151 27.8609C0.377716 21.9883 0.382931 16.1157 1.04615 10.2432C1.14389 9.37881 1.8149 8.68945 2.67565 8.563C2.67565 12.5186 1.76785 25.6973 5.9566 26.6165C10.1448 27.5358 23.0255 28.2695 26.2976 24.999Z" fill="#EAB14D"/>
<path d="M10.7178 19.4961H3.58592C2.89879 19.4961 2.3418 18.9391 2.3418 18.252V15.3957C2.3418 14.7086 2.89879 14.1516 3.58592 14.1516H10.7178C11.405 14.1516 11.962 14.7086 11.962 15.3957V18.252C11.962 18.9391 11.405 19.4961 10.7178 19.4961Z" fill="#EAB14D"/>
<path d="M10.7185 19.9597H3.58662C2.64496 19.9597 1.87891 19.1937 1.87891 18.252V15.3957C1.87891 14.4541 2.64496 13.688 3.58662 13.688H10.7185C11.6602 13.688 12.4263 14.4541 12.4263 15.3957V18.252C12.4263 19.1937 11.6602 19.9597 10.7185 19.9597ZM3.58662 14.6152C3.15625 14.6152 2.80615 14.9653 2.80615 15.3957V18.252C2.80615 18.6824 3.15625 19.0325 3.58662 19.0325H10.7185C11.149 19.0325 11.4991 18.6824 11.4991 18.252V15.3957C11.4991 14.9654 11.149 14.6152 10.7185 14.6152H3.58662Z" fill="#5EA5EC"/>
<path d="M7.57494 18.3501H4.37766C4.1216 18.3501 3.91406 18.1425 3.91406 17.8865C3.91406 17.6304 4.1216 17.4229 4.37766 17.4229H7.57494C7.83099 17.4229 8.03853 17.6305 8.03853 17.8865C8.03853 18.1425 7.83099 18.3501 7.57494 18.3501Z" fill="#5EA5EC"/>
<path d="M9.92777 16.461H4.37766C4.1216 16.461 3.91406 16.2534 3.91406 15.9974C3.91406 15.7413 4.1216 15.5338 4.37766 15.5338H9.92777C10.1838 15.5338 10.3914 15.7413 10.3914 15.9974C10.3914 16.2534 10.1838 16.461 9.92777 16.461Z" fill="#5EA5EC"/>
</svg>
