<svg width="30" height="30" viewBox="0 0 30 30" fill="none" xmlns="http://www.w3.org/2000/svg">
<g clip-path="url(#clip0_356_928)">
<path d="M22.0898 15.8203H15.0586C14.5732 15.8203 14.1797 15.4268 14.1797 14.9414V7.91016C14.1797 7.42477 14.5732 7.03125 15.0586 7.03125C15.544 7.03125 15.9375 7.42477 15.9375 7.91016V14.0625H22.0898C22.5752 14.0625 22.9688 14.456 22.9688 14.9414C22.9688 15.4268 22.5752 15.8203 22.0898 15.8203Z" fill="#686361"/>
<path d="M15.0586 30C13.042 30 11.0782 29.5983 9.2216 28.8061C7.43232 28.0426 5.82188 26.9522 4.43484 25.5652C3.04781 24.1781 1.95738 22.5677 1.19391 20.7784C0.40166 18.9218 0 16.958 0 14.9414C0 10.9556 1.57623 7.20223 4.43842 4.37268C7.29064 1.55291 11.0623 0 15.0586 0C19.0496 0 22.8017 1.55414 25.6238 4.37625C28.4459 7.1983 30 10.9504 30 14.9414C30 18.9377 28.4471 22.7094 25.6273 25.5616C22.7978 28.4238 19.0444 30 15.0586 30ZM15.0586 1.75781C7.72453 1.75781 1.75781 7.67197 1.75781 14.9414C1.75781 22.2755 7.72453 28.2422 15.0586 28.2422C22.328 28.2422 28.2422 22.2755 28.2422 14.9414C28.2422 7.67197 22.328 1.75781 15.0586 1.75781Z" fill="#FFCDA7"/>
<path d="M15.0586 26.4844C12.011 26.4844 9.12217 25.2739 6.92414 23.0759C4.72611 20.8778 3.51562 17.989 3.51562 14.9414C3.51562 11.8983 4.72781 9.02859 6.92889 6.8608C9.11912 4.70361 12.0063 3.51562 15.0586 3.51562C21.3588 3.51562 26.4844 8.64123 26.4844 14.9414C26.4844 17.9937 25.2964 20.8809 23.1392 23.0711C20.9713 25.2722 18.1017 26.4844 15.0586 26.4844ZM15.0586 5.27344C9.66305 5.27344 5.27344 9.61049 5.27344 14.9414C5.27344 20.2455 9.75451 24.7266 15.0586 24.7266C20.3895 24.7266 24.7266 20.337 24.7266 14.9414C24.7266 9.61049 20.3895 5.27344 15.0586 5.27344Z" fill="#FFA92C"/>
</g>
<defs>
<clipPath id="clip0_356_928">
<rect width="30" height="30" fill="white"/>
</clipPath>
</defs>
</svg>
