<svg width="85" height="85" viewBox="0 0 85 85" fill="none" xmlns="http://www.w3.org/2000/svg">
<path fill-rule="evenodd" clip-rule="evenodd" d="M12.2852 83.3398H55.5199L72.7888 66.071V1.66016H12.2852V83.3398Z" fill="#B5F2FF"/>
<path fill-rule="evenodd" clip-rule="evenodd" d="M55.5195 83.3399V66.071H72.7884L55.5195 83.3399Z" fill="#00D8FF"/>
<path fill-rule="evenodd" clip-rule="evenodd" d="M12.2852 66.7376C13.2021 66.7376 13.9453 65.9945 13.9453 65.0775V3.32031H71.1286V6.64127C71.1286 7.5576 71.8718 8.30143 72.7888 8.30143C73.7057 8.30143 74.4489 7.5576 74.4489 6.64127V1.66016C74.4489 0.743179 73.7057 0 72.7888 0H12.2852C11.3682 0 10.625 0.743179 10.625 1.66016V65.0775C10.625 65.9945 11.3682 66.7376 12.2852 66.7376Z" fill="black"/>
<path fill-rule="evenodd" clip-rule="evenodd" d="M72.7888 18.2625C71.8718 18.2625 71.1286 19.0056 71.1286 19.9226V64.4109H55.5199C54.6029 64.4109 53.8597 65.1541 53.8597 66.0711V81.6798H13.9453V78.3588C13.9453 77.4425 13.2021 76.6987 12.2852 76.6987C11.3682 76.6987 10.625 77.4425 10.625 78.3588V83.3399C10.625 84.2569 11.3682 85.0001 12.2852 85.0001H55.5199C55.5283 85.0001 55.5368 84.9988 55.5458 84.9988C55.5912 84.9981 55.6366 84.9962 55.682 84.9923C55.7099 84.9897 55.7372 84.9839 55.7644 84.98C55.7903 84.9761 55.8169 84.9735 55.8422 84.9683C55.8701 84.9631 55.8973 84.9547 55.9252 84.9482C55.9499 84.9417 55.9752 84.9365 55.9998 84.9294C56.0257 84.9216 56.0504 84.9112 56.0757 84.9022C56.1016 84.8931 56.1275 84.8853 56.1528 84.8749C56.1755 84.8652 56.1976 84.8535 56.2196 84.8431C56.2469 84.8308 56.2741 84.8192 56.3 84.8055C56.3208 84.7945 56.3409 84.7815 56.361 84.7692C56.3876 84.7537 56.4142 84.7394 56.4395 84.7219C56.4635 84.7063 56.4855 84.6882 56.5082 84.6713C56.5296 84.6557 56.551 84.6415 56.5711 84.6246C56.6139 84.5902 56.6548 84.5533 56.6937 84.5137L73.9626 67.2448C74.0151 67.1923 74.0624 67.1359 74.1065 67.0775C74.1182 67.0633 74.1292 67.0483 74.1396 67.0334C74.1811 66.9744 74.2207 66.9148 74.2544 66.8512C74.2563 66.8473 74.2576 66.8434 74.2596 66.8395C74.2907 66.7792 74.3179 66.717 74.3413 66.6534C74.3478 66.6366 74.3542 66.619 74.3601 66.6015C74.3828 66.5341 74.4029 66.466 74.4172 66.396C74.4172 66.3947 74.4172 66.3934 74.4178 66.3914C74.4308 66.3233 74.4386 66.2533 74.4431 66.1833C74.445 66.1644 74.4457 66.1456 74.4463 66.1268C74.447 66.108 74.4489 66.0899 74.4489 66.0711V19.9226C74.4489 19.0056 73.7057 18.2625 72.7888 18.2625V18.2625ZM57.1801 79.3322V67.7312H68.7804L57.1801 79.3322Z" fill="black"/>
<path fill-rule="evenodd" clip-rule="evenodd" d="M61.0212 17.9173C60.3734 17.2688 59.3222 17.2688 58.6737 17.9173L54.9221 21.6688L51.1699 17.9173C50.522 17.2688 49.4708 17.2688 48.8223 17.9173C48.1738 18.5651 48.1738 19.6163 48.8223 20.2648L52.5739 24.0164L48.8223 27.7686C48.1738 28.4165 48.1738 29.4677 48.8223 30.1162C49.4702 30.7647 50.5214 30.7647 51.1699 30.1162L54.9221 26.3646L58.6737 30.1162C58.9979 30.4404 59.4227 30.6026 59.8474 30.6026C60.2722 30.6026 60.697 30.4404 61.0212 30.1162C61.6697 29.4677 61.6697 28.4165 61.0212 27.7686L57.2697 24.0164L61.0212 20.2648C61.6697 19.6163 61.6697 18.5651 61.0212 17.9173V17.9173Z" fill="black"/>
<path fill-rule="evenodd" clip-rule="evenodd" d="M26.2685 51.2631C30.4202 47.9182 36.35 45.9993 42.538 45.9993C48.726 45.9993 54.6558 47.9182 58.8075 51.2631C59.1143 51.5109 59.4826 51.6308 59.8484 51.6308C60.3328 51.6308 60.814 51.4194 61.1421 51.0122C61.7173 50.2982 61.6045 49.2528 60.8905 48.6776C56.1597 44.8657 49.4698 42.679 42.538 42.679C35.6062 42.679 28.9163 44.8657 24.1855 48.6776C23.4709 49.2528 23.3587 50.2982 23.9339 51.0122C24.5091 51.7255 25.5545 51.839 26.2685 51.2631V51.2631Z" fill="black"/>
<path fill-rule="evenodd" clip-rule="evenodd" d="M24.0528 30.1163C24.7006 30.7642 25.7518 30.7642 26.4003 30.1157L30.1519 26.3641L33.9035 30.1157C34.2277 30.4399 34.6525 30.6021 35.0773 30.6021C35.502 30.6021 35.9274 30.4399 36.251 30.1157C36.8995 29.4678 36.8995 28.4166 36.2517 27.7681L32.5001 24.0166L36.2517 20.2644C36.8995 19.6165 36.8995 18.5653 36.251 17.9168C35.6032 17.2689 34.552 17.2683 33.9035 17.9168L30.1519 21.6684L26.4003 17.9168C25.7518 17.2683 24.7006 17.2683 24.0528 17.9168C23.4043 18.5653 23.4043 19.6165 24.0528 20.2644L27.8043 24.0166L24.0528 27.7681C23.4043 28.4166 23.4043 29.4678 24.0528 30.1163Z" fill="black"/>
<path fill-rule="evenodd" clip-rule="evenodd" d="M12.2852 73.3782C13.1995 73.3782 13.9453 72.633 13.9453 71.718C13.9453 70.8036 13.1995 70.0579 12.2852 70.0579C11.3708 70.0579 10.625 70.8036 10.625 71.718C10.625 72.633 11.3708 73.3782 12.2852 73.3782Z" fill="black"/>
<path fill-rule="evenodd" clip-rule="evenodd" d="M72.7891 11.6218C71.8747 11.6218 71.1289 12.367 71.1289 13.282C71.1289 14.1964 71.8747 14.9421 72.7891 14.9421C73.7034 14.9421 74.4492 14.1964 74.4492 13.282C74.4492 12.367 73.7034 11.6218 72.7891 11.6218Z" fill="black"/>
</svg>
