<svg width="308" height="145" viewBox="0 0 308 145" fill="none" xmlns="http://www.w3.org/2000/svg">
<g filter="url(#filter0_d_73_1617)">
<rect x="50" y="46" width="208" height="45" rx="10" fill="#3B5B95"/>
</g>
<path d="M135.976 64.752C135.56 64.752 135.229 64.8533 134.984 65.056C134.749 65.248 134.632 65.5093 134.632 65.84C134.632 66.16 134.776 66.416 135.064 66.608C135.363 66.8 136.04 67.0293 137.096 67.296C138.163 67.552 138.989 67.9413 139.576 68.464C140.163 68.9867 140.456 69.7493 140.456 70.752C140.456 71.7547 140.077 72.5707 139.32 73.2C138.573 73.8187 137.587 74.128 136.36 74.128C134.589 74.128 132.995 73.472 131.576 72.16L133.064 70.336C134.269 71.392 135.384 71.92 136.408 71.92C136.867 71.92 137.224 71.824 137.48 71.632C137.747 71.4293 137.88 71.1627 137.88 70.832C137.88 70.4907 137.741 70.224 137.464 70.032C137.187 69.8293 136.637 69.6267 135.816 69.424C134.515 69.1147 133.56 68.7147 132.952 68.224C132.355 67.7227 132.056 66.944 132.056 65.888C132.056 64.8213 132.435 64 133.192 63.424C133.96 62.848 134.915 62.56 136.056 62.56C136.803 62.56 137.549 62.688 138.296 62.944C139.043 63.2 139.693 63.5627 140.248 64.032L138.984 65.856C138.013 65.12 137.011 64.752 135.976 64.752ZM144.739 69.36V74H142.339V62.128H144.739V66.352C145.464 65.616 146.275 65.248 147.171 65.248C148.078 65.248 148.84 65.568 149.459 66.208C150.078 66.848 150.387 67.7013 150.387 68.768V74H147.987V69.296C147.987 67.9733 147.502 67.312 146.531 67.312C146.051 67.312 145.63 67.488 145.267 67.84C144.915 68.1813 144.739 68.688 144.739 69.36ZM159.87 74H157.614V72.96C156.995 73.7387 156.227 74.128 155.31 74.128C154.403 74.128 153.641 73.8667 153.022 73.344C152.403 72.8107 152.094 72.1067 152.094 71.232C152.094 70.3467 152.414 69.6853 153.054 69.248C153.694 68.8107 154.569 68.592 155.678 68.592H157.47V68.544C157.47 67.6267 156.985 67.168 156.014 67.168C155.598 67.168 155.155 67.2533 154.686 67.424C154.227 67.584 153.838 67.7867 153.518 68.032L152.446 66.48C153.577 65.6587 154.867 65.248 156.318 65.248C157.363 65.248 158.217 65.5093 158.878 66.032C159.539 66.5547 159.87 67.3813 159.87 68.512V74ZM157.454 70.72V70.304H155.95C154.99 70.304 154.51 70.6027 154.51 71.2C154.51 71.5093 154.622 71.7493 154.846 71.92C155.081 72.08 155.411 72.16 155.838 72.16C156.265 72.16 156.638 72.032 156.958 71.776C157.289 71.5093 157.454 71.1573 157.454 70.72ZM166.586 67.504C165.871 67.504 165.338 67.76 164.986 68.272C164.634 68.7733 164.458 69.44 164.458 70.272V74H162.058V65.392H164.458V66.528C164.767 66.176 165.151 65.8773 165.61 65.632C166.079 65.3867 166.554 65.2587 167.034 65.248L167.05 67.504H166.586ZM176.092 72.752C175.121 73.6693 173.98 74.128 172.668 74.128C171.367 74.128 170.289 73.728 169.436 72.928C168.583 72.1173 168.156 71.0347 168.156 69.68C168.156 68.3253 168.588 67.248 169.452 66.448C170.327 65.648 171.356 65.248 172.54 65.248C173.724 65.248 174.727 65.6053 175.548 66.32C176.38 67.0347 176.796 68.016 176.796 69.264V70.544H170.524C170.599 71.0133 170.844 71.3973 171.26 71.696C171.676 71.9947 172.145 72.144 172.668 72.144C173.511 72.144 174.204 71.8613 174.748 71.296L176.092 72.752ZM174.364 68.832C174.311 68.32 174.119 67.9253 173.788 67.648C173.457 67.3707 173.052 67.232 172.572 67.232C172.103 67.232 171.671 67.376 171.276 67.664C170.881 67.952 170.652 68.3413 170.588 68.832H174.364Z" fill="white"/>
<g clip-path="url(#clip0_73_1617)">
<path d="M87.3048 58H72.695C71.2066 58 70 59.2066 70 60.695V75.3049C70 76.7933 71.2066 77.9999 72.695 77.9999H79.9005L79.9128 70.853H78.056C77.8147 70.853 77.6189 70.6579 77.6179 70.4166L77.609 68.1129C77.6081 67.8703 77.8045 67.6731 78.0472 67.6731H79.9005V65.4471C79.9005 62.8638 81.4782 61.4572 83.7826 61.4572H85.6736C85.9155 61.4572 86.1117 61.6534 86.1117 61.8954V63.8379C86.1117 64.0798 85.9157 64.2759 85.6738 64.276L84.5134 64.2766C83.2602 64.2766 83.0175 64.8721 83.0175 65.746V67.6731H85.7713C86.0336 67.6731 86.2372 67.9022 86.2063 68.1628L85.9332 70.4666C85.9071 70.687 85.7202 70.8531 85.4982 70.8531H83.0298L83.0175 78H87.3049C88.7933 78 89.9999 76.7934 89.9999 75.305V60.695C89.9998 59.2066 88.7932 58 87.3048 58Z" fill="white"/>
</g>
<defs>
<filter id="filter0_d_73_1617" x="0" y="0" width="308" height="145" filterUnits="userSpaceOnUse" color-interpolation-filters="sRGB">
<feFlood flood-opacity="0" result="BackgroundImageFix"/>
<feColorMatrix in="SourceAlpha" type="matrix" values="0 0 0 0 0 0 0 0 0 0 0 0 0 0 0 0 0 0 127 0" result="hardAlpha"/>
<feOffset dy="4"/>
<feGaussianBlur stdDeviation="25"/>
<feColorMatrix type="matrix" values="0 0 0 0 0.270824 0 0 0 0 0.262745 0 0 0 0 0.666667 0 0 0 0.15 0"/>
<feBlend mode="normal" in2="BackgroundImageFix" result="effect1_dropShadow_73_1617"/>
<feBlend mode="normal" in="SourceGraphic" in2="effect1_dropShadow_73_1617" result="shape"/>
</filter>
<clipPath id="clip0_73_1617">
<rect width="20" height="20" fill="white" transform="translate(70 58)"/>
</clipPath>
</defs>
</svg>
