<svg width="120" height="121" viewBox="0 0 120 121" fill="none" xmlns="http://www.w3.org/2000/svg">
<g clip-path="url(#clip0_149_444)">
<path d="M99.0591 53.1444V111.495C99.0591 116.319 95.1478 120.23 90.3232 120.23H18.5562C13.7313 120.23 9.82031 116.319 9.82031 111.495V20.0877C9.82031 15.2617 13.7325 11.3518 18.5562 11.3518H57.2653L99.0591 53.1444Z" fill="#BED8FB"/>
<path d="M29.6773 109.11C24.8524 109.11 20.9414 105.198 20.9414 100.374V8.96657C20.9412 4.14056 24.8534 0.230713 29.6773 0.230713H68.3862C75.0412 0.230713 110.18 35.3691 110.18 42.0235V100.374C110.18 105.199 106.269 109.11 101.444 109.11H29.6773Z" fill="#DDEAFB"/>
<path d="M110.18 42.0242V45.7196C110.18 37.9395 103.871 31.6306 96.0913 31.6306H87.5162C82.6926 31.6306 78.7804 27.7184 78.7804 22.8948V14.3197C78.7804 6.53962 72.4715 0.230713 64.6914 0.230713H68.3868C75.0407 0.230713 81.4244 2.87446 86.1292 7.57954L102.832 24.282C107.536 28.9869 110.18 35.3703 110.18 42.0242Z" fill="#BED8FB"/>
<path d="M56.8616 66.9253V92.4663C56.8616 93.5681 57.7548 94.4613 58.8566 94.4613H72.2615C73.3633 94.4613 74.2565 93.5681 74.2565 92.4663V66.9253H79.9553C81.7326 66.9253 82.6227 64.7766 81.366 63.5198L68.6322 50.786C66.9351 49.0889 64.1833 49.0889 62.4862 50.786L49.7523 63.5198C48.4956 64.7766 49.3858 66.9253 51.163 66.9253H56.8616Z" fill="#80B4FB"/>
<path d="M50.0165 43.7768H81.1077C83.2548 43.7768 84.9953 42.0363 84.9953 39.8892V39.7824C84.9953 37.6352 83.2548 35.8948 81.1077 35.8948H50.0165C47.8694 35.8948 46.1289 37.6352 46.1289 39.7824V39.8892C46.1289 42.0361 47.8694 43.7768 50.0165 43.7768Z" fill="#80B4FB"/>
</g>
<defs>
<clipPath id="clip0_149_444">
<rect width="120" height="120" fill="white" transform="translate(0 0.230713)"/>
</clipPath>
</defs>
</svg>
