<svg width="110" height="68" viewBox="0 0 110 68" fill="none" xmlns="http://www.w3.org/2000/svg">
<path d="M94.375 0.103027V61.978C94.3746 63.4698 93.7819 64.9003 92.7271 65.9551C91.6723 67.0099 90.2417 67.6027 88.75 67.603H6.25C4.75827 67.6027 3.32775 67.0099 2.27294 65.9551C1.21812 64.9003 0.625373 63.4698 0.625 61.978V0.103027H94.375Z" fill="#4DB7E5"/>
<path d="M94.375 0.103027V60.103H104.421C105.735 60.103 106.995 59.5811 107.924 58.652C108.853 57.7229 109.375 56.4627 109.375 55.1488C109.375 54.7037 109.315 54.2605 109.197 53.8314L94.375 0.103027Z" fill="#F35244"/>
<path d="M94.375 0.103027V61.978C94.3746 63.4698 93.7819 64.9003 92.7271 65.9551C91.6723 67.0099 90.2417 67.6027 88.75 67.603H6.25C4.75827 67.6027 3.32775 67.0099 2.27294 65.9551C1.21812 64.9003 0.625373 63.4698 0.625 61.978V60.5788C31.3 54.7312 64.8461 37.5983 83.7109 0.103027H94.375Z" fill="#4AAFDB"/>
<path d="M94.375 52.603V61.978C94.3746 63.4698 93.7819 64.9003 92.7271 65.9551C91.6723 67.0099 90.2417 67.6027 88.75 67.603H6.25C4.75827 67.6027 3.32775 67.0099 2.27294 65.9551C1.21812 64.9003 0.625373 63.4698 0.625 61.978V52.603H94.375Z" fill="#60D1E0"/>
<path d="M8.125 11.353H36.25V45.103H8.125V11.353Z" fill="#FFB531"/>
<path d="M26.3359 32.3751C27.091 31.7604 27.6996 30.985 28.1172 30.1054C28.5348 29.2258 28.751 28.2642 28.75 27.2905V25.4155C28.75 23.675 28.0586 22.0058 26.8279 20.7751C25.5972 19.5444 23.928 18.853 22.1875 18.853C20.447 18.853 18.7778 19.5444 17.5471 20.7751C16.3164 22.0058 15.625 23.675 15.625 25.4155V27.2905C15.624 28.2642 15.8402 29.2258 16.2578 30.1054C16.6755 30.985 17.284 31.7604 18.0391 32.3751C15.2058 33.0907 12.6922 34.7312 10.8964 37.0366C9.10067 39.3421 8.12537 42.1807 8.125 45.103H36.25C36.2496 42.1807 35.2743 39.3421 33.4786 37.0366C31.6828 34.7312 29.1692 33.0907 26.3359 32.3751Z" fill="#F35244"/>
<path d="M43.75 18.853H62.5V22.603H43.75V18.853Z" fill="#45A7D1"/>
<path d="M43.75 26.353H55V30.103H43.75V26.353Z" fill="#45A7D1"/>
<path d="M43.75 33.853H62.5V37.603H43.75V33.853Z" fill="#45A7D1"/>
<path d="M43.75 41.353H62.5V45.103H43.75V41.353Z" fill="#45A7D1"/>
<path d="M71.875 18.853H83.125V22.603H71.875V18.853Z" fill="#45A7D1"/>
<path d="M71.875 26.353H83.125V30.103H71.875V26.353Z" fill="#45A7D1"/>
<path d="M71.875 33.853H83.125V37.603H71.875V33.853Z" fill="#45A7D1"/>
<path d="M71.875 41.353H83.125V45.103H71.875V41.353Z" fill="#45A7D1"/>
<path d="M43.75 11.353H83.125V15.103H43.75V11.353Z" fill="#45A7D1"/>
<path d="M94.375 52.603V61.978C94.3746 63.4698 93.7819 64.9003 92.7271 65.9551C91.6723 67.0099 90.2417 67.6027 88.75 67.603H6.25C4.75827 67.6027 3.32775 67.0099 2.27294 65.9551C1.21812 64.9003 0.625373 63.4698 0.625 61.978V60.5788C9.73283 58.86 18.6343 56.1867 27.182 52.603H94.375Z" fill="#5BCCD9"/>
<path d="M8.125 58.228H11.875V61.978H8.125V58.228Z" fill="#3FB5C4"/>
<path d="M15.625 58.228H26.875V61.978H15.625V58.228Z" fill="#3FB5C4"/>
<path d="M30.625 58.228H41.875V61.978H30.625V58.228Z" fill="#3FB5C4"/>
<path d="M45.625 58.228H56.875V61.978H45.625V58.228Z" fill="#3FB5C4"/>
<path d="M60.625 58.228H64.375V61.978H60.625V58.228Z" fill="#3FB5C4"/>
<path d="M68.125 58.228H71.875V61.978H68.125V58.228Z" fill="#3FB5C4"/>
<path d="M75.625 58.228H79.375V61.978H75.625V58.228Z" fill="#3FB5C4"/>
<path d="M83.125 58.228H86.875V61.978H83.125V58.228Z" fill="#3FB5C4"/>
</svg>
