<svg width="230" height="120" viewBox="0 0 230 120" fill="none" xmlns="http://www.w3.org/2000/svg">
<g clip-path="url(#clip0_903_20)">
<path d="M83.7281 4.83056C84.3591 5.46103 84.8596 6.20977 85.2008 7.0339C85.5421 7.85803 85.7174 8.74138 85.7169 9.63336L85.7169 35.9875L80.4136 41.2908L85.7169 46.5941L85.7169 110.071C85.7173 110.963 85.542 111.847 85.2008 112.671C84.8597 113.495 84.3594 114.244 83.7287 114.875C83.0979 115.505 82.3491 116.006 81.5249 116.347C80.7007 116.688 79.8173 116.863 78.9253 116.863L44.7787 116.863C43.8867 116.863 43.0034 116.688 42.1792 116.347C41.355 116.006 40.6061 115.505 39.9754 114.875C39.3447 114.244 38.8444 113.495 38.5033 112.671C38.1621 111.847 37.9867 110.963 37.9872 110.071L37.9872 102.865L37.9872 46.594L43.2905 41.2907L37.9872 35.9874L37.9872 9.63335C37.9867 8.74135 38.1621 7.85802 38.5032 7.03383C38.8444 6.20964 39.3446 5.46077 39.9754 4.83004C40.6061 4.19929 41.355 3.69905 42.1792 3.3579C43.0034 3.01675 43.8867 2.84138 44.7787 2.84182L78.9253 2.84182C79.8173 2.84167 80.7005 3.01723 81.5245 3.35846C82.3486 3.69969 83.0974 4.19992 83.7281 4.83056Z" fill="#348FD9"/>
<path d="M83.7291 4.83049C84.36 5.46097 84.8605 6.2097 85.2017 7.03383C85.543 7.85796 85.7184 8.7413 85.7178 9.63329L85.7178 35.9874L80.4145 41.2907L85.7178 46.594L85.7178 110.071C85.7182 110.963 85.5429 111.847 85.2017 112.671C84.8606 113.495 84.3603 114.244 83.7296 114.875C83.0988 115.505 82.35 116.005 81.5258 116.347C80.7016 116.688 79.8183 116.863 78.9263 116.863L44.7796 116.863C43.8876 116.863 43.0043 116.688 42.1801 116.347C41.3559 116.005 40.607 115.505 39.9763 114.875C39.3456 114.244 38.8453 113.495 38.5042 112.671C38.163 111.847 37.9877 110.963 37.9881 110.071L37.9881 102.865C58.2483 75.3362 73.9743 41.6619 78.5252 2.84176L78.9263 2.84175C79.8182 2.8416 80.7014 3.01716 81.5255 3.35839C82.3495 3.69962 83.0983 4.19985 83.7291 4.83049Z" fill="#3086CD"/>
<path d="M48.5859 43.1758V39.4263H53.8883V43.1758H48.5859Z" fill="#2D7DBF"/>
<path d="M59.1953 43.1765L59.1953 39.4271L64.4977 39.4271L64.4977 43.1765L59.1953 43.1765Z" fill="#2D7DBF"/>
<path d="M69.8008 43.1772L69.8008 39.4278L75.1032 39.4278L75.1032 43.1773L69.8008 43.1772Z" fill="#2D7DBF"/>
<path d="M44.0586 107.583L44.0586 94.3267L47.808 94.3267L47.808 107.583L44.0586 107.583Z" fill="#62A9E6"/>
<path d="M52.0078 107.585L52.0078 94.3289L55.7573 94.3289L55.7572 107.585L52.0078 107.585Z" fill="#62A9E6"/>
<path d="M59.9648 107.587L59.9649 94.3303L63.7143 94.3303L63.7143 107.587L59.9648 107.587Z" fill="#62A9E6"/>
<path d="M67.918 107.586L67.918 94.3296L71.6674 94.3296L71.6674 107.586L67.918 107.586Z" fill="#62A9E6"/>
<path d="M75.8711 107.587L75.8711 94.3311L79.6205 94.3311L79.6205 107.587L75.8711 107.587Z" fill="#62A9E6"/>
<path d="M54.2624 85.7448L64.869 85.7448L64.869 52.9665C64.869 52.5174 64.6906 52.0868 64.3731 51.7693C64.0556 51.4518 63.625 51.2734 63.1759 51.2734C62.8836 51.2734 62.5962 51.3491 62.3418 51.4931C62.0873 51.6372 61.8746 51.8447 61.7242 52.0954L58.2399 57.9025L58.2399 79.1157L54.2624 85.7448Z" fill="#F35244"/>
<path d="M46.3102 75.1383L58.2426 65.8575L58.2426 73.8125L46.3102 77.7899L46.3102 75.1383Z" fill="#C84431"/>
<path d="M64.872 72.4865L78.1303 75.1382V72.4865L64.872 64.5316V72.4865Z" fill="#C84431"/>
<path d="M69.8047 14.012L69.8047 10.2625L80.4097 10.2625L80.4097 14.012L69.8047 14.012Z" fill="#62A9E6"/>
<path d="M69.8047 21.9658L69.8047 18.2164L80.4097 18.2164L80.4097 21.9658L69.8047 21.9658Z" fill="#62A9E6"/>
<path d="M69.8047 29.9202L69.8047 26.1707L80.4097 26.1707L80.4097 29.9202L69.8047 29.9202Z" fill="#62A9E6"/>
<path d="M61.3008 29.3691L61.3008 10.8104L65.0502 10.8104L65.0502 29.3691L61.3008 29.3691Z" fill="#62A9E6"/>
<path d="M53.3438 29.3691L53.3437 10.8104L57.0932 10.8104L57.0932 29.3691L53.3438 29.3691Z" fill="#62A9E6"/>
<path d="M45.3945 29.3677L45.3945 10.8089L49.144 10.8089L49.144 29.3677L45.3945 29.3677Z" fill="#62A9E6"/>
<g clip-path="url(#clip1_903_20)">
<path d="M229.176 46.0612V110.371C229.176 115.69 224.866 120 219.549 120H140.451C135.907 120 132.099 116.852 131.087 112.617L131.049 107.112L130.824 74.3278V9.62906C130.824 4.30992 135.134 0 140.451 0H183.115C186.949 0 199.367 10.5874 210.343 21.7376C220.358 31.9146 229.176 42.5602 229.176 46.0612Z" fill="#DDEAFB"/>
<path d="M229.172 46.061V69.6192C229.172 69.5927 229.169 69.566 229.169 69.5372C228.445 40.631 204.899 39.2934 197.199 31.5935L210.339 21.7375C220.354 31.9144 229.172 42.5599 229.172 46.061Z" fill="#CBE2FF"/>
<path d="M183.113 0H159.555C159.581 0 159.608 0.00234375 159.637 0.00234375C188.543 0.726797 189.88 24.2728 197.58 31.9725L207.436 18.833C197.259 8.81766 186.614 0 183.113 0Z" fill="#CBE2FF"/>
<path d="M229.178 46.0624V50.1352C229.178 41.5605 222.225 34.6071 213.65 34.6071H204.199C198.883 34.6071 194.571 30.2953 194.571 24.9787V15.528C194.571 6.9532 187.618 0 179.043 0H183.116C190.449 0 197.485 2.91398 202.67 8.0993L221.079 26.5078C226.264 31.6934 229.178 38.7288 229.178 46.0624Z" fill="#BED8FB"/>
<path d="M212.92 56.2578H147.08C146.08 56.2578 145.27 55.4471 145.27 54.447C145.27 53.4469 146.08 52.6362 147.08 52.6362H212.92C213.921 52.6362 214.731 53.4469 214.731 54.447C214.731 55.4471 213.921 56.2578 212.92 56.2578Z" fill="#617881"/>
<path d="M212.92 65.8899H147.08C146.08 65.8899 145.27 65.0792 145.27 64.0791C145.27 63.079 146.08 62.2683 147.08 62.2683H212.92C213.921 62.2683 214.731 63.079 214.731 64.0791C214.731 65.0792 213.921 65.8899 212.92 65.8899Z" fill="#617881"/>
<path d="M212.92 75.5227H147.08C146.08 75.5227 145.27 74.712 145.27 73.7119C145.27 72.7118 146.08 71.9011 147.08 71.9011H212.92C213.921 71.9011 214.731 72.7118 214.731 73.7119C214.731 74.712 213.921 75.5227 212.92 75.5227Z" fill="#617881"/>
<path d="M171.267 85.1555H147.08C146.08 85.1555 145.27 84.3448 145.27 83.3447C145.27 82.3446 146.08 81.5339 147.08 81.5339H171.267C172.267 81.5339 173.077 82.3446 173.077 83.3447C173.077 84.3448 172.267 85.1555 171.267 85.1555Z" fill="#617881"/>
<path d="M171.267 29.5403H147.08C146.08 29.5403 145.27 28.7296 145.27 27.7295C145.27 26.7294 146.08 25.9187 147.08 25.9187H171.267C172.267 25.9187 173.077 26.7294 173.077 27.7295C173.077 28.7296 172.267 29.5403 171.267 29.5403Z" fill="#617881"/>
</g>
</g>
<defs>
<clipPath id="clip0_903_20">
<rect width="230" height="120" fill="white"/>
</clipPath>
<clipPath id="clip1_903_20">
<rect width="120" height="120" fill="white" transform="translate(120)"/>
</clipPath>
</defs>
</svg>
