<svg width="360" height="200" viewBox="0 0 360 200" fill="none" xmlns="http://www.w3.org/2000/svg">
<g filter="url(#filter0_d_447_563)">
<rect x="51" y="47.0001" width="258" height="98" rx="9" stroke="#E75D43" stroke-width="2"/>
</g>
<g clip-path="url(#clip0_447_563)">
<path d="M198.94 77.2731V101.389C198.94 103.384 197.324 105 195.331 105H165.669C163.965 105 162.537 103.819 162.157 102.231L162.143 100.167L162.059 87.8731V63.611C162.059 61.6163 163.675 60.0001 165.669 60.0001H181.668C183.105 60.0001 187.762 63.9704 191.878 68.1517C195.634 71.9681 198.94 75.9602 198.94 77.2731Z" fill="#DDEAFB"/>
<path d="M198.939 77.2731V86.1074C198.939 86.0975 198.938 86.0875 198.938 86.0766C198.666 75.2368 189.837 74.7352 186.949 71.8478L191.877 68.1518C195.632 71.9681 198.939 75.9602 198.939 77.2731Z" fill="#CBE2FF"/>
<path d="M181.666 60.0001H172.832C172.842 60.0001 172.852 60.001 172.863 60.001C183.703 60.2727 184.204 69.1024 187.092 71.9898L190.788 67.0625C186.971 63.3067 182.979 60.0001 181.666 60.0001Z" fill="#CBE2FF"/>
<path d="M198.941 77.2735V78.8008C198.941 75.5853 196.334 72.9778 193.118 72.9778H189.574C187.58 72.9778 185.964 71.3609 185.964 69.3672V65.8231C185.964 62.6076 183.356 60.0001 180.141 60.0001H181.668C184.418 60.0001 187.056 61.0929 189.001 63.0374L195.904 69.9406C197.849 71.8851 198.941 74.5234 198.941 77.2735Z" fill="#BED8FB"/>
<path d="M192.846 81.0967H168.156C167.781 81.0967 167.477 80.7927 167.477 80.4176C167.477 80.0426 167.781 79.7386 168.156 79.7386H192.846C193.221 79.7386 193.525 80.0426 193.525 80.4176C193.525 80.7927 193.221 81.0967 192.846 81.0967Z" fill="#617881"/>
<path d="M192.846 84.7089H168.156C167.781 84.7089 167.477 84.4049 167.477 84.0299C167.477 83.6548 167.781 83.3508 168.156 83.3508H192.846C193.221 83.3508 193.525 83.6548 193.525 84.0299C193.525 84.4049 193.221 84.7089 192.846 84.7089Z" fill="#617881"/>
<path d="M192.846 88.3211H168.156C167.781 88.3211 167.477 88.0171 167.477 87.6421C167.477 87.2671 167.781 86.963 168.156 86.963H192.846C193.221 86.963 193.525 87.2671 193.525 87.6421C193.525 88.0171 193.221 88.3211 192.846 88.3211Z" fill="#617881"/>
<path d="M177.225 91.9333H168.156C167.781 91.9333 167.477 91.6293 167.477 91.2543C167.477 90.8793 167.781 90.5753 168.156 90.5753H177.225C177.601 90.5753 177.905 90.8793 177.905 91.2543C177.905 91.6293 177.601 91.9333 177.225 91.9333Z" fill="#617881"/>
<path d="M177.225 71.0777H168.156C167.781 71.0777 167.477 70.7737 167.477 70.3986C167.477 70.0236 167.781 69.7196 168.156 69.7196H177.225C177.601 69.7196 177.905 70.0236 177.905 70.3986C177.905 70.7737 177.601 71.0777 177.225 71.0777Z" fill="#617881"/>
</g>
<path d="M70.3113 117.192V121.096H75.9273V122.472H70.3113V127H68.7113V115.8H76.6153V117.192H70.3113ZM78.6435 115.128H80.1795V127H78.6435V115.128ZM83.1123 118.52H84.6483V127H83.1123V118.52ZM83.8803 116.888C83.5816 116.888 83.3309 116.792 83.1283 116.6C82.9363 116.408 82.8403 116.173 82.8403 115.896C82.8403 115.619 82.9363 115.384 83.1283 115.192C83.3309 114.989 83.5816 114.888 83.8803 114.888C84.1789 114.888 84.4243 114.984 84.6163 115.176C84.8189 115.357 84.9203 115.587 84.9203 115.864C84.9203 116.152 84.8189 116.397 84.6163 116.6C84.4243 116.792 84.1789 116.888 83.8803 116.888ZM95.693 118.52V125.848C95.693 127.331 95.325 128.424 94.589 129.128C93.853 129.843 92.7543 130.2 91.293 130.2C90.493 130.2 89.7303 130.088 89.005 129.864C88.2797 129.651 87.693 129.341 87.245 128.936L87.981 127.752C88.3757 128.093 88.861 128.36 89.437 128.552C90.0237 128.755 90.6263 128.856 91.245 128.856C92.237 128.856 92.9677 128.621 93.437 128.152C93.917 127.683 94.157 126.968 94.157 126.008V125.336C93.7943 125.773 93.3463 126.104 92.813 126.328C92.2903 126.541 91.7197 126.648 91.101 126.648C90.2903 126.648 89.5543 126.477 88.893 126.136C88.2423 125.784 87.7303 125.299 87.357 124.68C86.9837 124.051 86.797 123.336 86.797 122.536C86.797 121.736 86.9837 121.027 87.357 120.408C87.7303 119.779 88.2423 119.293 88.893 118.952C89.5543 118.611 90.2903 118.44 91.101 118.44C91.741 118.44 92.333 118.557 92.877 118.792C93.4317 119.027 93.885 119.373 94.237 119.832V118.52H95.693ZM91.277 125.304C91.8317 125.304 92.3277 125.187 92.765 124.952C93.213 124.717 93.5597 124.392 93.805 123.976C94.061 123.549 94.189 123.069 94.189 122.536C94.189 121.715 93.917 121.053 93.373 120.552C92.829 120.04 92.1303 119.784 91.277 119.784C90.413 119.784 89.709 120.04 89.165 120.552C88.621 121.053 88.349 121.715 88.349 122.536C88.349 123.069 88.4717 123.549 88.717 123.976C88.973 124.392 89.3197 124.717 89.757 124.952C90.205 125.187 90.7117 125.304 91.277 125.304ZM103.156 118.44C104.233 118.44 105.087 118.755 105.716 119.384C106.356 120.003 106.676 120.915 106.676 122.12V127H105.14V122.296C105.14 121.475 104.943 120.856 104.548 120.44C104.153 120.024 103.588 119.816 102.852 119.816C102.02 119.816 101.364 120.061 100.884 120.552C100.404 121.032 100.164 121.725 100.164 122.632V127H98.6279V115.128H100.164V119.72C100.484 119.315 100.9 119 101.412 118.776C101.935 118.552 102.516 118.44 103.156 118.44ZM114.287 126.504C114.063 126.696 113.785 126.845 113.455 126.952C113.124 127.048 112.783 127.096 112.431 127.096C111.577 127.096 110.916 126.867 110.447 126.408C109.977 125.949 109.743 125.293 109.743 124.44V119.784H108.303V118.52H109.743V116.664H111.279V118.52H113.711V119.784H111.279V124.376C111.279 124.835 111.391 125.187 111.615 125.432C111.849 125.677 112.18 125.8 112.607 125.8C113.076 125.8 113.476 125.667 113.807 125.4L114.287 126.504ZM125.208 126.504C124.984 126.696 124.707 126.845 124.376 126.952C124.046 127.048 123.704 127.096 123.352 127.096C122.499 127.096 121.838 126.867 121.368 126.408C120.899 125.949 120.664 125.293 120.664 124.44V119.784H119.224V118.52H120.664V116.664H122.2V118.52H124.632V119.784H122.2V124.376C122.2 124.835 122.312 125.187 122.536 125.432C122.771 125.677 123.102 125.8 123.528 125.8C123.998 125.8 124.398 125.667 124.728 125.4L125.208 126.504ZM134.448 122.808C134.448 122.925 134.437 123.08 134.416 123.272H127.536C127.632 124.019 127.957 124.621 128.512 125.08C129.077 125.528 129.776 125.752 130.608 125.752C131.621 125.752 132.437 125.411 133.056 124.728L133.904 125.72C133.52 126.168 133.04 126.509 132.464 126.744C131.899 126.979 131.264 127.096 130.56 127.096C129.664 127.096 128.869 126.915 128.176 126.552C127.483 126.179 126.944 125.661 126.56 125C126.187 124.339 126 123.592 126 122.76C126 121.939 126.181 121.197 126.544 120.536C126.917 119.875 127.424 119.363 128.064 119C128.715 118.627 129.445 118.44 130.256 118.44C131.067 118.44 131.787 118.627 132.416 119C133.056 119.363 133.552 119.875 133.904 120.536C134.267 121.197 134.448 121.955 134.448 122.808ZM130.256 119.736C129.52 119.736 128.901 119.96 128.4 120.408C127.909 120.856 127.621 121.443 127.536 122.168H132.976C132.891 121.453 132.597 120.872 132.096 120.424C131.605 119.965 130.992 119.736 130.256 119.736ZM140.277 127.096C139.413 127.096 138.64 126.909 137.957 126.536C137.285 126.163 136.757 125.651 136.373 125C135.989 124.339 135.797 123.592 135.797 122.76C135.797 121.928 135.989 121.187 136.373 120.536C136.757 119.875 137.285 119.363 137.957 119C138.64 118.627 139.413 118.44 140.277 118.44C141.045 118.44 141.728 118.595 142.325 118.904C142.933 119.213 143.402 119.661 143.733 120.248L142.565 121C142.298 120.595 141.968 120.291 141.573 120.088C141.178 119.885 140.741 119.784 140.261 119.784C139.706 119.784 139.205 119.907 138.757 120.152C138.32 120.397 137.973 120.749 137.717 121.208C137.472 121.656 137.349 122.173 137.349 122.76C137.349 123.357 137.472 123.885 137.717 124.344C137.973 124.792 138.32 125.139 138.757 125.384C139.205 125.629 139.706 125.752 140.261 125.752C140.741 125.752 141.178 125.651 141.573 125.448C141.968 125.245 142.298 124.941 142.565 124.536L143.733 125.272C143.402 125.859 142.933 126.312 142.325 126.632C141.728 126.941 141.045 127.096 140.277 127.096ZM150.14 118.44C151.218 118.44 152.071 118.755 152.7 119.384C153.34 120.003 153.66 120.915 153.66 122.12V127H152.124V122.296C152.124 121.475 151.927 120.856 151.532 120.44C151.138 120.024 150.572 119.816 149.836 119.816C149.004 119.816 148.348 120.061 147.868 120.552C147.388 121.032 147.148 121.725 147.148 122.632V127H145.612V115.128H147.148V119.72C147.468 119.315 147.884 119 148.396 118.776C148.919 118.552 149.5 118.44 150.14 118.44ZM161.031 118.44C162.108 118.44 162.962 118.755 163.591 119.384C164.231 120.003 164.551 120.915 164.551 122.12V127H163.015V122.296C163.015 121.475 162.818 120.856 162.423 120.44C162.028 120.024 161.463 119.816 160.727 119.816C159.895 119.816 159.239 120.061 158.759 120.552C158.279 121.032 158.039 121.725 158.039 122.632V127H156.503V118.52H157.975V119.8C158.284 119.363 158.7 119.027 159.223 118.792C159.756 118.557 160.359 118.44 161.031 118.44ZM167.394 118.52H168.93V127H167.394V118.52ZM168.162 116.888C167.863 116.888 167.612 116.792 167.41 116.6C167.218 116.408 167.122 116.173 167.122 115.896C167.122 115.619 167.218 115.384 167.41 115.192C167.612 114.989 167.863 114.888 168.162 114.888C168.46 114.888 168.706 114.984 168.898 115.176C169.1 115.357 169.202 115.587 169.202 115.864C169.202 116.152 169.1 116.397 168.898 116.6C168.706 116.792 168.46 116.888 168.162 116.888ZM175.558 127.096C174.694 127.096 173.921 126.909 173.238 126.536C172.566 126.163 172.038 125.651 171.654 125C171.27 124.339 171.078 123.592 171.078 122.76C171.078 121.928 171.27 121.187 171.654 120.536C172.038 119.875 172.566 119.363 173.238 119C173.921 118.627 174.694 118.44 175.558 118.44C176.326 118.44 177.009 118.595 177.606 118.904C178.214 119.213 178.684 119.661 179.014 120.248L177.846 121C177.58 120.595 177.249 120.291 176.854 120.088C176.46 119.885 176.022 119.784 175.542 119.784C174.988 119.784 174.486 119.907 174.038 120.152C173.601 120.397 173.254 120.749 172.998 121.208C172.753 121.656 172.63 122.173 172.63 122.76C172.63 123.357 172.753 123.885 172.998 124.344C173.254 124.792 173.601 125.139 174.038 125.384C174.486 125.629 174.988 125.752 175.542 125.752C176.022 125.752 176.46 125.651 176.854 125.448C177.249 125.245 177.58 124.941 177.846 124.536L179.014 125.272C178.684 125.859 178.214 126.312 177.606 126.632C177.009 126.941 176.326 127.096 175.558 127.096ZM184.091 118.44C185.264 118.44 186.16 118.728 186.779 119.304C187.408 119.88 187.723 120.739 187.723 121.88V127H186.267V125.88C186.011 126.275 185.643 126.579 185.163 126.792C184.694 126.995 184.134 127.096 183.483 127.096C182.534 127.096 181.771 126.867 181.195 126.408C180.63 125.949 180.347 125.347 180.347 124.6C180.347 123.853 180.619 123.256 181.163 122.808C181.707 122.349 182.571 122.12 183.755 122.12H186.187V121.816C186.187 121.155 185.995 120.648 185.611 120.296C185.227 119.944 184.662 119.768 183.915 119.768C183.414 119.768 182.923 119.853 182.443 120.024C181.963 120.184 181.558 120.403 181.227 120.68L180.587 119.528C181.024 119.176 181.547 118.909 182.155 118.728C182.763 118.536 183.408 118.44 184.091 118.44ZM183.739 125.912C184.326 125.912 184.832 125.784 185.259 125.528C185.686 125.261 185.995 124.888 186.187 124.408V123.224H183.819C182.518 123.224 181.867 123.661 181.867 124.536C181.867 124.963 182.032 125.299 182.363 125.544C182.694 125.789 183.152 125.912 183.739 125.912ZM190.565 115.128H192.101V127H190.565V115.128ZM199.331 118.52H200.867V127H199.331V118.52ZM200.099 116.888C199.8 116.888 199.55 116.792 199.347 116.6C199.155 116.408 199.059 116.173 199.059 115.896C199.059 115.619 199.155 115.384 199.347 115.192C199.55 114.989 199.8 114.888 200.099 114.888C200.398 114.888 200.643 114.984 200.835 115.176C201.038 115.357 201.139 115.587 201.139 115.864C201.139 116.152 201.038 116.397 200.835 116.6C200.643 116.792 200.398 116.888 200.099 116.888ZM208.328 118.44C209.405 118.44 210.258 118.755 210.888 119.384C211.528 120.003 211.848 120.915 211.848 122.12V127H210.312V122.296C210.312 121.475 210.114 120.856 209.72 120.44C209.325 120.024 208.76 119.816 208.024 119.816C207.192 119.816 206.536 120.061 206.056 120.552C205.576 121.032 205.336 121.725 205.336 122.632V127H203.8V118.52H205.272V119.8C205.581 119.363 205.997 119.027 206.52 118.792C207.053 118.557 207.656 118.44 208.328 118.44ZM217.794 116.296C216.877 116.296 216.418 116.792 216.418 117.784V118.52H218.882V119.784H216.45V127H214.914V119.784H213.474V118.52H214.914V117.768C214.914 116.925 215.16 116.259 215.65 115.768C216.141 115.277 216.829 115.032 217.714 115.032C218.056 115.032 218.376 115.075 218.674 115.16C218.973 115.245 219.229 115.368 219.442 115.528L218.978 116.696C218.626 116.429 218.232 116.296 217.794 116.296ZM223.838 127.096C222.995 127.096 222.238 126.909 221.566 126.536C220.894 126.163 220.366 125.651 219.982 125C219.609 124.339 219.422 123.592 219.422 122.76C219.422 121.928 219.609 121.187 219.982 120.536C220.366 119.875 220.894 119.363 221.566 119C222.238 118.627 222.995 118.44 223.838 118.44C224.681 118.44 225.433 118.627 226.094 119C226.766 119.363 227.289 119.875 227.662 120.536C228.046 121.187 228.238 121.928 228.238 122.76C228.238 123.592 228.046 124.339 227.662 125C227.289 125.651 226.766 126.163 226.094 126.536C225.433 126.909 224.681 127.096 223.838 127.096ZM223.838 125.752C224.382 125.752 224.867 125.629 225.294 125.384C225.731 125.128 226.073 124.776 226.318 124.328C226.563 123.869 226.686 123.347 226.686 122.76C226.686 122.173 226.563 121.656 226.318 121.208C226.073 120.749 225.731 120.397 225.294 120.152C224.867 119.907 224.382 119.784 223.838 119.784C223.294 119.784 222.803 119.907 222.366 120.152C221.939 120.397 221.598 120.749 221.342 121.208C221.097 121.656 220.974 122.173 220.974 122.76C220.974 123.347 221.097 123.869 221.342 124.328C221.598 124.776 221.939 125.128 222.366 125.384C222.803 125.629 223.294 125.752 223.838 125.752ZM231.834 119.944C232.101 119.453 232.496 119.08 233.018 118.824C233.541 118.568 234.176 118.44 234.922 118.44V119.928C234.837 119.917 234.72 119.912 234.57 119.912C233.738 119.912 233.082 120.163 232.602 120.664C232.133 121.155 231.898 121.859 231.898 122.776V127H230.362V118.52H231.834V119.944ZM247.423 118.44C248.49 118.44 249.333 118.749 249.951 119.368C250.581 119.987 250.895 120.904 250.895 122.12V127H249.359V122.296C249.359 121.475 249.167 120.856 248.783 120.44C248.41 120.024 247.871 119.816 247.167 119.816C246.389 119.816 245.77 120.061 245.311 120.552C244.853 121.032 244.623 121.725 244.623 122.632V127H243.087V122.296C243.087 121.475 242.895 120.856 242.511 120.44C242.138 120.024 241.599 119.816 240.895 119.816C240.117 119.816 239.498 120.061 239.039 120.552C238.581 121.032 238.351 121.725 238.351 122.632V127H236.815V118.52H238.287V119.784C238.597 119.347 239.002 119.016 239.503 118.792C240.005 118.557 240.575 118.44 241.215 118.44C241.877 118.44 242.463 118.573 242.975 118.84C243.487 119.107 243.882 119.496 244.159 120.008C244.479 119.517 244.922 119.133 245.487 118.856C246.063 118.579 246.709 118.44 247.423 118.44ZM256.81 118.44C257.983 118.44 258.879 118.728 259.498 119.304C260.127 119.88 260.442 120.739 260.442 121.88V127H258.986V125.88C258.73 126.275 258.362 126.579 257.882 126.792C257.412 126.995 256.852 127.096 256.202 127.096C255.252 127.096 254.49 126.867 253.914 126.408C253.348 125.949 253.066 125.347 253.066 124.6C253.066 123.853 253.338 123.256 253.882 122.808C254.426 122.349 255.29 122.12 256.474 122.12H258.906V121.816C258.906 121.155 258.714 120.648 258.33 120.296C257.946 119.944 257.38 119.768 256.634 119.768C256.132 119.768 255.642 119.853 255.162 120.024C254.682 120.184 254.276 120.403 253.946 120.68L253.306 119.528C253.743 119.176 254.266 118.909 254.874 118.728C255.482 118.536 256.127 118.44 256.81 118.44ZM256.458 125.912C257.044 125.912 257.551 125.784 257.978 125.528C258.404 125.261 258.714 124.888 258.906 124.408V123.224H256.538C255.236 123.224 254.586 123.661 254.586 124.536C254.586 124.963 254.751 125.299 255.082 125.544C255.412 125.789 255.871 125.912 256.458 125.912ZM268.052 126.504C267.828 126.696 267.551 126.845 267.22 126.952C266.889 127.048 266.548 127.096 266.196 127.096C265.343 127.096 264.681 126.867 264.212 126.408C263.743 125.949 263.508 125.293 263.508 124.44V119.784H262.068V118.52H263.508V116.664H265.044V118.52H267.476V119.784H265.044V124.376C265.044 124.835 265.156 125.187 265.38 125.432C265.615 125.677 265.945 125.8 266.372 125.8C266.841 125.8 267.241 125.667 267.572 125.4L268.052 126.504ZM269.909 118.52H271.445V127H269.909V118.52ZM270.677 116.888C270.378 116.888 270.128 116.792 269.925 116.6C269.733 116.408 269.637 116.173 269.637 115.896C269.637 115.619 269.733 115.384 269.925 115.192C270.128 114.989 270.378 114.888 270.677 114.888C270.976 114.888 271.221 114.984 271.413 115.176C271.616 115.357 271.717 115.587 271.717 115.864C271.717 116.152 271.616 116.397 271.413 116.6C271.221 116.792 270.976 116.888 270.677 116.888ZM278.01 127.096C277.167 127.096 276.41 126.909 275.738 126.536C275.066 126.163 274.538 125.651 274.154 125C273.781 124.339 273.594 123.592 273.594 122.76C273.594 121.928 273.781 121.187 274.154 120.536C274.538 119.875 275.066 119.363 275.738 119C276.41 118.627 277.167 118.44 278.01 118.44C278.853 118.44 279.605 118.627 280.266 119C280.938 119.363 281.461 119.875 281.834 120.536C282.218 121.187 282.41 121.928 282.41 122.76C282.41 123.592 282.218 124.339 281.834 125C281.461 125.651 280.938 126.163 280.266 126.536C279.605 126.909 278.853 127.096 278.01 127.096ZM278.01 125.752C278.554 125.752 279.039 125.629 279.466 125.384C279.903 125.128 280.245 124.776 280.49 124.328C280.735 123.869 280.858 123.347 280.858 122.76C280.858 122.173 280.735 121.656 280.49 121.208C280.245 120.749 279.903 120.397 279.466 120.152C279.039 119.907 278.554 119.784 278.01 119.784C277.466 119.784 276.975 119.907 276.538 120.152C276.111 120.397 275.77 120.749 275.514 121.208C275.269 121.656 275.146 122.173 275.146 122.76C275.146 123.347 275.269 123.869 275.514 124.328C275.77 124.776 276.111 125.128 276.538 125.384C276.975 125.629 277.466 125.752 278.01 125.752ZM289.062 118.44C290.139 118.44 290.993 118.755 291.622 119.384C292.262 120.003 292.582 120.915 292.582 122.12V127H291.046V122.296C291.046 121.475 290.849 120.856 290.454 120.44C290.059 120.024 289.494 119.816 288.758 119.816C287.926 119.816 287.27 120.061 286.79 120.552C286.31 121.032 286.07 121.725 286.07 122.632V127H284.534V118.52H286.006V119.8C286.315 119.363 286.731 119.027 287.254 118.792C287.787 118.557 288.39 118.44 289.062 118.44Z" fill="#686361"/>
<defs>
<filter id="filter0_d_447_563" x="0" y="0.00012207" width="360" height="200" filterUnits="userSpaceOnUse" color-interpolation-filters="sRGB">
<feFlood flood-opacity="0" result="BackgroundImageFix"/>
<feColorMatrix in="SourceAlpha" type="matrix" values="0 0 0 0 0 0 0 0 0 0 0 0 0 0 0 0 0 0 127 0" result="hardAlpha"/>
<feOffset dy="4"/>
<feGaussianBlur stdDeviation="25"/>
<feColorMatrix type="matrix" values="0 0 0 0 0.270824 0 0 0 0 0.262745 0 0 0 0 0.666667 0 0 0 0.15 0"/>
<feBlend mode="normal" in2="BackgroundImageFix" result="effect1_dropShadow_447_563"/>
<feBlend mode="normal" in="SourceGraphic" in2="effect1_dropShadow_447_563" result="shape"/>
</filter>
<clipPath id="clip0_447_563">
<rect width="45" height="45" fill="white" transform="translate(158 60.0001)"/>
</clipPath>
</defs>
</svg>
