<svg width="360" height="200" viewBox="0 0 360 200" fill="none" xmlns="http://www.w3.org/2000/svg">
<g filter="url(#filter0_d_447_561)">
<rect x="51" y="47.0001" width="258" height="98" rx="9" stroke="#00B67A" stroke-width="2"/>
</g>
<path d="M195.266 69.8439V93.047C195.265 93.6064 195.043 94.1428 194.648 94.5384C194.252 94.934 193.716 95.1562 193.156 95.1564H162.219C161.659 95.1562 161.123 94.934 160.727 94.5384C160.332 94.1428 160.11 93.6064 160.109 93.047V69.8439H195.266Z" fill="#4DB7E5"/>
<path d="M195.266 69.8439V92.3439H199.033C199.526 92.3439 199.998 92.1481 200.346 91.7997C200.695 91.4513 200.891 90.9788 200.891 90.486C200.891 90.3191 200.868 90.1529 200.824 89.992L195.266 69.8439Z" fill="#F35244"/>
<path d="M195.266 69.8439V93.047C195.265 93.6064 195.043 94.1428 194.648 94.5384C194.252 94.934 193.716 95.1562 193.156 95.1564H162.219C161.659 95.1562 161.123 94.934 160.727 94.5384C160.332 94.1428 160.11 93.6064 160.109 93.047V92.5223C171.613 90.3294 184.192 83.9046 191.267 69.8439H195.266Z" fill="#4AAFDB"/>
<path d="M195.266 89.5314V93.047C195.265 93.6064 195.043 94.1428 194.648 94.5384C194.252 94.934 193.716 95.1562 193.156 95.1564H162.219C161.659 95.1562 161.123 94.934 160.727 94.5384C160.332 94.1428 160.11 93.6064 160.109 93.047V89.5314H195.266Z" fill="#60D1E0"/>
<path d="M162.922 74.0626H173.469V86.7189H162.922V74.0626Z" fill="#FFB531"/>
<path d="M169.751 81.9459C170.034 81.7154 170.262 81.4246 170.419 81.0948C170.576 80.7649 170.657 80.4043 170.656 80.0392V79.3361C170.656 78.6834 170.397 78.0574 169.935 77.5959C169.474 77.1344 168.848 76.8751 168.195 76.8751C167.543 76.8751 166.917 77.1344 166.455 77.5959C165.994 78.0574 165.734 78.6834 165.734 79.3361V80.0392C165.734 80.4043 165.815 80.7649 165.972 81.0948C166.128 81.4246 166.356 81.7154 166.64 81.9459C165.577 82.2143 164.635 82.8294 163.961 83.694C163.288 84.5585 162.922 85.623 162.922 86.7189H173.469C173.469 85.623 173.103 84.5585 172.429 83.694C171.756 82.8294 170.813 82.2143 169.751 81.9459Z" fill="#F35244"/>
<path d="M176.281 76.8751H183.312V78.2814H176.281V76.8751Z" fill="#45A7D1"/>
<path d="M176.281 79.6876H180.5V81.0939H176.281V79.6876Z" fill="#45A7D1"/>
<path d="M176.281 82.5001H183.312V83.9064H176.281V82.5001Z" fill="#45A7D1"/>
<path d="M176.281 85.3126H183.312V86.7189H176.281V85.3126Z" fill="#45A7D1"/>
<path d="M186.828 76.8751H191.047V78.2814H186.828V76.8751Z" fill="#45A7D1"/>
<path d="M186.828 79.6876H191.047V81.0939H186.828V79.6876Z" fill="#45A7D1"/>
<path d="M186.828 82.5001H191.047V83.9064H186.828V82.5001Z" fill="#45A7D1"/>
<path d="M186.828 85.3126H191.047V86.7189H186.828V85.3126Z" fill="#45A7D1"/>
<path d="M176.281 74.0626H191.047V75.4689H176.281V74.0626Z" fill="#45A7D1"/>
<path d="M195.266 89.5314V93.047C195.265 93.6064 195.043 94.1428 194.648 94.5384C194.252 94.934 193.716 95.1562 193.156 95.1564H162.219C161.659 95.1562 161.123 94.934 160.727 94.5384C160.332 94.1428 160.11 93.6064 160.109 93.047V92.5223C163.525 91.8778 166.863 90.8752 170.068 89.5314H195.266Z" fill="#5BCCD9"/>
<path d="M162.922 91.6407H164.328V93.047H162.922V91.6407Z" fill="#3FB5C4"/>
<path d="M165.734 91.6407H169.953V93.047H165.734V91.6407Z" fill="#3FB5C4"/>
<path d="M171.359 91.6407H175.578V93.047H171.359V91.6407Z" fill="#3FB5C4"/>
<path d="M176.984 91.6407H181.203V93.047H176.984V91.6407Z" fill="#3FB5C4"/>
<path d="M182.609 91.6407H184.016V93.047H182.609V91.6407Z" fill="#3FB5C4"/>
<path d="M185.422 91.6407H186.828V93.047H185.422V91.6407Z" fill="#3FB5C4"/>
<path d="M188.234 91.6407H189.641V93.047H188.234V91.6407Z" fill="#3FB5C4"/>
<path d="M191.047 91.6407H192.453V93.047H191.047V91.6407Z" fill="#3FB5C4"/>
<path d="M146.048 115.8C147.499 115.8 148.64 116.147 149.472 116.84C150.304 117.533 150.72 118.488 150.72 119.704C150.72 120.92 150.304 121.875 149.472 122.568C148.64 123.261 147.499 123.608 146.048 123.608H143.28V127H141.68V115.8H146.048ZM146 122.216C147.013 122.216 147.787 122.003 148.32 121.576C148.853 121.139 149.12 120.515 149.12 119.704C149.12 118.893 148.853 118.275 148.32 117.848C147.787 117.411 147.013 117.192 146 117.192H143.28V122.216H146ZM155.857 118.44C157.03 118.44 157.926 118.728 158.545 119.304C159.174 119.88 159.489 120.739 159.489 121.88V127H158.033V125.88C157.777 126.275 157.409 126.579 156.929 126.792C156.459 126.995 155.899 127.096 155.249 127.096C154.299 127.096 153.537 126.867 152.961 126.408C152.395 125.949 152.113 125.347 152.113 124.6C152.113 123.853 152.385 123.256 152.929 122.808C153.473 122.349 154.337 122.12 155.521 122.12H157.953V121.816C157.953 121.155 157.761 120.648 157.377 120.296C156.993 119.944 156.427 119.768 155.681 119.768C155.179 119.768 154.689 119.853 154.209 120.024C153.729 120.184 153.323 120.403 152.993 120.68L152.353 119.528C152.79 119.176 153.313 118.909 153.921 118.728C154.529 118.536 155.174 118.44 155.857 118.44ZM155.505 125.912C156.091 125.912 156.598 125.784 157.025 125.528C157.451 125.261 157.761 124.888 157.953 124.408V123.224H155.585C154.283 123.224 153.633 123.661 153.633 124.536C153.633 124.963 153.798 125.299 154.129 125.544C154.459 125.789 154.918 125.912 155.505 125.912ZM164.763 127.096C164.07 127.096 163.403 127.005 162.763 126.824C162.123 126.632 161.622 126.392 161.259 126.104L161.899 124.888C162.272 125.155 162.726 125.368 163.259 125.528C163.792 125.688 164.331 125.768 164.875 125.768C166.219 125.768 166.891 125.384 166.891 124.616C166.891 124.36 166.8 124.157 166.619 124.008C166.438 123.859 166.208 123.752 165.931 123.688C165.664 123.613 165.28 123.533 164.779 123.448C164.096 123.341 163.536 123.219 163.099 123.08C162.672 122.941 162.304 122.707 161.995 122.376C161.686 122.045 161.531 121.581 161.531 120.984C161.531 120.216 161.851 119.603 162.491 119.144C163.131 118.675 163.99 118.44 165.067 118.44C165.632 118.44 166.198 118.509 166.763 118.648C167.328 118.787 167.792 118.973 168.155 119.208L167.499 120.424C166.806 119.976 165.99 119.752 165.051 119.752C164.4 119.752 163.904 119.859 163.563 120.072C163.222 120.285 163.051 120.568 163.051 120.92C163.051 121.197 163.147 121.416 163.339 121.576C163.531 121.736 163.766 121.853 164.043 121.928C164.331 122.003 164.731 122.088 165.243 122.184C165.926 122.301 166.475 122.429 166.891 122.568C167.318 122.696 167.68 122.92 167.979 123.24C168.278 123.56 168.427 124.008 168.427 124.584C168.427 125.352 168.096 125.965 167.435 126.424C166.784 126.872 165.894 127.096 164.763 127.096ZM172.779 127.096C172.085 127.096 171.419 127.005 170.779 126.824C170.139 126.632 169.637 126.392 169.275 126.104L169.915 124.888C170.288 125.155 170.741 125.368 171.275 125.528C171.808 125.688 172.347 125.768 172.891 125.768C174.235 125.768 174.907 125.384 174.907 124.616C174.907 124.36 174.816 124.157 174.635 124.008C174.453 123.859 174.224 123.752 173.947 123.688C173.68 123.613 173.296 123.533 172.795 123.448C172.112 123.341 171.552 123.219 171.115 123.08C170.688 122.941 170.32 122.707 170.011 122.376C169.701 122.045 169.547 121.581 169.547 120.984C169.547 120.216 169.867 119.603 170.507 119.144C171.147 118.675 172.005 118.44 173.083 118.44C173.648 118.44 174.213 118.509 174.779 118.648C175.344 118.787 175.808 118.973 176.171 119.208L175.515 120.424C174.821 119.976 174.005 119.752 173.067 119.752C172.416 119.752 171.92 119.859 171.579 120.072C171.237 120.285 171.067 120.568 171.067 120.92C171.067 121.197 171.163 121.416 171.355 121.576C171.547 121.736 171.781 121.853 172.059 121.928C172.347 122.003 172.747 122.088 173.259 122.184C173.941 122.301 174.491 122.429 174.907 122.568C175.333 122.696 175.696 122.92 175.995 123.24C176.293 123.56 176.443 124.008 176.443 124.584C176.443 125.352 176.112 125.965 175.451 126.424C174.8 126.872 173.909 127.096 172.779 127.096ZM182.858 118.44C183.68 118.44 184.416 118.621 185.066 118.984C185.717 119.347 186.224 119.853 186.586 120.504C186.96 121.155 187.146 121.907 187.146 122.76C187.146 123.613 186.96 124.371 186.586 125.032C186.224 125.683 185.717 126.189 185.066 126.552C184.416 126.915 183.68 127.096 182.858 127.096C182.25 127.096 181.69 126.979 181.178 126.744C180.677 126.509 180.25 126.168 179.898 125.72V130.104H178.362V118.52H179.834V119.864C180.176 119.395 180.608 119.043 181.13 118.808C181.653 118.563 182.229 118.44 182.858 118.44ZM182.73 125.752C183.274 125.752 183.76 125.629 184.186 125.384C184.624 125.128 184.965 124.776 185.21 124.328C185.466 123.869 185.594 123.347 185.594 122.76C185.594 122.173 185.466 121.656 185.21 121.208C184.965 120.749 184.624 120.397 184.186 120.152C183.76 119.907 183.274 119.784 182.73 119.784C182.197 119.784 181.712 119.912 181.274 120.168C180.848 120.413 180.506 120.76 180.25 121.208C180.005 121.656 179.882 122.173 179.882 122.76C179.882 123.347 180.005 123.869 180.25 124.328C180.496 124.776 180.837 125.128 181.274 125.384C181.712 125.629 182.197 125.752 182.73 125.752ZM192.901 127.096C192.058 127.096 191.301 126.909 190.629 126.536C189.957 126.163 189.429 125.651 189.045 125C188.671 124.339 188.485 123.592 188.485 122.76C188.485 121.928 188.671 121.187 189.045 120.536C189.429 119.875 189.957 119.363 190.629 119C191.301 118.627 192.058 118.44 192.901 118.44C193.743 118.44 194.495 118.627 195.157 119C195.829 119.363 196.351 119.875 196.725 120.536C197.109 121.187 197.301 121.928 197.301 122.76C197.301 123.592 197.109 124.339 196.725 125C196.351 125.651 195.829 126.163 195.157 126.536C194.495 126.909 193.743 127.096 192.901 127.096ZM192.901 125.752C193.445 125.752 193.93 125.629 194.357 125.384C194.794 125.128 195.135 124.776 195.381 124.328C195.626 123.869 195.749 123.347 195.749 122.76C195.749 122.173 195.626 121.656 195.381 121.208C195.135 120.749 194.794 120.397 194.357 120.152C193.93 119.907 193.445 119.784 192.901 119.784C192.357 119.784 191.866 119.907 191.429 120.152C191.002 120.397 190.661 120.749 190.405 121.208C190.159 121.656 190.037 122.173 190.037 122.76C190.037 123.347 190.159 123.869 190.405 124.328C190.661 124.776 191.002 125.128 191.429 125.384C191.866 125.629 192.357 125.752 192.901 125.752ZM200.897 119.944C201.163 119.453 201.558 119.08 202.081 118.824C202.603 118.568 203.238 118.44 203.985 118.44V119.928C203.899 119.917 203.782 119.912 203.633 119.912C202.801 119.912 202.145 120.163 201.665 120.664C201.195 121.155 200.961 121.859 200.961 122.776V127H199.425V118.52H200.897V119.944ZM210.99 126.504C210.766 126.696 210.488 126.845 210.158 126.952C209.827 127.048 209.486 127.096 209.134 127.096C208.28 127.096 207.619 126.867 207.15 126.408C206.68 125.949 206.446 125.293 206.446 124.44V119.784H205.006V118.52H206.446V116.664H207.982V118.52H210.414V119.784H207.982V124.376C207.982 124.835 208.094 125.187 208.318 125.432C208.552 125.677 208.883 125.8 209.31 125.8C209.779 125.8 210.179 125.667 210.51 125.4L210.99 126.504ZM215.279 127.096C214.585 127.096 213.919 127.005 213.279 126.824C212.639 126.632 212.137 126.392 211.775 126.104L212.415 124.888C212.788 125.155 213.241 125.368 213.775 125.528C214.308 125.688 214.847 125.768 215.391 125.768C216.735 125.768 217.407 125.384 217.407 124.616C217.407 124.36 217.316 124.157 217.135 124.008C216.953 123.859 216.724 123.752 216.447 123.688C216.18 123.613 215.796 123.533 215.295 123.448C214.612 123.341 214.052 123.219 213.615 123.08C213.188 122.941 212.82 122.707 212.511 122.376C212.201 122.045 212.047 121.581 212.047 120.984C212.047 120.216 212.367 119.603 213.007 119.144C213.647 118.675 214.505 118.44 215.583 118.44C216.148 118.44 216.713 118.509 217.279 118.648C217.844 118.787 218.308 118.973 218.671 119.208L218.015 120.424C217.321 119.976 216.505 119.752 215.567 119.752C214.916 119.752 214.42 119.859 214.079 120.072C213.737 120.285 213.567 120.568 213.567 120.92C213.567 121.197 213.663 121.416 213.855 121.576C214.047 121.736 214.281 121.853 214.559 121.928C214.847 122.003 215.247 122.088 215.759 122.184C216.441 122.301 216.991 122.429 217.407 122.568C217.833 122.696 218.196 122.92 218.495 123.24C218.793 123.56 218.943 124.008 218.943 124.584C218.943 125.352 218.612 125.965 217.951 126.424C217.3 126.872 216.409 127.096 215.279 127.096Z" fill="#686361"/>
<defs>
<filter id="filter0_d_447_561" x="0" y="0.00012207" width="360" height="200" filterUnits="userSpaceOnUse" color-interpolation-filters="sRGB">
<feFlood flood-opacity="0" result="BackgroundImageFix"/>
<feColorMatrix in="SourceAlpha" type="matrix" values="0 0 0 0 0 0 0 0 0 0 0 0 0 0 0 0 0 0 127 0" result="hardAlpha"/>
<feOffset dy="4"/>
<feGaussianBlur stdDeviation="25"/>
<feColorMatrix type="matrix" values="0 0 0 0 0.270824 0 0 0 0 0.262745 0 0 0 0 0.666667 0 0 0 0.15 0"/>
<feBlend mode="normal" in2="BackgroundImageFix" result="effect1_dropShadow_447_561"/>
<feBlend mode="normal" in="SourceGraphic" in2="effect1_dropShadow_447_561" result="shape"/>
</filter>
</defs>
</svg>
