<svg width="360" height="200" viewBox="0 0 360 200" fill="none" xmlns="http://www.w3.org/2000/svg">
<g filter="url(#filter0_d_447_564)">
<rect x="51" y="47.0001" width="258" height="98" rx="9" stroke="#E75D43" stroke-width="2"/>
</g>
<g clip-path="url(#clip0_447_564)">
<path d="M203 67.6553V104.897C203 106.611 201.611 108 199.897 108H161.103C159.389 108 158 106.611 158 104.897V67.6553H203Z" fill="#ECF0F1"/>
<path d="M203 67.6553V104.897C203 106.611 201.611 108 199.897 108H161.103C159.389 108 158 106.611 158 104.897V67.6553H203Z" fill="#B0D3F0"/>
<path d="M203 66.1036V69.207H158V66.1036C158 64.3896 159.389 63.0001 161.103 63.0001H199.897C201.611 63.0001 203 64.3896 203 66.1036Z" fill="#56595E"/>
<path d="M161.12 66.8794C160.691 66.8794 160.344 66.5321 160.344 66.1036C160.344 65.6751 160.691 65.3277 161.12 65.3277C161.548 65.3277 161.895 65.6751 161.895 66.1036C161.895 66.5321 161.548 66.8794 161.12 66.8794Z" fill="#E64C3C"/>
<path d="M164.225 66.8794C163.797 66.8794 163.449 66.5321 163.449 66.1036C163.449 65.6751 163.797 65.3277 164.225 65.3277C164.654 65.3277 165.001 65.6751 165.001 66.1036C165.001 66.5321 164.654 66.8794 164.225 66.8794Z" fill="#F0C419"/>
<path d="M167.327 66.8794C166.898 66.8794 166.551 66.5321 166.551 66.1036C166.551 65.6751 166.898 65.3277 167.327 65.3277C167.755 65.3277 168.103 65.6751 168.103 66.1036C168.103 66.5321 167.755 66.8794 167.327 66.8794Z" fill="#24AE5F"/>
<path d="M199.12 67.6553C198.691 67.6553 198.344 67.3079 198.344 66.8794V65.3277C198.344 64.8992 198.691 64.5518 199.12 64.5518C199.548 64.5518 199.895 64.8992 199.895 65.3277V66.8794C199.895 67.3079 199.548 67.6553 199.12 67.6553Z" fill="#BDC3C7"/>
<path d="M199.898 66.8794H198.346C197.918 66.8794 197.57 66.5321 197.57 66.1036C197.57 65.6751 197.918 65.3277 198.346 65.3277H199.898C200.326 65.3277 200.674 65.6751 200.674 66.1036C200.674 66.5321 200.326 66.8794 199.898 66.8794Z" fill="#BDC3C7"/>
<path d="M195.242 66.8794H193.69C193.261 66.8794 192.914 66.5321 192.914 66.1036C192.914 65.6751 193.261 65.3277 193.69 65.3277H195.242C195.67 65.3277 196.018 65.6751 196.018 66.1036C196.018 66.5321 195.67 66.8794 195.242 66.8794Z" fill="#BDC3C7"/>
<path d="M184.379 73.0863H162.655C162.226 73.0863 161.879 73.4337 161.879 73.8622V76.9656C161.879 77.3941 162.226 77.7415 162.655 77.7415H184.379C184.807 77.7415 185.155 77.3941 185.155 76.9656V73.8622C185.155 73.4337 184.807 73.0863 184.379 73.0863Z" fill="#2980BA"/>
<path d="M185.155 81.6208H162.655C162.226 81.6208 161.879 81.2735 161.879 80.845C161.879 80.4165 162.226 80.0691 162.655 80.0691H185.155C185.583 80.0691 185.931 80.4165 185.931 80.845C185.931 81.2735 185.583 81.6208 185.155 81.6208Z" fill="#3B97D3"/>
<path d="M182.827 84.7243H162.655C162.226 84.7243 161.879 84.3769 161.879 83.9484C161.879 83.5199 162.226 83.1725 162.655 83.1725H182.827C183.256 83.1725 183.603 83.5199 183.603 83.9484C183.603 84.3769 183.256 84.7243 182.827 84.7243Z" fill="#3B97D3"/>
<path d="M181.275 87.8277H162.655C162.226 87.8277 161.879 87.4804 161.879 87.0519C161.879 86.6234 162.226 86.276 162.655 86.276H181.275C181.704 86.276 182.051 86.6234 182.051 87.0519C182.051 87.4804 181.704 87.8277 181.275 87.8277Z" fill="#3B97D3"/>
<path d="M179.724 90.9312H162.655C162.226 90.9312 161.879 90.5838 161.879 90.1553C161.879 89.7268 162.226 89.3795 162.655 89.3795H179.724C180.152 89.3795 180.5 89.7268 180.5 90.1553C180.5 90.5838 180.152 90.9312 179.724 90.9312Z" fill="#3B97D3"/>
<path d="M182.928 94.0346H162.655C162.226 94.0346 161.879 94.382 161.879 94.8105V104.121C161.879 104.549 162.226 104.897 162.655 104.897H198.344C198.773 104.897 199.12 104.549 199.12 104.121V94.8105C199.12 94.382 198.773 94.0346 198.344 94.0346H189.95" fill="#3B97D3"/>
<path d="M187.958 97.7975L183.07 101.948C182.828 102.153 182.485 102.19 182.205 102.041C181.925 101.893 181.764 101.589 181.797 101.273L182.472 94.8958C185.604 95.4226 185.545 95.276 187.958 97.7975Z" fill="#F9EAB0"/>
<path d="M193.567 80.5812L185.584 95.6639C184.71 95.2046 184.101 95.1697 182.473 94.8958L190.829 79.1226L193.567 80.5812Z" fill="#F3D55B"/>
<path d="M196.304 82.032L187.956 97.7975C187.292 96.9568 186.489 96.2353 185.582 95.6639L193.566 80.5812L196.304 82.032Z" fill="#F0C419"/>
<path d="M198.849 77.2294L197.763 79.2855L192.277 76.3837L193.364 74.3277C193.652 73.7808 194.146 73.3712 194.737 73.1892C195.328 73.0073 195.967 73.068 196.514 73.3579L197.879 74.0794C198.426 74.368 198.836 74.8622 199.018 75.4532C199.2 76.0442 199.139 76.6833 198.849 77.2294Z" fill="#D75E72"/>
<path d="M197.76 79.2855L196.302 82.032C193.014 80.2902 194.273 80.959 190.824 79.1225L192.275 76.3837L197.76 79.2855Z" fill="#BDC3C7"/>
<path d="M165.757 102.569H164.206C163.777 102.569 163.43 102.222 163.43 101.793C163.43 101.365 163.777 101.017 164.206 101.017H165.757C166.186 101.017 166.533 101.365 166.533 101.793C166.533 102.222 166.186 102.569 165.757 102.569Z" fill="#9FC9D3"/>
<path d="M170.414 102.569H168.862C168.433 102.569 168.086 102.222 168.086 101.793C168.086 101.365 168.433 101.017 168.862 101.017H170.414C170.842 101.017 171.189 101.365 171.189 101.793C171.189 102.222 170.842 102.569 170.414 102.569Z" fill="#9FC9D3"/>
<path d="M175.07 102.569H173.518C173.09 102.569 172.742 102.222 172.742 101.793C172.742 101.365 173.09 101.017 173.518 101.017H175.07C175.498 101.017 175.846 101.365 175.846 101.793C175.846 102.222 175.498 102.569 175.07 102.569Z" fill="#9FC9D3"/>
<path d="M178.946 102.569H178.17C177.742 102.569 177.395 102.222 177.395 101.793C177.395 101.365 177.742 101.017 178.17 101.017H178.946C179.375 101.017 179.722 101.365 179.722 101.793C179.722 102.222 179.375 102.569 178.946 102.569Z" fill="#9FC9D3"/>
<path d="M187.481 102.569H186.706C186.277 102.569 185.93 102.222 185.93 101.793C185.93 101.365 186.277 101.017 186.706 101.017H187.481C187.91 101.017 188.257 101.365 188.257 101.793C188.257 102.222 187.91 102.569 187.481 102.569Z" fill="#9FC9D3"/>
<path d="M192.136 102.569H190.584C190.156 102.569 189.809 102.222 189.809 101.793C189.809 101.365 190.156 101.017 190.584 101.017H192.136C192.565 101.017 192.912 101.365 192.912 101.793C192.912 102.222 192.565 102.569 192.136 102.569Z" fill="#9FC9D3"/>
<path d="M196.792 102.569H195.241C194.812 102.569 194.465 102.222 194.465 101.793C194.465 101.365 194.812 101.017 195.241 101.017H196.792C197.221 101.017 197.568 101.365 197.568 101.793C197.568 102.222 197.221 102.569 196.792 102.569Z" fill="#9FC9D3"/>
</g>
<path d="M96.5534 127.128C95.7107 127.128 94.8947 127 94.1054 126.744C93.3267 126.477 92.7134 126.136 92.2654 125.72L92.8574 124.472C93.284 124.856 93.828 125.171 94.4894 125.416C95.1614 125.651 95.8494 125.768 96.5534 125.768C97.4814 125.768 98.1747 125.613 98.6334 125.304C99.092 124.984 99.3214 124.563 99.3214 124.04C99.3214 123.656 99.1934 123.347 98.9374 123.112C98.692 122.867 98.3827 122.68 98.0094 122.552C97.6467 122.424 97.1294 122.28 96.4574 122.12C95.6147 121.917 94.932 121.715 94.4094 121.512C93.8974 121.309 93.4547 121 93.0814 120.584C92.7187 120.157 92.5374 119.587 92.5374 118.872C92.5374 118.275 92.692 117.736 93.0014 117.256C93.3214 116.776 93.8014 116.392 94.4414 116.104C95.0814 115.816 95.876 115.672 96.8254 115.672C97.4867 115.672 98.1374 115.757 98.7774 115.928C99.4174 116.099 99.9667 116.344 100.425 116.664L99.8974 117.944C99.428 117.645 98.9267 117.421 98.3934 117.272C97.86 117.112 97.3374 117.032 96.8254 117.032C95.9187 117.032 95.236 117.197 94.7774 117.528C94.3294 117.859 94.1054 118.285 94.1054 118.808C94.1054 119.192 94.2334 119.507 94.4894 119.752C94.7454 119.987 95.06 120.173 95.4334 120.312C95.8174 120.44 96.3347 120.579 96.9854 120.728C97.828 120.931 98.5054 121.133 99.0174 121.336C99.5294 121.539 99.9667 121.848 100.329 122.264C100.703 122.68 100.889 123.24 100.889 123.944C100.889 124.531 100.729 125.069 100.409 125.56C100.089 126.04 99.604 126.424 98.9534 126.712C98.3027 126.989 97.5027 127.128 96.5534 127.128ZM103.003 118.52H104.539V127H103.003V118.52ZM103.771 116.888C103.472 116.888 103.222 116.792 103.019 116.6C102.827 116.408 102.731 116.173 102.731 115.896C102.731 115.619 102.827 115.384 103.019 115.192C103.222 114.989 103.472 114.888 103.771 114.888C104.07 114.888 104.315 114.984 104.507 115.176C104.71 115.357 104.811 115.587 104.811 115.864C104.811 116.152 104.71 116.397 104.507 116.6C104.315 116.792 104.07 116.888 103.771 116.888ZM115.584 118.52V125.848C115.584 127.331 115.216 128.424 114.48 129.128C113.744 129.843 112.645 130.2 111.184 130.2C110.384 130.2 109.621 130.088 108.896 129.864C108.17 129.651 107.584 129.341 107.136 128.936L107.872 127.752C108.266 128.093 108.752 128.36 109.328 128.552C109.914 128.755 110.517 128.856 111.136 128.856C112.128 128.856 112.858 128.621 113.328 128.152C113.808 127.683 114.048 126.968 114.048 126.008V125.336C113.685 125.773 113.237 126.104 112.704 126.328C112.181 126.541 111.61 126.648 110.992 126.648C110.181 126.648 109.445 126.477 108.784 126.136C108.133 125.784 107.621 125.299 107.248 124.68C106.874 124.051 106.688 123.336 106.688 122.536C106.688 121.736 106.874 121.027 107.248 120.408C107.621 119.779 108.133 119.293 108.784 118.952C109.445 118.611 110.181 118.44 110.992 118.44C111.632 118.44 112.224 118.557 112.768 118.792C113.322 119.027 113.776 119.373 114.128 119.832V118.52H115.584ZM111.168 125.304C111.722 125.304 112.218 125.187 112.656 124.952C113.104 124.717 113.45 124.392 113.696 123.976C113.952 123.549 114.08 123.069 114.08 122.536C114.08 121.715 113.808 121.053 113.264 120.552C112.72 120.04 112.021 119.784 111.168 119.784C110.304 119.784 109.6 120.04 109.056 120.552C108.512 121.053 108.24 121.715 108.24 122.536C108.24 123.069 108.362 123.549 108.608 123.976C108.864 124.392 109.21 124.717 109.648 124.952C110.096 125.187 110.602 125.304 111.168 125.304ZM123.047 118.44C124.124 118.44 124.977 118.755 125.607 119.384C126.247 120.003 126.567 120.915 126.567 122.12V127H125.031V122.296C125.031 121.475 124.833 120.856 124.439 120.44C124.044 120.024 123.479 119.816 122.743 119.816C121.911 119.816 121.255 120.061 120.775 120.552C120.295 121.032 120.055 121.725 120.055 122.632V127H118.519V118.52H119.991V119.8C120.3 119.363 120.716 119.027 121.239 118.792C121.772 118.557 122.375 118.44 123.047 118.44ZM132.497 118.44C133.67 118.44 134.566 118.728 135.185 119.304C135.814 119.88 136.129 120.739 136.129 121.88V127H134.673V125.88C134.417 126.275 134.049 126.579 133.569 126.792C133.1 126.995 132.54 127.096 131.889 127.096C130.94 127.096 130.177 126.867 129.601 126.408C129.036 125.949 128.753 125.347 128.753 124.6C128.753 123.853 129.025 123.256 129.569 122.808C130.113 122.349 130.977 122.12 132.161 122.12H134.593V121.816C134.593 121.155 134.401 120.648 134.017 120.296C133.633 119.944 133.068 119.768 132.321 119.768C131.82 119.768 131.329 119.853 130.849 120.024C130.369 120.184 129.964 120.403 129.633 120.68L128.993 119.528C129.43 119.176 129.953 118.909 130.561 118.728C131.169 118.536 131.814 118.44 132.497 118.44ZM132.145 125.912C132.732 125.912 133.238 125.784 133.665 125.528C134.092 125.261 134.401 124.888 134.593 124.408V123.224H132.225C130.924 123.224 130.273 123.661 130.273 124.536C130.273 124.963 130.438 125.299 130.769 125.544C131.1 125.789 131.558 125.912 132.145 125.912ZM143.74 126.504C143.516 126.696 143.238 126.845 142.908 126.952C142.577 127.048 142.236 127.096 141.884 127.096C141.03 127.096 140.369 126.867 139.9 126.408C139.43 125.949 139.196 125.293 139.196 124.44V119.784H137.756V118.52H139.196V116.664H140.732V118.52H143.164V119.784H140.732V124.376C140.732 124.835 140.844 125.187 141.068 125.432C141.302 125.677 141.633 125.8 142.06 125.8C142.529 125.8 142.929 125.667 143.26 125.4L143.74 126.504ZM153.501 118.52V127H152.045V125.72C151.735 126.157 151.325 126.499 150.813 126.744C150.311 126.979 149.762 127.096 149.165 127.096C148.034 127.096 147.143 126.787 146.493 126.168C145.842 125.539 145.517 124.616 145.517 123.4V118.52H147.053V123.224C147.053 124.045 147.25 124.669 147.645 125.096C148.039 125.512 148.605 125.72 149.341 125.72C150.151 125.72 150.791 125.475 151.261 124.984C151.73 124.493 151.965 123.8 151.965 122.904V118.52H153.501ZM157.897 119.944C158.163 119.453 158.558 119.08 159.081 118.824C159.603 118.568 160.238 118.44 160.985 118.44V119.928C160.899 119.917 160.782 119.912 160.633 119.912C159.801 119.912 159.145 120.163 158.665 120.664C158.195 121.155 157.961 121.859 157.961 122.776V127H156.425V118.52H157.897V119.944ZM170.464 122.808C170.464 122.925 170.453 123.08 170.432 123.272H163.552C163.648 124.019 163.973 124.621 164.528 125.08C165.093 125.528 165.792 125.752 166.624 125.752C167.637 125.752 168.453 125.411 169.072 124.728L169.92 125.72C169.536 126.168 169.056 126.509 168.48 126.744C167.914 126.979 167.28 127.096 166.576 127.096C165.68 127.096 164.885 126.915 164.192 126.552C163.498 126.179 162.96 125.661 162.576 125C162.202 124.339 162.016 123.592 162.016 122.76C162.016 121.939 162.197 121.197 162.56 120.536C162.933 119.875 163.44 119.363 164.08 119C164.73 118.627 165.461 118.44 166.272 118.44C167.082 118.44 167.802 118.627 168.432 119C169.072 119.363 169.568 119.875 169.92 120.536C170.282 121.197 170.464 121.955 170.464 122.808ZM166.272 119.736C165.536 119.736 164.917 119.96 164.416 120.408C163.925 120.856 163.637 121.443 163.552 122.168H168.992C168.906 121.453 168.613 120.872 168.112 120.424C167.621 119.965 167.008 119.736 166.272 119.736ZM180.526 127.096C179.683 127.096 178.926 126.909 178.254 126.536C177.582 126.163 177.054 125.651 176.67 125C176.296 124.339 176.11 123.592 176.11 122.76C176.11 121.928 176.296 121.187 176.67 120.536C177.054 119.875 177.582 119.363 178.254 119C178.926 118.627 179.683 118.44 180.526 118.44C181.368 118.44 182.12 118.627 182.782 119C183.454 119.363 183.976 119.875 184.35 120.536C184.734 121.187 184.926 121.928 184.926 122.76C184.926 123.592 184.734 124.339 184.35 125C183.976 125.651 183.454 126.163 182.782 126.536C182.12 126.909 181.368 127.096 180.526 127.096ZM180.526 125.752C181.07 125.752 181.555 125.629 181.982 125.384C182.419 125.128 182.76 124.776 183.006 124.328C183.251 123.869 183.374 123.347 183.374 122.76C183.374 122.173 183.251 121.656 183.006 121.208C182.76 120.749 182.419 120.397 181.982 120.152C181.555 119.907 181.07 119.784 180.526 119.784C179.982 119.784 179.491 119.907 179.054 120.152C178.627 120.397 178.286 120.749 178.03 121.208C177.784 121.656 177.662 122.173 177.662 122.76C177.662 123.347 177.784 123.869 178.03 124.328C178.286 124.776 178.627 125.128 179.054 125.384C179.491 125.629 179.982 125.752 180.526 125.752ZM191.578 118.44C192.655 118.44 193.508 118.755 194.138 119.384C194.778 120.003 195.098 120.915 195.098 122.12V127H193.562V122.296C193.562 121.475 193.364 120.856 192.97 120.44C192.575 120.024 192.01 119.816 191.274 119.816C190.442 119.816 189.786 120.061 189.306 120.552C188.826 121.032 188.586 121.725 188.586 122.632V127H187.05V118.52H188.522V119.8C188.831 119.363 189.247 119.027 189.77 118.792C190.303 118.557 190.906 118.44 191.578 118.44ZM205.933 127.096C205.069 127.096 204.296 126.909 203.613 126.536C202.941 126.163 202.413 125.651 202.029 125C201.645 124.339 201.453 123.592 201.453 122.76C201.453 121.928 201.645 121.187 202.029 120.536C202.413 119.875 202.941 119.363 203.613 119C204.296 118.627 205.069 118.44 205.933 118.44C206.701 118.44 207.384 118.595 207.981 118.904C208.589 119.213 209.059 119.661 209.389 120.248L208.221 121C207.955 120.595 207.624 120.291 207.229 120.088C206.835 119.885 206.397 119.784 205.917 119.784C205.363 119.784 204.861 119.907 204.413 120.152C203.976 120.397 203.629 120.749 203.373 121.208C203.128 121.656 203.005 122.173 203.005 122.76C203.005 123.357 203.128 123.885 203.373 124.344C203.629 124.792 203.976 125.139 204.413 125.384C204.861 125.629 205.363 125.752 205.917 125.752C206.397 125.752 206.835 125.651 207.229 125.448C207.624 125.245 207.955 124.941 208.221 124.536L209.389 125.272C209.059 125.859 208.589 126.312 207.981 126.632C207.384 126.941 206.701 127.096 205.933 127.096ZM214.885 127.096C214.042 127.096 213.285 126.909 212.613 126.536C211.941 126.163 211.413 125.651 211.029 125C210.656 124.339 210.469 123.592 210.469 122.76C210.469 121.928 210.656 121.187 211.029 120.536C211.413 119.875 211.941 119.363 212.613 119C213.285 118.627 214.042 118.44 214.885 118.44C215.728 118.44 216.48 118.627 217.141 119C217.813 119.363 218.336 119.875 218.709 120.536C219.093 121.187 219.285 121.928 219.285 122.76C219.285 123.592 219.093 124.339 218.709 125C218.336 125.651 217.813 126.163 217.141 126.536C216.48 126.909 215.728 127.096 214.885 127.096ZM214.885 125.752C215.429 125.752 215.914 125.629 216.341 125.384C216.778 125.128 217.12 124.776 217.365 124.328C217.61 123.869 217.733 123.347 217.733 122.76C217.733 122.173 217.61 121.656 217.365 121.208C217.12 120.749 216.778 120.397 216.341 120.152C215.914 119.907 215.429 119.784 214.885 119.784C214.341 119.784 213.85 119.907 213.413 120.152C212.986 120.397 212.645 120.749 212.389 121.208C212.144 121.656 212.021 122.173 212.021 122.76C212.021 123.347 212.144 123.869 212.389 124.328C212.645 124.776 212.986 125.128 213.413 125.384C213.85 125.629 214.341 125.752 214.885 125.752ZM225.937 118.44C227.014 118.44 227.868 118.755 228.497 119.384C229.137 120.003 229.457 120.915 229.457 122.12V127H227.921V122.296C227.921 121.475 227.724 120.856 227.329 120.44C226.934 120.024 226.369 119.816 225.633 119.816C224.801 119.816 224.145 120.061 223.665 120.552C223.185 121.032 222.945 121.725 222.945 122.632V127H221.409V118.52H222.881V119.8C223.19 119.363 223.606 119.027 224.129 118.792C224.662 118.557 225.265 118.44 225.937 118.44ZM237.068 126.504C236.844 126.696 236.566 126.845 236.236 126.952C235.905 127.048 235.564 127.096 235.212 127.096C234.358 127.096 233.697 126.867 233.228 126.408C232.758 125.949 232.524 125.293 232.524 124.44V119.784H231.084V118.52H232.524V116.664H234.06V118.52H236.492V119.784H234.06V124.376C234.06 124.835 234.172 125.187 234.396 125.432C234.63 125.677 234.961 125.8 235.388 125.8C235.857 125.8 236.257 125.667 236.588 125.4L237.068 126.504ZM240.397 119.944C240.663 119.453 241.058 119.08 241.581 118.824C242.103 118.568 242.738 118.44 243.485 118.44V119.928C243.399 119.917 243.282 119.912 243.133 119.912C242.301 119.912 241.645 120.163 241.165 120.664C240.695 121.155 240.461 121.859 240.461 122.776V127H238.925V118.52H240.397V119.944ZM248.45 118.44C249.624 118.44 250.52 118.728 251.138 119.304C251.768 119.88 252.082 120.739 252.082 121.88V127H250.626V125.88C250.37 126.275 250.002 126.579 249.522 126.792C249.053 126.995 248.493 127.096 247.842 127.096C246.893 127.096 246.13 126.867 245.554 126.408C244.989 125.949 244.706 125.347 244.706 124.6C244.706 123.853 244.978 123.256 245.522 122.808C246.066 122.349 246.93 122.12 248.114 122.12H250.546V121.816C250.546 121.155 250.354 120.648 249.97 120.296C249.586 119.944 249.021 119.768 248.274 119.768C247.773 119.768 247.282 119.853 246.802 120.024C246.322 120.184 245.917 120.403 245.586 120.68L244.946 119.528C245.384 119.176 245.906 118.909 246.514 118.728C247.122 118.536 247.768 118.44 248.45 118.44ZM248.098 125.912C248.685 125.912 249.192 125.784 249.618 125.528C250.045 125.261 250.354 124.888 250.546 124.408V123.224H248.178C246.877 123.224 246.226 123.661 246.226 124.536C246.226 124.963 246.392 125.299 246.722 125.544C247.053 125.789 247.512 125.912 248.098 125.912ZM258.668 127.096C257.804 127.096 257.03 126.909 256.348 126.536C255.676 126.163 255.148 125.651 254.764 125C254.38 124.339 254.188 123.592 254.188 122.76C254.188 121.928 254.38 121.187 254.764 120.536C255.148 119.875 255.676 119.363 256.348 119C257.03 118.627 257.804 118.44 258.668 118.44C259.436 118.44 260.118 118.595 260.716 118.904C261.324 119.213 261.793 119.661 262.124 120.248L260.956 121C260.689 120.595 260.358 120.291 259.964 120.088C259.569 119.885 259.132 119.784 258.652 119.784C258.097 119.784 257.596 119.907 257.148 120.152C256.71 120.397 256.364 120.749 256.108 121.208C255.862 121.656 255.74 122.173 255.74 122.76C255.74 123.357 255.862 123.885 256.108 124.344C256.364 124.792 256.71 125.139 257.148 125.384C257.596 125.629 258.097 125.752 258.652 125.752C259.132 125.752 259.569 125.651 259.964 125.448C260.358 125.245 260.689 124.941 260.956 124.536L262.124 125.272C261.793 125.859 261.324 126.312 260.716 126.632C260.118 126.941 259.436 127.096 258.668 127.096ZM268.99 126.504C268.766 126.696 268.488 126.845 268.158 126.952C267.827 127.048 267.486 127.096 267.134 127.096C266.28 127.096 265.619 126.867 265.15 126.408C264.68 125.949 264.446 125.293 264.446 124.44V119.784H263.006V118.52H264.446V116.664H265.982V118.52H268.414V119.784H265.982V124.376C265.982 124.835 266.094 125.187 266.318 125.432C266.552 125.677 266.883 125.8 267.31 125.8C267.779 125.8 268.179 125.667 268.51 125.4L268.99 126.504Z" fill="#686361"/>
<defs>
<filter id="filter0_d_447_564" x="0" y="0.00012207" width="360" height="200" filterUnits="userSpaceOnUse" color-interpolation-filters="sRGB">
<feFlood flood-opacity="0" result="BackgroundImageFix"/>
<feColorMatrix in="SourceAlpha" type="matrix" values="0 0 0 0 0 0 0 0 0 0 0 0 0 0 0 0 0 0 127 0" result="hardAlpha"/>
<feOffset dy="4"/>
<feGaussianBlur stdDeviation="25"/>
<feColorMatrix type="matrix" values="0 0 0 0 0.270824 0 0 0 0 0.262745 0 0 0 0 0.666667 0 0 0 0.15 0"/>
<feBlend mode="normal" in2="BackgroundImageFix" result="effect1_dropShadow_447_564"/>
<feBlend mode="normal" in="SourceGraphic" in2="effect1_dropShadow_447_564" result="shape"/>
</filter>
<clipPath id="clip0_447_564">
<rect width="45" height="45" fill="white" transform="translate(158 63.0001)"/>
</clipPath>
</defs>
</svg>
