<svg width="37" height="45" viewBox="0 0 37 45" fill="none" xmlns="http://www.w3.org/2000/svg">
<path d="M36.9405 17.273V41.3892C36.9405 43.3839 35.3243 45.0001 33.3306 45.0001H3.66861C1.96459 45.0001 0.536719 43.8194 0.157295 42.2313L0.142793 40.1669L0.0585938 27.8729V3.6109C0.0585938 1.61622 1.67481 0 3.66861 0H19.6676C21.1054 0 25.762 3.97028 29.8781 8.15159C33.6339 11.968 36.9405 15.9601 36.9405 17.273Z" fill="#DDEAFB"/>
<path d="M36.9389 17.2729V26.1072C36.9389 26.0973 36.938 26.0873 36.938 26.0765C36.6664 15.2367 27.8366 14.7351 24.9492 11.8476L29.8765 8.15161C33.6323 11.9679 36.9389 15.96 36.9389 17.2729Z" fill="#CBE2FF"/>
<path d="M19.6664 0H10.832C10.842 0 10.852 0.000878906 10.8628 0.000878906C21.7026 0.272549 22.2042 9.1023 25.0917 11.9897L28.7877 7.06236C24.9713 3.30662 20.9793 0 19.6664 0Z" fill="#CBE2FF"/>
<path d="M36.9413 17.2734V18.8007C36.9413 15.5852 34.3339 12.9777 31.1183 12.9777H27.5742C25.5805 12.9777 23.9636 11.3607 23.9636 9.36703V5.82302C23.9636 2.60745 21.3561 0 18.1406 0H19.6679C22.418 0 25.0563 1.09274 27.0009 3.03724L33.9041 9.94043C35.8486 11.885 36.9413 14.5233 36.9413 17.2734Z" fill="#BED8FB"/>
<path d="M30.8457 21.0966H6.15561C5.78058 21.0966 5.47656 20.7926 5.47656 20.4176C5.47656 20.0425 5.78058 19.7385 6.15561 19.7385H30.8457C31.2207 19.7385 31.5247 20.0425 31.5247 20.4176C31.5248 20.7926 31.2208 21.0966 30.8457 21.0966Z" fill="#617881"/>
<path d="M30.8457 24.7087H6.15561C5.78058 24.7087 5.47656 24.4047 5.47656 24.0296C5.47656 23.6546 5.78058 23.3506 6.15561 23.3506H30.8457C31.2207 23.3506 31.5247 23.6546 31.5247 24.0296C31.5247 24.4047 31.2208 24.7087 30.8457 24.7087Z" fill="#617881"/>
<path d="M30.8457 28.321H6.15561C5.78058 28.321 5.47656 28.017 5.47656 27.6419C5.47656 27.2669 5.78058 26.9629 6.15561 26.9629H30.8457C31.2207 26.9629 31.5247 27.2669 31.5247 27.6419C31.5248 28.017 31.2208 28.321 30.8457 28.321Z" fill="#617881"/>
<path d="M15.2255 31.9333H6.15561C5.78058 31.9333 5.47656 31.6293 5.47656 31.2542C5.47656 30.8792 5.78058 30.5752 6.15561 30.5752H15.2255C15.6005 30.5752 15.9045 30.8792 15.9045 31.2542C15.9045 31.6293 15.6005 31.9333 15.2255 31.9333Z" fill="#617881"/>
<path d="M15.2255 11.0776H6.15561C5.78058 11.0776 5.47656 10.7736 5.47656 10.3985C5.47656 10.0235 5.78058 9.71948 6.15561 9.71948H15.2255C15.6005 9.71948 15.9045 10.0235 15.9045 10.3985C15.9045 10.7736 15.6005 11.0776 15.2255 11.0776Z" fill="#617881"/>
</svg>
