<svg width="360" height="200" viewBox="0 0 360 200" fill="none" xmlns="http://www.w3.org/2000/svg">
<g filter="url(#filter0_d_447_562)">
<rect x="51" y="47.0001" width="258" height="98" rx="9" stroke="#FFA92C" stroke-width="2"/>
</g>
<path d="M200.891 73.7111C200.891 74.0456 200.825 74.3768 200.697 74.6858C200.569 74.9949 200.381 75.2756 200.145 75.512L193.157 82.5002H190.344V85.3127L173.512 102.145C173.276 102.381 172.995 102.569 172.686 102.697C172.377 102.825 172.046 102.891 171.711 102.891C171.377 102.891 171.045 102.825 170.736 102.697C170.427 102.569 170.147 102.381 169.91 102.145L160.856 93.0901C160.619 92.8537 160.431 92.573 160.303 92.2639C160.175 91.9549 160.109 91.6237 160.109 91.2892C160.109 90.9547 160.175 90.6235 160.303 90.3145C160.431 90.0055 160.619 89.7248 160.856 89.4883L162.767 87.5776L177.688 72.6564H180.5V69.8439L187.488 62.8557C187.725 62.6191 188.006 62.4313 188.315 62.3033C188.624 62.1752 188.955 62.1093 189.289 62.1093C189.624 62.1093 189.955 62.1752 190.264 62.3033C190.573 62.4313 190.854 62.6191 191.09 62.8557L200.145 71.9102C200.381 72.1467 200.569 72.4274 200.697 72.7364C200.825 73.0454 200.891 73.3766 200.891 73.7111Z" fill="#348FD9"/>
<path d="M200.891 73.711C200.891 74.0455 200.825 74.3768 200.697 74.6858C200.569 74.9948 200.381 75.2755 200.145 75.5119L193.157 82.5001H190.344V85.3126L173.512 102.145C173.276 102.381 172.995 102.569 172.686 102.697C172.377 102.825 172.046 102.891 171.711 102.891C171.377 102.891 171.045 102.825 170.736 102.697C170.427 102.569 170.147 102.381 169.91 102.145L160.856 93.09C160.619 92.8536 160.431 92.5729 160.303 92.2639C160.175 91.9549 160.109 91.6237 160.109 91.2892C160.109 90.9547 160.175 90.6234 160.303 90.3144C160.431 90.0054 160.619 89.7247 160.856 89.4883L162.767 87.5775C175.439 85.6501 188.538 80.8908 200.038 71.8038L200.145 71.9101C200.381 72.1466 200.569 72.4274 200.697 72.7364C200.825 73.0454 200.891 73.3766 200.891 73.711Z" fill="#3086CD"/>
<path d="M181.406 74.5609L182.4 73.5667L183.806 74.9727L182.812 75.9669L181.406 74.5609Z" fill="#2D7DBF"/>
<path d="M184.215 77.3734L185.209 76.3792L186.615 77.7852L185.621 78.7794L184.215 77.3734Z" fill="#2D7DBF"/>
<path d="M187.031 80.1859L188.025 79.1917L189.431 80.5977L188.437 81.5919L187.031 80.1859Z" fill="#2D7DBF"/>
<path d="M163.125 90.438L166.64 86.9229L167.634 87.9171L164.119 91.4322L163.125 90.438Z" fill="#62A9E6"/>
<path d="M165.234 92.5473L168.749 89.0322L169.744 90.0264L166.229 93.5415L165.234 92.5473Z" fill="#62A9E6"/>
<path d="M167.344 94.6567L170.859 91.1416L171.853 92.1358L168.338 95.651L167.344 94.6567Z" fill="#62A9E6"/>
<path d="M169.449 96.7661L172.964 93.251L173.959 94.2452L170.443 97.7603L169.449 96.7661Z" fill="#62A9E6"/>
<path d="M171.562 98.8755L175.078 95.3604L176.072 96.3546L172.557 99.8697L171.562 98.8755Z" fill="#62A9E6"/>
<path d="M171.621 87.3538L174.434 90.1663L183.125 81.4746C183.244 81.3556 183.311 81.1941 183.311 81.0257C183.311 80.8573 183.244 80.6958 183.125 80.5767C183.048 80.4992 182.951 80.4431 182.846 80.4138C182.74 80.3845 182.629 80.3831 182.522 80.4097L180.059 81.0257L174.434 86.6507L171.621 87.3538Z" fill="#F35244"/>
<path d="M172.324 82.4319L177.949 83.1351L175.84 85.2444L171.621 83.1351L172.324 82.4319Z" fill="#C84431"/>
<path d="M177.949 86.6507L180.762 90.8694L181.465 90.1663L180.059 84.5413L177.949 86.6507Z" fill="#C84431"/>
<path d="M194.762 72.4533L195.756 71.4591L198.568 74.2712L197.574 75.2654L194.762 72.4533Z" fill="#62A9E6"/>
<path d="M192.652 74.5622L193.647 73.568L196.459 76.3801L195.464 77.3743L192.652 74.5622Z" fill="#62A9E6"/>
<path d="M190.543 76.6712L191.537 75.677L194.349 78.4891L193.355 79.4833L190.543 76.6712Z" fill="#62A9E6"/>
<path d="M188.438 74.2706L193.359 69.3495L194.353 70.3437L189.432 75.2648L188.438 74.2706Z" fill="#62A9E6"/>
<path d="M186.328 72.1613L191.249 67.2401L192.243 68.2343L187.322 73.1555L186.328 72.1613Z" fill="#62A9E6"/>
<path d="M184.219 70.0519L189.14 65.1307L190.134 66.125L185.213 71.0461L184.219 70.0519Z" fill="#62A9E6"/>
<path d="M130.28 117.192V121.096H135.896V122.472H130.28V127H128.68V115.8H136.584V117.192H130.28ZM138.612 115.128H140.148V127H138.612V115.128ZM143.081 118.52H144.617V127H143.081V118.52ZM143.849 116.888C143.55 116.888 143.3 116.792 143.097 116.6C142.905 116.408 142.809 116.173 142.809 115.896C142.809 115.619 142.905 115.384 143.097 115.192C143.3 114.989 143.55 114.888 143.849 114.888C144.148 114.888 144.393 114.984 144.585 115.176C144.788 115.357 144.889 115.587 144.889 115.864C144.889 116.152 144.788 116.397 144.585 116.6C144.393 116.792 144.148 116.888 143.849 116.888ZM155.662 118.52V125.848C155.662 127.331 155.294 128.424 154.558 129.128C153.822 129.843 152.723 130.2 151.262 130.2C150.462 130.2 149.699 130.088 148.974 129.864C148.248 129.651 147.662 129.341 147.214 128.936L147.95 127.752C148.344 128.093 148.83 128.36 149.406 128.552C149.992 128.755 150.595 128.856 151.214 128.856C152.206 128.856 152.936 128.621 153.406 128.152C153.886 127.683 154.126 126.968 154.126 126.008V125.336C153.763 125.773 153.315 126.104 152.782 126.328C152.259 126.541 151.688 126.648 151.07 126.648C150.259 126.648 149.523 126.477 148.862 126.136C148.211 125.784 147.699 125.299 147.326 124.68C146.952 124.051 146.766 123.336 146.766 122.536C146.766 121.736 146.952 121.027 147.326 120.408C147.699 119.779 148.211 119.293 148.862 118.952C149.523 118.611 150.259 118.44 151.07 118.44C151.71 118.44 152.302 118.557 152.846 118.792C153.4 119.027 153.854 119.373 154.206 119.832V118.52H155.662ZM151.246 125.304C151.8 125.304 152.296 125.187 152.734 124.952C153.182 124.717 153.528 124.392 153.774 123.976C154.03 123.549 154.158 123.069 154.158 122.536C154.158 121.715 153.886 121.053 153.342 120.552C152.798 120.04 152.099 119.784 151.246 119.784C150.382 119.784 149.678 120.04 149.134 120.552C148.59 121.053 148.318 121.715 148.318 122.536C148.318 123.069 148.44 123.549 148.686 123.976C148.942 124.392 149.288 124.717 149.726 124.952C150.174 125.187 150.68 125.304 151.246 125.304ZM163.125 118.44C164.202 118.44 165.055 118.755 165.685 119.384C166.325 120.003 166.645 120.915 166.645 122.12V127H165.109V122.296C165.109 121.475 164.911 120.856 164.517 120.44C164.122 120.024 163.557 119.816 162.821 119.816C161.989 119.816 161.333 120.061 160.853 120.552C160.373 121.032 160.133 121.725 160.133 122.632V127H158.597V115.128H160.133V119.72C160.453 119.315 160.869 119 161.381 118.776C161.903 118.552 162.485 118.44 163.125 118.44ZM174.255 126.504C174.031 126.696 173.754 126.845 173.423 126.952C173.093 127.048 172.751 127.096 172.399 127.096C171.546 127.096 170.885 126.867 170.415 126.408C169.946 125.949 169.711 125.293 169.711 124.44V119.784H168.271V118.52H169.711V116.664H171.247V118.52H173.679V119.784H171.247V124.376C171.247 124.835 171.359 125.187 171.583 125.432C171.818 125.677 172.149 125.8 172.575 125.8C173.045 125.8 173.445 125.667 173.775 125.4L174.255 126.504ZM185.177 126.504C184.953 126.696 184.676 126.845 184.345 126.952C184.014 127.048 183.673 127.096 183.321 127.096C182.468 127.096 181.806 126.867 181.337 126.408C180.868 125.949 180.633 125.293 180.633 124.44V119.784H179.193V118.52H180.633V116.664H182.169V118.52H184.601V119.784H182.169V124.376C182.169 124.835 182.281 125.187 182.505 125.432C182.74 125.677 183.07 125.8 183.497 125.8C183.966 125.8 184.366 125.667 184.697 125.4L185.177 126.504ZM187.034 118.52H188.57V127H187.034V118.52ZM187.802 116.888C187.503 116.888 187.253 116.792 187.05 116.6C186.858 116.408 186.762 116.173 186.762 115.896C186.762 115.619 186.858 115.384 187.05 115.192C187.253 114.989 187.503 114.888 187.802 114.888C188.101 114.888 188.346 114.984 188.538 115.176C188.741 115.357 188.842 115.587 188.842 115.864C188.842 116.152 188.741 116.397 188.538 116.6C188.346 116.792 188.101 116.888 187.802 116.888ZM195.199 127.096C194.335 127.096 193.562 126.909 192.879 126.536C192.207 126.163 191.679 125.651 191.295 125C190.911 124.339 190.719 123.592 190.719 122.76C190.719 121.928 190.911 121.187 191.295 120.536C191.679 119.875 192.207 119.363 192.879 119C193.562 118.627 194.335 118.44 195.199 118.44C195.967 118.44 196.65 118.595 197.247 118.904C197.855 119.213 198.324 119.661 198.655 120.248L197.487 121C197.22 120.595 196.89 120.291 196.495 120.088C196.1 119.885 195.663 119.784 195.183 119.784C194.628 119.784 194.127 119.907 193.679 120.152C193.242 120.397 192.895 120.749 192.639 121.208C192.394 121.656 192.271 122.173 192.271 122.76C192.271 123.357 192.394 123.885 192.639 124.344C192.895 124.792 193.242 125.139 193.679 125.384C194.127 125.629 194.628 125.752 195.183 125.752C195.663 125.752 196.1 125.651 196.495 125.448C196.89 125.245 197.22 124.941 197.487 124.536L198.655 125.272C198.324 125.859 197.855 126.312 197.247 126.632C196.65 126.941 195.967 127.096 195.199 127.096ZM203.83 123.048L202.07 124.68V127H200.534V115.128H202.07V122.744L206.694 118.52H208.55L204.982 122.024L208.902 127H207.014L203.83 123.048ZM217.698 122.808C217.698 122.925 217.687 123.08 217.666 123.272H210.786C210.882 124.019 211.207 124.621 211.762 125.08C212.327 125.528 213.026 125.752 213.858 125.752C214.871 125.752 215.687 125.411 216.306 124.728L217.154 125.72C216.77 126.168 216.29 126.509 215.714 126.744C215.149 126.979 214.514 127.096 213.81 127.096C212.914 127.096 212.119 126.915 211.426 126.552C210.733 126.179 210.194 125.661 209.81 125C209.437 124.339 209.25 123.592 209.25 122.76C209.25 121.939 209.431 121.197 209.794 120.536C210.167 119.875 210.674 119.363 211.314 119C211.965 118.627 212.695 118.44 213.506 118.44C214.317 118.44 215.037 118.627 215.666 119C216.306 119.363 216.802 119.875 217.154 120.536C217.517 121.197 217.698 121.955 217.698 122.808ZM213.506 119.736C212.77 119.736 212.151 119.96 211.65 120.408C211.159 120.856 210.871 121.443 210.786 122.168H216.226C216.141 121.453 215.847 120.872 215.346 120.424C214.855 119.965 214.242 119.736 213.506 119.736ZM224.599 126.504C224.375 126.696 224.098 126.845 223.767 126.952C223.436 127.048 223.095 127.096 222.743 127.096C221.89 127.096 221.228 126.867 220.759 126.408C220.29 125.949 220.055 125.293 220.055 124.44V119.784H218.615V118.52H220.055V116.664H221.591V118.52H224.023V119.784H221.591V124.376C221.591 124.835 221.703 125.187 221.927 125.432C222.162 125.677 222.492 125.8 222.919 125.8C223.388 125.8 223.788 125.667 224.119 125.4L224.599 126.504ZM228.888 127.096C228.195 127.096 227.528 127.005 226.888 126.824C226.248 126.632 225.747 126.392 225.384 126.104L226.024 124.888C226.397 125.155 226.851 125.368 227.384 125.528C227.917 125.688 228.456 125.768 229 125.768C230.344 125.768 231.016 125.384 231.016 124.616C231.016 124.36 230.925 124.157 230.744 124.008C230.563 123.859 230.333 123.752 230.056 123.688C229.789 123.613 229.405 123.533 228.904 123.448C228.221 123.341 227.661 123.219 227.224 123.08C226.797 122.941 226.429 122.707 226.12 122.376C225.811 122.045 225.656 121.581 225.656 120.984C225.656 120.216 225.976 119.603 226.616 119.144C227.256 118.675 228.115 118.44 229.192 118.44C229.757 118.44 230.323 118.509 230.888 118.648C231.453 118.787 231.917 118.973 232.28 119.208L231.624 120.424C230.931 119.976 230.115 119.752 229.176 119.752C228.525 119.752 228.029 119.859 227.688 120.072C227.347 120.285 227.176 120.568 227.176 120.92C227.176 121.197 227.272 121.416 227.464 121.576C227.656 121.736 227.891 121.853 228.168 121.928C228.456 122.003 228.856 122.088 229.368 122.184C230.051 122.301 230.6 122.429 231.016 122.568C231.443 122.696 231.805 122.92 232.104 123.24C232.403 123.56 232.552 124.008 232.552 124.584C232.552 125.352 232.221 125.965 231.56 126.424C230.909 126.872 230.019 127.096 228.888 127.096Z" fill="#686361"/>
<defs>
<filter id="filter0_d_447_562" x="0" y="0.00012207" width="360" height="200" filterUnits="userSpaceOnUse" color-interpolation-filters="sRGB">
<feFlood flood-opacity="0" result="BackgroundImageFix"/>
<feColorMatrix in="SourceAlpha" type="matrix" values="0 0 0 0 0 0 0 0 0 0 0 0 0 0 0 0 0 0 127 0" result="hardAlpha"/>
<feOffset dy="4"/>
<feGaussianBlur stdDeviation="25"/>
<feColorMatrix type="matrix" values="0 0 0 0 0.270824 0 0 0 0 0.262745 0 0 0 0 0.666667 0 0 0 0.15 0"/>
<feBlend mode="normal" in2="BackgroundImageFix" result="effect1_dropShadow_447_562"/>
<feBlend mode="normal" in="SourceGraphic" in2="effect1_dropShadow_447_562" result="shape"/>
</filter>
</defs>
</svg>
