<svg width="308" height="145" viewBox="0 0 308 145" fill="none" xmlns="http://www.w3.org/2000/svg">
<g filter="url(#filter0_d_73_1608)">
<rect x="50" y="46" width="208" height="45" rx="10" fill="#22A3EE"/>
</g>
<path d="M135.112 64.976V74H132.616V64.976H129.448V62.816H138.28V64.976H135.112ZM143.382 74H140.902L137.974 65.392H140.454L142.134 70.592L143.814 65.392H146.134L147.814 70.592L149.494 65.392H151.99L149.062 74H146.566L144.982 69.312L143.382 74ZM160.795 72.752C159.824 73.6693 158.683 74.128 157.371 74.128C156.07 74.128 154.992 73.728 154.139 72.928C153.286 72.1173 152.859 71.0347 152.859 69.68C152.859 68.3253 153.291 67.248 154.155 66.448C155.03 65.648 156.059 65.248 157.243 65.248C158.427 65.248 159.43 65.6053 160.251 66.32C161.083 67.0347 161.499 68.016 161.499 69.264V70.544H155.227C155.302 71.0133 155.547 71.3973 155.963 71.696C156.379 71.9947 156.848 72.144 157.371 72.144C158.214 72.144 158.907 71.8613 159.451 71.296L160.795 72.752ZM159.067 68.832C159.014 68.32 158.822 67.9253 158.491 67.648C158.16 67.3707 157.755 67.232 157.275 67.232C156.806 67.232 156.374 67.376 155.979 67.664C155.584 67.952 155.355 68.3413 155.291 68.832H159.067ZM170.686 72.752C169.715 73.6693 168.574 74.128 167.262 74.128C165.96 74.128 164.883 73.728 164.03 72.928C163.176 72.1173 162.75 71.0347 162.75 69.68C162.75 68.3253 163.182 67.248 164.046 66.448C164.92 65.648 165.95 65.248 167.134 65.248C168.318 65.248 169.32 65.6053 170.142 66.32C170.974 67.0347 171.39 68.016 171.39 69.264V70.544H165.118C165.192 71.0133 165.438 71.3973 165.854 71.696C166.27 71.9947 166.739 72.144 167.262 72.144C168.104 72.144 168.798 71.8613 169.342 71.296L170.686 72.752ZM168.958 68.832C168.904 68.32 168.712 67.9253 168.382 67.648C168.051 67.3707 167.646 67.232 167.166 67.232C166.696 67.232 166.264 67.376 165.87 67.664C165.475 67.952 165.246 68.3413 165.182 68.832H168.958ZM175.891 67.12V70.976C175.891 71.3067 175.976 71.568 176.147 71.76C176.317 71.9413 176.52 72.032 176.755 72.032C177.203 72.032 177.581 71.8293 177.891 71.424L178.787 73.104C178.04 73.7867 177.251 74.128 176.419 74.128C175.597 74.128 174.899 73.856 174.323 73.312C173.757 72.768 173.475 72.0267 173.475 71.088V67.12H172.467V65.392H173.475V62.816H175.891V65.392H177.971V67.12H175.891Z" fill="white"/>
<g clip-path="url(#clip0_73_1608)">
<path d="M90 61.7988C89.2563 62.125 88.4637 62.3412 87.6375 62.4462C88.4875 61.9388 89.1363 61.1412 89.4412 60.18C88.6488 60.6525 87.7738 60.9863 86.8412 61.1725C86.0887 60.3713 85.0162 59.875 83.8462 59.875C81.5763 59.875 79.7487 61.7175 79.7487 63.9763C79.7487 64.3012 79.7762 64.6137 79.8438 64.9112C76.435 64.745 73.4188 63.1113 71.3925 60.6225C71.0387 61.2363 70.8313 61.9388 70.8313 62.695C70.8313 64.115 71.5625 65.3737 72.6525 66.1025C71.9937 66.09 71.3475 65.8988 70.8 65.5975C70.8 65.61 70.8 65.6262 70.8 65.6425C70.8 67.635 72.2212 69.29 74.085 69.6712C73.7512 69.7625 73.3875 69.8062 73.01 69.8062C72.7475 69.8062 72.4825 69.7913 72.2337 69.7362C72.765 71.36 74.2725 72.5538 76.065 72.5925C74.67 73.6838 72.8988 74.3412 70.9813 74.3412C70.645 74.3412 70.3225 74.3263 70 74.285C71.8162 75.4563 73.9688 76.125 76.29 76.125C83.835 76.125 87.96 69.875 87.96 64.4575C87.96 64.2762 87.9538 64.1013 87.945 63.9275C88.7588 63.35 89.4425 62.6288 90 61.7988Z" fill="white"/>
</g>
<defs>
<filter id="filter0_d_73_1608" x="0" y="0" width="308" height="145" filterUnits="userSpaceOnUse" color-interpolation-filters="sRGB">
<feFlood flood-opacity="0" result="BackgroundImageFix"/>
<feColorMatrix in="SourceAlpha" type="matrix" values="0 0 0 0 0 0 0 0 0 0 0 0 0 0 0 0 0 0 127 0" result="hardAlpha"/>
<feOffset dy="4"/>
<feGaussianBlur stdDeviation="25"/>
<feColorMatrix type="matrix" values="0 0 0 0 0.270824 0 0 0 0 0.262745 0 0 0 0 0.666667 0 0 0 0.15 0"/>
<feBlend mode="normal" in2="BackgroundImageFix" result="effect1_dropShadow_73_1608"/>
<feBlend mode="normal" in="SourceGraphic" in2="effect1_dropShadow_73_1608" result="shape"/>
</filter>
<clipPath id="clip0_73_1608">
<rect width="20" height="20" fill="white" transform="translate(70 58)"/>
</clipPath>
</defs>
</svg>
