<svg width="360" height="200" viewBox="0 0 360 200" fill="none" xmlns="http://www.w3.org/2000/svg">
<g filter="url(#filter0_d_447_565)">
<rect x="51" y="47.0001" width="258" height="98" rx="9" stroke="#E75D43" stroke-width="2"/>
</g>
<path d="M200.32 90.501L202.958 73.6569C203.232 71.9476 202.069 70.3393 200.36 70.0642L164.763 64.3508C163.054 64.0765 161.445 65.2396 161.171 66.9488L159.906 74.8262V90.403L200.32 90.501Z" fill="#146AA8"/>
<path d="M200.362 70.0642L190.252 68.4419C183.462 78.8319 172.485 86.0282 164.066 90.4132L200.322 90.501L202.96 73.6569C203.235 71.9475 202.071 70.3393 200.362 70.0642Z" fill="#126099"/>
<path d="M161.135 74.0425H197.187C198.918 74.0425 200.322 75.4462 200.322 77.1774V97.5547C200.322 99.2859 198.918 100.69 197.187 100.69H161.135C159.404 100.69 158 99.2859 158 97.5547V77.1774C158 75.4462 159.404 74.0425 161.135 74.0425Z" fill="#4398D1"/>
<path d="M197.188 74.0425H196.561C189.162 87.1772 175.338 96.187 166.898 100.69H197.188C198.919 100.69 200.323 99.2858 200.323 97.5546V77.1774C200.323 75.4462 198.919 74.0425 197.188 74.0425Z" fill="#3E8CC7"/>
<path d="M169.755 77.9612H161.918V84.2311H169.755V77.9612Z" fill="#FDB62F"/>
<path d="M164.269 80.3124H161.918V81.8798H164.269V80.3124Z" fill="#FD7B2F"/>
<path d="M169.754 80.3124H167.402V81.8798H169.754V80.3124Z" fill="#FD7B2F"/>
<path d="M192.485 96.7708C194.649 96.7708 196.404 95.0164 196.404 92.8522C196.404 90.6879 194.649 88.9335 192.485 88.9335C190.321 88.9335 188.566 90.6879 188.566 92.8522C188.566 95.0164 190.321 96.7708 192.485 96.7708Z" fill="#FDB62F"/>
<path d="M187.782 96.7708C189.946 96.7708 191.701 95.0164 191.701 92.8522C191.701 90.6879 189.946 88.9335 187.782 88.9335C185.618 88.9335 183.863 90.6879 183.863 92.8522C183.863 95.0164 185.618 96.7708 187.782 96.7708Z" fill="#DE4C3C"/>
<path d="M165.835 89.7172H161.133V91.2847H165.835V89.7172Z" fill="#87CED9"/>
<path d="M173.671 89.7172H168.969V91.2847H173.671V89.7172Z" fill="#87CED9"/>
<path d="M181.511 89.7172H176.809V91.2847H181.511V89.7172Z" fill="#87CED9"/>
<path d="M181.51 94.4197H161.133V95.9871H181.51V94.4197Z" fill="#87CED9"/>
<path d="M186.997 77.9612H185.43V81.0961H186.997V77.9612Z" fill="#87CED9"/>
<path d="M190.13 77.9612H188.562V81.0961H190.13V77.9612Z" fill="#87CED9"/>
<path d="M193.267 77.9612H191.699V81.0961H193.267V77.9612Z" fill="#87CED9"/>
<path d="M196.403 77.9612H194.836V81.0961H196.403V77.9612Z" fill="#87CED9"/>
<path d="M108.048 127H109.728L104.64 115.8H103.056L97.984 127H99.632L100.864 124.2H106.816L108.048 127ZM101.424 122.92L103.84 117.432L106.256 122.92H101.424ZM117.561 115.128V119.8C116.857 118.888 115.801 118.44 114.601 118.44C112.121 118.44 110.313 120.168 110.313 122.76C110.313 125.352 112.121 127.096 114.601 127.096C115.849 127.096 116.937 126.616 117.625 125.656V127H119.097V115.128H117.561ZM114.729 125.752C113.097 125.752 111.865 124.568 111.865 122.76C111.865 120.952 113.097 119.784 114.729 119.784C116.345 119.784 117.577 120.952 117.577 122.76C117.577 124.568 116.345 125.752 114.729 125.752ZM128.467 115.128V119.8C127.763 118.888 126.707 118.44 125.507 118.44C123.027 118.44 121.219 120.168 121.219 122.76C121.219 125.352 123.027 127.096 125.507 127.096C126.755 127.096 127.843 126.616 128.531 125.656V127H130.003V115.128H128.467ZM125.635 125.752C124.003 125.752 122.771 124.568 122.771 122.76C122.771 120.952 124.003 119.784 125.635 119.784C127.251 119.784 128.483 120.952 128.483 122.76C128.483 124.568 127.251 125.752 125.635 125.752ZM133.677 116.888C134.285 116.888 134.717 116.44 134.717 115.864C134.717 115.32 134.269 114.888 133.677 114.888C133.085 114.888 132.637 115.336 132.637 115.896C132.637 116.456 133.085 116.888 133.677 116.888ZM132.909 127H134.445V118.52H132.909V127ZM141.666 125.4C141.346 125.656 140.914 125.8 140.466 125.8C139.618 125.8 139.138 125.288 139.138 124.376V119.784H141.57V118.52H139.138V116.664H137.602V118.52H136.162V119.784H137.602V124.44C137.602 126.152 138.578 127.096 140.29 127.096C140.978 127.096 141.682 126.904 142.146 126.504L141.666 125.4ZM144.771 116.888C145.379 116.888 145.811 116.44 145.811 115.864C145.811 115.32 145.363 114.888 144.771 114.888C144.179 114.888 143.731 115.336 143.731 115.896C143.731 116.456 144.179 116.888 144.771 116.888ZM144.003 127H145.539V118.52H144.003V127ZM152.104 127.096C154.648 127.096 156.504 125.288 156.504 122.76C156.504 120.232 154.648 118.44 152.104 118.44C149.56 118.44 147.688 120.232 147.688 122.76C147.688 125.288 149.56 127.096 152.104 127.096ZM152.104 125.752C150.472 125.752 149.24 124.568 149.24 122.76C149.24 120.952 150.472 119.784 152.104 119.784C153.736 119.784 154.952 120.952 154.952 122.76C154.952 124.568 153.736 125.752 152.104 125.752ZM163.156 118.44C161.812 118.44 160.724 118.936 160.1 119.8V118.52H158.628V127H160.164V122.632C160.164 120.792 161.22 119.816 162.852 119.816C164.308 119.816 165.14 120.632 165.14 122.296V127H166.676V122.12C166.676 119.624 165.22 118.44 163.156 118.44ZM172.607 118.44C171.247 118.44 169.983 118.824 169.103 119.528L169.743 120.68C170.399 120.12 171.423 119.768 172.431 119.768C173.951 119.768 174.703 120.52 174.703 121.816V122.12H172.271C169.743 122.12 168.863 123.24 168.863 124.6C168.863 126.072 170.079 127.096 171.999 127.096C173.327 127.096 174.271 126.648 174.783 125.88V127H176.239V121.88C176.239 119.56 174.927 118.44 172.607 118.44ZM172.255 125.912C171.087 125.912 170.383 125.384 170.383 124.536C170.383 123.816 170.815 123.224 172.335 123.224H174.703V124.408C174.319 125.384 173.407 125.912 172.255 125.912ZM179.081 127H180.617V115.128H179.081V127ZM195.511 122.808C195.511 120.2 193.767 118.44 191.319 118.44C188.871 118.44 187.063 120.248 187.063 122.76C187.063 125.288 188.887 127.096 191.623 127.096C193.031 127.096 194.199 126.616 194.967 125.72L194.119 124.728C193.495 125.416 192.663 125.752 191.671 125.752C189.991 125.752 188.791 124.76 188.599 123.272H195.479C195.495 123.128 195.511 122.936 195.511 122.808ZM191.319 119.736C192.807 119.736 193.879 120.744 194.039 122.168H188.599C188.759 120.728 189.847 119.736 191.319 119.736ZM204.561 127L201.185 122.664L204.385 118.52H202.705L200.385 121.576L198.049 118.52H196.337L199.521 122.664L196.177 127H197.889L200.369 123.752L202.817 127H204.561ZM210.733 118.44C209.485 118.44 208.397 118.92 207.709 119.864V118.52H206.237V130.104H207.773V125.72C208.477 126.632 209.533 127.096 210.733 127.096C213.213 127.096 215.021 125.368 215.021 122.76C215.021 120.168 213.213 118.44 210.733 118.44ZM210.605 125.752C208.989 125.752 207.757 124.568 207.757 122.76C207.757 120.968 208.989 119.784 210.605 119.784C212.237 119.784 213.469 120.968 213.469 122.76C213.469 124.568 212.237 125.752 210.605 125.752ZM224.808 122.808C224.808 120.2 223.064 118.44 220.616 118.44C218.168 118.44 216.36 120.248 216.36 122.76C216.36 125.288 218.184 127.096 220.92 127.096C222.328 127.096 223.496 126.616 224.264 125.72L223.416 124.728C222.792 125.416 221.96 125.752 220.968 125.752C219.288 125.752 218.088 124.76 217.896 123.272H224.776C224.792 123.128 224.808 122.936 224.808 122.808ZM220.616 119.736C222.104 119.736 223.176 120.744 223.336 122.168H217.896C218.056 120.728 219.144 119.736 220.616 119.736ZM231.468 118.44C230.124 118.44 229.036 118.936 228.412 119.8V118.52H226.94V127H228.476V122.632C228.476 120.792 229.532 119.816 231.164 119.816C232.62 119.816 233.452 120.632 233.452 122.296V127H234.988V122.12C234.988 119.624 233.532 118.44 231.468 118.44ZM240.263 127.096C242.519 127.096 243.927 126.12 243.927 124.584C243.927 121.288 238.551 122.92 238.551 120.92C238.551 120.248 239.207 119.752 240.551 119.752C241.383 119.752 242.231 119.928 242.999 120.424L243.655 119.208C242.919 118.728 241.671 118.44 240.567 118.44C238.391 118.44 237.031 119.464 237.031 120.984C237.031 124.36 242.391 122.712 242.391 124.616C242.391 125.336 241.799 125.768 240.375 125.768C239.271 125.768 238.119 125.4 237.399 124.888L236.759 126.104C237.463 126.664 238.855 127.096 240.263 127.096ZM253.511 122.808C253.511 120.2 251.767 118.44 249.319 118.44C246.871 118.44 245.063 120.248 245.063 122.76C245.063 125.288 246.887 127.096 249.623 127.096C251.031 127.096 252.199 126.616 252.967 125.72L252.119 124.728C251.495 125.416 250.663 125.752 249.671 125.752C247.991 125.752 246.791 124.76 246.599 123.272H253.479C253.495 123.128 253.511 122.936 253.511 122.808ZM249.319 119.736C250.807 119.736 251.879 120.744 252.039 122.168H246.599C246.759 120.728 247.847 119.736 249.319 119.736ZM258.076 127.096C260.332 127.096 261.74 126.12 261.74 124.584C261.74 121.288 256.364 122.92 256.364 120.92C256.364 120.248 257.02 119.752 258.364 119.752C259.196 119.752 260.044 119.928 260.812 120.424L261.468 119.208C260.732 118.728 259.484 118.44 258.38 118.44C256.204 118.44 254.844 119.464 254.844 120.984C254.844 124.36 260.204 122.712 260.204 124.616C260.204 125.336 259.612 125.768 258.188 125.768C257.084 125.768 255.932 125.4 255.212 124.888L254.572 126.104C255.276 126.664 256.668 127.096 258.076 127.096Z" fill="#686361"/>
<defs>
<filter id="filter0_d_447_565" x="0" y="0.00012207" width="360" height="200" filterUnits="userSpaceOnUse" color-interpolation-filters="sRGB">
<feFlood flood-opacity="0" result="BackgroundImageFix"/>
<feColorMatrix in="SourceAlpha" type="matrix" values="0 0 0 0 0 0 0 0 0 0 0 0 0 0 0 0 0 0 127 0" result="hardAlpha"/>
<feOffset dy="4"/>
<feGaussianBlur stdDeviation="25"/>
<feColorMatrix type="matrix" values="0 0 0 0 0.270824 0 0 0 0 0.262745 0 0 0 0 0.666667 0 0 0 0.15 0"/>
<feBlend mode="normal" in2="BackgroundImageFix" result="effect1_dropShadow_447_565"/>
<feBlend mode="normal" in="SourceGraphic" in2="effect1_dropShadow_447_565" result="shape"/>
</filter>
</defs>
</svg>
