<svg width="20" height="20" viewBox="0 0 20 20" fill="none" xmlns="http://www.w3.org/2000/svg">
<path d="M7.31003 16L9.75002 13.56L12.19 16L13.25 14.94L10.81 12.5L13.25 10.06L12.19 9L9.75002 11.44L7.31003 9L6.25 10.06L8.69003 12.5L6.25 14.94L7.31003 16Z" fill="#424A60"/>
<path d="M17 2.00001H16V0H14V2.00001H6.00001V0H4V2.00001H3.00001C1.89503 2.00001 1.01003 2.895 1.01003 4.00003L1 18C1 19.105 1.89498 20 3.00001 20H17C18.105 20 19 19.105 19 18V3.99998C19 2.895 18.105 2.00001 17 2.00001ZM17 18H3.00001V6.99998H17V18Z" fill="#424A60"/>
</svg>
