<svg width="120" height="120" viewBox="0 0 120 120" fill="none" xmlns="http://www.w3.org/2000/svg">
<path d="M111.751 17.2501H8.2507C6.75058 17.2501 5.55078 18.4502 5.55078 19.95V92.8502H114.601V19.95C114.601 18.4499 113.251 17.2501 111.751 17.2501Z" fill="#3A556A"/>
<path d="M108.12 23.0715H11.8203V87.1217H108.12V23.0715Z" fill="#64798A"/>
<path d="M120 92.8499H0V100.35H120V92.8499Z" fill="#EBF0F3"/>
<path d="M119.849 100.35H0.148438L8.09852 102.75H111.899L119.849 100.35Z" fill="#D5D6DB"/>
<path d="M68.0984 95.7H51.8984V97.4999H68.0984V95.7Z" fill="#D5D6DB"/>
<path d="M60.0015 77.7001C72.5107 77.7001 82.6514 76.5584 82.6514 75.1501C82.6514 73.7418 72.5107 72.6001 60.0015 72.6001C47.4923 72.6001 37.3516 73.7418 37.3516 75.1501C37.3516 76.5584 47.4923 77.7001 60.0015 77.7001Z" fill="#2F4859"/>
<path d="M60 32.4V77.7001C72.4499 77.7001 82.6499 67.5001 82.6499 55.0502C82.6499 42.6002 72.4499 32.4 60 32.4Z" fill="#0070E0"/>
<path d="M37.3516 55.0502C37.3516 67.5001 47.5516 77.7001 60.0015 77.7001V32.4C47.5516 32.4 37.3516 42.4501 37.3516 55.0502Z" fill="#1A7CFA"/>
<g clip-path="url(#clip0_551_966)">
<path d="M69.0596 43.968L70.087 42.6819C71.4949 40.9239 71.2095 38.3554 69.4477 36.9475L69.383 36.8942C67.625 35.4863 65.0565 35.7717 63.6486 37.5335L62.625 38.8158L69.0596 43.968Z" fill="white"/>
<path d="M62.8061 54.7785C62.8403 55.0905 62.9964 55.3873 63.2589 55.6004C63.7878 56.0228 64.5603 55.9391 64.9827 55.4102L72.0413 46.5822C72.4713 46.0457 72.3761 45.258 71.8244 44.8394C71.2916 44.4361 70.5268 44.5502 70.1082 45.0715L69.4195 45.9315L68.2399 44.9878L68.2437 44.984L61.813 39.828L45.3594 60.395L51.7939 65.5472L66.714 46.9018L67.8936 47.8455L63.0687 53.8767C62.8556 54.1392 62.7719 54.4665 62.8061 54.7785Z" fill="white"/>
<path d="M50.7251 66.4985L44.6635 61.643C44.5646 61.9817 44.5151 62.2785 44.5151 62.2785L43.1262 68.93C43.0273 69.4095 43.5143 69.8014 43.9595 69.5959L50.1468 66.78C50.143 66.78 50.4169 66.6659 50.7251 66.4985Z" fill="white"/>
<path d="M77.0022 67.6895C76.9489 67.6895 76.8994 67.6933 76.8461 67.7009L67.4969 68.911C67.0174 68.9719 66.6825 68.4467 66.9413 68.0358C67.0821 67.8189 67.219 67.5982 67.356 67.3775C67.7175 66.7915 67.2343 66.0114 66.5645 66.0114C66.5189 66.0114 66.4732 66.0153 66.4238 66.0229L54.1711 67.8646L52.7061 68.0853L48.7107 68.6865C48.2578 68.755 47.9534 69.1393 47.9915 69.5998C48.0067 69.8052 48.0904 69.9993 48.2236 70.1439C48.3796 70.3151 48.5965 70.4103 48.8324 70.4103C48.8781 70.4103 48.9238 70.4064 48.9732 70.3989L63.5775 68.2033C64.076 68.1271 64.4185 68.6903 64.1254 69.1013C64.0303 69.2307 63.9352 69.3638 63.84 69.4932C63.5775 69.8509 63.6384 70.4484 63.9428 70.7565C64.0988 70.9164 64.2967 71.0001 64.5059 71.0001C64.5288 71.0001 64.5554 71.0001 64.5782 70.9962H64.5821H64.5859L77.1924 69.3905H77.1962H77.2001C77.4169 69.3562 77.6072 69.2307 77.7328 69.0366C77.8698 68.8235 77.9192 68.5609 77.8584 68.325C77.7594 67.9406 77.4245 67.6895 77.0022 67.6895Z" fill="white"/>
</g>
<defs>
<clipPath id="clip0_551_966">
<rect width="35" height="35" fill="white" transform="translate(43 36)"/>
</clipPath>
</defs>
</svg>
