<svg width="120" height="120" viewBox="0 0 120 120" fill="none" xmlns="http://www.w3.org/2000/svg">
<path d="M111.751 17.25H8.2507C6.75058 17.25 5.55078 18.45 5.55078 19.9499V92.8501H114.601V19.9499C114.601 18.4498 113.251 17.25 111.751 17.25Z" fill="#3A556A"/>
<path d="M108.12 23.0715H11.8203V87.1217H108.12V23.0715Z" fill="#64798A"/>
<path d="M120 92.8499H0V100.35H120V92.8499Z" fill="#EBF0F3"/>
<path d="M119.849 100.35H0.148438L8.09852 102.75H111.899L119.849 100.35Z" fill="#D5D6DB"/>
<path d="M68.0984 95.7H51.8984V97.4999H68.0984V95.7Z" fill="#D5D6DB"/>
<path d="M60.0015 77.7001C72.5107 77.7001 82.6514 76.5584 82.6514 75.1501C82.6514 73.7418 72.5107 72.6001 60.0015 72.6001C47.4923 72.6001 37.3516 73.7418 37.3516 75.1501C37.3516 76.5584 47.4923 77.7001 60.0015 77.7001Z" fill="#2F4859"/>
<path d="M60 32.3999V77.7C72.4499 77.7 82.6499 67.5 82.6499 55.0501C82.6499 42.6002 72.4499 32.3999 60 32.3999Z" fill="#0070E0"/>
<path d="M37.3516 55.0501C37.3516 67.5 47.5516 77.7 60.0015 77.7V32.3999C47.5516 32.3999 37.3516 42.45 37.3516 55.0501Z" fill="#1A7CFA"/>
<g clip-path="url(#clip0_73_9)">
<path d="M69.0596 43.968L70.087 42.6819C71.4949 40.9239 71.2095 38.3554 69.4477 36.9475L69.383 36.8942C67.625 35.4863 65.0565 35.7717 63.6486 37.5335L62.625 38.8158L69.0596 43.968Z" fill="white"/>
<path d="M62.8061 54.7784C62.8403 55.0904 62.9964 55.3872 63.2589 55.6003C63.7878 56.0227 64.5603 55.939 64.9827 55.4101L72.0413 46.5821C72.4713 46.0455 72.3761 45.2579 71.8244 44.8393C71.2916 44.4359 70.5268 44.5501 70.1082 45.0714L69.4195 45.9314L68.2399 44.9877L68.2437 44.9839L61.813 39.8279L45.3594 60.3948L51.7939 65.547L66.714 46.9017L67.8936 47.8454L63.0687 53.8766C62.8556 54.1391 62.7719 54.4664 62.8061 54.7784Z" fill="white"/>
<path d="M50.7251 66.4985L44.6635 61.6431C44.5646 61.9817 44.5151 62.2785 44.5151 62.2785L43.1262 68.93C43.0273 69.4095 43.5143 69.8014 43.9595 69.5959L50.1468 66.7801C50.143 66.7801 50.4169 66.6659 50.7251 66.4985Z" fill="white"/>
<path d="M77.0022 67.6896C76.9489 67.6896 76.8994 67.6934 76.8461 67.701L67.4969 68.911C67.0174 68.972 66.6825 68.4468 66.9413 68.0358C67.0821 67.819 67.219 67.5982 67.356 67.3775C67.7175 66.7915 67.2343 66.0115 66.5645 66.0115C66.5189 66.0115 66.4732 66.0153 66.4238 66.0229L54.1711 67.8646L52.7061 68.0853L48.7107 68.6866C48.2578 68.7551 47.9534 69.1394 47.9915 69.5998C48.0067 69.8053 48.0904 69.9994 48.2236 70.144C48.3796 70.3152 48.5965 70.4103 48.8324 70.4103C48.8781 70.4103 48.9238 70.4065 48.9732 70.3989L63.5775 68.2033C64.076 68.1272 64.4185 68.6904 64.1254 69.1013C64.0303 69.2307 63.9352 69.3639 63.84 69.4933C63.5775 69.851 63.6384 70.4484 63.9428 70.7566C64.0988 70.9164 64.2967 71.0001 64.5059 71.0001C64.5288 71.0001 64.5554 71.0001 64.5782 70.9963H64.5821H64.5859L77.1924 69.3905H77.1962H77.2001C77.4169 69.3563 77.6072 69.2307 77.7328 69.0366C77.8698 68.8235 77.9192 68.561 77.8584 68.3251C77.7594 67.9407 77.4245 67.6896 77.0022 67.6896Z" fill="white"/>
</g>
<defs>
<clipPath id="clip0_73_9">
<rect width="35" height="35" fill="white" transform="translate(43 36)"/>
</clipPath>
</defs>
</svg>
