<svg width="15" height="15" viewBox="0 0 15 15" fill="none" xmlns="http://www.w3.org/2000/svg">
<path d="M7.5 6.10352e-05C3.35813 6.10352e-05 0 3.35819 0 7.50006C0 11.6419 3.35813 15.0001 7.5 15.0001C11.6419 15.0001 15 11.6419 15 7.50006C15 3.35819 11.6419 6.10352e-05 7.5 6.10352e-05ZM7.5 12.2876C6.91375 12.2876 6.5125 11.8357 6.5125 11.2501C6.5125 10.6476 6.93062 10.2126 7.5 10.2126C8.10188 10.2126 8.4875 10.6476 8.4875 11.2501C8.4875 11.8363 8.10188 12.2876 7.5 12.2876ZM7.88875 8.32569C7.73937 8.83506 7.26875 8.84381 7.11187 8.32569C6.93125 7.72819 6.28937 5.46006 6.28937 3.98694C6.28937 2.04319 8.72125 2.03381 8.72125 3.98694C8.72062 5.46881 8.04437 7.79569 7.88875 8.32569Z" fill="#E75D43"/>
</svg>
