<svg width="20" height="20" viewBox="0 0 20 20" fill="none" xmlns="http://www.w3.org/2000/svg">
<g clip-path="url(#clip0_73_892)">
<path d="M19.4784 17.0049L11.636 9.1625L2.47348 0H1.75743L1.61121 0.371523C1.22532 1.35215 1.06043 2.35512 1.13446 3.27188C1.21883 4.31687 1.61582 5.2216 2.28258 5.88836L9.43532 13.0411L10.3788 12.0977L16.9914 19.4919C17.6493 20.1497 18.7815 20.1888 19.4784 19.4919C20.1641 18.8062 20.1641 17.6906 19.4784 17.0049Z" fill="#424A60"/>
<path d="M6.12402 11.3845L0.522031 16.9865C-0.163594 17.6721 -0.163594 18.7878 0.522031 19.4734C1.17336 20.1248 2.30012 20.1823 3.00895 19.4734L8.61098 13.8714L6.12402 11.3845Z" fill="#424A60"/>
<path d="M19.1484 3.3301L15.9706 6.50784L15.1416 5.67885L18.3194 2.50108L17.4904 1.67209L14.3127 4.84983L13.4837 4.02084L16.6614 0.843106L15.8325 0.0141602L11.6876 4.15909C11.1805 4.66616 10.8777 5.33944 10.8349 6.05499C10.8241 6.23628 10.783 6.4146 10.7148 6.58421L13.4074 9.27675C13.577 9.2085 13.7554 9.16745 13.9366 9.15663C14.6521 9.11393 15.3254 8.81108 15.8325 8.30401L19.9774 4.15912L19.1484 3.3301Z" fill="#424A60"/>
</g>
<defs>
<clipPath id="clip0_73_892">
<rect width="20" height="20" fill="white"/>
</clipPath>
</defs>
</svg>
