<svg width="178" height="176" viewBox="0 0 178 176" fill="none" xmlns="http://www.w3.org/2000/svg">
<rect width="178" height="176" rx="10" fill="white"/>
<rect x="0.5" y="0.5" width="177" height="175" rx="9.5" stroke="#A9B7C8" stroke-opacity="0.5"/>
<path d="M78.6 107.8V119H76.008V114.408H70.92V119H68.328V107.8H70.92V112.216H76.008V107.8H78.6ZM85.1699 119.128C84.2632 119.128 83.4472 118.941 82.7219 118.568C82.0072 118.184 81.4472 117.656 81.0419 116.984C80.6365 116.312 80.4339 115.549 80.4339 114.696C80.4339 113.843 80.6365 113.08 81.0419 112.408C81.4472 111.736 82.0072 111.213 82.7219 110.84C83.4472 110.456 84.2632 110.264 85.1699 110.264C86.0765 110.264 86.8872 110.456 87.6019 110.84C88.3165 111.213 88.8765 111.736 89.2819 112.408C89.6872 113.08 89.8899 113.843 89.8899 114.696C89.8899 115.549 89.6872 116.312 89.2819 116.984C88.8765 117.656 88.3165 118.184 87.6019 118.568C86.8872 118.941 86.0765 119.128 85.1699 119.128ZM85.1699 117.08C85.8099 117.08 86.3325 116.867 86.7379 116.44C87.1539 116.003 87.3619 115.421 87.3619 114.696C87.3619 113.971 87.1539 113.395 86.7379 112.968C86.3325 112.531 85.8099 112.312 85.1699 112.312C84.5299 112.312 84.0019 112.531 83.5859 112.968C83.1699 113.395 82.9619 113.971 82.9619 114.696C82.9619 115.421 83.1699 116.003 83.5859 116.44C84.0019 116.867 84.5299 117.08 85.1699 117.08ZM97.1103 118.584C96.8649 118.765 96.5609 118.904 96.1983 119C95.8463 119.085 95.4729 119.128 95.0783 119.128C94.0543 119.128 93.2596 118.867 92.6943 118.344C92.1396 117.821 91.8623 117.053 91.8623 116.04V112.504H90.5343V110.584H91.8623V108.488H94.3583V110.584H96.5023V112.504H94.3583V116.008C94.3583 116.371 94.4489 116.653 94.6302 116.856C94.8223 117.048 95.0889 117.144 95.4303 117.144C95.8249 117.144 96.1609 117.037 96.4383 116.824L97.1103 118.584ZM106.678 114.728C106.678 114.76 106.662 114.984 106.63 115.4H100.118C100.235 115.933 100.512 116.355 100.95 116.664C101.387 116.973 101.931 117.128 102.582 117.128C103.03 117.128 103.424 117.064 103.766 116.936C104.118 116.797 104.443 116.584 104.742 116.296L106.07 117.736C105.259 118.664 104.075 119.128 102.518 119.128C101.547 119.128 100.688 118.941 99.9418 118.568C99.1951 118.184 98.6191 117.656 98.2138 116.984C97.8084 116.312 97.6058 115.549 97.6058 114.696C97.6058 113.853 97.8031 113.096 98.1978 112.424C98.6031 111.741 99.1524 111.213 99.8458 110.84C100.55 110.456 101.334 110.264 102.198 110.264C103.04 110.264 103.803 110.445 104.486 110.808C105.168 111.171 105.702 111.693 106.086 112.376C106.48 113.048 106.678 113.832 106.678 114.728ZM102.214 112.152C101.648 112.152 101.174 112.312 100.79 112.632C100.406 112.952 100.171 113.389 100.086 113.944H104.326C104.24 113.4 104.006 112.968 103.622 112.648C103.238 112.317 102.768 112.152 102.214 112.152ZM108.34 107.128H110.836V119H108.34V107.128Z" fill="#686361"/>
<path d="M107.011 33.6682H75.377V35.4504H107.011V33.6682Z" fill="#898890"/>
<path d="M107.011 33.6682H75.377V74.6583H107.011V33.6682Z" fill="#E0E0E0"/>
<path d="M107.011 72.8762H75.377V74.6584H107.011V72.8762Z" fill="#898890"/>
<path d="M83.0839 74.6584H77.7373V66.8168C77.7373 65.3404 78.9341 64.1436 80.4106 64.1436C81.8871 64.1436 83.0839 65.3404 83.0839 66.8168V74.6584Z" fill="#78B9EB"/>
<path d="M104.471 74.6584H99.124V66.8168C99.124 65.3404 100.321 64.1436 101.797 64.1436C103.274 64.1436 104.471 65.3404 104.471 66.8168V74.6584Z" fill="#78B9EB"/>
<path d="M109.996 74.6584H72.5703V77.3317H109.996V74.6584Z" fill="#E0E0E0"/>
<path d="M96.4508 64.1436H85.7578V74.6584H96.4508V64.1436Z" fill="#78B9EB"/>
<path d="M80.4106 64.1436C78.9341 64.1436 77.7373 65.3404 77.7373 66.8168V68.7772C77.7373 67.3009 78.9341 66.104 80.4106 66.104C81.8871 66.104 83.0839 67.3008 83.0839 68.7772V66.8167C83.0839 65.3404 81.8871 64.1436 80.4106 64.1436Z" fill="#4E8EB5"/>
<path d="M101.797 64.1436C100.321 64.1436 99.124 65.3404 99.124 66.8168V68.7772C99.124 67.3009 100.321 66.104 101.797 66.104C103.274 66.104 104.471 67.3008 104.471 68.7772V66.8167C104.471 65.3404 103.274 64.1436 101.797 64.1436Z" fill="#4E8EB5"/>
<path d="M84.1532 36.0742H78.8066V41.8663H84.1532V36.0742Z" fill="#78B9EB"/>
<path d="M84.1532 45.4307H78.8066V51.1336H84.1532V45.4307Z" fill="#78B9EB"/>
<path d="M84.1532 54.7871H78.8066V60.5792H84.1532V54.7871Z" fill="#78B9EB"/>
<path d="M93.7782 36.0742H88.4316V41.8663H93.7782V36.0742Z" fill="#78B9EB"/>
<path d="M93.7782 45.4307H88.4316V51.1336H93.7782V45.4307Z" fill="#78B9EB"/>
<path d="M93.7782 54.7871H88.4316V60.5792H93.7782V54.7871Z" fill="#78B9EB"/>
<path d="M103.4 36.0742H98.0537V41.8663H103.4V36.0742Z" fill="#78B9EB"/>
<path d="M103.4 45.4307H98.0537V51.1336H103.4V45.4307Z" fill="#78B9EB"/>
<path d="M103.4 54.7871H98.0537V60.5792H103.4V54.7871Z" fill="#78B9EB"/>
<path d="M84.1522 36.0742H78.8057V37.8564H84.1522V36.0742Z" fill="#4E8EB5"/>
<path d="M93.7772 36.0742H88.4307V37.8564H93.7772V36.0742Z" fill="#4E8EB5"/>
<path d="M103.401 36.0742H98.0547V37.8564H103.401V36.0742Z" fill="#4E8EB5"/>
<path d="M84.1522 45.4307H78.8057V47.2128H84.1522V45.4307Z" fill="#4E8EB5"/>
<path d="M93.7772 45.4307H88.4307V47.2128H93.7772V45.4307Z" fill="#4E8EB5"/>
<path d="M103.401 45.4307H98.0547V47.2128H103.401V45.4307Z" fill="#4E8EB5"/>
<path d="M84.1522 54.7871H78.8057V56.5693H84.1522V54.7871Z" fill="#4E8EB5"/>
<path d="M93.7772 54.7871H88.4307V56.5693H93.7772V54.7871Z" fill="#4E8EB5"/>
<path d="M103.401 54.7871H98.0547V56.5693H103.401V54.7871Z" fill="#4E8EB5"/>
<path d="M96.4499 64.1436H85.7568V65.9257H96.4499V64.1436Z" fill="#4E8EB5"/>
<path d="M83.0839 72.8762H77.7373V74.6584H83.0839V72.8762Z" fill="#4E8EB5"/>
<path d="M104.471 72.8762H99.124V74.6584H104.471V72.8762Z" fill="#4E8EB5"/>
<path d="M96.4499 72.8762H85.7568V74.6584H96.4499V72.8762Z" fill="#4E8EB5"/>
<path d="M94.5688 64.1436L85.7578 74.424V71.6857L92.2217 64.1436H94.5688Z" fill="white"/>
<path d="M96.4512 65.3591V68.0974L90.8266 74.6585H88.4795L96.4512 65.3591Z" fill="white"/>
<path d="M72.7474 43.4702H69.0049V53.9851H72.7474V43.4702Z" fill="#FFC853"/>
<path d="M107.679 73.9901V34.3366H109.996V33H107.679H74.7092H72.5705V34.3366H74.7092V44.9406H73.4171V42.802H68.3379V54.6535H73.4171V52.6931H74.7092V73.9902H71.9022V78H110.665V73.9901H107.679ZM72.0804 53.3168H69.6745V44.1386H72.0804V53.3168ZM73.4171 51.3564V46.2772H74.7092V51.3564H73.4171ZM76.0458 34.3366H106.343V73.9901H105.14V66.8168C105.14 64.9742 103.641 63.4752 101.798 63.4752C99.9557 63.4752 98.4567 64.9742 98.4567 66.8168V73.9901H97.12V63.4753H85.0904V73.9902H83.7537V66.8168C83.7537 64.9742 82.2548 63.4752 80.4121 63.4752C78.5695 63.4752 77.0705 64.9742 77.0705 66.8168V73.9901H76.0458V34.3366ZM103.803 73.9901H99.7933V66.8168C99.7933 65.7113 100.693 64.8118 101.798 64.8118C102.904 64.8118 103.803 65.7113 103.803 66.8168V73.9901ZM86.427 73.9901V64.8119H90.4369V73.9902H86.427V73.9901ZM91.7735 64.8119H95.7834V73.9902H91.7735V64.8119ZM82.4171 73.9901H78.4072V66.8168C78.4072 65.7113 79.3066 64.8118 80.4121 64.8118C81.5177 64.8118 82.4171 65.7113 82.4171 66.8168V73.9901ZM109.328 76.6634H73.2388V75.3267H74.7092H77.0705H83.7537H85.0904H97.12H98.4567H105.14H107.679H109.328V76.6634Z" fill="black"/>
<path d="M84.8209 35.406H78.1377V42.5347H84.8209V35.406ZM83.4843 41.1981H79.4743V36.7426H83.4843V41.1981Z" fill="black"/>
<path d="M84.8209 44.7625H78.1377V51.8021H84.8209V44.7625ZM83.4843 50.4654H79.4743V46.0991H83.4843V50.4654Z" fill="black"/>
<path d="M84.8209 54.1187H78.1377V61.2474H84.8209V54.1187ZM83.4843 59.9107H79.4743V55.4553H83.4843V59.9107Z" fill="black"/>
<path d="M94.4459 35.406H87.7627V42.5347H94.4459V35.406ZM93.1093 41.1981H89.0993V36.7426H93.1093V41.1981Z" fill="black"/>
<path d="M94.4459 44.7625H87.7627V51.8021H94.4459V44.7625ZM93.1093 50.4654H89.0993V46.0991H93.1093V50.4654Z" fill="black"/>
<path d="M94.4459 54.1187H87.7627V61.2474H94.4459V54.1187ZM93.1093 59.9107H89.0993V55.4553H93.1093V59.9107Z" fill="black"/>
<path d="M104.069 35.406H97.3857V42.5347H104.069V35.406ZM102.732 41.1981H98.7224V36.7426H102.732V41.1981Z" fill="black"/>
<path d="M104.069 44.7625H97.3857V51.8021H104.069V44.7625ZM102.732 50.4654H98.7224V46.0991H102.732V50.4654Z" fill="black"/>
<path d="M104.069 54.1187H97.3857V61.2474H104.069V54.1187ZM102.732 59.9107H98.7224V55.4553H102.732V59.9107Z" fill="black"/>
<path d="M102.466 69.312H101.129V70.6487H102.466V69.312Z" fill="black"/>
<path d="M102.466 66.6387H101.129V67.9753H102.466V66.6387Z" fill="black"/>
<path d="M102.466 71.9851H101.129V73.2326H102.466V71.9851Z" fill="black"/>
<path d="M81.0788 69.312H79.7422V70.6487H81.0788V69.312Z" fill="black"/>
<path d="M81.0788 71.9851H79.7422V73.2326H81.0788V71.9851Z" fill="black"/>
<path d="M81.0788 66.6387H79.7422V67.9753H81.0788V66.6387Z" fill="black"/>
</svg>
