<svg width="178" height="176" viewBox="0 0 178 176" fill="none" xmlns="http://www.w3.org/2000/svg">
<rect width="178" height="176" rx="10" fill="white"/>
<rect x="0.5" y="0.5" width="177" height="175" rx="9.5" stroke="#A9B7C8" stroke-opacity="0.5"/>
<path d="M41.704 116.6H36.504L35.512 119H32.856L37.848 107.8H40.408L45.416 119H42.696L41.704 116.6ZM40.888 114.632L39.112 110.344L37.336 114.632H40.888ZM46.402 110.392H48.898V119H46.402V110.392ZM47.65 109.192C47.1913 109.192 46.818 109.059 46.53 108.792C46.242 108.525 46.098 108.195 46.098 107.8C46.098 107.405 46.242 107.075 46.53 106.808C46.818 106.541 47.1913 106.408 47.65 106.408C48.1087 106.408 48.482 106.536 48.77 106.792C49.058 107.048 49.202 107.368 49.202 107.752C49.202 108.168 49.058 108.515 48.77 108.792C48.482 109.059 48.1087 109.192 47.65 109.192ZM53.5985 111.528C53.8972 111.112 54.2972 110.797 54.7985 110.584C55.3105 110.371 55.8972 110.264 56.5585 110.264V112.568C56.2812 112.547 56.0945 112.536 55.9985 112.536C55.2838 112.536 54.7238 112.739 54.3185 113.144C53.9132 113.539 53.7105 114.136 53.7105 114.936V119H51.2145V110.392H53.5985V111.528ZM63.1306 110.264C63.9306 110.264 64.656 110.451 65.3066 110.824C65.968 111.187 66.4853 111.704 66.8586 112.376C67.232 113.037 67.4186 113.811 67.4186 114.696C67.4186 115.581 67.232 116.36 66.8586 117.032C66.4853 117.693 65.968 118.211 65.3066 118.584C64.656 118.947 63.9306 119.128 63.1306 119.128C62.032 119.128 61.168 118.781 60.5386 118.088V122.104H58.0426V110.392H60.4266V111.384C61.0453 110.637 61.9466 110.264 63.1306 110.264ZM62.6986 117.08C63.3386 117.08 63.8613 116.867 64.2666 116.44C64.6826 116.003 64.8906 115.421 64.8906 114.696C64.8906 113.971 64.6826 113.395 64.2666 112.968C63.8613 112.531 63.3386 112.312 62.6986 112.312C62.0586 112.312 61.5306 112.531 61.1146 112.968C60.7093 113.395 60.5066 113.971 60.5066 114.696C60.5066 115.421 60.7093 116.003 61.1146 116.44C61.5306 116.867 62.0586 117.08 62.6986 117.08ZM73.1855 119.128C72.2788 119.128 71.4628 118.941 70.7375 118.568C70.0228 118.184 69.4628 117.656 69.0575 116.984C68.6522 116.312 68.4495 115.549 68.4495 114.696C68.4495 113.843 68.6522 113.08 69.0575 112.408C69.4628 111.736 70.0228 111.213 70.7375 110.84C71.4628 110.456 72.2788 110.264 73.1855 110.264C74.0922 110.264 74.9028 110.456 75.6175 110.84C76.3322 111.213 76.8922 111.736 77.2975 112.408C77.7028 113.08 77.9055 113.843 77.9055 114.696C77.9055 115.549 77.7028 116.312 77.2975 116.984C76.8922 117.656 76.3322 118.184 75.6175 118.568C74.9028 118.941 74.0922 119.128 73.1855 119.128ZM73.1855 117.08C73.8255 117.08 74.3482 116.867 74.7535 116.44C75.1695 116.003 75.3775 115.421 75.3775 114.696C75.3775 113.971 75.1695 113.395 74.7535 112.968C74.3482 112.531 73.8255 112.312 73.1855 112.312C72.5455 112.312 72.0175 112.531 71.6015 112.968C71.1855 113.395 70.9775 113.971 70.9775 114.696C70.9775 115.421 71.1855 116.003 71.6015 116.44C72.0175 116.867 72.5455 117.08 73.1855 117.08ZM81.9579 111.528C82.2565 111.112 82.6565 110.797 83.1579 110.584C83.6699 110.371 84.2565 110.264 84.9179 110.264V112.568C84.6405 112.547 84.4539 112.536 84.3579 112.536C83.6432 112.536 83.0832 112.739 82.6779 113.144C82.2725 113.539 82.0699 114.136 82.0699 114.936V119H79.5739V110.392H81.9579V111.528ZM92.2509 118.584C92.0055 118.765 91.7015 118.904 91.3389 119C90.9869 119.085 90.6135 119.128 90.2189 119.128C89.1949 119.128 88.4002 118.867 87.8349 118.344C87.2802 117.821 87.0029 117.053 87.0029 116.04V112.504H85.6749V110.584H87.0029V108.488H89.4989V110.584H91.6429V112.504H89.4989V116.008C89.4989 116.371 89.5895 116.653 89.7709 116.856C89.9629 117.048 90.2295 117.144 90.5709 117.144C90.9655 117.144 91.3015 117.037 91.5789 116.824L92.2509 118.584ZM98.1833 110.392H100.679V119H98.1833V110.392ZM99.4313 109.192C98.9726 109.192 98.5993 109.059 98.3113 108.792C98.0233 108.525 97.8793 108.195 97.8793 107.8C97.8793 107.405 98.0233 107.075 98.3113 106.808C98.5993 106.541 98.9726 106.408 99.4313 106.408C99.8899 106.408 100.263 106.536 100.551 106.792C100.839 107.048 100.983 107.368 100.983 107.752C100.983 108.168 100.839 108.515 100.551 108.792C100.263 109.059 99.8899 109.192 99.4313 109.192ZM105.892 119.128C105.177 119.128 104.478 119.043 103.796 118.872C103.113 118.691 102.569 118.467 102.164 118.2L102.996 116.408C103.38 116.653 103.844 116.856 104.388 117.016C104.932 117.165 105.465 117.24 105.988 117.24C107.044 117.24 107.572 116.979 107.572 116.456C107.572 116.211 107.428 116.035 107.14 115.928C106.852 115.821 106.409 115.731 105.812 115.656C105.108 115.549 104.526 115.427 104.068 115.288C103.609 115.149 103.209 114.904 102.868 114.552C102.537 114.2 102.372 113.699 102.372 113.048C102.372 112.504 102.526 112.024 102.836 111.608C103.156 111.181 103.614 110.851 104.212 110.616C104.82 110.381 105.534 110.264 106.356 110.264C106.964 110.264 107.566 110.333 108.164 110.472C108.772 110.6 109.273 110.781 109.668 111.016L108.836 112.792C108.078 112.365 107.252 112.152 106.356 112.152C105.822 112.152 105.422 112.227 105.156 112.376C104.889 112.525 104.756 112.717 104.756 112.952C104.756 113.219 104.9 113.405 105.188 113.512C105.476 113.619 105.934 113.72 106.564 113.816C107.268 113.933 107.844 114.061 108.292 114.2C108.74 114.328 109.129 114.568 109.46 114.92C109.79 115.272 109.956 115.763 109.956 116.392C109.956 116.925 109.796 117.4 109.476 117.816C109.156 118.232 108.686 118.557 108.068 118.792C107.46 119.016 106.734 119.128 105.892 119.128ZM114.392 119.128C113.677 119.128 112.978 119.043 112.296 118.872C111.613 118.691 111.069 118.467 110.664 118.2L111.496 116.408C111.88 116.653 112.344 116.856 112.888 117.016C113.432 117.165 113.965 117.24 114.488 117.24C115.544 117.24 116.072 116.979 116.072 116.456C116.072 116.211 115.928 116.035 115.64 115.928C115.352 115.821 114.909 115.731 114.312 115.656C113.608 115.549 113.026 115.427 112.568 115.288C112.109 115.149 111.709 114.904 111.368 114.552C111.037 114.2 110.872 113.699 110.872 113.048C110.872 112.504 111.026 112.024 111.336 111.608C111.656 111.181 112.114 110.851 112.712 110.616C113.32 110.381 114.034 110.264 114.856 110.264C115.464 110.264 116.066 110.333 116.664 110.472C117.272 110.6 117.773 110.781 118.168 111.016L117.336 112.792C116.578 112.365 115.752 112.152 114.856 112.152C114.322 112.152 113.922 112.227 113.656 112.376C113.389 112.525 113.256 112.717 113.256 112.952C113.256 113.219 113.4 113.405 113.688 113.512C113.976 113.619 114.434 113.72 115.064 113.816C115.768 113.933 116.344 114.061 116.792 114.2C117.24 114.328 117.629 114.568 117.96 114.92C118.29 115.272 118.456 115.763 118.456 116.392C118.456 116.925 118.296 117.4 117.976 117.816C117.656 118.232 117.186 118.557 116.568 118.792C115.96 119.016 115.234 119.128 114.392 119.128ZM128.668 110.392V119H126.3V117.976C125.969 118.349 125.574 118.637 125.116 118.84C124.657 119.032 124.161 119.128 123.628 119.128C122.497 119.128 121.601 118.803 120.94 118.152C120.278 117.501 119.948 116.536 119.948 115.256V110.392H122.444V114.888C122.444 116.275 123.025 116.968 124.188 116.968C124.785 116.968 125.265 116.776 125.628 116.392C125.99 115.997 126.172 115.416 126.172 114.648V110.392H128.668ZM139.412 114.728C139.412 114.76 139.396 114.984 139.364 115.4H132.852C132.969 115.933 133.247 116.355 133.684 116.664C134.121 116.973 134.665 117.128 135.316 117.128C135.764 117.128 136.159 117.064 136.5 116.936C136.852 116.797 137.177 116.584 137.476 116.296L138.804 117.736C137.993 118.664 136.809 119.128 135.252 119.128C134.281 119.128 133.423 118.941 132.676 118.568C131.929 118.184 131.353 117.656 130.948 116.984C130.543 116.312 130.34 115.549 130.34 114.696C130.34 113.853 130.537 113.096 130.932 112.424C131.337 111.741 131.887 111.213 132.58 110.84C133.284 110.456 134.068 110.264 134.932 110.264C135.775 110.264 136.537 110.445 137.22 110.808C137.903 111.171 138.436 111.693 138.82 112.376C139.215 113.048 139.412 113.832 139.412 114.728ZM134.948 112.152C134.383 112.152 133.908 112.312 133.524 112.632C133.14 112.952 132.905 113.389 132.82 113.944H137.06C136.975 113.4 136.74 112.968 136.356 112.648C135.972 112.317 135.503 112.152 134.948 112.152ZM143.97 119.128C143.255 119.128 142.557 119.043 141.874 118.872C141.191 118.691 140.647 118.467 140.242 118.2L141.074 116.408C141.458 116.653 141.922 116.856 142.466 117.016C143.01 117.165 143.543 117.24 144.066 117.24C145.122 117.24 145.65 116.979 145.65 116.456C145.65 116.211 145.506 116.035 145.218 115.928C144.93 115.821 144.487 115.731 143.89 115.656C143.186 115.549 142.605 115.427 142.146 115.288C141.687 115.149 141.287 114.904 140.946 114.552C140.615 114.2 140.45 113.699 140.45 113.048C140.45 112.504 140.605 112.024 140.914 111.608C141.234 111.181 141.693 110.851 142.29 110.616C142.898 110.381 143.613 110.264 144.434 110.264C145.042 110.264 145.645 110.333 146.242 110.472C146.85 110.6 147.351 110.781 147.746 111.016L146.914 112.792C146.157 112.365 145.33 112.152 144.434 112.152C143.901 112.152 143.501 112.227 143.234 112.376C142.967 112.525 142.834 112.717 142.834 112.952C142.834 113.219 142.978 113.405 143.266 113.512C143.554 113.619 144.013 113.72 144.642 113.816C145.346 113.933 145.922 114.061 146.37 114.2C146.818 114.328 147.207 114.568 147.538 114.92C147.869 115.272 148.034 115.763 148.034 116.392C148.034 116.925 147.874 117.4 147.554 117.816C147.234 118.232 146.765 118.557 146.146 118.792C145.538 119.016 144.813 119.128 143.97 119.128Z" fill="#686361"/>
<path d="M108.009 45.0551V60.9015L85.6611 64.8013V41.1553L108.009 45.0551Z" fill="#FF7694"/>
<path d="M108.009 56.5562V60.9016L85.6611 64.8014V58.7878L108.009 56.5562Z" fill="#E53737"/>
<path d="M100.831 43.8027V62.154L92.8398 63.5489V42.4084L100.831 43.8027Z" fill="#D3DDEA"/>
<path d="M100.831 57.2729V62.154L92.8398 63.5489V58.0708L100.831 57.2729Z" fill="#97B0CC"/>
<path d="M75.9093 40.0126V77.3304H72.6611V39.9216" fill="#84ABC1"/>
<path d="M74.2342 40.0126V77.3304H72.6611V39.9216" fill="#4D87A1"/>
<path d="M77.7262 37.0286C77.7262 38.8833 76.2225 40.387 74.3675 40.387C72.5125 40.387 71.0088 38.8833 71.0088 37.0286C71.0088 35.1737 72.5125 33.6699 74.3675 33.6699C76.2225 33.6699 77.7262 35.1737 77.7262 37.0286Z" fill="#E53737"/>
<path d="M77.7269 37.0285C77.7269 38.4585 76.8326 39.6797 75.5729 40.1645C74.3136 39.6797 73.4199 38.4585 73.4199 37.0285C73.4199 35.5983 74.3136 34.3764 75.5729 33.8916C76.8326 34.3764 77.7269 35.5986 77.7269 37.0285Z" fill="#FF7694"/>
<path d="M108.124 44.3956L85.7763 40.4961C85.6531 40.4745 85.5281 40.4886 85.4145 40.5335C85.4138 40.5335 85.4131 40.5339 85.4127 40.5339L76.5787 44.0663V40.3935C77.6907 39.6574 78.3959 38.3919 78.3959 37.0285C78.3959 35.373 77.358 33.8614 75.8128 33.2668C75.3517 33.09 74.8655 33 74.3674 33C72.1468 33 70.3398 34.8073 70.3398 37.0285C70.3398 38.3613 70.9908 39.5441 71.9912 40.2778V66.9996C71.9912 67.3694 72.2909 67.6691 72.6607 67.6691C73.0305 67.6691 73.3302 67.3694 73.3302 66.9996V40.9201C73.6615 41.0083 74.0089 41.0561 74.3674 41.0561C74.6633 41.0561 74.9548 41.0238 75.2394 40.961V76.661H73.3302V69.6779C73.3302 69.3081 73.0305 69.0084 72.6607 69.0084C72.2909 69.0084 71.9912 69.3081 71.9912 69.6779V77.3305C71.9912 77.7003 72.2909 78 72.6607 78H75.9089C76.2786 78 76.5787 77.7003 76.5787 77.3305V61.8903L85.4127 65.4227C85.4131 65.4227 85.4138 65.4224 85.4141 65.4227C85.4927 65.4536 85.5762 65.4704 85.6613 65.4704C85.6994 65.4704 85.7382 65.4673 85.7763 65.4605L92.9562 64.2077C92.9641 64.2063 92.972 64.2053 92.9799 64.2036L108.124 61.561C108.445 61.5054 108.679 61.227 108.679 60.9015V45.0551C108.679 44.7296 108.445 44.4515 108.124 44.3956ZM71.6788 37.0285C71.6788 35.5454 72.8849 34.339 74.3674 34.339C74.7007 34.339 75.0255 34.3987 75.3321 34.5165C76.3638 34.9137 77.057 35.923 77.057 37.0285C77.057 38.1334 76.3638 39.1424 75.3324 39.5396C75.0255 39.6574 74.7007 39.7171 74.3674 39.7171C72.8849 39.7171 71.6788 38.511 71.6788 37.0285ZM76.579 45.5083L84.9918 42.1444V63.8122L76.579 60.4483V45.5083ZM86.3308 41.9521L92.1707 42.9711V62.9855L86.3308 64.0044V41.9521ZM107.34 60.3388L101.5 61.3578V50.4861C101.5 50.1164 101.2 49.8166 100.831 49.8166C100.461 49.8166 100.161 50.1164 100.161 50.4861V61.5916L93.5097 62.752V43.2046L100.161 44.3654V47.8079C100.161 48.1776 100.461 48.4773 100.831 48.4773C101.2 48.4773 101.5 48.1776 101.5 47.8079V44.5988L107.34 45.6178V60.3388Z" fill="black"/>
</svg>
