<svg width="417" height="48" viewBox="0 0 417 48" fill="none" xmlns="http://www.w3.org/2000/svg">
<path d="M119.144 17.6459V18.6699H121.784V28.8459H122.936V17.6459H119.144ZM127.101 27.8219L130.909 24.0779C132.413 22.6059 132.749 21.6459 132.749 20.5739C132.749 18.7019 131.309 17.5499 129.037 17.5499C127.325 17.5499 125.933 18.1259 125.069 19.1499L125.885 19.8539C126.621 19.0059 127.629 18.6059 128.941 18.6059C130.653 18.6059 131.565 19.4059 131.565 20.7019C131.565 21.4699 131.325 22.2219 130.061 23.4699L125.405 28.0299V28.8459H133.261V27.8219H127.101ZM138.515 22.4459L141.683 18.4619V17.6459H134.483V18.6699H140.211L137.107 22.5579V23.4059H137.907C139.987 23.4059 140.931 24.2859 140.931 25.6299C140.931 27.0219 139.907 27.8859 138.051 27.8859C136.595 27.8859 135.299 27.3419 134.579 26.5899L134.019 27.5019C134.883 28.3819 136.435 28.9419 138.051 28.9419C140.755 28.9419 142.115 27.5019 142.115 25.6299C142.115 23.8379 140.915 22.5739 138.515 22.4459ZM153.258 24.8779H151.018V22.2859H149.898V24.8779H145.034L150.762 17.6459H149.482L143.546 25.0699V25.9019H149.866V28.8459H151.018V25.9019H153.258V24.8779Z" fill="#686361" fill-opacity="0.5"/>
<path d="M45.936 18.6459L41.616 28.3739L37.328 18.6459H36.048L41.008 29.8459H42.176L47.136 18.6459H45.936ZM56.7858 29.8459H58.0338L52.9138 18.6459H51.7458L46.6258 29.8459H47.8578L49.2018 26.8539H55.4418L56.7858 29.8459ZM49.6338 25.8939L52.3218 19.8779L55.0098 25.8939H49.6338Z" fill="#686361" fill-opacity="0.5"/>
<line x1="95.5" y1="0.845947" x2="95.5" y2="46.8459" stroke="#A9B7C8" stroke-opacity="0.5"/>
<rect x="0.5" y="0.884521" width="416" height="46.3077" rx="9.5" stroke="#A9B7C8" stroke-opacity="0.5"/>
</svg>
