<svg width="178" height="176" viewBox="0 0 178 176" fill="none" xmlns="http://www.w3.org/2000/svg">
<rect width="178" height="176" rx="10" fill="white"/>
<rect x="0.5" y="0.5" width="177" height="175" rx="9.5" stroke="#A9B7C8" stroke-opacity="0.5"/>
<path d="M71.9161 119.192C70.7534 119.192 69.7027 118.941 68.7641 118.44C67.8361 117.939 67.1054 117.251 66.5721 116.376C66.0494 115.491 65.7881 114.499 65.7881 113.4C65.7881 112.301 66.0494 111.315 66.5721 110.44C67.1054 109.555 67.8361 108.861 68.7641 108.36C69.7027 107.859 70.7534 107.608 71.9161 107.608C73.0787 107.608 74.1241 107.859 75.0521 108.36C75.9801 108.861 76.7107 109.555 77.2441 110.44C77.7774 111.315 78.0441 112.301 78.0441 113.4C78.0441 114.499 77.7774 115.491 77.2441 116.376C76.7107 117.251 75.9801 117.939 75.0521 118.44C74.1241 118.941 73.0787 119.192 71.9161 119.192ZM71.9161 116.984C72.5774 116.984 73.1747 116.835 73.7081 116.536C74.2414 116.227 74.6574 115.8 74.9561 115.256C75.2654 114.712 75.4201 114.093 75.4201 113.4C75.4201 112.707 75.2654 112.088 74.9561 111.544C74.6574 111 74.2414 110.579 73.7081 110.28C73.1747 109.971 72.5774 109.816 71.9161 109.816C71.2547 109.816 70.6574 109.971 70.1241 110.28C69.5907 110.579 69.1694 111 68.8601 111.544C68.5614 112.088 68.4121 112.707 68.4121 113.4C68.4121 114.093 68.5614 114.712 68.8601 115.256C69.1694 115.8 69.5907 116.227 70.1241 116.536C70.6574 116.835 71.2547 116.984 71.9161 116.984ZM85.4462 118.584C85.2009 118.765 84.8969 118.904 84.5342 119C84.1822 119.085 83.8089 119.128 83.4142 119.128C82.3902 119.128 81.5955 118.867 81.0302 118.344C80.4755 117.821 80.1982 117.053 80.1982 116.04V112.504H78.8702V110.584H80.1982V108.488H82.6942V110.584H84.8382V112.504H82.6942V116.008C82.6942 116.371 82.7849 116.653 82.9662 116.856C83.1582 117.048 83.4249 117.144 83.7662 117.144C84.1609 117.144 84.4969 117.037 84.7742 116.824L85.4462 118.584ZM92.0793 110.264C93.146 110.264 94.0046 110.584 94.6553 111.224C95.3166 111.864 95.6473 112.813 95.6473 114.072V119H93.1513V114.456C93.1513 113.773 93.002 113.267 92.7033 112.936C92.4046 112.595 91.9726 112.424 91.4073 112.424C90.778 112.424 90.2766 112.621 89.9033 113.016C89.53 113.4 89.3433 113.976 89.3433 114.744V119H86.8473V107.128H89.3433V111.288C89.674 110.957 90.074 110.707 90.5433 110.536C91.0126 110.355 91.5246 110.264 92.0793 110.264ZM106.436 114.728C106.436 114.76 106.42 114.984 106.388 115.4H99.8756C99.9929 115.933 100.27 116.355 100.708 116.664C101.145 116.973 101.689 117.128 102.34 117.128C102.788 117.128 103.182 117.064 103.524 116.936C103.876 116.797 104.201 116.584 104.5 116.296L105.828 117.736C105.017 118.664 103.833 119.128 102.276 119.128C101.305 119.128 100.446 118.941 99.6996 118.568C98.9529 118.184 98.3769 117.656 97.9716 116.984C97.5662 116.312 97.3636 115.549 97.3636 114.696C97.3636 113.853 97.5609 113.096 97.9556 112.424C98.3609 111.741 98.9102 111.213 99.6036 110.84C100.308 110.456 101.092 110.264 101.956 110.264C102.798 110.264 103.561 110.445 104.244 110.808C104.926 111.171 105.46 111.693 105.844 112.376C106.238 113.048 106.436 113.832 106.436 114.728ZM101.972 112.152C101.406 112.152 100.932 112.312 100.548 112.632C100.164 112.952 99.9289 113.389 99.8436 113.944H104.084C103.998 113.4 103.764 112.968 103.38 112.648C102.996 112.317 102.526 112.152 101.972 112.152ZM110.481 111.528C110.78 111.112 111.18 110.797 111.681 110.584C112.193 110.371 112.78 110.264 113.441 110.264V112.568C113.164 112.547 112.977 112.536 112.881 112.536C112.167 112.536 111.607 112.739 111.201 113.144C110.796 113.539 110.593 114.136 110.593 114.936V119H108.097V110.392H110.481V111.528Z" fill="#686361"/>
<g clip-path="url(#clip0_56_908)">
<path d="M70.9132 60.4124C68.2038 60.4124 66 58.2097 66 55.4999C66 52.7915 68.2038 50.5874 70.9132 50.5874C73.6227 50.5874 75.8265 52.7914 75.8265 55.4999C75.8264 58.2097 73.6227 60.4124 70.9132 60.4124Z" fill="#FF633B"/>
<path d="M88.2238 60.4124C85.5143 60.4124 83.3105 58.2097 83.3105 55.4999C83.3105 52.7915 85.5143 50.5874 88.2238 50.5874C90.9328 50.5874 93.137 52.7914 93.137 55.4999C93.1369 58.2097 90.9328 60.4124 88.2238 60.4124Z" fill="#FF633B"/>
<path d="M106.087 60.4124C103.378 60.4124 101.174 58.2097 101.174 55.4999C101.174 52.7915 103.378 50.5874 106.087 50.5874C108.796 50.5874 111 52.7914 111 55.4999C111 58.2097 108.796 60.4124 106.087 60.4124Z" fill="#FF633B"/>
</g>
<defs>
<clipPath id="clip0_56_908">
<rect width="45.0001" height="45" fill="white" transform="translate(66 33)"/>
</clipPath>
</defs>
</svg>
