<svg width="616" height="46" viewBox="0 0 616 46" fill="none" xmlns="http://www.w3.org/2000/svg">
<rect y="0.538574" width="616" height="45" rx="10" fill="#1A7CFA" fill-opacity="0.05"/>
<path d="M80.05 17.431L76.746 27.231H75.654L72.784 18.873L69.9 27.231H68.822L65.518 17.431H66.582L69.41 25.859L72.336 17.431H73.302L76.186 25.901L79.056 17.431H80.05ZM87.591 23.857H81.431C81.487 24.6223 81.781 25.243 82.313 25.719C82.845 26.1856 83.517 26.419 84.329 26.419C84.7863 26.419 85.2063 26.3396 85.589 26.181C85.9716 26.013 86.303 25.7703 86.583 25.453L87.143 26.097C86.8163 26.489 86.4056 26.7876 85.911 26.993C85.4256 27.1983 84.889 27.301 84.301 27.301C83.545 27.301 82.873 27.1423 82.285 26.825C81.7063 26.4983 81.2536 26.0503 80.927 25.481C80.6003 24.9116 80.437 24.2676 80.437 23.549C80.437 22.8303 80.591 22.1863 80.899 21.617C81.2163 21.0476 81.6456 20.6043 82.187 20.287C82.7376 19.9696 83.3536 19.811 84.035 19.811C84.7163 19.811 85.3276 19.9696 85.869 20.287C86.4103 20.6043 86.835 21.0476 87.143 21.617C87.451 22.177 87.605 22.821 87.605 23.549L87.591 23.857ZM84.035 20.665C83.3256 20.665 82.7283 20.8936 82.243 21.351C81.767 21.799 81.4963 22.387 81.431 23.115H86.653C86.5876 22.387 86.3123 21.799 85.827 21.351C85.351 20.8936 84.7536 20.665 84.035 20.665ZM97.0443 19.811C97.9683 19.811 98.7009 20.0816 99.2423 20.623C99.7929 21.155 100.068 21.9343 100.068 22.961V27.231H99.0743V23.059C99.0743 22.2936 98.8829 21.7103 98.5003 21.309C98.1176 20.9076 97.5716 20.707 96.8623 20.707C96.0689 20.707 95.4389 20.945 94.9723 21.421C94.5149 21.8876 94.2863 22.5363 94.2863 23.367V27.231H93.2923V16.843H94.2863V21.155C94.5569 20.7256 94.9303 20.3943 95.4062 20.161C95.8823 19.9276 96.4283 19.811 97.0443 19.811ZM105.343 19.811C106.304 19.811 107.042 20.0536 107.555 20.539C108.068 21.015 108.325 21.7243 108.325 22.667V27.231H107.373V26.083C107.149 26.4656 106.818 26.7643 106.379 26.979C105.95 27.1936 105.436 27.301 104.839 27.301C104.018 27.301 103.364 27.105 102.879 26.713C102.394 26.321 102.151 25.803 102.151 25.159C102.151 24.5336 102.375 24.0296 102.823 23.647C103.28 23.2643 104.004 23.073 104.993 23.073H107.331V22.625C107.331 21.9903 107.154 21.5096 106.799 21.183C106.444 20.847 105.926 20.679 105.245 20.679C104.778 20.679 104.33 20.7583 103.901 20.917C103.472 21.0663 103.103 21.2763 102.795 21.547L102.347 20.805C102.72 20.4876 103.168 20.245 103.691 20.077C104.214 19.8996 104.764 19.811 105.343 19.811ZM104.993 26.517C105.553 26.517 106.034 26.391 106.435 26.139C106.836 25.8776 107.135 25.5043 107.331 25.019V23.815H105.021C103.761 23.815 103.131 24.2536 103.131 25.131C103.131 25.5603 103.294 25.901 103.621 26.153C103.948 26.3956 104.405 26.517 104.993 26.517ZM117.076 19.867L113.8 27.231H112.778L109.516 19.867H110.552L113.31 26.139L116.096 19.867H117.076ZM124.683 23.857H118.523C118.579 24.6223 118.873 25.243 119.405 25.719C119.937 26.1856 120.609 26.419 121.421 26.419C121.878 26.419 122.298 26.3396 122.681 26.181C123.063 26.013 123.395 25.7703 123.675 25.453L124.235 26.097C123.908 26.489 123.497 26.7876 123.003 26.993C122.517 27.1983 121.981 27.301 121.393 27.301C120.637 27.301 119.965 27.1423 119.377 26.825C118.798 26.4983 118.345 26.0503 118.019 25.481C117.692 24.9116 117.529 24.2676 117.529 23.549C117.529 22.8303 117.683 22.1863 117.991 21.617C118.308 21.0476 118.737 20.6043 119.279 20.287C119.829 19.9696 120.445 19.811 121.127 19.811C121.808 19.811 122.419 19.9696 122.961 20.287C123.502 20.6043 123.927 21.0476 124.235 21.617C124.543 22.177 124.697 22.821 124.697 23.549L124.683 23.857ZM121.127 20.665C120.417 20.665 119.82 20.8936 119.335 21.351C118.859 21.799 118.588 22.387 118.523 23.115H123.745C123.679 22.387 123.404 21.799 122.919 21.351C122.443 20.8936 121.845 20.665 121.127 20.665ZM132.96 19.811C133.921 19.811 134.659 20.0536 135.172 20.539C135.685 21.015 135.942 21.7243 135.942 22.667V27.231H134.99V26.083C134.766 26.4656 134.435 26.7643 133.996 26.979C133.567 27.1936 133.053 27.301 132.456 27.301C131.635 27.301 130.981 27.105 130.496 26.713C130.011 26.321 129.768 25.803 129.768 25.159C129.768 24.5336 129.992 24.0296 130.44 23.647C130.897 23.2643 131.621 23.073 132.61 23.073H134.948V22.625C134.948 21.9903 134.771 21.5096 134.416 21.183C134.061 20.847 133.543 20.679 132.862 20.679C132.395 20.679 131.947 20.7583 131.518 20.917C131.089 21.0663 130.72 21.2763 130.412 21.547L129.964 20.805C130.337 20.4876 130.785 20.245 131.308 20.077C131.831 19.8996 132.381 19.811 132.96 19.811ZM132.61 26.517C133.17 26.517 133.651 26.391 134.052 26.139C134.453 25.8776 134.752 25.5043 134.948 25.019V23.815H132.638C131.378 23.815 130.748 24.2536 130.748 25.131C130.748 25.5603 130.911 25.901 131.238 26.153C131.565 26.3956 132.022 26.517 132.61 26.517ZM138.642 16.843H139.636V27.231H138.642V16.843ZM143.354 21.309C143.587 20.8143 143.932 20.441 144.39 20.189C144.856 19.937 145.43 19.811 146.112 19.811V20.777L145.874 20.763C145.099 20.763 144.492 21.001 144.054 21.477C143.615 21.953 143.396 22.6203 143.396 23.479V27.231H142.402V19.867H143.354V21.309ZM154.255 23.857H148.095C148.151 24.6223 148.445 25.243 148.977 25.719C149.509 26.1856 150.181 26.419 150.993 26.419C151.45 26.419 151.87 26.3396 152.253 26.181C152.636 26.013 152.967 25.7703 153.247 25.453L153.807 26.097C153.48 26.489 153.07 26.7876 152.575 26.993C152.09 27.1983 151.553 27.301 150.965 27.301C150.209 27.301 149.537 27.1423 148.949 26.825C148.37 26.4983 147.918 26.0503 147.591 25.481C147.264 24.9116 147.101 24.2676 147.101 23.549C147.101 22.8303 147.255 22.1863 147.563 21.617C147.88 21.0476 148.31 20.6043 148.851 20.287C149.402 19.9696 150.018 19.811 150.699 19.811C151.38 19.811 151.992 19.9696 152.533 20.287C153.074 20.6043 153.499 21.0476 153.807 21.617C154.115 22.177 154.269 22.821 154.269 23.549L154.255 23.857ZM150.699 20.665C149.99 20.665 149.392 20.8936 148.907 21.351C148.431 21.799 148.16 22.387 148.095 23.115H153.317C153.252 22.387 152.976 21.799 152.491 21.351C152.015 20.8936 151.418 20.665 150.699 20.665ZM158.663 19.811C159.625 19.811 160.362 20.0536 160.875 20.539C161.389 21.015 161.645 21.7243 161.645 22.667V27.231H160.693V26.083C160.469 26.4656 160.138 26.7643 159.699 26.979C159.27 27.1936 158.757 27.301 158.159 27.301C157.338 27.301 156.685 27.105 156.199 26.713C155.714 26.321 155.471 25.803 155.471 25.159C155.471 24.5336 155.695 24.0296 156.143 23.647C156.601 23.2643 157.324 23.073 158.313 23.073H160.651V22.625C160.651 21.9903 160.474 21.5096 160.119 21.183C159.765 20.847 159.247 20.679 158.565 20.679C158.099 20.679 157.651 20.7583 157.221 20.917C156.792 21.0663 156.423 21.2763 156.115 21.547L155.667 20.805C156.041 20.4876 156.489 20.245 157.011 20.077C157.534 19.8996 158.085 19.811 158.663 19.811ZM158.313 26.517C158.873 26.517 159.354 26.391 159.755 26.139C160.157 25.8776 160.455 25.5043 160.651 25.019V23.815H158.341C157.081 23.815 156.451 24.2536 156.451 25.131C156.451 25.5603 156.615 25.901 156.941 26.153C157.268 26.3956 157.725 26.517 158.313 26.517ZM171.092 16.843V27.231H170.14V25.775C169.842 26.2696 169.445 26.6476 168.95 26.909C168.465 27.1703 167.914 27.301 167.298 27.301C166.608 27.301 165.982 27.1423 165.422 26.825C164.862 26.5076 164.424 26.0643 164.106 25.495C163.789 24.9256 163.63 24.277 163.63 23.549C163.63 22.821 163.789 22.1723 164.106 21.603C164.424 21.0336 164.862 20.595 165.422 20.287C165.982 19.9696 166.608 19.811 167.298 19.811C167.896 19.811 168.432 19.937 168.908 20.189C169.394 20.4316 169.79 20.791 170.098 21.267V16.843H171.092ZM167.382 26.419C167.896 26.419 168.358 26.3023 168.768 26.069C169.188 25.8263 169.515 25.4856 169.748 25.047C169.991 24.6083 170.112 24.109 170.112 23.549C170.112 22.989 169.991 22.4896 169.748 22.051C169.515 21.6123 169.188 21.2763 168.768 21.043C168.358 20.8003 167.896 20.679 167.382 20.679C166.86 20.679 166.388 20.8003 165.968 21.043C165.558 21.2763 165.231 21.6123 164.988 22.051C164.755 22.4896 164.638 22.989 164.638 23.549C164.638 24.109 164.755 24.6083 164.988 25.047C165.231 25.4856 165.558 25.8263 165.968 26.069C166.388 26.3023 166.86 26.419 167.382 26.419ZM180.049 19.867L176.367 28.113C176.068 28.8036 175.723 29.2936 175.331 29.583C174.939 29.8723 174.467 30.017 173.917 30.017C173.562 30.017 173.231 29.961 172.923 29.849C172.615 29.737 172.349 29.569 172.125 29.345L172.587 28.603C172.96 28.9763 173.408 29.163 173.931 29.163C174.267 29.163 174.551 29.0696 174.785 28.883C175.027 28.6963 175.251 28.379 175.457 27.931L175.779 27.217L172.489 19.867H173.525L176.297 26.125L179.069 19.867H180.049ZM188.865 19.811C189.789 19.811 190.521 20.0816 191.063 20.623C191.613 21.155 191.889 21.9343 191.889 22.961V27.231H190.895V23.059C190.895 22.2936 190.703 21.7103 190.321 21.309C189.938 20.9076 189.392 20.707 188.683 20.707C187.889 20.707 187.259 20.945 186.793 21.421C186.335 21.8876 186.107 22.5363 186.107 23.367V27.231H185.113V16.843H186.107V21.155C186.377 20.7256 186.751 20.3943 187.227 20.161C187.703 19.9276 188.249 19.811 188.865 19.811ZM201.027 23.857H194.867C194.923 24.6223 195.217 25.243 195.749 25.719C196.281 26.1856 196.953 26.419 197.765 26.419C198.222 26.419 198.642 26.3396 199.025 26.181C199.407 26.013 199.739 25.7703 200.019 25.453L200.579 26.097C200.252 26.489 199.841 26.7876 199.347 26.993C198.861 27.1983 198.325 27.301 197.737 27.301C196.981 27.301 196.309 27.1423 195.721 26.825C195.142 26.4983 194.689 26.0503 194.363 25.481C194.036 24.9116 193.873 24.2676 193.873 23.549C193.873 22.8303 194.027 22.1863 194.335 21.617C194.652 21.0476 195.081 20.6043 195.623 20.287C196.173 19.9696 196.789 19.811 197.471 19.811C198.152 19.811 198.763 19.9696 199.305 20.287C199.846 20.6043 200.271 21.0476 200.579 21.617C200.887 22.177 201.041 22.821 201.041 23.549L201.027 23.857ZM197.471 20.665C196.761 20.665 196.164 20.8936 195.679 21.351C195.203 21.799 194.932 22.387 194.867 23.115H200.089C200.023 22.387 199.748 21.799 199.263 21.351C198.787 20.8936 198.189 20.665 197.471 20.665ZM203.064 16.843H204.058V27.231H203.064V16.843ZM210.618 19.811C211.308 19.811 211.934 19.9696 212.494 20.287C213.054 20.595 213.492 21.0336 213.81 21.603C214.127 22.1723 214.286 22.821 214.286 23.549C214.286 24.2863 214.127 24.9396 213.81 25.509C213.492 26.0783 213.054 26.5216 212.494 26.839C211.943 27.147 211.318 27.301 210.618 27.301C210.02 27.301 209.479 27.1796 208.994 26.937C208.518 26.685 208.126 26.321 207.818 25.845V29.947H206.824V19.867H207.776V21.323C208.074 20.8376 208.466 20.4643 208.952 20.203C209.446 19.9416 210.002 19.811 210.618 19.811ZM210.548 26.419C211.061 26.419 211.528 26.3023 211.948 26.069C212.368 25.8263 212.694 25.4856 212.928 25.047C213.17 24.6083 213.292 24.109 213.292 23.549C213.292 22.989 213.17 22.4943 212.928 22.065C212.694 21.6263 212.368 21.2856 211.948 21.043C211.528 20.8003 211.061 20.679 210.548 20.679C210.025 20.679 209.554 20.8003 209.133 21.043C208.723 21.2856 208.396 21.6263 208.154 22.065C207.92 22.4943 207.804 22.989 207.804 23.549C207.804 24.109 207.92 24.6083 208.154 25.047C208.396 25.4856 208.723 25.8263 209.133 26.069C209.554 26.3023 210.025 26.419 210.548 26.419ZM222.724 23.857H216.564C216.62 24.6223 216.914 25.243 217.446 25.719C217.978 26.1856 218.65 26.419 219.462 26.419C219.919 26.419 220.339 26.3396 220.722 26.181C221.104 26.013 221.436 25.7703 221.716 25.453L222.276 26.097C221.949 26.489 221.538 26.7876 221.044 26.993C220.558 27.1983 220.022 27.301 219.434 27.301C218.678 27.301 218.006 27.1423 217.418 26.825C216.839 26.4983 216.386 26.0503 216.06 25.481C215.733 24.9116 215.57 24.2676 215.57 23.549C215.57 22.8303 215.724 22.1863 216.032 21.617C216.349 21.0476 216.778 20.6043 217.32 20.287C217.87 19.9696 218.486 19.811 219.168 19.811C219.849 19.811 220.46 19.9696 221.002 20.287C221.543 20.6043 221.968 21.0476 222.276 21.617C222.584 22.177 222.738 22.821 222.738 23.549L222.724 23.857ZM219.168 20.665C218.458 20.665 217.861 20.8936 217.376 21.351C216.9 21.799 216.629 22.387 216.564 23.115H221.786C221.72 22.387 221.445 21.799 220.96 21.351C220.484 20.8936 219.886 20.665 219.168 20.665ZM231.481 16.843V27.231H230.529V25.775C230.23 26.2696 229.834 26.6476 229.339 26.909C228.854 27.1703 228.303 27.301 227.687 27.301C226.996 27.301 226.371 27.1423 225.811 26.825C225.251 26.5076 224.812 26.0643 224.495 25.495C224.178 24.9256 224.019 24.277 224.019 23.549C224.019 22.821 224.178 22.1723 224.495 21.603C224.812 21.0336 225.251 20.595 225.811 20.287C226.371 19.9696 226.996 19.811 227.687 19.811C228.284 19.811 228.821 19.937 229.297 20.189C229.782 20.4316 230.179 20.791 230.487 21.267V16.843H231.481ZM227.771 26.419C228.284 26.419 228.746 26.3023 229.157 26.069C229.577 25.8263 229.904 25.4856 230.137 25.047C230.38 24.6083 230.501 24.109 230.501 23.549C230.501 22.989 230.38 22.4896 230.137 22.051C229.904 21.6123 229.577 21.2763 229.157 21.043C228.746 20.8003 228.284 20.679 227.771 20.679C227.248 20.679 226.777 20.8003 226.357 21.043C225.946 21.2763 225.62 21.6123 225.377 22.051C225.144 22.4896 225.027 22.989 225.027 23.549C225.027 24.109 225.144 24.6083 225.377 25.047C225.62 25.4856 225.946 25.8263 226.357 26.069C226.777 26.3023 227.248 26.419 227.771 26.419ZM240.923 27.301C240.214 27.301 239.575 27.1423 239.005 26.825C238.436 26.4983 237.988 26.0503 237.661 25.481C237.335 24.9116 237.171 24.2676 237.171 23.549C237.171 22.8303 237.335 22.1863 237.661 21.617C237.988 21.0476 238.436 20.6043 239.005 20.287C239.575 19.9696 240.214 19.811 240.923 19.811C241.633 19.811 242.272 19.9696 242.841 20.287C243.411 20.6043 243.854 21.0476 244.171 21.617C244.498 22.1863 244.661 22.8303 244.661 23.549C244.661 24.2676 244.498 24.9116 244.171 25.481C243.854 26.0503 243.411 26.4983 242.841 26.825C242.272 27.1423 241.633 27.301 240.923 27.301ZM240.923 26.419C241.446 26.419 241.913 26.3023 242.323 26.069C242.743 25.8263 243.07 25.4856 243.303 25.047C243.537 24.6083 243.653 24.109 243.653 23.549C243.653 22.989 243.537 22.4896 243.303 22.051C243.07 21.6123 242.743 21.2763 242.323 21.043C241.913 20.8003 241.446 20.679 240.923 20.679C240.401 20.679 239.929 20.8003 239.509 21.043C239.099 21.2763 238.772 21.6123 238.529 22.051C238.296 22.4896 238.179 22.989 238.179 23.549C238.179 24.109 238.296 24.6083 238.529 25.047C238.772 25.4856 239.099 25.8263 239.509 26.069C239.929 26.3023 240.401 26.419 240.923 26.419ZM252.674 19.867L249.398 27.231H248.376L245.114 19.867H246.15L248.908 26.139L251.694 19.867H252.674ZM260.28 23.857H254.12C254.176 24.6223 254.47 25.243 255.002 25.719C255.534 26.1856 256.206 26.419 257.018 26.419C257.476 26.419 257.896 26.3396 258.278 26.181C258.661 26.013 258.992 25.7703 259.272 25.453L259.832 26.097C259.506 26.489 259.095 26.7876 258.6 26.993C258.115 27.1983 257.578 27.301 256.99 27.301C256.234 27.301 255.562 27.1423 254.974 26.825C254.396 26.4983 253.943 26.0503 253.616 25.481C253.29 24.9116 253.126 24.2676 253.126 23.549C253.126 22.8303 253.28 22.1863 253.588 21.617C253.906 21.0476 254.335 20.6043 254.876 20.287C255.427 19.9696 256.043 19.811 256.724 19.811C257.406 19.811 258.017 19.9696 258.558 20.287C259.1 20.6043 259.524 21.0476 259.832 21.617C260.14 22.177 260.294 22.821 260.294 23.549L260.28 23.857ZM256.724 20.665C256.015 20.665 255.418 20.8936 254.932 21.351C254.456 21.799 254.186 22.387 254.12 23.115H259.342C259.277 22.387 259.002 21.799 258.516 21.351C258.04 20.8936 257.443 20.665 256.724 20.665ZM263.27 21.309C263.503 20.8143 263.848 20.441 264.306 20.189C264.772 19.937 265.346 19.811 266.028 19.811V20.777L265.79 20.763C265.015 20.763 264.408 21.001 263.97 21.477C263.531 21.953 263.312 22.6203 263.312 23.479V27.231H262.318V19.867H263.27V21.309ZM274.541 17.431V27.231H272.273V19.251H270.313V17.431H274.541ZM280.821 21.421C281.68 21.561 282.338 21.883 282.795 22.387C283.253 22.8816 283.481 23.4976 283.481 24.235C283.481 24.8043 283.332 25.3316 283.033 25.817C282.735 26.293 282.277 26.6756 281.661 26.965C281.055 27.2543 280.308 27.399 279.421 27.399C278.731 27.399 278.049 27.3103 277.377 27.133C276.715 26.9463 276.15 26.685 275.683 26.349L276.565 24.613C276.939 24.893 277.368 25.1123 277.853 25.271C278.348 25.4203 278.852 25.495 279.365 25.495C279.935 25.495 280.383 25.3876 280.709 25.173C281.036 24.949 281.199 24.6363 281.199 24.235C281.199 23.4323 280.588 23.031 279.365 23.031H278.329V21.533L280.345 19.251H276.173V17.431H283.033V18.901L280.821 21.421ZM298.601 19.587C299.544 19.587 300.291 19.867 300.841 20.427C301.401 20.9776 301.681 21.8083 301.681 22.919V27.231H299.497V23.255C299.497 22.6576 299.371 22.2143 299.119 21.925C298.877 21.6263 298.527 21.477 298.069 21.477C297.556 21.477 297.15 21.645 296.851 21.981C296.553 22.3076 296.403 22.7976 296.403 23.451V27.231H294.219V23.255C294.219 22.0696 293.743 21.477 292.791 21.477C292.287 21.477 291.886 21.645 291.587 21.981C291.289 22.3076 291.139 22.7976 291.139 23.451V27.231H288.955V19.699H291.041V20.567C291.321 20.2496 291.662 20.007 292.063 19.839C292.474 19.671 292.922 19.587 293.407 19.587C293.939 19.587 294.42 19.6943 294.849 19.909C295.279 20.1143 295.624 20.4176 295.885 20.819C296.193 20.427 296.581 20.1236 297.047 19.909C297.523 19.6943 298.041 19.587 298.601 19.587ZM303.639 19.699H305.823V27.231H303.639V19.699ZM304.731 18.649C304.33 18.649 304.003 18.5323 303.751 18.299C303.499 18.0656 303.373 17.7763 303.373 17.431C303.373 17.0856 303.499 16.7963 303.751 16.563C304.003 16.3296 304.33 16.213 304.731 16.213C305.132 16.213 305.459 16.325 305.711 16.549C305.963 16.773 306.089 17.053 306.089 17.389C306.089 17.753 305.963 18.0563 305.711 18.299C305.459 18.5323 305.132 18.649 304.731 18.649ZM307.85 16.843H310.034V27.231H307.85V16.843ZM312.061 16.843H314.245V27.231H312.061V16.843ZM316.272 19.699H318.456V27.231H316.272V19.699ZM317.364 18.649C316.962 18.649 316.636 18.5323 316.384 18.299C316.132 18.0656 316.006 17.7763 316.006 17.431C316.006 17.0856 316.132 16.7963 316.384 16.563C316.636 16.3296 316.962 16.213 317.364 16.213C317.765 16.213 318.092 16.325 318.344 16.549C318.596 16.773 318.722 17.053 318.722 17.389C318.722 17.753 318.596 18.0563 318.344 18.299C318.092 18.5323 317.765 18.649 317.364 18.649ZM324.067 27.343C323.273 27.343 322.559 27.1796 321.925 26.853C321.299 26.517 320.809 26.055 320.455 25.467C320.1 24.879 319.923 24.2116 319.923 23.465C319.923 22.7183 320.1 22.051 320.455 21.463C320.809 20.875 321.299 20.4176 321.925 20.091C322.559 19.755 323.273 19.587 324.067 19.587C324.86 19.587 325.569 19.755 326.195 20.091C326.82 20.4176 327.31 20.875 327.665 21.463C328.019 22.051 328.197 22.7183 328.197 23.465C328.197 24.2116 328.019 24.879 327.665 25.467C327.31 26.055 326.82 26.517 326.195 26.853C325.569 27.1796 324.86 27.343 324.067 27.343ZM324.067 25.551C324.627 25.551 325.084 25.3643 325.439 24.991C325.803 24.6083 325.985 24.0996 325.985 23.465C325.985 22.8303 325.803 22.3263 325.439 21.953C325.084 21.5703 324.627 21.379 324.067 21.379C323.507 21.379 323.045 21.5703 322.681 21.953C322.317 22.3263 322.135 22.8303 322.135 23.465C322.135 24.0996 322.317 24.6083 322.681 24.991C323.045 25.3643 323.507 25.551 324.067 25.551ZM334.234 19.587C335.168 19.587 335.919 19.867 336.488 20.427C337.067 20.987 337.356 21.8176 337.356 22.919V27.231H335.172V23.255C335.172 22.6576 335.042 22.2143 334.78 21.925C334.519 21.6263 334.141 21.477 333.646 21.477C333.096 21.477 332.657 21.6496 332.33 21.995C332.004 22.331 331.84 22.835 331.84 23.507V27.231H329.656V19.699H331.742V20.581C332.032 20.2636 332.391 20.021 332.82 19.853C333.25 19.6756 333.721 19.587 334.234 19.587ZM348.159 26.867C347.944 27.0256 347.678 27.147 347.361 27.231C347.053 27.3056 346.726 27.343 346.381 27.343C345.485 27.343 344.79 27.1143 344.295 26.657C343.81 26.1996 343.567 25.5276 343.567 24.641V21.547H342.405V19.867H343.567V18.033H345.751V19.867H347.627V21.547H345.751V24.613C345.751 24.9303 345.83 25.1776 345.989 25.355C346.157 25.523 346.39 25.607 346.689 25.607C347.034 25.607 347.328 25.5136 347.571 25.327L348.159 26.867ZM351.471 20.693C351.732 20.329 352.082 20.0536 352.521 19.867C352.969 19.6803 353.482 19.587 354.061 19.587V21.603C353.818 21.5843 353.655 21.575 353.571 21.575C352.946 21.575 352.456 21.7523 352.101 22.107C351.746 22.4523 351.569 22.975 351.569 23.675V27.231H349.385V19.699H351.471V20.693ZM358.357 19.587C359.523 19.587 360.419 19.867 361.045 20.427C361.67 20.9776 361.983 21.813 361.983 22.933V27.231H359.939V26.293C359.528 26.993 358.763 27.343 357.643 27.343C357.064 27.343 356.56 27.245 356.131 27.049C355.711 26.853 355.389 26.5823 355.165 26.237C354.941 25.8916 354.829 25.4996 354.829 25.061C354.829 24.361 355.09 23.8103 355.613 23.409C356.145 23.0076 356.961 22.807 358.063 22.807H359.799C359.799 22.331 359.654 21.967 359.365 21.715C359.075 21.4536 358.641 21.323 358.063 21.323C357.661 21.323 357.265 21.3883 356.873 21.519C356.49 21.6403 356.163 21.8083 355.893 22.023L355.109 20.497C355.519 20.2076 356.009 19.9836 356.579 19.825C357.157 19.6663 357.75 19.587 358.357 19.587ZM358.189 25.873C358.562 25.873 358.893 25.789 359.183 25.621C359.472 25.4436 359.677 25.187 359.799 24.851V24.081H358.301C357.405 24.081 356.957 24.375 356.957 24.963C356.957 25.243 357.064 25.467 357.279 25.635C357.503 25.7936 357.806 25.873 358.189 25.873ZM371.298 19.699L368.12 27.231H365.866L362.702 19.699H364.956L367.042 24.823L369.198 19.699H371.298ZM379.363 23.493C379.363 23.521 379.349 23.717 379.321 24.081H373.623C373.725 24.5476 373.968 24.9163 374.351 25.187C374.733 25.4576 375.209 25.593 375.779 25.593C376.171 25.593 376.516 25.537 376.815 25.425C377.123 25.3036 377.407 25.117 377.669 24.865L378.831 26.125C378.121 26.937 377.085 27.343 375.723 27.343C374.873 27.343 374.122 27.1796 373.469 26.853C372.815 26.517 372.311 26.055 371.957 25.467C371.602 24.879 371.425 24.2116 371.425 23.465C371.425 22.7276 371.597 22.065 371.943 21.477C372.297 20.8796 372.778 20.4176 373.385 20.091C374.001 19.755 374.687 19.587 375.443 19.587C376.18 19.587 376.847 19.7456 377.445 20.063C378.042 20.3803 378.509 20.8376 378.845 21.435C379.19 22.023 379.363 22.709 379.363 23.493ZM375.457 21.239C374.962 21.239 374.547 21.379 374.211 21.659C373.875 21.939 373.669 22.3216 373.595 22.807H377.305C377.23 22.331 377.025 21.953 376.689 21.673C376.353 21.3836 375.942 21.239 375.457 21.239ZM380.817 16.843H383.001V27.231H380.817V16.843ZM385.028 16.843H387.212V27.231H385.028V16.843ZM396.616 23.493C396.616 23.521 396.602 23.717 396.574 24.081H390.876C390.979 24.5476 391.222 24.9163 391.604 25.187C391.987 25.4576 392.463 25.593 393.032 25.593C393.424 25.593 393.77 25.537 394.068 25.425C394.376 25.3036 394.661 25.117 394.922 24.865L396.084 26.125C395.375 26.937 394.339 27.343 392.976 27.343C392.127 27.343 391.376 27.1796 390.722 26.853C390.069 26.517 389.565 26.055 389.21 25.467C388.856 24.879 388.678 24.2116 388.678 23.465C388.678 22.7276 388.851 22.065 389.196 21.477C389.551 20.8796 390.032 20.4176 390.638 20.091C391.254 19.755 391.94 19.587 392.696 19.587C393.434 19.587 394.101 19.7456 394.698 20.063C395.296 20.3803 395.762 20.8376 396.098 21.435C396.444 22.023 396.616 22.709 396.616 23.493ZM392.71 21.239C392.216 21.239 391.8 21.379 391.464 21.659C391.128 21.939 390.923 22.3216 390.848 22.807H394.558C394.484 22.331 394.278 21.953 393.942 21.673C393.606 21.3836 393.196 21.239 392.71 21.239ZM400.157 20.693C400.418 20.329 400.768 20.0536 401.207 19.867C401.655 19.6803 402.168 19.587 402.747 19.587V21.603C402.504 21.5843 402.341 21.575 402.257 21.575C401.631 21.575 401.141 21.7523 400.787 22.107C400.432 22.4523 400.255 22.975 400.255 23.675V27.231H398.071V19.699H400.157V20.693ZM406.606 27.343C405.981 27.343 405.37 27.2683 404.772 27.119C404.175 26.9603 403.699 26.7643 403.344 26.531L404.072 24.963C404.408 25.1776 404.814 25.355 405.29 25.495C405.766 25.6256 406.233 25.691 406.69 25.691C407.614 25.691 408.076 25.4623 408.076 25.005C408.076 24.7903 407.95 24.6363 407.698 24.543C407.446 24.4496 407.059 24.3703 406.536 24.305C405.92 24.2116 405.412 24.1043 405.01 23.983C404.609 23.8616 404.259 23.647 403.96 23.339C403.671 23.031 403.526 22.5923 403.526 22.023C403.526 21.547 403.662 21.127 403.932 20.763C404.212 20.3896 404.614 20.1003 405.136 19.895C405.668 19.6896 406.294 19.587 407.012 19.587C407.544 19.587 408.072 19.6476 408.594 19.769C409.126 19.881 409.565 20.0396 409.91 20.245L409.182 21.799C408.52 21.4256 407.796 21.239 407.012 21.239C406.546 21.239 406.196 21.3043 405.962 21.435C405.729 21.5656 405.612 21.7336 405.612 21.939C405.612 22.1723 405.738 22.3356 405.99 22.429C406.242 22.5223 406.644 22.611 407.194 22.695C407.81 22.7976 408.314 22.9096 408.706 23.031C409.098 23.143 409.439 23.353 409.728 23.661C410.018 23.969 410.162 24.3983 410.162 24.949C410.162 25.4156 410.022 25.831 409.742 26.195C409.462 26.559 409.052 26.8436 408.51 27.049C407.978 27.245 407.344 27.343 406.606 27.343ZM426.36 19.867L423.574 27.231H422.636L420.312 21.197L417.988 27.231H417.05L414.278 19.867H415.23L417.54 26.125L419.906 19.867H420.76L423.112 26.125L425.45 19.867H426.36ZM427.857 19.867H428.851V27.231H427.857V19.867ZM428.361 18.257C428.155 18.257 427.983 18.187 427.843 18.047C427.703 17.907 427.633 17.739 427.633 17.543C427.633 17.3563 427.703 17.193 427.843 17.053C427.983 16.913 428.155 16.843 428.361 16.843C428.566 16.843 428.739 16.913 428.879 17.053C429.019 17.1836 429.089 17.3423 429.089 17.529C429.089 17.7343 429.019 17.907 428.879 18.047C428.739 18.187 428.566 18.257 428.361 18.257ZM435.494 26.783C435.308 26.951 435.074 27.0816 434.794 27.175C434.524 27.259 434.239 27.301 433.94 27.301C433.25 27.301 432.718 27.1143 432.344 26.741C431.971 26.3676 431.784 25.8403 431.784 25.159V20.707H430.468V19.867H431.784V18.257H432.778V19.867H435.018V20.707H432.778V25.103C432.778 25.5416 432.886 25.8776 433.1 26.111C433.324 26.335 433.642 26.447 434.052 26.447C434.258 26.447 434.454 26.4143 434.64 26.349C434.836 26.2836 435.004 26.1903 435.144 26.069L435.494 26.783ZM441.056 19.811C441.98 19.811 442.713 20.0816 443.254 20.623C443.805 21.155 444.08 21.9343 444.08 22.961V27.231H443.086V23.059C443.086 22.2936 442.895 21.7103 442.512 21.309C442.129 20.9076 441.583 20.707 440.874 20.707C440.081 20.707 439.451 20.945 438.984 21.421C438.527 21.8876 438.298 22.5363 438.298 23.367V27.231H437.304V16.843H438.298V21.155C438.569 20.7256 438.942 20.3943 439.418 20.161C439.894 19.9276 440.44 19.811 441.056 19.811ZM454.321 26.783C454.134 26.951 453.901 27.0816 453.621 27.175C453.35 27.259 453.065 27.301 452.767 27.301C452.076 27.301 451.544 27.1143 451.171 26.741C450.797 26.3676 450.611 25.8403 450.611 25.159V20.707H449.295V19.867H450.611V18.257H451.605V19.867H453.845V20.707H451.605V25.103C451.605 25.5416 451.712 25.8776 451.927 26.111C452.151 26.335 452.468 26.447 452.879 26.447C453.084 26.447 453.28 26.4143 453.467 26.349C453.663 26.2836 453.831 26.1903 453.971 26.069L454.321 26.783ZM459.882 19.811C460.806 19.811 461.539 20.0816 462.08 20.623C462.631 21.155 462.906 21.9343 462.906 22.961V27.231H461.912V23.059C461.912 22.2936 461.721 21.7103 461.338 21.309C460.955 20.9076 460.409 20.707 459.7 20.707C458.907 20.707 458.277 20.945 457.81 21.421C457.353 21.8876 457.124 22.5363 457.124 23.367V27.231H456.13V16.843H457.124V21.155C457.395 20.7256 457.768 20.3943 458.244 20.161C458.72 19.9276 459.266 19.811 459.882 19.811ZM472.044 23.857H465.884C465.94 24.6223 466.234 25.243 466.766 25.719C467.298 26.1856 467.97 26.419 468.782 26.419C469.239 26.419 469.659 26.3396 470.042 26.181C470.425 26.013 470.756 25.7703 471.036 25.453L471.596 26.097C471.269 26.489 470.859 26.7876 470.364 26.993C469.879 27.1983 469.342 27.301 468.754 27.301C467.998 27.301 467.326 27.1423 466.738 26.825C466.159 26.4983 465.707 26.0503 465.38 25.481C465.053 24.9116 464.89 24.2676 464.89 23.549C464.89 22.8303 465.044 22.1863 465.352 21.617C465.669 21.0476 466.099 20.6043 466.64 20.287C467.191 19.9696 467.807 19.811 468.488 19.811C469.169 19.811 469.781 19.9696 470.322 20.287C470.863 20.6043 471.288 21.0476 471.596 21.617C471.904 22.177 472.058 22.821 472.058 23.549L472.044 23.857ZM468.488 20.665C467.779 20.665 467.181 20.8936 466.696 21.351C466.22 21.799 465.949 22.387 465.884 23.115H471.106C471.041 22.387 470.765 21.799 470.28 21.351C469.804 20.8936 469.207 20.665 468.488 20.665ZM474.081 19.867H475.075V27.231H474.081V19.867ZM474.585 18.257C474.38 18.257 474.207 18.187 474.067 18.047C473.927 17.907 473.857 17.739 473.857 17.543C473.857 17.3563 473.927 17.193 474.067 17.053C474.207 16.913 474.38 16.843 474.585 16.843C474.791 16.843 474.963 16.913 475.103 17.053C475.243 17.1836 475.313 17.3423 475.313 17.529C475.313 17.7343 475.243 17.907 475.103 18.047C474.963 18.187 474.791 18.257 474.585 18.257ZM478.793 21.309C479.026 20.8143 479.372 20.441 479.829 20.189C480.296 19.937 480.87 19.811 481.551 19.811V20.777L481.313 20.763C480.538 20.763 479.932 21.001 479.493 21.477C479.054 21.953 478.835 22.6203 478.835 23.479V27.231H477.841V19.867H478.793V21.309ZM491.002 26.783C490.816 26.951 490.582 27.0816 490.302 27.175C490.032 27.259 489.747 27.301 489.448 27.301C488.758 27.301 488.226 27.1143 487.852 26.741C487.479 26.3676 487.292 25.8403 487.292 25.159V20.707H485.976V19.867H487.292V18.257H488.286V19.867H490.526V20.707H488.286V25.103C488.286 25.5416 488.394 25.8776 488.608 26.111C488.832 26.335 489.15 26.447 489.56 26.447C489.766 26.447 489.962 26.4143 490.148 26.349C490.344 26.2836 490.512 26.1903 490.652 26.069L491.002 26.783ZM493.764 21.309C493.997 20.8143 494.342 20.441 494.8 20.189C495.266 19.937 495.84 19.811 496.522 19.811V20.777L496.284 20.763C495.509 20.763 494.902 21.001 494.464 21.477C494.025 21.953 493.806 22.6203 493.806 23.479V27.231H492.812V19.867H493.764V21.309ZM500.884 19.811C501.845 19.811 502.583 20.0536 503.096 20.539C503.609 21.015 503.866 21.7243 503.866 22.667V27.231H502.914V26.083C502.69 26.4656 502.359 26.7643 501.92 26.979C501.491 27.1936 500.977 27.301 500.38 27.301C499.559 27.301 498.905 27.105 498.42 26.713C497.935 26.321 497.692 25.803 497.692 25.159C497.692 24.5336 497.916 24.0296 498.364 23.647C498.821 23.2643 499.545 23.073 500.534 23.073H502.872V22.625C502.872 21.9903 502.695 21.5096 502.34 21.183C501.985 20.847 501.467 20.679 500.786 20.679C500.319 20.679 499.871 20.7583 499.442 20.917C499.013 21.0663 498.644 21.2763 498.336 21.547L497.888 20.805C498.261 20.4876 498.709 20.245 499.232 20.077C499.755 19.8996 500.305 19.811 500.884 19.811ZM500.534 26.517C501.094 26.517 501.575 26.391 501.976 26.139C502.377 25.8776 502.676 25.5043 502.872 25.019V23.815H500.562C499.302 23.815 498.672 24.2536 498.672 25.131C498.672 25.5603 498.835 25.901 499.162 26.153C499.489 26.3956 499.946 26.517 500.534 26.517ZM512.617 19.867L509.341 27.231H508.319L505.057 19.867H506.093L508.851 26.139L511.637 19.867H512.617ZM520.224 23.857H514.064C514.12 24.6223 514.414 25.243 514.946 25.719C515.478 26.1856 516.15 26.419 516.962 26.419C517.419 26.419 517.839 26.3396 518.222 26.181C518.604 26.013 518.936 25.7703 519.216 25.453L519.776 26.097C519.449 26.489 519.038 26.7876 518.544 26.993C518.058 27.1983 517.522 27.301 516.934 27.301C516.178 27.301 515.506 27.1423 514.918 26.825C514.339 26.4983 513.886 26.0503 513.56 25.481C513.233 24.9116 513.07 24.2676 513.07 23.549C513.07 22.8303 513.224 22.1863 513.532 21.617C513.849 21.0476 514.278 20.6043 514.82 20.287C515.37 19.9696 515.986 19.811 516.668 19.811C517.349 19.811 517.96 19.9696 518.502 20.287C519.043 20.6043 519.468 21.0476 519.776 21.617C520.084 22.177 520.238 22.821 520.238 23.549L520.224 23.857ZM516.668 20.665C515.958 20.665 515.361 20.8936 514.876 21.351C514.4 21.799 514.129 22.387 514.064 23.115H519.286C519.22 22.387 518.945 21.799 518.46 21.351C517.984 20.8936 517.386 20.665 516.668 20.665ZM522.261 16.843H523.255V27.231H522.261V16.843ZM533.563 26.783C533.376 26.951 533.143 27.0816 532.863 27.175C532.592 27.259 532.307 27.301 532.009 27.301C531.318 27.301 530.786 27.1143 530.413 26.741C530.039 26.3676 529.853 25.8403 529.853 25.159V20.707H528.537V19.867H529.853V18.257H530.847V19.867H533.087V20.707H530.847V25.103C530.847 25.5416 530.954 25.8776 531.169 26.111C531.393 26.335 531.71 26.447 532.121 26.447C532.326 26.447 532.522 26.4143 532.709 26.349C532.905 26.2836 533.073 26.1903 533.213 26.069L533.563 26.783ZM536.324 21.309C536.558 20.8143 536.903 20.441 537.36 20.189C537.827 19.937 538.401 19.811 539.082 19.811V20.777L538.844 20.763C538.07 20.763 537.463 21.001 537.024 21.477C536.586 21.953 536.366 22.6203 536.366 23.479V27.231H535.372V19.867H536.324V21.309ZM543.824 27.301C543.114 27.301 542.475 27.1423 541.906 26.825C541.336 26.4983 540.888 26.0503 540.562 25.481C540.235 24.9116 540.072 24.2676 540.072 23.549C540.072 22.8303 540.235 22.1863 540.562 21.617C540.888 21.0476 541.336 20.6043 541.906 20.287C542.475 19.9696 543.114 19.811 543.824 19.811C544.533 19.811 545.172 19.9696 545.742 20.287C546.311 20.6043 546.754 21.0476 547.072 21.617C547.398 22.1863 547.562 22.8303 547.562 23.549C547.562 24.2676 547.398 24.9116 547.072 25.481C546.754 26.0503 546.311 26.4983 545.742 26.825C545.172 27.1423 544.533 27.301 543.824 27.301ZM543.824 26.419C544.346 26.419 544.813 26.3023 545.224 26.069C545.644 25.8263 545.97 25.4856 546.204 25.047C546.437 24.6083 546.554 24.109 546.554 23.549C546.554 22.989 546.437 22.4896 546.204 22.051C545.97 21.6123 545.644 21.2763 545.224 21.043C544.813 20.8003 544.346 20.679 543.824 20.679C543.301 20.679 542.83 20.8003 542.41 21.043C541.999 21.2763 541.672 21.6123 541.43 22.051C541.196 22.4896 541.08 22.989 541.08 23.549C541.08 24.109 541.196 24.6083 541.43 25.047C541.672 25.4856 541.999 25.8263 542.41 26.069C542.83 26.3023 543.301 26.419 543.824 26.419ZM556.227 19.867V27.231H555.275V25.887C555.014 26.335 554.654 26.685 554.197 26.937C553.74 27.1796 553.217 27.301 552.629 27.301C551.668 27.301 550.907 27.035 550.347 26.503C549.796 25.9616 549.521 25.173 549.521 24.137V19.867H550.515V24.039C550.515 24.8136 550.706 25.4016 551.089 25.803C551.472 26.2043 552.018 26.405 552.727 26.405C553.502 26.405 554.113 26.1716 554.561 25.705C555.009 25.229 555.233 24.571 555.233 23.731V19.867H556.227ZM562.805 19.811C563.496 19.811 564.121 19.9696 564.681 20.287C565.241 20.595 565.68 21.0336 565.997 21.603C566.314 22.1723 566.473 22.821 566.473 23.549C566.473 24.277 566.314 24.9256 565.997 25.495C565.68 26.0643 565.241 26.5076 564.681 26.825C564.121 27.1423 563.496 27.301 562.805 27.301C562.189 27.301 561.634 27.1703 561.139 26.909C560.654 26.6476 560.262 26.2696 559.963 25.775V27.231H559.011V16.843H560.005V21.267C560.313 20.791 560.705 20.4316 561.181 20.189C561.666 19.937 562.208 19.811 562.805 19.811ZM562.735 26.419C563.248 26.419 563.715 26.3023 564.135 26.069C564.555 25.8263 564.882 25.4856 565.115 25.047C565.358 24.6083 565.479 24.109 565.479 23.549C565.479 22.989 565.358 22.4896 565.115 22.051C564.882 21.6123 564.555 21.2763 564.135 21.043C563.715 20.8003 563.248 20.679 562.735 20.679C562.212 20.679 561.741 20.8003 561.321 21.043C560.91 21.2763 560.584 21.6123 560.341 22.051C560.108 22.4896 559.991 22.989 559.991 23.549C559.991 24.109 560.108 24.6083 560.341 25.047C560.584 25.4856 560.91 25.8263 561.321 26.069C561.741 26.3023 562.212 26.419 562.735 26.419ZM568.499 16.843H569.493V27.231H568.499V16.843ZM578.671 23.857H572.511C572.567 24.6223 572.861 25.243 573.393 25.719C573.925 26.1856 574.597 26.419 575.409 26.419C575.866 26.419 576.286 26.3396 576.669 26.181C577.052 26.013 577.383 25.7703 577.663 25.453L578.223 26.097C577.896 26.489 577.486 26.7876 576.991 26.993C576.506 27.1983 575.969 27.301 575.381 27.301C574.625 27.301 573.953 27.1423 573.365 26.825C572.786 26.4983 572.334 26.0503 572.007 25.481C571.68 24.9116 571.517 24.2676 571.517 23.549C571.517 22.8303 571.671 22.1863 571.979 21.617C572.296 21.0476 572.726 20.6043 573.267 20.287C573.818 19.9696 574.434 19.811 575.115 19.811C575.796 19.811 576.408 19.9696 576.949 20.287C577.49 20.6043 577.915 21.0476 578.223 21.617C578.531 22.177 578.685 22.821 578.685 23.549L578.671 23.857ZM575.115 20.665C574.406 20.665 573.808 20.8936 573.323 21.351C572.847 21.799 572.576 22.387 572.511 23.115H577.733C577.668 22.387 577.392 21.799 576.907 21.351C576.431 20.8936 575.834 20.665 575.115 20.665ZM582.682 27.301C582.085 27.301 581.511 27.217 580.96 27.049C580.419 26.8716 579.994 26.6523 579.686 26.391L580.134 25.607C580.442 25.8496 580.83 26.0503 581.296 26.209C581.763 26.3583 582.248 26.433 582.752 26.433C583.424 26.433 583.919 26.3303 584.236 26.125C584.563 25.9103 584.726 25.6116 584.726 25.229C584.726 24.9583 584.638 24.7483 584.46 24.599C584.283 24.4403 584.059 24.3236 583.788 24.249C583.518 24.165 583.158 24.0856 582.71 24.011C582.113 23.899 581.632 23.787 581.268 23.675C580.904 23.5536 580.592 23.353 580.33 23.073C580.078 22.793 579.952 22.4056 579.952 21.911C579.952 21.295 580.209 20.791 580.722 20.399C581.236 20.007 581.95 19.811 582.864 19.811C583.34 19.811 583.816 19.8763 584.292 20.007C584.768 20.1283 585.16 20.2916 585.468 20.497L585.034 21.295C584.428 20.875 583.704 20.665 582.864 20.665C582.23 20.665 581.749 20.777 581.422 21.001C581.105 21.225 580.946 21.519 580.946 21.883C580.946 22.163 581.035 22.387 581.212 22.555C581.399 22.723 581.628 22.849 581.898 22.933C582.169 23.0076 582.542 23.087 583.018 23.171C583.606 23.283 584.078 23.395 584.432 23.507C584.787 23.619 585.09 23.8103 585.342 24.081C585.594 24.3516 585.72 24.725 585.72 25.201C585.72 25.845 585.45 26.3583 584.908 26.741C584.376 27.1143 583.634 27.301 582.682 27.301ZM587.656 27.301C587.451 27.301 587.273 27.2263 587.124 27.077C586.984 26.9276 586.914 26.7456 586.914 26.531C586.914 26.3163 586.984 26.139 587.124 25.999C587.273 25.8496 587.451 25.775 587.656 25.775C587.861 25.775 588.039 25.8496 588.188 25.999C588.337 26.139 588.412 26.3163 588.412 26.531C588.412 26.7456 588.337 26.9276 588.188 27.077C588.039 27.2263 587.861 27.301 587.656 27.301Z" fill="#686361"/>
<g clip-path="url(#clip0_59_214)">
<path d="M47.6172 25.5122H46.6406V23.8496C46.6406 23.4739 46.3351 23.1685 45.9595 23.1685H43.0249C42.6492 23.1685 42.3438 23.4739 42.3438 23.8496V25.5122H41.3672C40.6133 25.5122 40 26.1255 40 26.8794V30.7856C40 31.5396 40.6133 32.1528 41.3672 32.1528H47.6172C48.371 32.1528 48.9844 31.5396 48.9844 30.7856V26.8794C48.9844 26.1255 48.3711 25.5122 47.6172 25.5122ZM43.5156 24.3403H45.4688V25.5122H43.5156V24.3403Z" fill="#1A7CFA"/>
<path d="M34.7266 16.9185C36.019 16.9185 37.0703 15.8671 37.0703 14.5747C37.0703 13.2823 36.019 12.231 34.7266 12.231C33.4341 12.231 32.3828 13.2823 32.3828 14.5747C32.3828 15.8671 33.4341 16.9185 34.7266 16.9185Z" fill="#1A7CFA"/>
<path d="M37.1927 17.0779C36.5575 17.7036 35.6865 18.0905 34.7266 18.0905C33.7666 18.0905 32.8957 17.7036 32.2604 17.0779C31.4972 17.758 31.0156 18.7478 31.0156 19.8483V24.6139C31.0156 24.9375 31.2779 25.1998 31.6016 25.1998H32.1875V31.6451C32.1875 31.9688 32.4498 32.2311 32.7734 32.2311H36.6797C37.0033 32.2311 37.2656 31.9688 37.2656 31.6451V25.1998H37.8516C38.1752 25.1998 38.4375 24.9375 38.4375 24.6139V19.8483C38.4375 18.7478 37.9559 17.758 37.1927 17.0779Z" fill="#1A7CFA"/>
</g>
<defs>
<clipPath id="clip0_59_214">
<rect width="20" height="20" fill="white" transform="translate(30 12.231)"/>
</clipPath>
</defs>
</svg>
