<svg width="178" height="176" viewBox="0 0 178 176" fill="none" xmlns="http://www.w3.org/2000/svg">
<rect width="178" height="176" rx="10" fill="white"/>
<rect x="0.5" y="0.5" width="177" height="175" rx="9.5" stroke="#A9B7C8" stroke-opacity="0.5"/>
<path d="M37.1348 119.192C35.9721 119.192 34.9215 118.941 33.9828 118.44C33.0548 117.939 32.3241 117.251 31.7908 116.376C31.2681 115.491 31.0068 114.499 31.0068 113.4C31.0068 112.301 31.2681 111.315 31.7908 110.44C32.3241 109.555 33.0548 108.861 33.9828 108.36C34.9215 107.859 35.9721 107.608 37.1348 107.608C38.2975 107.608 39.3428 107.859 40.2708 108.36C41.1988 108.861 41.9295 109.555 42.4628 110.44C42.9961 111.315 43.2628 112.301 43.2628 113.4C43.2628 114.499 42.9961 115.491 42.4628 116.376C41.9295 117.251 41.1988 117.939 40.2708 118.44C39.3428 118.941 38.2975 119.192 37.1348 119.192ZM37.1348 116.984C37.7961 116.984 38.3935 116.835 38.9268 116.536C39.4601 116.227 39.8761 115.8 40.1748 115.256C40.4841 114.712 40.6388 114.093 40.6388 113.4C40.6388 112.707 40.4841 112.088 40.1748 111.544C39.8761 111 39.4601 110.579 38.9268 110.28C38.3935 109.971 37.7961 109.816 37.1348 109.816C36.4735 109.816 35.8761 109.971 35.3428 110.28C34.8095 110.579 34.3881 111 34.0788 111.544C33.7801 112.088 33.6308 112.707 33.6308 113.4C33.6308 114.093 33.7801 114.712 34.0788 115.256C34.3881 115.8 34.8095 116.227 35.3428 116.536C35.8761 116.835 36.4735 116.984 37.1348 116.984ZM50.6649 118.584C50.4196 118.765 50.1156 118.904 49.7529 119C49.4009 119.085 49.0276 119.128 48.6329 119.128C47.6089 119.128 46.8143 118.867 46.2489 118.344C45.6943 117.821 45.4169 117.053 45.4169 116.04V112.504H44.0889V110.584H45.4169V108.488H47.9129V110.584H50.0569V112.504H47.9129V116.008C47.9129 116.371 48.0036 116.653 48.1849 116.856C48.3769 117.048 48.6436 117.144 48.9849 117.144C49.3796 117.144 49.7156 117.037 49.9929 116.824L50.6649 118.584ZM57.2981 110.264C58.3647 110.264 59.2234 110.584 59.8741 111.224C60.5354 111.864 60.8661 112.813 60.8661 114.072V119H58.3701V114.456C58.3701 113.773 58.2207 113.267 57.9221 112.936C57.6234 112.595 57.1914 112.424 56.6261 112.424C55.9967 112.424 55.4954 112.621 55.1221 113.016C54.7487 113.4 54.5621 113.976 54.5621 114.744V119H52.0661V107.128H54.5621V111.288C54.8927 110.957 55.2927 110.707 55.7621 110.536C56.2314 110.355 56.7434 110.264 57.2981 110.264ZM71.6543 114.728C71.6543 114.76 71.6383 114.984 71.6063 115.4H65.0943C65.2116 115.933 65.489 116.355 65.9263 116.664C66.3636 116.973 66.9076 117.128 67.5583 117.128C68.0063 117.128 68.401 117.064 68.7423 116.936C69.0943 116.797 69.4196 116.584 69.7183 116.296L71.0463 117.736C70.2356 118.664 69.0516 119.128 67.4943 119.128C66.5236 119.128 65.665 118.941 64.9183 118.568C64.1716 118.184 63.5956 117.656 63.1903 116.984C62.785 116.312 62.5823 115.549 62.5823 114.696C62.5823 113.853 62.7796 113.096 63.1743 112.424C63.5796 111.741 64.129 111.213 64.8223 110.84C65.5263 110.456 66.3103 110.264 67.1743 110.264C68.017 110.264 68.7796 110.445 69.4623 110.808C70.145 111.171 70.6783 111.693 71.0623 112.376C71.457 113.048 71.6543 113.832 71.6543 114.728ZM67.1903 112.152C66.625 112.152 66.1503 112.312 65.7663 112.632C65.3823 112.952 65.1476 113.389 65.0623 113.944H69.3023C69.217 113.4 68.9823 112.968 68.5983 112.648C68.2143 112.317 67.745 112.152 67.1903 112.152ZM75.7001 111.528C75.9987 111.112 76.3987 110.797 76.9001 110.584C77.4121 110.371 77.9987 110.264 78.6601 110.264V112.568C78.3827 112.547 78.1961 112.536 78.1001 112.536C77.3854 112.536 76.8254 112.739 76.4201 113.144C76.0147 113.539 75.8121 114.136 75.8121 114.936V119H73.3161V110.392H75.7001V111.528ZM87.1219 111.528C87.4206 111.112 87.8206 110.797 88.3219 110.584C88.8339 110.371 89.4206 110.264 90.0819 110.264V112.568C89.8046 112.547 89.6179 112.536 89.5219 112.536C88.8073 112.536 88.2473 112.739 87.8419 113.144C87.4366 113.539 87.2339 114.136 87.2339 114.936V119H84.7379V110.392H87.1219V111.528ZM99.9199 114.728C99.9199 114.76 99.9039 114.984 99.8719 115.4H93.3599C93.4773 115.933 93.7546 116.355 94.1919 116.664C94.6293 116.973 95.1733 117.128 95.8239 117.128C96.2719 117.128 96.6666 117.064 97.0079 116.936C97.3599 116.797 97.6853 116.584 97.9839 116.296L99.3119 117.736C98.5013 118.664 97.3173 119.128 95.7599 119.128C94.7893 119.128 93.9306 118.941 93.1839 118.568C92.4373 118.184 91.8613 117.656 91.4559 116.984C91.0506 116.312 90.8479 115.549 90.8479 114.696C90.8479 113.853 91.0453 113.096 91.4399 112.424C91.8453 111.741 92.3946 111.213 93.0879 110.84C93.7919 110.456 94.5759 110.264 95.4399 110.264C96.2826 110.264 97.0453 110.445 97.7279 110.808C98.4106 111.171 98.9439 111.693 99.3279 112.376C99.7226 113.048 99.9199 113.832 99.9199 114.728ZM95.4559 112.152C94.8906 112.152 94.4159 112.312 94.0319 112.632C93.6479 112.952 93.4133 113.389 93.3279 113.944H97.5679C97.4826 113.4 97.2479 112.968 96.8639 112.648C96.4799 112.317 96.0106 112.152 95.4559 112.152ZM104.819 110.264C106.153 110.264 107.177 110.584 107.891 111.224C108.606 111.853 108.963 112.808 108.963 114.088V119H106.627V117.928C106.158 118.728 105.283 119.128 104.003 119.128C103.342 119.128 102.766 119.016 102.275 118.792C101.795 118.568 101.427 118.259 101.171 117.864C100.915 117.469 100.787 117.021 100.787 116.52C100.787 115.72 101.086 115.091 101.683 114.632C102.291 114.173 103.225 113.944 104.483 113.944H106.467C106.467 113.4 106.302 112.984 105.971 112.696C105.641 112.397 105.145 112.248 104.483 112.248C104.025 112.248 103.571 112.323 103.123 112.472C102.686 112.611 102.313 112.803 102.003 113.048L101.107 111.304C101.577 110.973 102.137 110.717 102.787 110.536C103.449 110.355 104.126 110.264 104.819 110.264ZM104.627 117.448C105.054 117.448 105.433 117.352 105.763 117.16C106.094 116.957 106.329 116.664 106.467 116.28V115.4H104.755C103.731 115.4 103.219 115.736 103.219 116.408C103.219 116.728 103.342 116.984 103.587 117.176C103.843 117.357 104.19 117.448 104.627 117.448ZM114.118 119.128C113.404 119.128 112.705 119.043 112.022 118.872C111.34 118.691 110.796 118.467 110.39 118.2L111.222 116.408C111.606 116.653 112.07 116.856 112.614 117.016C113.158 117.165 113.692 117.24 114.214 117.24C115.27 117.24 115.798 116.979 115.798 116.456C115.798 116.211 115.654 116.035 115.366 115.928C115.078 115.821 114.636 115.731 114.038 115.656C113.334 115.549 112.753 115.427 112.294 115.288C111.836 115.149 111.436 114.904 111.094 114.552C110.764 114.2 110.598 113.699 110.598 113.048C110.598 112.504 110.753 112.024 111.062 111.608C111.382 111.181 111.841 110.851 112.438 110.616C113.046 110.381 113.761 110.264 114.582 110.264C115.19 110.264 115.793 110.333 116.39 110.472C116.998 110.6 117.5 110.781 117.894 111.016L117.062 112.792C116.305 112.365 115.478 112.152 114.582 112.152C114.049 112.152 113.649 112.227 113.382 112.376C113.116 112.525 112.982 112.717 112.982 112.952C112.982 113.219 113.126 113.405 113.414 113.512C113.702 113.619 114.161 113.72 114.79 113.816C115.494 113.933 116.07 114.061 116.518 114.2C116.966 114.328 117.356 114.568 117.686 114.92C118.017 115.272 118.182 115.763 118.182 116.392C118.182 116.925 118.022 117.4 117.702 117.816C117.382 118.232 116.913 118.557 116.294 118.792C115.686 119.016 114.961 119.128 114.118 119.128ZM123.818 119.128C122.912 119.128 122.096 118.941 121.37 118.568C120.656 118.184 120.096 117.656 119.69 116.984C119.285 116.312 119.082 115.549 119.082 114.696C119.082 113.843 119.285 113.08 119.69 112.408C120.096 111.736 120.656 111.213 121.37 110.84C122.096 110.456 122.912 110.264 123.818 110.264C124.725 110.264 125.536 110.456 126.25 110.84C126.965 111.213 127.525 111.736 127.93 112.408C128.336 113.08 128.538 113.843 128.538 114.696C128.538 115.549 128.336 116.312 127.93 116.984C127.525 117.656 126.965 118.184 126.25 118.568C125.536 118.941 124.725 119.128 123.818 119.128ZM123.818 117.08C124.458 117.08 124.981 116.867 125.386 116.44C125.802 116.003 126.01 115.421 126.01 114.696C126.01 113.971 125.802 113.395 125.386 112.968C124.981 112.531 124.458 112.312 123.818 112.312C123.178 112.312 122.65 112.531 122.234 112.968C121.818 113.395 121.61 113.971 121.61 114.696C121.61 115.421 121.818 116.003 122.234 116.44C122.65 116.867 123.178 117.08 123.818 117.08ZM135.439 110.264C136.505 110.264 137.364 110.584 138.015 111.224C138.676 111.864 139.007 112.813 139.007 114.072V119H136.511V114.456C136.511 113.773 136.361 113.267 136.063 112.936C135.764 112.595 135.332 112.424 134.767 112.424C134.137 112.424 133.636 112.621 133.263 113.016C132.889 113.4 132.703 113.976 132.703 114.744V119H130.207V110.392H132.591V111.4C132.921 111.037 133.332 110.76 133.823 110.568C134.313 110.365 134.852 110.264 135.439 110.264ZM144.165 119.128C143.451 119.128 142.752 119.043 142.069 118.872C141.387 118.691 140.843 118.467 140.437 118.2L141.269 116.408C141.653 116.653 142.117 116.856 142.661 117.016C143.205 117.165 143.739 117.24 144.261 117.24C145.317 117.24 145.845 116.979 145.845 116.456C145.845 116.211 145.701 116.035 145.413 115.928C145.125 115.821 144.683 115.731 144.085 115.656C143.381 115.549 142.8 115.427 142.341 115.288C141.883 115.149 141.483 114.904 141.141 114.552C140.811 114.2 140.645 113.699 140.645 113.048C140.645 112.504 140.8 112.024 141.109 111.608C141.429 111.181 141.888 110.851 142.485 110.616C143.093 110.381 143.808 110.264 144.629 110.264C145.237 110.264 145.84 110.333 146.437 110.472C147.045 110.6 147.547 110.781 147.941 111.016L147.109 112.792C146.352 112.365 145.525 112.152 144.629 112.152C144.096 112.152 143.696 112.227 143.429 112.376C143.163 112.525 143.029 112.717 143.029 112.952C143.029 113.219 143.173 113.405 143.461 113.512C143.749 113.619 144.208 113.72 144.837 113.816C145.541 113.933 146.117 114.061 146.565 114.2C147.013 114.328 147.403 114.568 147.733 114.92C148.064 115.272 148.229 115.763 148.229 116.392C148.229 116.925 148.069 117.4 147.749 117.816C147.429 118.232 146.96 118.557 146.341 118.792C145.733 119.016 145.008 119.128 144.165 119.128Z" fill="#686361"/>
<g clip-path="url(#clip0_56_1031)">
<path d="M71.9132 60.4124C69.2038 60.4124 67 58.2097 67 55.4999C67 52.7915 69.2038 50.5874 71.9132 50.5874C74.6227 50.5874 76.8265 52.7914 76.8265 55.4999C76.8264 58.2097 74.6227 60.4124 71.9132 60.4124Z" fill="#FF633B"/>
<path d="M89.2238 60.4124C86.5143 60.4124 84.3105 58.2097 84.3105 55.4999C84.3105 52.7915 86.5143 50.5874 89.2238 50.5874C91.9328 50.5874 94.137 52.7914 94.137 55.4999C94.1369 58.2097 91.9328 60.4124 89.2238 60.4124Z" fill="#FF633B"/>
<path d="M107.087 60.4124C104.378 60.4124 102.174 58.2097 102.174 55.4999C102.174 52.7915 104.378 50.5874 107.087 50.5874C109.796 50.5874 112 52.7914 112 55.4999C112 58.2097 109.796 60.4124 107.087 60.4124Z" fill="#FF633B"/>
</g>
<defs>
<clipPath id="clip0_56_1031">
<rect width="45.0001" height="45" fill="white" transform="translate(67 33)"/>
</clipPath>
</defs>
</svg>
