<svg width="225" height="26" viewBox="0 0 225 26" fill="none" xmlns="http://www.w3.org/2000/svg">
<path d="M45.54 13.7382C46.828 14.0182 47.8173 14.5782 48.508 15.4182C49.2173 16.2395 49.572 17.3035 49.572 18.6102C49.572 20.2902 48.9467 21.5875 47.696 22.5022C46.464 23.3982 44.6347 23.8462 42.208 23.8462H33.192V4.24619H41.648C43.832 4.24619 45.5213 4.68486 46.716 5.56219C47.9293 6.43952 48.536 7.68086 48.536 9.28619C48.536 10.3689 48.2653 11.2929 47.724 12.0582C47.2013 12.8049 46.4733 13.3649 45.54 13.7382ZM35.264 5.95419V13.0662H41.508C43.0947 13.0662 44.3173 12.7675 45.176 12.1702C46.0347 11.5542 46.464 10.6675 46.464 9.51019C46.464 8.35286 46.0347 7.47552 45.176 6.87819C44.3173 6.26219 43.0947 5.95419 41.508 5.95419H35.264ZM42.18 22.1382C43.9347 22.1382 45.26 21.8395 46.156 21.2422C47.052 20.6449 47.5 19.7115 47.5 18.4422C47.5 15.9969 45.7267 14.7742 42.18 14.7742H35.264V22.1382H42.18ZM62.1974 24.0142C59.6587 24.0142 57.68 23.2862 56.2614 21.8302C54.8427 20.3742 54.1334 18.2555 54.1334 15.4742V4.24619H56.2054V15.3902C56.2054 17.6675 56.7187 19.3662 57.7454 20.4862C58.772 21.6062 60.256 22.1662 62.1974 22.1662C64.1574 22.1662 65.6507 21.6062 66.6774 20.4862C67.704 19.3662 68.2174 17.6675 68.2174 15.3902V4.24619H70.2334V15.4742C70.2334 18.2555 69.524 20.3742 68.1054 21.8302C66.7054 23.2862 64.736 24.0142 62.1974 24.0142ZM76.4772 4.24619H84.4572C86.5292 4.24619 88.3585 4.66619 89.9452 5.50619C91.5318 6.32752 92.7638 7.48486 93.6412 8.97819C94.5185 10.4529 94.9572 12.1422 94.9572 14.0462C94.9572 15.9502 94.5185 17.6489 93.6412 19.1422C92.7638 20.6169 91.5318 21.7742 89.9452 22.6142C88.3585 23.4355 86.5292 23.8462 84.4572 23.8462H76.4772V4.24619ZM84.3452 22.0542C86.0625 22.0542 87.5652 21.7182 88.8532 21.0462C90.1412 20.3555 91.1398 19.4129 91.8492 18.2182C92.5585 17.0049 92.9132 15.6142 92.9132 14.0462C92.9132 12.4782 92.5585 11.0969 91.8492 9.90219C91.1398 8.68886 90.1412 7.74619 88.8532 7.07419C87.5652 6.38352 86.0625 6.03819 84.3452 6.03819H78.5492V22.0542H84.3452Z" fill="#686361"/>
<path d="M168.192 23.8462H181.24V22.0542H170.264V4.24619H168.192V23.8462ZM199.016 4.24619V12.9822H186.752V4.24619H184.68V23.8462H186.752V14.8022H199.016V23.8462H201.06V4.24619H199.016ZM223.11 23.8462L218.322 17.1262C221.178 16.2022 222.802 14.0462 222.802 10.9662C222.802 6.76619 219.778 4.24619 214.794 4.24619H207.458V23.8462H209.53V17.6302H214.794C215.354 17.6302 215.858 17.6022 216.362 17.5462L220.842 23.8462H223.11ZM214.738 15.8662H209.53V6.03819H214.738C218.658 6.03819 220.73 7.83019 220.73 10.9662C220.73 14.0462 218.658 15.8662 214.738 15.8662Z" fill="#686361"/>
<g clip-path="url(#clip0_320_2008)">
<path d="M141 13.8462C141 13.0462 140.3 12.3462 139.5 12.3462H134L129 4.34619H127L129.5 12.3462H124L122.5 10.3462H121L122 13.8462L121 17.3462H122.5L124 15.3462H129.5L127 23.3462H129L134 15.3462H139.5C140.3 15.3462 141 14.6462 141 13.8462Z" fill="#686361"/>
</g>
<g clip-path="url(#clip1_320_2008)">
<path d="M7.5 5.84619C3.35813 5.84619 0 9.20432 0 13.3462C0 17.4881 3.35813 20.8462 7.5 20.8462C11.6419 20.8462 15 17.4881 15 13.3462C15 9.20432 11.6419 5.84619 7.5 5.84619ZM7.5 18.1337C6.91375 18.1337 6.5125 17.6818 6.5125 17.0962C6.5125 16.4937 6.93062 16.0587 7.5 16.0587C8.10188 16.0587 8.4875 16.4937 8.4875 17.0962C8.4875 17.6824 8.10188 18.1337 7.5 18.1337ZM7.88875 14.1718C7.73937 14.6812 7.26875 14.6899 7.11187 14.1718C6.93125 13.5743 6.28937 11.3062 6.28937 9.83307C6.28937 7.88932 8.72125 7.87994 8.72125 9.83307C8.72062 11.3149 8.04437 13.6418 7.88875 14.1718Z" fill="#E75D43"/>
</g>
<defs>
<clipPath id="clip0_320_2008">
<rect width="20" height="20" fill="white" transform="translate(121 3.84619)"/>
</clipPath>
<clipPath id="clip1_320_2008">
<rect width="15" height="15" fill="white" transform="translate(0 5.84619)"/>
</clipPath>
</defs>
</svg>
