<svg width="178" height="176" viewBox="0 0 178 176" fill="none" xmlns="http://www.w3.org/2000/svg">
<rect width="178" height="176" rx="10" fill="white"/>
<rect x="0.5" y="0.5" width="177" height="175" rx="9.5" stroke="#A9B7C8" stroke-opacity="0.5"/>
<path d="M28.5823 107.8C29.5743 107.8 30.4329 107.965 31.1583 108.296C31.8943 108.627 32.4596 109.096 32.8543 109.704C33.2489 110.312 33.4463 111.032 33.4463 111.864C33.4463 112.685 33.2489 113.405 32.8543 114.024C32.4596 114.632 31.8943 115.101 31.1583 115.432C30.4329 115.752 29.5743 115.912 28.5823 115.912H26.3263V119H23.7343V107.8H28.5823ZM28.4383 113.8C29.2169 113.8 29.8089 113.635 30.2143 113.304C30.6196 112.963 30.8223 112.483 30.8223 111.864C30.8223 111.235 30.6196 110.755 30.2143 110.424C29.8089 110.083 29.2169 109.912 28.4383 109.912H26.3263V113.8H28.4383ZM38.5146 110.264C39.848 110.264 40.872 110.584 41.5866 111.224C42.3013 111.853 42.6586 112.808 42.6586 114.088V119H40.3226V117.928C39.8533 118.728 38.9786 119.128 37.6986 119.128C37.0373 119.128 36.4613 119.016 35.9706 118.792C35.4906 118.568 35.1226 118.259 34.8666 117.864C34.6106 117.469 34.4826 117.021 34.4826 116.52C34.4826 115.72 34.7813 115.091 35.3786 114.632C35.9866 114.173 36.92 113.944 38.1786 113.944H40.1626C40.1626 113.4 39.9973 112.984 39.6666 112.696C39.336 112.397 38.84 112.248 38.1786 112.248C37.72 112.248 37.2666 112.323 36.8186 112.472C36.3813 112.611 36.008 112.803 35.6986 113.048L34.8026 111.304C35.272 110.973 35.832 110.717 36.4826 110.536C37.144 110.355 37.8213 110.264 38.5146 110.264ZM38.3226 117.448C38.7493 117.448 39.128 117.352 39.4586 117.16C39.7893 116.957 40.024 116.664 40.1626 116.28V115.4H38.4506C37.4266 115.4 36.9146 115.736 36.9146 116.408C36.9146 116.728 37.0373 116.984 37.2826 117.176C37.5386 117.357 37.8853 117.448 38.3226 117.448ZM47.8136 119.128C47.099 119.128 46.4003 119.043 45.7176 118.872C45.035 118.691 44.491 118.467 44.0856 118.2L44.9176 116.408C45.3016 116.653 45.7656 116.856 46.3096 117.016C46.8536 117.165 47.387 117.24 47.9096 117.24C48.9656 117.24 49.4936 116.979 49.4936 116.456C49.4936 116.211 49.3496 116.035 49.0616 115.928C48.7736 115.821 48.331 115.731 47.7336 115.656C47.0296 115.549 46.4483 115.427 45.9896 115.288C45.531 115.149 45.131 114.904 44.7896 114.552C44.459 114.2 44.2936 113.699 44.2936 113.048C44.2936 112.504 44.4483 112.024 44.7576 111.608C45.0776 111.181 45.5363 110.851 46.1336 110.616C46.7416 110.381 47.4563 110.264 48.2776 110.264C48.8856 110.264 49.4883 110.333 50.0856 110.472C50.6936 110.6 51.195 110.781 51.5896 111.016L50.7576 112.792C50.0003 112.365 49.1736 112.152 48.2776 112.152C47.7443 112.152 47.3443 112.227 47.0776 112.376C46.811 112.525 46.6776 112.717 46.6776 112.952C46.6776 113.219 46.8216 113.405 47.1096 113.512C47.3976 113.619 47.8563 113.72 48.4856 113.816C49.1896 113.933 49.7656 114.061 50.2136 114.2C50.6616 114.328 51.051 114.568 51.3816 114.92C51.7123 115.272 51.8776 115.763 51.8776 116.392C51.8776 116.925 51.7176 117.4 51.3976 117.816C51.0776 118.232 50.6083 118.557 49.9896 118.792C49.3816 119.016 48.6563 119.128 47.8136 119.128ZM56.3136 119.128C55.599 119.128 54.9003 119.043 54.2176 118.872C53.535 118.691 52.991 118.467 52.5856 118.2L53.4176 116.408C53.8016 116.653 54.2656 116.856 54.8096 117.016C55.3536 117.165 55.887 117.24 56.4096 117.24C57.4656 117.24 57.9936 116.979 57.9936 116.456C57.9936 116.211 57.8496 116.035 57.5616 115.928C57.2736 115.821 56.831 115.731 56.2336 115.656C55.5296 115.549 54.9483 115.427 54.4896 115.288C54.031 115.149 53.631 114.904 53.2896 114.552C52.959 114.2 52.7936 113.699 52.7936 113.048C52.7936 112.504 52.9483 112.024 53.2576 111.608C53.5776 111.181 54.0363 110.851 54.6336 110.616C55.2416 110.381 55.9563 110.264 56.7776 110.264C57.3856 110.264 57.9883 110.333 58.5856 110.472C59.1936 110.6 59.695 110.781 60.0896 111.016L59.2576 112.792C58.5003 112.365 57.6736 112.152 56.7776 112.152C56.2443 112.152 55.8443 112.227 55.5776 112.376C55.311 112.525 55.1776 112.717 55.1776 112.952C55.1776 113.219 55.3216 113.405 55.6096 113.512C55.8976 113.619 56.3563 113.72 56.9856 113.816C57.6896 113.933 58.2656 114.061 58.7136 114.2C59.1616 114.328 59.551 114.568 59.8816 114.92C60.2123 115.272 60.3776 115.763 60.3776 116.392C60.3776 116.925 60.2176 117.4 59.8976 117.816C59.5776 118.232 59.1083 118.557 58.4896 118.792C57.8816 119.016 57.1563 119.128 56.3136 119.128ZM70.3496 114.728C70.3496 114.76 70.3336 114.984 70.3016 115.4H63.7896C63.907 115.933 64.1843 116.355 64.6216 116.664C65.059 116.973 65.603 117.128 66.2536 117.128C66.7016 117.128 67.0963 117.064 67.4376 116.936C67.7896 116.797 68.115 116.584 68.4136 116.296L69.7416 117.736C68.931 118.664 67.747 119.128 66.1896 119.128C65.219 119.128 64.3603 118.941 63.6136 118.568C62.867 118.184 62.291 117.656 61.8856 116.984C61.4803 116.312 61.2776 115.549 61.2776 114.696C61.2776 113.853 61.475 113.096 61.8696 112.424C62.275 111.741 62.8243 111.213 63.5176 110.84C64.2216 110.456 65.0056 110.264 65.8696 110.264C66.7123 110.264 67.475 110.445 68.1576 110.808C68.8403 111.171 69.3736 111.693 69.7576 112.376C70.1523 113.048 70.3496 113.832 70.3496 114.728ZM65.8856 112.152C65.3203 112.152 64.8456 112.312 64.4616 112.632C64.0776 112.952 63.843 113.389 63.7576 113.944H67.9976C67.9123 113.4 67.6776 112.968 67.2936 112.648C66.9096 112.317 66.4403 112.152 65.8856 112.152ZM77.2434 110.264C78.31 110.264 79.1687 110.584 79.8194 111.224C80.4807 111.864 80.8114 112.813 80.8114 114.072V119H78.3154V114.456C78.3154 113.773 78.166 113.267 77.8674 112.936C77.5687 112.595 77.1367 112.424 76.5714 112.424C75.942 112.424 75.4407 112.621 75.0674 113.016C74.694 113.4 74.5074 113.976 74.5074 114.744V119H72.0114V110.392H74.3954V111.4C74.726 111.037 75.1367 110.76 75.6274 110.568C76.118 110.365 76.6567 110.264 77.2434 110.264ZM92.0476 110.392V117.56C92.0476 119.139 91.637 120.312 90.8156 121.08C89.9943 121.848 88.7943 122.232 87.2156 122.232C86.3836 122.232 85.5943 122.131 84.8476 121.928C84.101 121.725 83.4823 121.432 82.9916 121.048L83.9836 119.256C84.3463 119.555 84.805 119.789 85.3596 119.96C85.9143 120.141 86.469 120.232 87.0236 120.232C87.8876 120.232 88.5223 120.035 88.9276 119.64C89.3436 119.256 89.5516 118.669 89.5516 117.88V117.512C88.901 118.227 87.9943 118.584 86.8316 118.584C86.0423 118.584 85.317 118.413 84.6556 118.072C84.005 117.72 83.4876 117.229 83.1036 116.6C82.7196 115.971 82.5276 115.245 82.5276 114.424C82.5276 113.603 82.7196 112.877 83.1036 112.248C83.4876 111.619 84.005 111.133 84.6556 110.792C85.317 110.44 86.0423 110.264 86.8316 110.264C88.0796 110.264 89.029 110.675 89.6796 111.496V110.392H92.0476ZM87.3276 116.536C87.989 116.536 88.5276 116.344 88.9436 115.96C89.3703 115.565 89.5836 115.053 89.5836 114.424C89.5836 113.795 89.3703 113.288 88.9436 112.904C88.5276 112.509 87.989 112.312 87.3276 112.312C86.6663 112.312 86.1223 112.509 85.6956 112.904C85.269 113.288 85.0556 113.795 85.0556 114.424C85.0556 115.053 85.269 115.565 85.6956 115.96C86.1223 116.344 86.6663 116.536 87.3276 116.536ZM102.803 114.728C102.803 114.76 102.787 114.984 102.755 115.4H96.2428C96.3601 115.933 96.6374 116.355 97.0748 116.664C97.5121 116.973 98.0561 117.128 98.7068 117.128C99.1548 117.128 99.5494 117.064 99.8908 116.936C100.243 116.797 100.568 116.584 100.867 116.296L102.195 117.736C101.384 118.664 100.2 119.128 98.6428 119.128C97.6721 119.128 96.8134 118.941 96.0668 118.568C95.3201 118.184 94.7441 117.656 94.3388 116.984C93.9334 116.312 93.7308 115.549 93.7308 114.696C93.7308 113.853 93.9281 113.096 94.3228 112.424C94.7281 111.741 95.2774 111.213 95.9708 110.84C96.6748 110.456 97.4588 110.264 98.3228 110.264C99.1654 110.264 99.9281 110.445 100.611 110.808C101.293 111.171 101.827 111.693 102.211 112.376C102.605 113.048 102.803 113.832 102.803 114.728ZM98.3388 112.152C97.7734 112.152 97.2988 112.312 96.9148 112.632C96.5308 112.952 96.2961 113.389 96.2108 113.944H100.451C100.365 113.4 100.131 112.968 99.7468 112.648C99.3628 112.317 98.8934 112.152 98.3388 112.152ZM106.849 111.528C107.147 111.112 107.547 110.797 108.049 110.584C108.561 110.371 109.147 110.264 109.809 110.264V112.568C109.531 112.547 109.345 112.536 109.249 112.536C108.534 112.536 107.974 112.739 107.569 113.144C107.163 113.539 106.961 114.136 106.961 114.936V119H104.465V110.392H106.849V111.528ZM118.27 111.528C118.569 111.112 118.969 110.797 119.47 110.584C119.982 110.371 120.569 110.264 121.23 110.264V112.568C120.953 112.547 120.766 112.536 120.67 112.536C119.956 112.536 119.396 112.739 118.99 113.144C118.585 113.539 118.382 114.136 118.382 114.936V119H115.886V110.392H118.27V111.528ZM122.715 110.392H125.211V119H122.715V110.392ZM123.963 109.192C123.504 109.192 123.131 109.059 122.843 108.792C122.555 108.525 122.411 108.195 122.411 107.8C122.411 107.405 122.555 107.075 122.843 106.808C123.131 106.541 123.504 106.408 123.963 106.408C124.421 106.408 124.795 106.536 125.083 106.792C125.371 107.048 125.515 107.368 125.515 107.752C125.515 108.168 125.371 108.515 125.083 108.792C124.795 109.059 124.421 109.192 123.963 109.192ZM136.407 110.392V117.56C136.407 119.139 135.996 120.312 135.175 121.08C134.354 121.848 133.154 122.232 131.575 122.232C130.743 122.232 129.954 122.131 129.207 121.928C128.46 121.725 127.842 121.432 127.351 121.048L128.343 119.256C128.706 119.555 129.164 119.789 129.719 119.96C130.274 120.141 130.828 120.232 131.383 120.232C132.247 120.232 132.882 120.035 133.287 119.64C133.703 119.256 133.911 118.669 133.911 117.88V117.512C133.26 118.227 132.354 118.584 131.191 118.584C130.402 118.584 129.676 118.413 129.015 118.072C128.364 117.72 127.847 117.229 127.463 116.6C127.079 115.971 126.887 115.245 126.887 114.424C126.887 113.603 127.079 112.877 127.463 112.248C127.847 111.619 128.364 111.133 129.015 110.792C129.676 110.44 130.402 110.264 131.191 110.264C132.439 110.264 133.388 110.675 134.039 111.496V110.392H136.407ZM131.687 116.536C132.348 116.536 132.887 116.344 133.303 115.96C133.73 115.565 133.943 115.053 133.943 114.424C133.943 113.795 133.73 113.288 133.303 112.904C132.887 112.509 132.348 112.312 131.687 112.312C131.026 112.312 130.482 112.509 130.055 112.904C129.628 113.288 129.415 113.795 129.415 114.424C129.415 115.053 129.628 115.565 130.055 115.96C130.482 116.344 131.026 116.536 131.687 116.536ZM143.962 110.264C145.029 110.264 145.887 110.584 146.538 111.224C147.199 111.864 147.53 112.813 147.53 114.072V119H145.034V114.456C145.034 113.773 144.885 113.267 144.586 112.936C144.287 112.595 143.855 112.424 143.29 112.424C142.661 112.424 142.159 112.621 141.786 113.016C141.413 113.4 141.226 113.976 141.226 114.744V119H138.73V107.128H141.226V111.288C141.557 110.957 141.957 110.707 142.426 110.536C142.895 110.355 143.407 110.264 143.962 110.264ZM155.345 118.584C155.099 118.765 154.795 118.904 154.433 119C154.081 119.085 153.707 119.128 153.313 119.128C152.289 119.128 151.494 118.867 150.929 118.344C150.374 117.821 150.097 117.053 150.097 116.04V112.504H148.769V110.584H150.097V108.488H152.593V110.584H154.737V112.504H152.593V116.008C152.593 116.371 152.683 116.653 152.865 116.856C153.057 117.048 153.323 117.144 153.665 117.144C154.059 117.144 154.395 117.037 154.673 116.824L155.345 118.584ZM55.4278 127.128V139H53.0438V138.008C52.4251 138.755 51.5291 139.128 50.3558 139.128C49.5451 139.128 48.8091 138.947 48.1478 138.584C47.4971 138.221 46.9851 137.704 46.6118 137.032C46.2385 136.36 46.0518 135.581 46.0518 134.696C46.0518 133.811 46.2385 133.032 46.6118 132.36C46.9851 131.688 47.4971 131.171 48.1478 130.808C48.8091 130.445 49.5451 130.264 50.3558 130.264C51.4545 130.264 52.3131 130.611 52.9318 131.304V127.128H55.4278ZM50.7878 137.08C51.4171 137.08 51.9398 136.867 52.3558 136.44C52.7718 136.003 52.9798 135.421 52.9798 134.696C52.9798 133.971 52.7718 133.395 52.3558 132.968C51.9398 132.531 51.4171 132.312 50.7878 132.312C50.1478 132.312 49.6198 132.531 49.2038 132.968C48.7878 133.395 48.5798 133.971 48.5798 134.696C48.5798 135.421 48.7878 136.003 49.2038 136.44C49.6198 136.867 50.1478 137.08 50.7878 137.08ZM61.8339 139.128C60.9273 139.128 60.1113 138.941 59.3859 138.568C58.6713 138.184 58.1113 137.656 57.7059 136.984C57.3006 136.312 57.0979 135.549 57.0979 134.696C57.0979 133.843 57.3006 133.08 57.7059 132.408C58.1113 131.736 58.6713 131.213 59.3859 130.84C60.1113 130.456 60.9273 130.264 61.8339 130.264C62.7406 130.264 63.5513 130.456 64.2659 130.84C64.9806 131.213 65.5406 131.736 65.9459 132.408C66.3513 133.08 66.5539 133.843 66.5539 134.696C66.5539 135.549 66.3513 136.312 65.9459 136.984C65.5406 137.656 64.9806 138.184 64.2659 138.568C63.5513 138.941 62.7406 139.128 61.8339 139.128ZM61.8339 137.08C62.4739 137.08 62.9966 136.867 63.4019 136.44C63.8179 136.003 64.0259 135.421 64.0259 134.696C64.0259 133.971 63.8179 133.395 63.4019 132.968C62.9966 132.531 62.4739 132.312 61.8339 132.312C61.1939 132.312 60.6659 132.531 60.2499 132.968C59.8339 133.395 59.6259 133.971 59.6259 134.696C59.6259 135.421 59.8339 136.003 60.2499 136.44C60.6659 136.867 61.1939 137.08 61.8339 137.08ZM72.3823 139.128C71.465 139.128 70.6383 138.941 69.9023 138.568C69.177 138.184 68.6063 137.656 68.1903 136.984C67.785 136.312 67.5823 135.549 67.5823 134.696C67.5823 133.843 67.785 133.08 68.1903 132.408C68.6063 131.736 69.177 131.213 69.9023 130.84C70.6383 130.456 71.465 130.264 72.3823 130.264C73.289 130.264 74.0783 130.456 74.7503 130.84C75.433 131.213 75.929 131.752 76.2383 132.456L74.3023 133.496C73.8543 132.707 73.209 132.312 72.3663 132.312C71.7156 132.312 71.177 132.525 70.7503 132.952C70.3236 133.379 70.1103 133.96 70.1103 134.696C70.1103 135.432 70.3236 136.013 70.7503 136.44C71.177 136.867 71.7156 137.08 72.3663 137.08C73.2196 137.08 73.865 136.685 74.3023 135.896L76.2383 136.952C75.929 137.635 75.433 138.168 74.7503 138.552C74.0783 138.936 73.289 139.128 72.3823 139.128ZM86.3474 130.392V139H83.9794V137.976C83.6488 138.349 83.2541 138.637 82.7954 138.84C82.3368 139.032 81.8408 139.128 81.3074 139.128C80.1768 139.128 79.2808 138.803 78.6194 138.152C77.9581 137.501 77.6274 136.536 77.6274 135.256V130.392H80.1234V134.888C80.1234 136.275 80.7048 136.968 81.8674 136.968C82.4648 136.968 82.9448 136.776 83.3074 136.392C83.6701 135.997 83.8514 135.416 83.8514 134.648V130.392H86.3474ZM99.6838 130.264C100.761 130.264 101.614 130.584 102.244 131.224C102.884 131.853 103.204 132.803 103.204 134.072V139H100.708V134.456C100.708 133.773 100.564 133.267 100.276 132.936C99.9985 132.595 99.5985 132.424 99.0758 132.424C98.4891 132.424 98.0251 132.616 97.6838 133C97.3425 133.373 97.1718 133.933 97.1718 134.68V139H94.6758V134.456C94.6758 133.101 94.1318 132.424 93.0438 132.424C92.4678 132.424 92.0091 132.616 91.6678 133C91.3265 133.373 91.1558 133.933 91.1558 134.68V139H88.6598V130.392H91.0438V131.384C91.3638 131.021 91.7531 130.744 92.2118 130.552C92.6811 130.36 93.1931 130.264 93.7478 130.264C94.3558 130.264 94.9051 130.387 95.3958 130.632C95.8865 130.867 96.2811 131.213 96.5798 131.672C96.9318 131.224 97.3745 130.877 97.9078 130.632C98.4518 130.387 99.0438 130.264 99.6838 130.264ZM113.967 134.728C113.967 134.76 113.951 134.984 113.919 135.4H107.407C107.524 135.933 107.801 136.355 108.239 136.664C108.676 136.973 109.22 137.128 109.871 137.128C110.319 137.128 110.713 137.064 111.055 136.936C111.407 136.797 111.732 136.584 112.031 136.296L113.359 137.736C112.548 138.664 111.364 139.128 109.807 139.128C108.836 139.128 107.977 138.941 107.231 138.568C106.484 138.184 105.908 137.656 105.503 136.984C105.097 136.312 104.895 135.549 104.895 134.696C104.895 133.853 105.092 133.096 105.487 132.424C105.892 131.741 106.441 131.213 107.135 130.84C107.839 130.456 108.623 130.264 109.487 130.264C110.329 130.264 111.092 130.445 111.775 130.808C112.457 131.171 112.991 131.693 113.375 132.376C113.769 133.048 113.967 133.832 113.967 134.728ZM109.503 132.152C108.937 132.152 108.463 132.312 108.079 132.632C107.695 132.952 107.46 133.389 107.375 133.944H111.615C111.529 133.4 111.295 132.968 110.911 132.648C110.527 132.317 110.057 132.152 109.503 132.152ZM120.861 130.264C121.927 130.264 122.786 130.584 123.437 131.224C124.098 131.864 124.429 132.813 124.429 134.072V139H121.933V134.456C121.933 133.773 121.783 133.267 121.485 132.936C121.186 132.595 120.754 132.424 120.189 132.424C119.559 132.424 119.058 132.621 118.685 133.016C118.311 133.4 118.125 133.976 118.125 134.744V139H115.629V130.392H118.013V131.4C118.343 131.037 118.754 130.76 119.245 130.568C119.735 130.365 120.274 130.264 120.861 130.264ZM132.243 138.584C131.998 138.765 131.694 138.904 131.331 139C130.979 139.085 130.606 139.128 130.211 139.128C129.187 139.128 128.392 138.867 127.827 138.344C127.272 137.821 126.995 137.053 126.995 136.04V132.504H125.667V130.584H126.995V128.488H129.491V130.584H131.635V132.504H129.491V136.008C129.491 136.371 129.582 136.653 129.763 136.856C129.955 137.048 130.222 137.144 130.563 137.144C130.958 137.144 131.294 137.037 131.571 136.824L132.243 138.584Z" fill="#686361"/>
<g clip-path="url(#clip0_59_109)">
<path d="M106.869 69.8378V77.3316H72.1299V33.6682H98.8432L106.869 41.6873V52.2611V69.8378Z" fill="#E5EAF0"/>
<path d="M106.87 41.6873H98.8438V33.6682" fill="#F2F3F4"/>
<path d="M107.341 41.2146L99.3148 33.1955C99.1896 33.0703 99.0197 33 98.8425 33H72.1293C71.7602 33 71.4609 33.2993 71.4609 33.6683V38.9293C71.4609 39.2983 71.7602 39.5976 72.1293 39.5976C72.4983 39.5976 72.7976 39.2983 72.7976 38.9293V34.3366H98.1742V41.6874C98.1742 42.0564 98.4734 42.3557 98.8425 42.3557H106.2V76.6634H101.783C101.414 76.6634 101.114 76.9626 101.114 77.3317C101.114 77.7007 101.414 78 101.783 78H106.869C107.238 78 107.537 77.7007 107.537 77.3317V41.6874C107.537 41.51 107.467 41.3399 107.341 41.2146ZM99.5108 35.2808L105.254 41.0191H99.5108V35.2808Z" fill="black"/>
<path d="M72.1293 41.3799C71.7602 41.3799 71.4609 41.6791 71.4609 42.0482V77.3317C71.4609 77.7007 71.7602 78 72.1293 78H98.664C99.033 78 99.3323 77.7007 99.3323 77.3317C99.3323 76.9626 99.033 76.6634 98.664 76.6634H72.7975V42.0482C72.7975 41.679 72.4983 41.3799 72.1293 41.3799Z" fill="black"/>
<path d="M95.3675 42.6689C95.7366 42.6689 96.0358 42.3696 96.0358 42.0006C96.0358 41.6315 95.7366 41.3323 95.3675 41.3323H83.6312C83.2621 41.3323 82.9629 41.6315 82.9629 42.0006C82.9629 42.3696 83.2621 42.6689 83.6312 42.6689H95.3675Z" fill="black"/>
<path d="M75.0498 48.4161C75.0498 48.7852 75.349 49.0844 75.7181 49.0844H103.283C103.652 49.0844 103.951 48.7852 103.951 48.4161C103.951 48.0471 103.652 47.7478 103.283 47.7478H75.7181C75.3489 47.7478 75.0498 48.0471 75.0498 48.4161Z" fill="black"/>
<path d="M75.7181 54.2302H103.283C103.652 54.2302 103.951 53.9309 103.951 53.5619C103.951 53.1928 103.652 52.8936 103.283 52.8936H75.7181C75.349 52.8936 75.0498 53.1928 75.0498 53.5619C75.0498 53.931 75.3489 54.2302 75.7181 54.2302Z" fill="black"/>
<path d="M75.7181 59.3762H103.283C103.652 59.3762 103.951 59.0769 103.951 58.7079C103.951 58.3388 103.652 58.0396 103.283 58.0396H75.7181C75.349 58.0396 75.0498 58.3388 75.0498 58.7079C75.0498 59.0769 75.3489 59.3762 75.7181 59.3762Z" fill="black"/>
<path d="M75.7181 64.5219H103.283C103.652 64.5219 103.951 64.2227 103.951 63.8536C103.951 63.4846 103.652 63.1853 103.283 63.1853H75.7181C75.349 63.1853 75.0498 63.4846 75.0498 63.8536C75.0498 64.2228 75.3489 64.5219 75.7181 64.5219Z" fill="black"/>
<path d="M75.7181 69.6677H103.283C103.652 69.6677 103.951 69.3684 103.951 68.9994C103.951 68.6303 103.652 68.3311 103.283 68.3311H75.7181C75.349 68.3311 75.0498 68.6303 75.0498 68.9994C75.0498 69.3684 75.3489 69.6677 75.7181 69.6677Z" fill="black"/>
</g>
<defs>
<clipPath id="clip0_59_109">
<rect width="45" height="45" fill="white" transform="translate(67 33)"/>
</clipPath>
</defs>
</svg>
