<svg width="416" height="47" viewBox="0 0 416 47" fill="none" xmlns="http://www.w3.org/2000/svg">
<rect width="416" height="47" rx="10" fill="#1A7CFA" fill-opacity="0.05"/>
<path d="M70.264 8.2C71.5147 8.2 72.4947 8.49867 73.204 9.096C73.9133 9.69333 74.268 10.5147 74.268 11.56C74.268 12.6053 73.9133 13.4267 73.204 14.024C72.4947 14.612 71.5147 14.906 70.264 14.906H67.632V18H66.596V8.2H70.264ZM70.236 13.996C71.2067 13.996 71.9487 13.786 72.462 13.366C72.9753 12.9367 73.232 12.3347 73.232 11.56C73.232 10.7667 72.9753 10.16 72.462 9.74C71.9487 9.31067 71.2067 9.096 70.236 9.096H67.632V13.996H70.236ZM78.8058 10.58C79.7671 10.58 80.5044 10.8227 81.0178 11.308C81.5311 11.784 81.7878 12.4933 81.7878 13.436V18H80.8358V16.852C80.6118 17.2347 80.2804 17.5333 79.8418 17.748C79.4124 17.9627 78.8991 18.07 78.3018 18.07C77.4804 18.07 76.8271 17.874 76.3418 17.482C75.8564 17.09 75.6138 16.572 75.6138 15.928C75.6138 15.3027 75.8378 14.7987 76.2858 14.416C76.7431 14.0333 77.4664 13.842 78.4558 13.842H80.7938V13.394C80.7938 12.7593 80.6164 12.2787 80.2618 11.952C79.9071 11.616 79.3891 11.448 78.7078 11.448C78.2411 11.448 77.7931 11.5273 77.3638 11.686C76.9344 11.8353 76.5658 12.0453 76.2578 12.316L75.8098 11.574C76.1831 11.2567 76.6311 11.014 77.1538 10.846C77.6764 10.6687 78.2271 10.58 78.8058 10.58ZM78.4558 17.286C79.0158 17.286 79.4964 17.16 79.8978 16.908C80.2991 16.6467 80.5978 16.2733 80.7938 15.788V14.584H78.4838C77.2238 14.584 76.5938 15.0227 76.5938 15.9C76.5938 16.3293 76.7571 16.67 77.0838 16.922C77.4104 17.1647 77.8678 17.286 78.4558 17.286ZM86.4616 18.07C85.8642 18.07 85.2902 17.986 84.7396 17.818C84.1982 17.6407 83.7736 17.4213 83.4656 17.16L83.9136 16.376C84.2216 16.6187 84.6089 16.8193 85.0756 16.978C85.5422 17.1273 86.0276 17.202 86.5316 17.202C87.2036 17.202 87.6982 17.0993 88.0156 16.894C88.3422 16.6793 88.5056 16.3807 88.5056 15.998C88.5056 15.7273 88.4169 15.5173 88.2396 15.368C88.0622 15.2093 87.8382 15.0927 87.5676 15.018C87.2969 14.934 86.9376 14.8547 86.4896 14.78C85.8922 14.668 85.4116 14.556 85.0476 14.444C84.6836 14.3227 84.3709 14.122 84.1096 13.842C83.8576 13.562 83.7316 13.1747 83.7316 12.68C83.7316 12.064 83.9882 11.56 84.5016 11.168C85.0149 10.776 85.7289 10.58 86.6436 10.58C87.1196 10.58 87.5956 10.6453 88.0716 10.776C88.5476 10.8973 88.9396 11.0607 89.2476 11.266L88.8136 12.064C88.2069 11.644 87.4836 11.434 86.6436 11.434C86.0089 11.434 85.5282 11.546 85.2016 11.77C84.8842 11.994 84.7256 12.288 84.7256 12.652C84.7256 12.932 84.8142 13.156 84.9916 13.324C85.1782 13.492 85.4069 13.618 85.6776 13.702C85.9482 13.7767 86.3216 13.856 86.7976 13.94C87.3856 14.052 87.8569 14.164 88.2116 14.276C88.5662 14.388 88.8696 14.5793 89.1216 14.85C89.3736 15.1207 89.4996 15.494 89.4996 15.97C89.4996 16.614 89.2289 17.1273 88.6876 17.51C88.1556 17.8833 87.4136 18.07 86.4616 18.07ZM93.3112 18.07C92.7138 18.07 92.1398 17.986 91.5892 17.818C91.0478 17.6407 90.6232 17.4213 90.3152 17.16L90.7632 16.376C91.0712 16.6187 91.4585 16.8193 91.9252 16.978C92.3918 17.1273 92.8772 17.202 93.3812 17.202C94.0532 17.202 94.5478 17.0993 94.8652 16.894C95.1918 16.6793 95.3552 16.3807 95.3552 15.998C95.3552 15.7273 95.2665 15.5173 95.0892 15.368C94.9118 15.2093 94.6878 15.0927 94.4172 15.018C94.1465 14.934 93.7872 14.8547 93.3392 14.78C92.7418 14.668 92.2612 14.556 91.8972 14.444C91.5332 14.3227 91.2205 14.122 90.9592 13.842C90.7072 13.562 90.5812 13.1747 90.5812 12.68C90.5812 12.064 90.8378 11.56 91.3512 11.168C91.8645 10.776 92.5785 10.58 93.4932 10.58C93.9692 10.58 94.4452 10.6453 94.9212 10.776C95.3972 10.8973 95.7892 11.0607 96.0972 11.266L95.6632 12.064C95.0565 11.644 94.3332 11.434 93.4932 11.434C92.8585 11.434 92.3778 11.546 92.0512 11.77C91.7338 11.994 91.5752 12.288 91.5752 12.652C91.5752 12.932 91.6638 13.156 91.8412 13.324C92.0278 13.492 92.2565 13.618 92.5272 13.702C92.7978 13.7767 93.1712 13.856 93.6472 13.94C94.2352 14.052 94.7065 14.164 95.0612 14.276C95.4158 14.388 95.7192 14.5793 95.9712 14.85C96.2232 15.1207 96.3492 15.494 96.3492 15.97C96.3492 16.614 96.0785 17.1273 95.5372 17.51C95.0052 17.8833 94.2632 18.07 93.3112 18.07ZM104.599 14.626H98.4388C98.4948 15.3913 98.7888 16.012 99.3208 16.488C99.8528 16.9547 100.525 17.188 101.337 17.188C101.794 17.188 102.214 17.1087 102.597 16.95C102.979 16.782 103.311 16.5393 103.591 16.222L104.151 16.866C103.824 17.258 103.413 17.5567 102.919 17.762C102.433 17.9673 101.897 18.07 101.309 18.07C100.553 18.07 99.8808 17.9113 99.2928 17.594C98.7141 17.2673 98.2614 16.8193 97.9348 16.25C97.6081 15.6807 97.4448 15.0367 97.4448 14.318C97.4448 13.5993 97.5988 12.9553 97.9068 12.386C98.2241 11.8167 98.6534 11.3733 99.1948 11.056C99.7454 10.7387 100.361 10.58 101.043 10.58C101.724 10.58 102.335 10.7387 102.877 11.056C103.418 11.3733 103.843 11.8167 104.151 12.386C104.459 12.946 104.613 13.59 104.613 14.318L104.599 14.626ZM101.043 11.434C100.333 11.434 99.7361 11.6627 99.2508 12.12C98.7748 12.568 98.5041 13.156 98.4388 13.884H103.661C103.595 13.156 103.32 12.568 102.835 12.12C102.359 11.6627 101.761 11.434 101.043 11.434ZM110.388 10.58C111.312 10.58 112.045 10.8507 112.586 11.392C113.137 11.924 113.412 12.7033 113.412 13.73V18H112.418V13.828C112.418 13.0627 112.227 12.4793 111.844 12.078C111.461 11.6767 110.915 11.476 110.206 11.476C109.413 11.476 108.783 11.714 108.316 12.19C107.859 12.6567 107.63 13.3053 107.63 14.136V18H106.636V10.636H107.588V11.994C107.859 11.546 108.232 11.2007 108.708 10.958C109.193 10.706 109.753 10.58 110.388 10.58ZM122.956 10.636V17.104C122.956 18.3547 122.648 19.2787 122.032 19.876C121.425 20.4827 120.506 20.786 119.274 20.786C118.593 20.786 117.944 20.6833 117.328 20.478C116.721 20.282 116.227 20.0067 115.844 19.652L116.348 18.896C116.703 19.2133 117.132 19.4607 117.636 19.638C118.149 19.8153 118.686 19.904 119.246 19.904C120.179 19.904 120.865 19.6847 121.304 19.246C121.743 18.8167 121.962 18.1447 121.962 17.23V16.292C121.654 16.7587 121.248 17.1133 120.744 17.356C120.249 17.5987 119.699 17.72 119.092 17.72C118.401 17.72 117.771 17.5707 117.202 17.272C116.642 16.964 116.199 16.5393 115.872 15.998C115.555 15.4473 115.396 14.8267 115.396 14.136C115.396 13.4453 115.555 12.8293 115.872 12.288C116.199 11.7467 116.642 11.3267 117.202 11.028C117.762 10.7293 118.392 10.58 119.092 10.58C119.717 10.58 120.282 10.706 120.786 10.958C121.29 11.21 121.696 11.574 122.004 12.05V10.636H122.956ZM119.19 16.838C119.722 16.838 120.203 16.726 120.632 16.502C121.061 16.2687 121.393 15.9467 121.626 15.536C121.869 15.1253 121.99 14.6587 121.99 14.136C121.99 13.6133 121.869 13.1513 121.626 12.75C121.393 12.3393 121.061 12.022 120.632 11.798C120.212 11.5647 119.731 11.448 119.19 11.448C118.658 11.448 118.177 11.56 117.748 11.784C117.328 12.008 116.997 12.3253 116.754 12.736C116.521 13.1467 116.404 13.6133 116.404 14.136C116.404 14.6587 116.521 15.1253 116.754 15.536C116.997 15.9467 117.328 16.2687 117.748 16.502C118.177 16.726 118.658 16.838 119.19 16.838ZM132.148 14.626H125.988C126.044 15.3913 126.338 16.012 126.87 16.488C127.402 16.9547 128.074 17.188 128.886 17.188C129.343 17.188 129.763 17.1087 130.146 16.95C130.528 16.782 130.86 16.5393 131.14 16.222L131.7 16.866C131.373 17.258 130.962 17.5567 130.468 17.762C129.982 17.9673 129.446 18.07 128.858 18.07C128.102 18.07 127.43 17.9113 126.842 17.594C126.263 17.2673 125.81 16.8193 125.484 16.25C125.157 15.6807 124.994 15.0367 124.994 14.318C124.994 13.5993 125.148 12.9553 125.456 12.386C125.773 11.8167 126.202 11.3733 126.744 11.056C127.294 10.7387 127.91 10.58 128.592 10.58C129.273 10.58 129.884 10.7387 130.426 11.056C130.967 11.3733 131.392 11.8167 131.7 12.386C132.008 12.946 132.162 13.59 132.162 14.318L132.148 14.626ZM128.592 11.434C127.882 11.434 127.285 11.6627 126.8 12.12C126.324 12.568 126.053 13.156 125.988 13.884H131.21C131.144 13.156 130.869 12.568 130.384 12.12C129.908 11.6627 129.31 11.434 128.592 11.434ZM135.137 12.078C135.37 11.5833 135.715 11.21 136.173 10.958C136.639 10.706 137.213 10.58 137.895 10.58V11.546L137.657 11.532C136.882 11.532 136.275 11.77 135.837 12.246C135.398 12.722 135.179 13.3893 135.179 14.248V18H134.185V10.636H135.137V12.078ZM146.52 18.07C145.792 18.07 145.139 17.9113 144.56 17.594C143.991 17.2767 143.543 16.8333 143.216 16.264C142.889 15.6853 142.726 15.0367 142.726 14.318C142.726 13.5993 142.889 12.9553 143.216 12.386C143.543 11.8167 143.991 11.3733 144.56 11.056C145.139 10.7387 145.792 10.58 146.52 10.58C147.155 10.58 147.719 10.706 148.214 10.958C148.718 11.2007 149.115 11.56 149.404 12.036L148.662 12.54C148.419 12.176 148.111 11.9053 147.738 11.728C147.365 11.5413 146.959 11.448 146.52 11.448C145.988 11.448 145.507 11.5693 145.078 11.812C144.658 12.0453 144.327 12.3813 144.084 12.82C143.851 13.2587 143.734 13.758 143.734 14.318C143.734 14.8873 143.851 15.3913 144.084 15.83C144.327 16.2593 144.658 16.5953 145.078 16.838C145.507 17.0713 145.988 17.188 146.52 17.188C146.959 17.188 147.365 17.0993 147.738 16.922C148.111 16.7447 148.419 16.474 148.662 16.11L149.404 16.614C149.115 17.09 148.718 17.454 148.214 17.706C147.71 17.9487 147.145 18.07 146.52 18.07ZM153.933 10.58C154.894 10.58 155.631 10.8227 156.145 11.308C156.658 11.784 156.915 12.4933 156.915 13.436V18H155.963V16.852C155.739 17.2347 155.407 17.5333 154.969 17.748C154.539 17.9627 154.026 18.07 153.429 18.07C152.607 18.07 151.954 17.874 151.469 17.482C150.983 17.09 150.741 16.572 150.741 15.928C150.741 15.3027 150.965 14.7987 151.413 14.416C151.87 14.0333 152.593 13.842 153.583 13.842H155.921V13.394C155.921 12.7593 155.743 12.2787 155.389 11.952C155.034 11.616 154.516 11.448 153.835 11.448C153.368 11.448 152.92 11.5273 152.491 11.686C152.061 11.8353 151.693 12.0453 151.385 12.316L150.937 11.574C151.31 11.2567 151.758 11.014 152.281 10.846C152.803 10.6687 153.354 10.58 153.933 10.58ZM153.583 17.286C154.143 17.286 154.623 17.16 155.025 16.908C155.426 16.6467 155.725 16.2733 155.921 15.788V14.584H153.611C152.351 14.584 151.721 15.0227 151.721 15.9C151.721 16.3293 151.884 16.67 152.211 16.922C152.537 17.1647 152.995 17.286 153.583 17.286ZM163.493 17.552C163.306 17.72 163.073 17.8507 162.793 17.944C162.522 18.028 162.237 18.07 161.939 18.07C161.248 18.07 160.716 17.8833 160.343 17.51C159.969 17.1367 159.783 16.6093 159.783 15.928V11.476H158.467V10.636H159.783V9.026H160.777V10.636H163.017V11.476H160.777V15.872C160.777 16.3107 160.884 16.6467 161.099 16.88C161.323 17.104 161.64 17.216 162.051 17.216C162.256 17.216 162.452 17.1833 162.639 17.118C162.835 17.0527 163.003 16.9593 163.143 16.838L163.493 17.552ZM171.454 14.626H165.294C165.35 15.3913 165.644 16.012 166.176 16.488C166.708 16.9547 167.38 17.188 168.192 17.188C168.65 17.188 169.07 17.1087 169.452 16.95C169.835 16.782 170.166 16.5393 170.446 16.222L171.006 16.866C170.68 17.258 170.269 17.5567 169.774 17.762C169.289 17.9673 168.752 18.07 168.164 18.07C167.408 18.07 166.736 17.9113 166.148 17.594C165.57 17.2673 165.117 16.8193 164.79 16.25C164.464 15.6807 164.3 15.0367 164.3 14.318C164.3 13.5993 164.454 12.9553 164.762 12.386C165.08 11.8167 165.509 11.3733 166.05 11.056C166.601 10.7387 167.217 10.58 167.898 10.58C168.58 10.58 169.191 10.7387 169.732 11.056C170.274 11.3733 170.698 11.8167 171.006 12.386C171.314 12.946 171.468 13.59 171.468 14.318L171.454 14.626ZM167.898 11.434C167.189 11.434 166.592 11.6627 166.106 12.12C165.63 12.568 165.36 13.156 165.294 13.884H170.516C170.451 13.156 170.176 12.568 169.69 12.12C169.214 11.6627 168.617 11.434 167.898 11.434ZM180.309 10.636V17.104C180.309 18.3547 180.001 19.2787 179.385 19.876C178.779 20.4827 177.859 20.786 176.627 20.786C175.946 20.786 175.297 20.6833 174.681 20.478C174.075 20.282 173.58 20.0067 173.197 19.652L173.701 18.896C174.056 19.2133 174.485 19.4607 174.989 19.638C175.503 19.8153 176.039 19.904 176.599 19.904C177.533 19.904 178.219 19.6847 178.657 19.246C179.096 18.8167 179.315 18.1447 179.315 17.23V16.292C179.007 16.7587 178.601 17.1133 178.097 17.356C177.603 17.5987 177.052 17.72 176.445 17.72C175.755 17.72 175.125 17.5707 174.555 17.272C173.995 16.964 173.552 16.5393 173.225 15.998C172.908 15.4473 172.749 14.8267 172.749 14.136C172.749 13.4453 172.908 12.8293 173.225 12.288C173.552 11.7467 173.995 11.3267 174.555 11.028C175.115 10.7293 175.745 10.58 176.445 10.58C177.071 10.58 177.635 10.706 178.139 10.958C178.643 11.21 179.049 11.574 179.357 12.05V10.636H180.309ZM176.543 16.838C177.075 16.838 177.556 16.726 177.985 16.502C178.415 16.2687 178.746 15.9467 178.979 15.536C179.222 15.1253 179.343 14.6587 179.343 14.136C179.343 13.6133 179.222 13.1513 178.979 12.75C178.746 12.3393 178.415 12.022 177.985 11.798C177.565 11.5647 177.085 11.448 176.543 11.448C176.011 11.448 175.531 11.56 175.101 11.784C174.681 12.008 174.35 12.3253 174.107 12.736C173.874 13.1467 173.757 13.6133 173.757 14.136C173.757 14.6587 173.874 15.1253 174.107 15.536C174.35 15.9467 174.681 16.2687 175.101 16.502C175.531 16.726 176.011 16.838 176.543 16.838ZM186.099 18.07C185.39 18.07 184.75 17.9113 184.181 17.594C183.612 17.2673 183.164 16.8193 182.837 16.25C182.51 15.6807 182.347 15.0367 182.347 14.318C182.347 13.5993 182.51 12.9553 182.837 12.386C183.164 11.8167 183.612 11.3733 184.181 11.056C184.75 10.7387 185.39 10.58 186.099 10.58C186.808 10.58 187.448 10.7387 188.017 11.056C188.586 11.3733 189.03 11.8167 189.347 12.386C189.674 12.9553 189.837 13.5993 189.837 14.318C189.837 15.0367 189.674 15.6807 189.347 16.25C189.03 16.8193 188.586 17.2673 188.017 17.594C187.448 17.9113 186.808 18.07 186.099 18.07ZM186.099 17.188C186.622 17.188 187.088 17.0713 187.499 16.838C187.919 16.5953 188.246 16.2547 188.479 15.816C188.712 15.3773 188.829 14.878 188.829 14.318C188.829 13.758 188.712 13.2587 188.479 12.82C188.246 12.3813 187.919 12.0453 187.499 11.812C187.088 11.5693 186.622 11.448 186.099 11.448C185.576 11.448 185.105 11.5693 184.685 11.812C184.274 12.0453 183.948 12.3813 183.705 12.82C183.472 13.2587 183.355 13.758 183.355 14.318C183.355 14.878 183.472 15.3773 183.705 15.816C183.948 16.2547 184.274 16.5953 184.685 16.838C185.105 17.0713 185.576 17.188 186.099 17.188ZM192.818 12.078C193.052 11.5833 193.397 11.21 193.854 10.958C194.321 10.706 194.895 10.58 195.576 10.58V11.546L195.338 11.532C194.564 11.532 193.957 11.77 193.518 12.246C193.08 12.722 192.86 13.3893 192.86 14.248V18H191.866V10.636H192.818V12.078ZM203.879 10.636L200.197 18.882C199.898 19.5727 199.553 20.0627 199.161 20.352C198.769 20.6413 198.297 20.786 197.747 20.786C197.392 20.786 197.061 20.73 196.753 20.618C196.445 20.506 196.179 20.338 195.955 20.114L196.417 19.372C196.79 19.7453 197.238 19.932 197.761 19.932C198.097 19.932 198.381 19.8387 198.615 19.652C198.857 19.4653 199.081 19.148 199.287 18.7L199.609 17.986L196.319 10.636H197.355L200.127 16.894L202.899 10.636H203.879ZM211.953 18.07C211.243 18.07 210.604 17.9113 210.035 17.594C209.465 17.2673 209.017 16.8193 208.691 16.25C208.364 15.6807 208.201 15.0367 208.201 14.318C208.201 13.5993 208.364 12.9553 208.691 12.386C209.017 11.8167 209.465 11.3733 210.035 11.056C210.604 10.7387 211.243 10.58 211.953 10.58C212.662 10.58 213.301 10.7387 213.871 11.056C214.44 11.3733 214.883 11.8167 215.201 12.386C215.527 12.9553 215.691 13.5993 215.691 14.318C215.691 15.0367 215.527 15.6807 215.201 16.25C214.883 16.8193 214.44 17.2673 213.871 17.594C213.301 17.9113 212.662 18.07 211.953 18.07ZM211.953 17.188C212.475 17.188 212.942 17.0713 213.353 16.838C213.773 16.5953 214.099 16.2547 214.333 15.816C214.566 15.3773 214.683 14.878 214.683 14.318C214.683 13.758 214.566 13.2587 214.333 12.82C214.099 12.3813 213.773 12.0453 213.353 11.812C212.942 11.5693 212.475 11.448 211.953 11.448C211.43 11.448 210.959 11.5693 210.539 11.812C210.128 12.0453 209.801 12.3813 209.559 12.82C209.325 13.2587 209.209 13.758 209.209 14.318C209.209 14.878 209.325 15.3773 209.559 15.816C209.801 16.2547 210.128 16.5953 210.539 16.838C210.959 17.0713 211.43 17.188 211.953 17.188ZM221.472 10.58C222.396 10.58 223.129 10.8507 223.67 11.392C224.221 11.924 224.496 12.7033 224.496 13.73V18H223.502V13.828C223.502 13.0627 223.311 12.4793 222.928 12.078C222.545 11.6767 221.999 11.476 221.29 11.476C220.497 11.476 219.867 11.714 219.4 12.19C218.943 12.6567 218.714 13.3053 218.714 14.136V18H217.72V10.636H218.672V11.994C218.943 11.546 219.316 11.2007 219.792 10.958C220.277 10.706 220.837 10.58 221.472 10.58ZM234.737 17.552C234.55 17.72 234.317 17.8507 234.037 17.944C233.766 18.028 233.481 18.07 233.183 18.07C232.492 18.07 231.96 17.8833 231.587 17.51C231.213 17.1367 231.027 16.6093 231.027 15.928V11.476H229.711V10.636H231.027V9.026H232.021V10.636H234.261V11.476H232.021V15.872C232.021 16.3107 232.128 16.6467 232.343 16.88C232.567 17.104 232.884 17.216 233.295 17.216C233.5 17.216 233.696 17.1833 233.883 17.118C234.079 17.0527 234.247 16.9593 234.387 16.838L234.737 17.552ZM240.298 10.58C241.222 10.58 241.955 10.8507 242.496 11.392C243.047 11.924 243.322 12.7033 243.322 13.73V18H242.328V13.828C242.328 13.0627 242.137 12.4793 241.754 12.078C241.371 11.6767 240.825 11.476 240.116 11.476C239.323 11.476 238.693 11.714 238.226 12.19C237.769 12.6567 237.54 13.3053 237.54 14.136V18H236.546V7.612H237.54V11.924C237.811 11.4947 238.184 11.1633 238.66 10.93C239.136 10.6967 239.682 10.58 240.298 10.58ZM252.46 14.626H246.3C246.356 15.3913 246.65 16.012 247.182 16.488C247.714 16.9547 248.386 17.188 249.198 17.188C249.655 17.188 250.075 17.1087 250.458 16.95C250.841 16.782 251.172 16.5393 251.452 16.222L252.012 16.866C251.685 17.258 251.275 17.5567 250.78 17.762C250.295 17.9673 249.758 18.07 249.17 18.07C248.414 18.07 247.742 17.9113 247.154 17.594C246.575 17.2673 246.123 16.8193 245.796 16.25C245.469 15.6807 245.306 15.0367 245.306 14.318C245.306 13.5993 245.46 12.9553 245.768 12.386C246.085 11.8167 246.515 11.3733 247.056 11.056C247.607 10.7387 248.223 10.58 248.904 10.58C249.585 10.58 250.197 10.7387 250.738 11.056C251.279 11.3733 251.704 11.8167 252.012 12.386C252.32 12.946 252.474 13.59 252.474 14.318L252.46 14.626ZM248.904 11.434C248.195 11.434 247.597 11.6627 247.112 12.12C246.636 12.568 246.365 13.156 246.3 13.884H251.522C251.457 13.156 251.181 12.568 250.696 12.12C250.22 11.6627 249.623 11.434 248.904 11.434ZM264.881 7.612V18H263.929V16.544C263.631 17.0387 263.234 17.4167 262.739 17.678C262.254 17.9393 261.703 18.07 261.087 18.07C260.397 18.07 259.771 17.9113 259.211 17.594C258.651 17.2767 258.213 16.8333 257.895 16.264C257.578 15.6947 257.419 15.046 257.419 14.318C257.419 13.59 257.578 12.9413 257.895 12.372C258.213 11.8027 258.651 11.364 259.211 11.056C259.771 10.7387 260.397 10.58 261.087 10.58C261.685 10.58 262.221 10.706 262.697 10.958C263.183 11.2007 263.579 11.56 263.887 12.036V7.612H264.881ZM261.171 17.188C261.685 17.188 262.147 17.0713 262.557 16.838C262.977 16.5953 263.304 16.2547 263.537 15.816C263.78 15.3773 263.901 14.878 263.901 14.318C263.901 13.758 263.78 13.2587 263.537 12.82C263.304 12.3813 262.977 12.0453 262.557 11.812C262.147 11.5693 261.685 11.448 261.171 11.448C260.649 11.448 260.177 11.5693 259.757 11.812C259.347 12.0453 259.02 12.3813 258.777 12.82C258.544 13.2587 258.427 13.758 258.427 14.318C258.427 14.878 258.544 15.3773 258.777 15.816C259.02 16.2547 259.347 16.5953 259.757 16.838C260.177 17.0713 260.649 17.188 261.171 17.188ZM270.226 10.58C271.187 10.58 271.924 10.8227 272.438 11.308C272.951 11.784 273.208 12.4933 273.208 13.436V18H272.256V16.852C272.032 17.2347 271.7 17.5333 271.262 17.748C270.832 17.9627 270.319 18.07 269.722 18.07C268.9 18.07 268.247 17.874 267.762 17.482C267.276 17.09 267.034 16.572 267.034 15.928C267.034 15.3027 267.258 14.7987 267.706 14.416C268.163 14.0333 268.886 13.842 269.876 13.842H272.214V13.394C272.214 12.7593 272.036 12.2787 271.682 11.952C271.327 11.616 270.809 11.448 270.128 11.448C269.661 11.448 269.213 11.5273 268.784 11.686C268.354 11.8353 267.986 12.0453 267.678 12.316L267.23 11.574C267.603 11.2567 268.051 11.014 268.574 10.846C269.096 10.6687 269.647 10.58 270.226 10.58ZM269.876 17.286C270.436 17.286 270.916 17.16 271.318 16.908C271.719 16.6467 272.018 16.2733 272.214 15.788V14.584H269.904C268.644 14.584 268.014 15.0227 268.014 15.9C268.014 16.3293 268.177 16.67 268.504 16.922C268.83 17.1647 269.288 17.286 269.876 17.286ZM281.959 10.636L278.277 18.882C277.978 19.5727 277.633 20.0627 277.241 20.352C276.849 20.6413 276.377 20.786 275.827 20.786C275.472 20.786 275.141 20.73 274.833 20.618C274.525 20.506 274.259 20.338 274.035 20.114L274.497 19.372C274.87 19.7453 275.318 19.932 275.841 19.932C276.177 19.932 276.461 19.8387 276.695 19.652C276.937 19.4653 277.161 19.148 277.367 18.7L277.689 17.986L274.399 10.636H275.435L278.207 16.894L280.979 10.636H281.959ZM290.033 18.07C289.323 18.07 288.684 17.9113 288.115 17.594C287.545 17.2673 287.097 16.8193 286.771 16.25C286.444 15.6807 286.281 15.0367 286.281 14.318C286.281 13.5993 286.444 12.9553 286.771 12.386C287.097 11.8167 287.545 11.3733 288.115 11.056C288.684 10.7387 289.323 10.58 290.033 10.58C290.742 10.58 291.381 10.7387 291.951 11.056C292.52 11.3733 292.963 11.8167 293.281 12.386C293.607 12.9553 293.771 13.5993 293.771 14.318C293.771 15.0367 293.607 15.6807 293.281 16.25C292.963 16.8193 292.52 17.2673 291.951 17.594C291.381 17.9113 290.742 18.07 290.033 18.07ZM290.033 17.188C290.555 17.188 291.022 17.0713 291.433 16.838C291.853 16.5953 292.179 16.2547 292.413 15.816C292.646 15.3773 292.763 14.878 292.763 14.318C292.763 13.758 292.646 13.2587 292.413 12.82C292.179 12.3813 291.853 12.0453 291.433 11.812C291.022 11.5693 290.555 11.448 290.033 11.448C289.51 11.448 289.039 11.5693 288.619 11.812C288.208 12.0453 287.881 12.3813 287.639 12.82C287.405 13.2587 287.289 13.758 287.289 14.318C287.289 14.878 287.405 15.3773 287.639 15.816C287.881 16.2547 288.208 16.5953 288.619 16.838C289.039 17.0713 289.51 17.188 290.033 17.188ZM298.236 8.382C297.807 8.382 297.48 8.49867 297.256 8.732C297.041 8.96533 296.934 9.31067 296.934 9.768V10.636H299.202V11.476H296.962V18H295.968V11.476H294.652V10.636H295.968V9.726C295.968 9.054 296.159 8.522 296.542 8.13C296.934 7.738 297.485 7.542 298.194 7.542C298.474 7.542 298.745 7.584 299.006 7.668C299.267 7.74267 299.487 7.85467 299.664 8.004L299.328 8.746C299.039 8.50333 298.675 8.382 298.236 8.382ZM306.644 8.382C306.215 8.382 305.888 8.49867 305.664 8.732C305.45 8.96533 305.342 9.31067 305.342 9.768V10.636H307.61V11.476H305.37V18H304.376V11.476H303.06V10.636H304.376V9.726C304.376 9.054 304.568 8.522 304.95 8.13C305.342 7.738 305.893 7.542 306.602 7.542C306.882 7.542 307.153 7.584 307.414 7.668C307.676 7.74267 307.895 7.85467 308.072 8.004L307.736 8.746C307.447 8.50333 307.083 8.382 306.644 8.382ZM308.954 7.612H309.948V18H308.954V7.612ZM312.726 10.636H313.72V18H312.726V10.636ZM313.23 9.026C313.025 9.026 312.852 8.956 312.712 8.816C312.572 8.676 312.502 8.508 312.502 8.312C312.502 8.12533 312.572 7.962 312.712 7.822C312.852 7.682 313.025 7.612 313.23 7.612C313.435 7.612 313.608 7.682 313.748 7.822C313.888 7.95267 313.958 8.11133 313.958 8.298C313.958 8.50333 313.888 8.676 313.748 8.816C313.608 8.956 313.435 9.026 313.23 9.026ZM323.304 10.636V17.104C323.304 18.3547 322.996 19.2787 322.38 19.876C321.773 20.4827 320.854 20.786 319.622 20.786C318.94 20.786 318.292 20.6833 317.676 20.478C317.069 20.282 316.574 20.0067 316.192 19.652L316.696 18.896C317.05 19.2133 317.48 19.4607 317.984 19.638C318.497 19.8153 319.034 19.904 319.594 19.904C320.527 19.904 321.213 19.6847 321.652 19.246C322.09 18.8167 322.31 18.1447 322.31 17.23V16.292C322.002 16.7587 321.596 17.1133 321.092 17.356C320.597 17.5987 320.046 17.72 319.44 17.72C318.749 17.72 318.119 17.5707 317.55 17.272C316.99 16.964 316.546 16.5393 316.22 15.998C315.902 15.4473 315.744 14.8267 315.744 14.136C315.744 13.4453 315.902 12.8293 316.22 12.288C316.546 11.7467 316.99 11.3267 317.55 11.028C318.11 10.7293 318.74 10.58 319.44 10.58C320.065 10.58 320.63 10.706 321.134 10.958C321.638 11.21 322.044 11.574 322.352 12.05V10.636H323.304ZM319.538 16.838C320.07 16.838 320.55 16.726 320.98 16.502C321.409 16.2687 321.74 15.9467 321.974 15.536C322.216 15.1253 322.338 14.6587 322.338 14.136C322.338 13.6133 322.216 13.1513 321.974 12.75C321.74 12.3393 321.409 12.022 320.98 11.798C320.56 11.5647 320.079 11.448 319.538 11.448C319.006 11.448 318.525 11.56 318.096 11.784C317.676 12.008 317.344 12.3253 317.102 12.736C316.868 13.1467 316.752 13.6133 316.752 14.136C316.752 14.6587 316.868 15.1253 317.102 15.536C317.344 15.9467 317.676 16.2687 318.096 16.502C318.525 16.726 319.006 16.838 319.538 16.838ZM329.835 10.58C330.759 10.58 331.492 10.8507 332.033 11.392C332.584 11.924 332.859 12.7033 332.859 13.73V18H331.865V13.828C331.865 13.0627 331.674 12.4793 331.291 12.078C330.909 11.6767 330.363 11.476 329.653 11.476C328.86 11.476 328.23 11.714 327.763 12.19C327.306 12.6567 327.077 13.3053 327.077 14.136V18H326.083V7.612H327.077V11.924C327.348 11.4947 327.721 11.1633 328.197 10.93C328.673 10.6967 329.219 10.58 329.835 10.58ZM339.436 17.552C339.249 17.72 339.016 17.8507 338.736 17.944C338.465 18.028 338.181 18.07 337.882 18.07C337.191 18.07 336.659 17.8833 336.286 17.51C335.913 17.1367 335.726 16.6093 335.726 15.928V11.476H334.41V10.636H335.726V9.026H336.72V10.636H338.96V11.476H336.72V15.872C336.72 16.3107 336.827 16.6467 337.042 16.88C337.266 17.104 337.583 17.216 337.994 17.216C338.199 17.216 338.395 17.1833 338.582 17.118C338.778 17.0527 338.946 16.9593 339.086 16.838L339.436 17.552ZM341.343 12.106C341.138 12.106 340.961 12.0313 340.811 11.882C340.671 11.7327 340.601 11.5507 340.601 11.336C340.601 11.1213 340.671 10.944 340.811 10.804C340.961 10.6547 341.138 10.58 341.343 10.58C341.549 10.58 341.726 10.6547 341.875 10.804C342.025 10.944 342.099 11.1213 342.099 11.336C342.099 11.5507 342.025 11.7327 341.875 11.882C341.726 12.0313 341.549 12.106 341.343 12.106ZM341.343 18.07C341.138 18.07 340.961 17.9953 340.811 17.846C340.671 17.6967 340.601 17.5147 340.601 17.3C340.601 17.0853 340.671 16.908 340.811 16.768C340.961 16.6187 341.138 16.544 341.343 16.544C341.549 16.544 341.726 16.6187 341.875 16.768C342.025 16.908 342.099 17.0853 342.099 17.3C342.099 17.5147 342.025 17.6967 341.875 17.846C341.726 17.9953 341.549 18.07 341.343 18.07ZM354.232 15.382H348.772L347.596 18H346.518L350.998 8.2H352.02L356.5 18H355.408L354.232 15.382ZM353.854 14.542L351.502 9.278L349.15 14.542H353.854ZM364.563 7.612V18H363.611V16.544C363.312 17.0387 362.916 17.4167 362.421 17.678C361.936 17.9393 361.385 18.07 360.769 18.07C360.078 18.07 359.453 17.9113 358.893 17.594C358.333 17.2767 357.894 16.8333 357.577 16.264C357.26 15.6947 357.101 15.046 357.101 14.318C357.101 13.59 357.26 12.9413 357.577 12.372C357.894 11.8027 358.333 11.364 358.893 11.056C359.453 10.7387 360.078 10.58 360.769 10.58C361.366 10.58 361.903 10.706 362.379 10.958C362.864 11.2007 363.261 11.56 363.569 12.036V7.612H364.563ZM360.853 17.188C361.366 17.188 361.828 17.0713 362.239 16.838C362.659 16.5953 362.986 16.2547 363.219 15.816C363.462 15.3773 363.583 14.878 363.583 14.318C363.583 13.758 363.462 13.2587 363.219 12.82C362.986 12.3813 362.659 12.0453 362.239 11.812C361.828 11.5693 361.366 11.448 360.853 11.448C360.33 11.448 359.859 11.5693 359.439 11.812C359.028 12.0453 358.702 12.3813 358.459 12.82C358.226 13.2587 358.109 13.758 358.109 14.318C358.109 14.878 358.226 15.3773 358.459 15.816C358.702 16.2547 359.028 16.5953 359.439 16.838C359.859 17.0713 360.33 17.188 360.853 17.188ZM373.967 10.636V18H373.015V16.656C372.754 17.104 372.395 17.454 371.937 17.706C371.48 17.9487 370.957 18.07 370.369 18.07C369.408 18.07 368.647 17.804 368.087 17.272C367.537 16.7307 367.261 15.942 367.261 14.906V10.636H368.255V14.808C368.255 15.5827 368.447 16.1707 368.829 16.572C369.212 16.9733 369.758 17.174 370.467 17.174C371.242 17.174 371.853 16.9407 372.301 16.474C372.749 15.998 372.973 15.34 372.973 14.5V10.636H373.967ZM376.751 7.612H377.745V18H376.751V7.612ZM384.416 17.552C384.23 17.72 383.996 17.8507 383.716 17.944C383.446 18.028 383.161 18.07 382.862 18.07C382.172 18.07 381.64 17.8833 381.266 17.51C380.893 17.1367 380.706 16.6093 380.706 15.928V11.476H379.39V10.636H380.706V9.026H381.7V10.636H383.94V11.476H381.7V15.872C381.7 16.3107 381.808 16.6467 382.022 16.88C382.246 17.104 382.564 17.216 382.974 17.216C383.18 17.216 383.376 17.1833 383.562 17.118C383.758 17.0527 383.926 16.9593 384.066 16.838L384.416 17.552Z" fill="#686361" fill-opacity="0.5"/>
<path d="M68.08 37.716C67.5573 36.8573 67.156 35.8727 66.876 34.762C66.596 33.642 66.456 32.4427 66.456 31.164C66.456 29.8853 66.596 28.686 66.876 27.566C67.156 26.4367 67.5573 25.452 68.08 24.612H69.032C68.4813 25.5547 68.0753 26.5673 67.814 27.65C67.562 28.7327 67.436 29.904 67.436 31.164C67.436 32.424 67.562 33.5953 67.814 34.678C68.0753 35.7607 68.4813 36.7733 69.032 37.716H68.08ZM73.6674 29.4C74.6941 29.456 75.4734 29.736 76.0054 30.24C76.5468 30.7347 76.8174 31.3833 76.8174 32.186C76.8174 32.746 76.6821 33.2453 76.4114 33.684C76.1408 34.1133 75.7394 34.454 75.2074 34.706C74.6754 34.958 74.0268 35.084 73.2614 35.084C72.5521 35.084 71.8801 34.972 71.2454 34.748C70.6201 34.5147 70.1161 34.2067 69.7334 33.824L70.2234 33.026C70.5501 33.362 70.9841 33.6373 71.5254 33.852C72.0668 34.0573 72.6454 34.16 73.2614 34.16C74.0641 34.16 74.6848 33.9873 75.1234 33.642C75.5621 33.2873 75.7814 32.802 75.7814 32.186C75.7814 31.5793 75.5621 31.1033 75.1234 30.758C74.6848 30.4127 74.0221 30.24 73.1354 30.24H72.4354V29.498L75.1514 26.096H70.1394V25.2H76.4394V25.914L73.6674 29.4ZM82.1438 35.084C81.3878 35.084 80.7111 34.8833 80.1138 34.482C79.5258 34.0807 79.0638 33.5067 78.7278 32.76C78.4011 32.004 78.2378 31.1173 78.2378 30.1C78.2378 29.0827 78.4011 28.2007 78.7278 27.454C79.0638 26.698 79.5258 26.1193 80.1138 25.718C80.7111 25.3167 81.3878 25.116 82.1438 25.116C82.8998 25.116 83.5718 25.3167 84.1598 25.718C84.7571 26.1193 85.2238 26.698 85.5598 27.454C85.8958 28.2007 86.0638 29.0827 86.0638 30.1C86.0638 31.1173 85.8958 32.004 85.5598 32.76C85.2238 33.5067 84.7571 34.0807 84.1598 34.482C83.5718 34.8833 82.8998 35.084 82.1438 35.084ZM82.1438 34.16C82.7131 34.16 83.2124 34.0013 83.6418 33.684C84.0804 33.3667 84.4211 32.9047 84.6638 32.298C84.9064 31.6913 85.0278 30.9587 85.0278 30.1C85.0278 29.2413 84.9064 28.5087 84.6638 27.902C84.4211 27.2953 84.0804 26.8333 83.6418 26.516C83.2124 26.1987 82.7131 26.04 82.1438 26.04C81.5744 26.04 81.0704 26.1987 80.6318 26.516C80.2024 26.8333 79.8664 27.2953 79.6238 27.902C79.3811 28.5087 79.2598 29.2413 79.2598 30.1C79.2598 30.9587 79.3811 31.6913 79.6238 32.298C79.8664 32.9047 80.2024 33.3667 80.6318 33.684C81.0704 34.0013 81.5744 34.16 82.1438 34.16ZM98.0174 27.636L94.3354 35.882C94.0367 36.5727 93.6914 37.0627 93.2994 37.352C92.9074 37.6413 92.436 37.786 91.8854 37.786C91.5307 37.786 91.1994 37.73 90.8914 37.618C90.5834 37.506 90.3174 37.338 90.0934 37.114L90.5554 36.372C90.9287 36.7453 91.3767 36.932 91.8994 36.932C92.2354 36.932 92.52 36.8387 92.7534 36.652C92.996 36.4653 93.22 36.148 93.4254 35.7L93.7474 34.986L90.4574 27.636H91.4934L94.2654 33.894L97.0374 27.636H98.0174ZM105.624 31.626H99.4642C99.5202 32.3913 99.8142 33.012 100.346 33.488C100.878 33.9547 101.55 34.188 102.362 34.188C102.82 34.188 103.24 34.1087 103.622 33.95C104.005 33.782 104.336 33.5393 104.616 33.222L105.176 33.866C104.85 34.258 104.439 34.5567 103.944 34.762C103.459 34.9673 102.922 35.07 102.334 35.07C101.578 35.07 100.906 34.9113 100.318 34.594C99.7395 34.2673 99.2868 33.8193 98.9602 33.25C98.6335 32.6807 98.4702 32.0367 98.4702 31.318C98.4702 30.5993 98.6242 29.9553 98.9322 29.386C99.2495 28.8167 99.6788 28.3733 100.22 28.056C100.771 27.7387 101.387 27.58 102.068 27.58C102.75 27.58 103.361 27.7387 103.902 28.056C104.444 28.3733 104.868 28.8167 105.176 29.386C105.484 29.946 105.638 30.59 105.638 31.318L105.624 31.626ZM102.068 28.434C101.359 28.434 100.762 28.6627 100.276 29.12C99.8002 29.568 99.5295 30.156 99.4642 30.884H104.686C104.621 30.156 104.346 29.568 103.86 29.12C103.384 28.6627 102.787 28.434 102.068 28.434ZM110.032 27.58C110.994 27.58 111.731 27.8227 112.244 28.308C112.758 28.784 113.014 29.4933 113.014 30.436V35H112.062V33.852C111.838 34.2347 111.507 34.5333 111.068 34.748C110.639 34.9627 110.126 35.07 109.528 35.07C108.707 35.07 108.054 34.874 107.568 34.482C107.083 34.09 106.84 33.572 106.84 32.928C106.84 32.3027 107.064 31.7987 107.512 31.416C107.97 31.0333 108.693 30.842 109.682 30.842H112.02V30.394C112.02 29.7593 111.843 29.2787 111.488 28.952C111.134 28.616 110.616 28.448 109.934 28.448C109.468 28.448 109.02 28.5273 108.59 28.686C108.161 28.8353 107.792 29.0453 107.484 29.316L107.036 28.574C107.41 28.2567 107.858 28.014 108.38 27.846C108.903 27.6687 109.454 27.58 110.032 27.58ZM109.682 34.286C110.242 34.286 110.723 34.16 111.124 33.908C111.526 33.6467 111.824 33.2733 112.02 32.788V31.584H109.71C108.45 31.584 107.82 32.0227 107.82 32.9C107.82 33.3293 107.984 33.67 108.31 33.922C108.637 34.1647 109.094 34.286 109.682 34.286ZM116.666 29.078C116.899 28.5833 117.245 28.21 117.702 27.958C118.169 27.706 118.743 27.58 119.424 27.58V28.546L119.186 28.532C118.411 28.532 117.805 28.77 117.366 29.246C116.927 29.722 116.708 30.3893 116.708 31.248V35H115.714V27.636H116.666V29.078ZM123.253 35.07C122.655 35.07 122.081 34.986 121.531 34.818C120.989 34.6407 120.565 34.4213 120.257 34.16L120.705 33.376C121.013 33.6187 121.4 33.8193 121.867 33.978C122.333 34.1273 122.819 34.202 123.323 34.202C123.995 34.202 124.489 34.0993 124.807 33.894C125.133 33.6793 125.297 33.3807 125.297 32.998C125.297 32.7273 125.208 32.5173 125.031 32.368C124.853 32.2093 124.629 32.0927 124.359 32.018C124.088 31.934 123.729 31.8547 123.281 31.78C122.683 31.668 122.203 31.556 121.839 31.444C121.475 31.3227 121.162 31.122 120.901 30.842C120.649 30.562 120.523 30.1747 120.523 29.68C120.523 29.064 120.779 28.56 121.293 28.168C121.806 27.776 122.52 27.58 123.435 27.58C123.911 27.58 124.387 27.6453 124.863 27.776C125.339 27.8973 125.731 28.0607 126.039 28.266L125.605 29.064C124.998 28.644 124.275 28.434 123.435 28.434C122.8 28.434 122.319 28.546 121.993 28.77C121.675 28.994 121.517 29.288 121.517 29.652C121.517 29.932 121.605 30.156 121.783 30.324C121.969 30.492 122.198 30.618 122.469 30.702C122.739 30.7767 123.113 30.856 123.589 30.94C124.177 31.052 124.648 31.164 125.003 31.276C125.357 31.388 125.661 31.5793 125.913 31.85C126.165 32.1207 126.291 32.494 126.291 32.97C126.291 33.614 126.02 34.1273 125.479 34.51C124.947 34.8833 124.205 35.07 123.253 35.07ZM134.802 35.07C134.093 35.07 133.454 34.9113 132.884 34.594C132.315 34.2673 131.867 33.8193 131.54 33.25C131.214 32.6807 131.05 32.0367 131.05 31.318C131.05 30.5993 131.214 29.9553 131.54 29.386C131.867 28.8167 132.315 28.3733 132.884 28.056C133.454 27.7387 134.093 27.58 134.802 27.58C135.512 27.58 136.151 27.7387 136.72 28.056C137.29 28.3733 137.733 28.8167 138.05 29.386C138.377 29.9553 138.54 30.5993 138.54 31.318C138.54 32.0367 138.377 32.6807 138.05 33.25C137.733 33.8193 137.29 34.2673 136.72 34.594C136.151 34.9113 135.512 35.07 134.802 35.07ZM134.802 34.188C135.325 34.188 135.792 34.0713 136.202 33.838C136.622 33.5953 136.949 33.2547 137.182 32.816C137.416 32.3773 137.532 31.878 137.532 31.318C137.532 30.758 137.416 30.2587 137.182 29.82C136.949 29.3813 136.622 29.0453 136.202 28.812C135.792 28.5693 135.325 28.448 134.802 28.448C134.28 28.448 133.808 28.5693 133.388 28.812C132.978 29.0453 132.651 29.3813 132.408 29.82C132.175 30.2587 132.058 30.758 132.058 31.318C132.058 31.878 132.175 32.3773 132.408 32.816C132.651 33.2547 132.978 33.5953 133.388 33.838C133.808 34.0713 134.28 34.188 134.802 34.188ZM140.57 24.612H141.564V35H140.57V24.612ZM151.049 24.612V35H150.097V33.544C149.799 34.0387 149.402 34.4167 148.907 34.678C148.422 34.9393 147.871 35.07 147.255 35.07C146.565 35.07 145.939 34.9113 145.379 34.594C144.819 34.2767 144.381 33.8333 144.063 33.264C143.746 32.6947 143.587 32.046 143.587 31.318C143.587 30.59 143.746 29.9413 144.063 29.372C144.381 28.8027 144.819 28.364 145.379 28.056C145.939 27.7387 146.565 27.58 147.255 27.58C147.853 27.58 148.389 27.706 148.865 27.958C149.351 28.2007 149.747 28.56 150.055 29.036V24.612H151.049ZM147.339 34.188C147.853 34.188 148.315 34.0713 148.725 33.838C149.145 33.5953 149.472 33.2547 149.705 32.816C149.948 32.3773 150.069 31.878 150.069 31.318C150.069 30.758 149.948 30.2587 149.705 29.82C149.472 29.3813 149.145 29.0453 148.725 28.812C148.315 28.5693 147.853 28.448 147.339 28.448C146.817 28.448 146.345 28.5693 145.925 28.812C145.515 29.0453 145.188 29.3813 144.945 29.82C144.712 30.2587 144.595 30.758 144.595 31.318C144.595 31.878 144.712 32.3773 144.945 32.816C145.188 33.2547 145.515 33.5953 145.925 33.838C146.345 34.0713 146.817 34.188 147.339 34.188ZM152.992 37.716C153.542 36.7733 153.948 35.7653 154.21 34.692C154.471 33.6093 154.602 32.4333 154.602 31.164C154.602 29.8947 154.471 28.7233 154.21 27.65C153.948 26.5673 153.542 25.5547 152.992 24.612H153.944C154.466 25.452 154.868 26.4367 155.148 27.566C155.437 28.686 155.582 29.8853 155.582 31.164C155.582 32.4427 155.442 33.642 155.162 34.762C154.882 35.882 154.476 36.8667 153.944 37.716H152.992Z" fill="#686361"/>
<g clip-path="url(#clip0_404_559)">
<path d="M39.8582 22.6341C41.1817 22.6341 42.3278 22.1594 43.2642 21.2228C44.2007 20.2863 44.6754 19.1406 44.6754 17.8169C44.6754 16.4936 44.2007 15.3477 43.2641 14.411C42.3275 13.4747 41.1816 13 39.8582 13C38.5345 13 37.3887 13.4747 36.4523 14.4111C35.5159 15.3476 35.041 16.4935 35.041 17.8169C35.041 19.1406 35.5159 20.2865 36.4524 21.2229C37.389 22.1592 38.535 22.6341 39.8582 22.6341Z" fill="#C8D1DC"/>
<path d="M48.2862 28.3789C48.2592 27.9891 48.2046 27.564 48.1242 27.1151C48.043 26.6629 47.9385 26.2353 47.8134 25.8445C47.6841 25.4406 47.5083 25.0418 47.291 24.6595C47.0655 24.2628 46.8006 23.9174 46.5034 23.6331C46.1926 23.3357 45.812 23.0966 45.372 22.9222C44.9334 22.7487 44.4474 22.6608 43.9276 22.6608C43.7234 22.6608 43.526 22.7446 43.1446 22.9928C42.91 23.1459 42.6355 23.3229 42.3291 23.5186C42.0671 23.6856 41.7121 23.842 41.2738 23.9836C40.8461 24.122 40.4118 24.1922 39.9832 24.1922C39.5546 24.1922 39.1205 24.122 38.6923 23.9836C38.2544 23.8421 37.8994 23.6857 37.6378 23.5188C37.3343 23.3249 37.0596 23.1479 36.8214 22.9927C36.4406 22.7444 36.243 22.6606 36.0388 22.6606C35.5188 22.6606 35.0329 22.7487 34.5946 22.9223C34.1548 23.0964 33.7741 23.3355 33.463 23.6332C33.1659 23.9177 32.9008 24.263 32.6756 24.6595C32.4585 25.0418 32.2827 25.4405 32.1533 25.8447C32.0283 26.2355 31.9238 26.6629 31.8427 27.1151C31.7622 27.5634 31.7076 27.9887 31.6806 28.3793C31.6541 28.762 31.6406 29.1592 31.6406 29.5603C31.6406 30.6043 31.9725 31.4495 32.6269 32.0728C33.2733 32.6879 34.1286 33 35.1686 33H44.7987C45.8387 33 46.6937 32.6881 47.3402 32.0728C47.9948 31.45 48.3267 30.6046 48.3267 29.5602C48.3265 29.1572 48.3129 28.7597 48.2862 28.3789Z" fill="#C8D1DC"/>
</g>
<defs>
<clipPath id="clip0_404_559">
<rect width="19.9999" height="20" fill="white" transform="translate(30 13)"/>
</clipPath>
</defs>
</svg>
