<svg width="178" height="176" viewBox="0 0 178 176" fill="none" xmlns="http://www.w3.org/2000/svg">
<rect width="178" height="176" rx="10" fill="white"/>
<rect x="0.5" y="0.5" width="177" height="175" rx="9.5" stroke="#A9B7C8" stroke-opacity="0.5"/>
<path d="M44.8567 113.176C45.4967 113.379 45.998 113.72 46.3607 114.2C46.7234 114.669 46.9047 115.251 46.9047 115.944C46.9047 116.925 46.5207 117.683 45.7527 118.216C44.9954 118.739 43.886 119 42.4247 119H36.6327V107.8H42.1047C43.47 107.8 44.5154 108.061 45.2407 108.584C45.9767 109.107 46.3447 109.816 46.3447 110.712C46.3447 111.256 46.2114 111.741 45.9447 112.168C45.6887 112.595 45.326 112.931 44.8567 113.176ZM39.2087 109.752V112.392H41.7847C42.4247 112.392 42.91 112.28 43.2407 112.056C43.5714 111.832 43.7367 111.501 43.7367 111.064C43.7367 110.627 43.5714 110.301 43.2407 110.088C42.91 109.864 42.4247 109.752 41.7847 109.752H39.2087ZM42.2327 117.048C42.9154 117.048 43.4274 116.936 43.7687 116.712C44.1207 116.488 44.2967 116.141 44.2967 115.672C44.2967 114.744 43.6087 114.28 42.2327 114.28H39.2087V117.048H42.2327ZM52.1631 110.264C53.4964 110.264 54.5204 110.584 55.2351 111.224C55.9497 111.853 56.3071 112.808 56.3071 114.088V119H53.9711V117.928C53.5017 118.728 52.6271 119.128 51.3471 119.128C50.6857 119.128 50.1097 119.016 49.6191 118.792C49.1391 118.568 48.7711 118.259 48.5151 117.864C48.2591 117.469 48.1311 117.021 48.1311 116.52C48.1311 115.72 48.4297 115.091 49.0271 114.632C49.6351 114.173 50.5684 113.944 51.8271 113.944H53.8111C53.8111 113.4 53.6457 112.984 53.3151 112.696C52.9844 112.397 52.4884 112.248 51.8271 112.248C51.3684 112.248 50.9151 112.323 50.4671 112.472C50.0297 112.611 49.6564 112.803 49.3471 113.048L48.4511 111.304C48.9204 110.973 49.4804 110.717 50.1311 110.536C50.7924 110.355 51.4697 110.264 52.1631 110.264ZM51.9711 117.448C52.3977 117.448 52.7764 117.352 53.1071 117.16C53.4377 116.957 53.6724 116.664 53.8111 116.28V115.4H52.0991C51.0751 115.4 50.5631 115.736 50.5631 116.408C50.5631 116.728 50.6857 116.984 50.9311 117.176C51.1871 117.357 51.5337 117.448 51.9711 117.448ZM67.4278 107.128V119H65.0438V118.008C64.4251 118.755 63.5291 119.128 62.3558 119.128C61.5451 119.128 60.8091 118.947 60.1478 118.584C59.4971 118.221 58.9851 117.704 58.6118 117.032C58.2385 116.36 58.0518 115.581 58.0518 114.696C58.0518 113.811 58.2385 113.032 58.6118 112.36C58.9851 111.688 59.4971 111.171 60.1478 110.808C60.8091 110.445 61.5451 110.264 62.3558 110.264C63.4545 110.264 64.3131 110.611 64.9318 111.304V107.128H67.4278ZM62.7878 117.08C63.4171 117.08 63.9398 116.867 64.3558 116.44C64.7718 116.003 64.9798 115.421 64.9798 114.696C64.9798 113.971 64.7718 113.395 64.3558 112.968C63.9398 112.531 63.4171 112.312 62.7878 112.312C62.1478 112.312 61.6198 112.531 61.2038 112.968C60.7878 113.395 60.5798 113.971 60.5798 114.696C60.5798 115.421 60.7878 116.003 61.2038 116.44C61.6198 116.867 62.1478 117.08 62.7878 117.08ZM88.0932 110.392L84.9732 119H82.5732L80.6372 113.656L78.6372 119H76.2372L73.1332 110.392H75.4852L77.5172 116.216L79.6292 110.392H81.7412L83.7892 116.216L85.8852 110.392H88.0932ZM97.4512 114.728C97.4512 114.76 97.4352 114.984 97.4032 115.4H90.8912C91.0085 115.933 91.2859 116.355 91.7232 116.664C92.1605 116.973 92.7045 117.128 93.3552 117.128C93.8032 117.128 94.1979 117.064 94.5392 116.936C94.8912 116.797 95.2165 116.584 95.5152 116.296L96.8432 117.736C96.0325 118.664 94.8485 119.128 93.2912 119.128C92.3205 119.128 91.4619 118.941 90.7152 118.568C89.9685 118.184 89.3925 117.656 88.9872 116.984C88.5819 116.312 88.3792 115.549 88.3792 114.696C88.3792 113.853 88.5765 113.096 88.9712 112.424C89.3765 111.741 89.9259 111.213 90.6192 110.84C91.3232 110.456 92.1072 110.264 92.9712 110.264C93.8139 110.264 94.5765 110.445 95.2592 110.808C95.9419 111.171 96.4752 111.693 96.8592 112.376C97.2539 113.048 97.4512 113.832 97.4512 114.728ZM92.9872 112.152C92.4219 112.152 91.9472 112.312 91.5632 112.632C91.1792 112.952 90.9445 113.389 90.8592 113.944H95.0992C95.0139 113.4 94.7792 112.968 94.3952 112.648C94.0112 112.317 93.5419 112.152 92.9872 112.152ZM102.351 110.264C103.684 110.264 104.708 110.584 105.423 111.224C106.137 111.853 106.495 112.808 106.495 114.088V119H104.159V117.928C103.689 118.728 102.815 119.128 101.535 119.128C100.873 119.128 100.297 119.016 99.8066 118.792C99.3266 118.568 98.9586 118.259 98.7026 117.864C98.4466 117.469 98.3186 117.021 98.3186 116.52C98.3186 115.72 98.6172 115.091 99.2146 114.632C99.8226 114.173 100.756 113.944 102.015 113.944H103.999C103.999 113.4 103.833 112.984 103.503 112.696C103.172 112.397 102.676 112.248 102.015 112.248C101.556 112.248 101.103 112.323 100.655 112.472C100.217 112.611 99.8439 112.803 99.5346 113.048L98.6386 111.304C99.1079 110.973 99.6679 110.717 100.319 110.536C100.98 110.355 101.657 110.264 102.351 110.264ZM102.159 117.448C102.585 117.448 102.964 117.352 103.295 117.16C103.625 116.957 103.86 116.664 103.999 116.28V115.4H102.287C101.263 115.4 100.751 115.736 100.751 116.408C100.751 116.728 100.873 116.984 101.119 117.176C101.375 117.357 101.721 117.448 102.159 117.448ZM114.306 118.584C114.06 118.765 113.756 118.904 113.394 119C113.042 119.085 112.668 119.128 112.274 119.128C111.25 119.128 110.455 118.867 109.89 118.344C109.335 117.821 109.058 117.053 109.058 116.04V112.504H107.73V110.584H109.058V108.488H111.554V110.584H113.698V112.504H111.554V116.008C111.554 116.371 111.644 116.653 111.826 116.856C112.018 117.048 112.284 117.144 112.626 117.144C113.02 117.144 113.356 117.037 113.634 116.824L114.306 118.584ZM120.939 110.264C122.005 110.264 122.864 110.584 123.515 111.224C124.176 111.864 124.507 112.813 124.507 114.072V119H122.011V114.456C122.011 113.773 121.861 113.267 121.563 112.936C121.264 112.595 120.832 112.424 120.267 112.424C119.637 112.424 119.136 112.621 118.763 113.016C118.389 113.4 118.203 113.976 118.203 114.744V119H115.707V107.128H118.203V111.288C118.533 110.957 118.933 110.707 119.403 110.536C119.872 110.355 120.384 110.264 120.939 110.264ZM135.295 114.728C135.295 114.76 135.279 114.984 135.247 115.4H128.735C128.852 115.933 129.13 116.355 129.567 116.664C130.004 116.973 130.548 117.128 131.199 117.128C131.647 117.128 132.042 117.064 132.383 116.936C132.735 116.797 133.06 116.584 133.359 116.296L134.687 117.736C133.876 118.664 132.692 119.128 131.135 119.128C130.164 119.128 129.306 118.941 128.559 118.568C127.812 118.184 127.236 117.656 126.831 116.984C126.426 116.312 126.223 115.549 126.223 114.696C126.223 113.853 126.42 113.096 126.815 112.424C127.22 111.741 127.77 111.213 128.463 110.84C129.167 110.456 129.951 110.264 130.815 110.264C131.658 110.264 132.42 110.445 133.103 110.808C133.786 111.171 134.319 111.693 134.703 112.376C135.098 113.048 135.295 113.832 135.295 114.728ZM130.831 112.152C130.266 112.152 129.791 112.312 129.407 112.632C129.023 112.952 128.788 113.389 128.703 113.944H132.943C132.858 113.4 132.623 112.968 132.239 112.648C131.855 112.317 131.386 112.152 130.831 112.152ZM139.341 111.528C139.639 111.112 140.039 110.797 140.541 110.584C141.053 110.371 141.639 110.264 142.301 110.264V112.568C142.023 112.547 141.837 112.536 141.741 112.536C141.026 112.536 140.466 112.739 140.061 113.144C139.655 113.539 139.453 114.136 139.453 114.936V119H136.957V110.392H139.341V111.528ZM49.9683 139.128C49.0509 139.128 48.2243 138.941 47.4883 138.568C46.7629 138.184 46.1923 137.656 45.7763 136.984C45.3709 136.312 45.1683 135.549 45.1683 134.696C45.1683 133.843 45.3709 133.08 45.7763 132.408C46.1923 131.736 46.7629 131.213 47.4883 130.84C48.2243 130.456 49.0509 130.264 49.9683 130.264C50.8749 130.264 51.6643 130.456 52.3363 130.84C53.0189 131.213 53.5149 131.752 53.8243 132.456L51.8883 133.496C51.4403 132.707 50.7949 132.312 49.9523 132.312C49.3016 132.312 48.7629 132.525 48.3363 132.952C47.9096 133.379 47.6963 133.96 47.6963 134.696C47.6963 135.432 47.9096 136.013 48.3363 136.44C48.7629 136.867 49.3016 137.08 49.9523 137.08C50.8056 137.08 51.4509 136.685 51.8883 135.896L53.8243 136.952C53.5149 137.635 53.0189 138.168 52.3363 138.552C51.6643 138.936 50.8749 139.128 49.9683 139.128ZM59.248 139.128C58.3413 139.128 57.5253 138.941 56.8 138.568C56.0853 138.184 55.5253 137.656 55.12 136.984C54.7147 136.312 54.512 135.549 54.512 134.696C54.512 133.843 54.7147 133.08 55.12 132.408C55.5253 131.736 56.0853 131.213 56.8 130.84C57.5253 130.456 58.3413 130.264 59.248 130.264C60.1547 130.264 60.9653 130.456 61.68 130.84C62.3947 131.213 62.9547 131.736 63.36 132.408C63.7653 133.08 63.968 133.843 63.968 134.696C63.968 135.549 63.7653 136.312 63.36 136.984C62.9547 137.656 62.3947 138.184 61.68 138.568C60.9653 138.941 60.1547 139.128 59.248 139.128ZM59.248 137.08C59.888 137.08 60.4107 136.867 60.816 136.44C61.232 136.003 61.44 135.421 61.44 134.696C61.44 133.971 61.232 133.395 60.816 132.968C60.4107 132.531 59.888 132.312 59.248 132.312C58.608 132.312 58.08 132.531 57.664 132.968C57.248 133.395 57.04 133.971 57.04 134.696C57.04 135.421 57.248 136.003 57.664 136.44C58.08 136.867 58.608 137.08 59.248 137.08ZM70.8684 130.264C71.935 130.264 72.7937 130.584 73.4444 131.224C74.1057 131.864 74.4364 132.813 74.4364 134.072V139H71.9404V134.456C71.9404 133.773 71.791 133.267 71.4924 132.936C71.1937 132.595 70.7617 132.424 70.1964 132.424C69.567 132.424 69.0657 132.621 68.6924 133.016C68.319 133.4 68.1324 133.976 68.1324 134.744V139H65.6364V130.392H68.0204V131.4C68.351 131.037 68.7617 130.76 69.2524 130.568C69.743 130.365 70.2817 130.264 70.8684 130.264ZM85.5606 127.128V139H83.1766V138.008C82.558 138.755 81.662 139.128 80.4886 139.128C79.678 139.128 78.942 138.947 78.2806 138.584C77.63 138.221 77.118 137.704 76.7446 137.032C76.3713 136.36 76.1846 135.581 76.1846 134.696C76.1846 133.811 76.3713 133.032 76.7446 132.36C77.118 131.688 77.63 131.171 78.2806 130.808C78.942 130.445 79.678 130.264 80.4886 130.264C81.5873 130.264 82.446 130.611 83.0646 131.304V127.128H85.5606ZM80.9206 137.08C81.55 137.08 82.0726 136.867 82.4886 136.44C82.9046 136.003 83.1126 135.421 83.1126 134.696C83.1126 133.971 82.9046 133.395 82.4886 132.968C82.0726 132.531 81.55 132.312 80.9206 132.312C80.2806 132.312 79.7526 132.531 79.3366 132.968C78.9206 133.395 78.7126 133.971 78.7126 134.696C78.7126 135.421 78.9206 136.003 79.3366 136.44C79.7526 136.867 80.2806 137.08 80.9206 137.08ZM87.8708 130.392H90.3668V139H87.8708V130.392ZM89.1188 129.192C88.6601 129.192 88.2868 129.059 87.9988 128.792C87.7108 128.525 87.5668 128.195 87.5668 127.8C87.5668 127.405 87.7108 127.075 87.9988 126.808C88.2868 126.541 88.6601 126.408 89.1188 126.408C89.5774 126.408 89.9508 126.536 90.2388 126.792C90.5268 127.048 90.6708 127.368 90.6708 127.752C90.6708 128.168 90.5268 128.515 90.2388 128.792C89.9508 129.059 89.5774 129.192 89.1188 129.192ZM98.2353 138.584C97.9899 138.765 97.6859 138.904 97.3233 139C96.9713 139.085 96.5979 139.128 96.2033 139.128C95.1793 139.128 94.3846 138.867 93.8193 138.344C93.2646 137.821 92.9873 137.053 92.9873 136.04V132.504H91.6593V130.584H92.9873V128.488H95.4833V130.584H97.6273V132.504H95.4833V136.008C95.4833 136.371 95.5739 136.653 95.7552 136.856C95.9473 137.048 96.2139 137.144 96.5553 137.144C96.9499 137.144 97.2859 137.037 97.5633 136.824L98.2353 138.584ZM99.6364 130.392H102.132V139H99.6364V130.392ZM100.884 129.192C100.426 129.192 100.052 129.059 99.7644 128.792C99.4764 128.525 99.3324 128.195 99.3324 127.8C99.3324 127.405 99.4764 127.075 99.7644 126.808C100.052 126.541 100.426 126.408 100.884 126.408C101.343 126.408 101.716 126.536 102.004 126.792C102.292 127.048 102.436 127.368 102.436 127.752C102.436 128.168 102.292 128.515 102.004 128.792C101.716 129.059 101.343 129.192 100.884 129.192ZM108.545 139.128C107.638 139.128 106.822 138.941 106.097 138.568C105.382 138.184 104.822 137.656 104.417 136.984C104.012 136.312 103.809 135.549 103.809 134.696C103.809 133.843 104.012 133.08 104.417 132.408C104.822 131.736 105.382 131.213 106.097 130.84C106.822 130.456 107.638 130.264 108.545 130.264C109.452 130.264 110.262 130.456 110.977 130.84C111.692 131.213 112.252 131.736 112.657 132.408C113.062 133.08 113.265 133.843 113.265 134.696C113.265 135.549 113.062 136.312 112.657 136.984C112.252 137.656 111.692 138.184 110.977 138.568C110.262 138.941 109.452 139.128 108.545 139.128ZM108.545 137.08C109.185 137.08 109.708 136.867 110.113 136.44C110.529 136.003 110.737 135.421 110.737 134.696C110.737 133.971 110.529 133.395 110.113 132.968C109.708 132.531 109.185 132.312 108.545 132.312C107.905 132.312 107.377 132.531 106.961 132.968C106.545 133.395 106.337 133.971 106.337 134.696C106.337 135.421 106.545 136.003 106.961 136.44C107.377 136.867 107.905 137.08 108.545 137.08ZM120.165 130.264C121.232 130.264 122.091 130.584 122.741 131.224C123.403 131.864 123.733 132.813 123.733 134.072V139H121.237V134.456C121.237 133.773 121.088 133.267 120.789 132.936C120.491 132.595 120.059 132.424 119.493 132.424C118.864 132.424 118.363 132.621 117.989 133.016C117.616 133.4 117.429 133.976 117.429 134.744V139H114.933V130.392H117.317V131.4C117.648 131.037 118.059 130.76 118.549 130.568C119.04 130.365 119.579 130.264 120.165 130.264ZM128.892 139.128C128.177 139.128 127.478 139.043 126.796 138.872C126.113 138.691 125.569 138.467 125.164 138.2L125.996 136.408C126.38 136.653 126.844 136.856 127.388 137.016C127.932 137.165 128.465 137.24 128.988 137.24C130.044 137.24 130.572 136.979 130.572 136.456C130.572 136.211 130.428 136.035 130.14 135.928C129.852 135.821 129.409 135.731 128.812 135.656C128.108 135.549 127.526 135.427 127.068 135.288C126.609 135.149 126.209 134.904 125.868 134.552C125.537 134.2 125.372 133.699 125.372 133.048C125.372 132.504 125.526 132.024 125.836 131.608C126.156 131.181 126.614 130.851 127.212 130.616C127.82 130.381 128.534 130.264 129.356 130.264C129.964 130.264 130.566 130.333 131.164 130.472C131.772 130.6 132.273 130.781 132.668 131.016L131.836 132.792C131.078 132.365 130.252 132.152 129.356 132.152C128.822 132.152 128.422 132.227 128.156 132.376C127.889 132.525 127.756 132.717 127.756 132.952C127.756 133.219 127.9 133.405 128.188 133.512C128.476 133.619 128.934 133.72 129.564 133.816C130.268 133.933 130.844 134.061 131.292 134.2C131.74 134.328 132.129 134.568 132.46 134.92C132.79 135.272 132.956 135.763 132.956 136.392C132.956 136.925 132.796 137.4 132.476 137.816C132.156 138.232 131.686 138.557 131.068 138.792C130.46 139.016 129.734 139.128 128.892 139.128Z" fill="#686361"/>
<g clip-path="url(#clip0_56_1043)">
<path d="M111.373 53.0151C111.373 57.0643 108.09 60.3468 104.04 60.3468H77.5052C72.1216 60.3468 67.7559 55.9825 67.7559 50.5971C67.7559 45.2131 72.1216 40.8474 77.5052 40.8474C77.9886 40.8474 78.4634 40.8845 78.9283 40.9521C81.1304 36.5799 85.6585 33.5796 90.8897 33.5796C97.2192 33.5796 102.522 37.9738 103.915 43.8783C104.054 44.4671 104.154 45.0713 104.212 45.6865V45.6879C108.181 45.7789 111.373 49.024 111.373 53.0151Z" fill="#84ABC1"/>
<path d="M95.5414 34.411C94.0919 33.873 92.5246 33.5798 90.8893 33.5798C85.6581 33.5798 81.1317 36.5801 78.9283 40.9513V40.9527C78.4631 40.8851 77.9883 40.848 77.5052 40.848C72.1198 40.848 67.7559 45.2133 67.7559 50.5973C67.7559 55.9827 72.1198 60.347 77.5052 60.347H82.2177C77.3648 60.347 73.4327 56.4136 73.4327 51.5624C73.4327 47.2575 76.5295 43.6749 80.6181 42.9234C81.0229 42.8479 81.4373 42.8012 81.8596 42.7843C81.978 42.7802 82.0979 42.7775 82.2177 42.7775C83.7949 42.7775 85.2757 43.1932 86.5542 43.9228C86.3767 42.6851 85.0971 41.5257 83.2106 40.5912C84.2464 37.0879 87.772 33.839 95.5414 34.411Z" fill="#4D87A1"/>
<path d="M98.2627 45.4785L81.6901 60.354H85.8055L79.7929 67.293H84.1092L77.2832 77.2445L93.6453 65.8599H89.1282L96.3555 57.7393H91.8384L98.2627 45.4785Z" fill="#FFEE8C"/>
<path d="M109.756 47.422C108.424 46.0617 106.685 45.2336 104.81 45.0551C104.749 44.6091 104.666 44.1635 104.563 43.7247C103.849 40.6963 102.111 37.9507 99.6697 35.9938C97.1905 34.0066 94.0721 32.9121 90.8885 32.9121C87.894 32.9121 85.0362 33.8408 82.6237 35.5979C82.3257 35.8149 82.2601 36.2327 82.4771 36.5307C82.694 36.8287 83.1115 36.8943 83.4099 36.6773C85.5924 35.0874 88.1786 34.2473 90.8885 34.2473C93.8112 34.2473 96.5588 35.2113 98.8344 37.0354C101.044 38.807 102.617 41.2913 103.263 44.031C103.395 44.5923 103.49 45.1657 103.544 45.7352C103.568 46.0762 103.848 46.3477 104.195 46.3556C105.942 46.3958 107.578 47.1061 108.802 48.3558C110.028 49.6079 110.704 51.2627 110.704 53.0151C110.704 56.6893 107.714 59.6786 104.038 59.6786H95.5223L96.8537 58.1828C97.0285 57.9864 97.0717 57.7056 96.9639 57.4656C96.8565 57.2256 96.6179 57.0714 96.3549 57.0714H92.9412L98.8536 45.7881C99.0033 45.5021 98.9271 45.1495 98.672 44.9514C98.4169 44.753 98.0564 44.7657 97.8161 44.9816L81.4423 59.6786H77.5044C72.4963 59.6786 68.4221 55.6048 68.4221 50.5974C68.4221 45.5897 72.4963 41.5155 77.5044 41.5155C77.9356 41.5155 78.3822 41.5481 78.8317 41.6126C79.1156 41.6531 79.394 41.5082 79.5228 41.2521C80.0426 40.2204 80.7021 39.2622 81.4828 38.4049C81.731 38.1323 81.7111 37.7101 81.4385 37.4618C81.1659 37.2136 80.7436 37.2332 80.4954 37.5058C79.7394 38.3359 79.0864 39.2519 78.5498 40.2335C78.1969 40.1981 77.8467 40.1803 77.5044 40.1803C71.7602 40.1803 67.0869 44.8532 67.0869 50.5974C67.0869 56.3412 71.7602 61.0138 77.5044 61.0138L84.343 61.0214L79.2876 66.8555C79.1163 67.0532 79.0764 67.3323 79.1849 67.5699C79.2934 67.8078 79.5307 67.9603 79.7923 67.9603H82.841L76.7322 76.8668C76.5499 77.1329 76.5836 77.4909 76.8122 77.7182C76.9413 77.8463 77.1113 77.9122 77.2829 77.9122C77.4151 77.9122 77.5487 77.8727 77.664 77.7924L84.5875 72.9752C84.8899 72.7644 84.9644 72.3483 84.754 72.0458C84.5435 71.7434 84.1274 71.6685 83.8246 71.879L79.8984 74.6111L84.6592 67.6702C84.7993 67.4659 84.8148 67.2009 84.6991 66.9815C84.5837 66.7624 84.3564 66.6251 84.1085 66.6251H81.2541L86.3096 60.791C86.4809 60.5936 86.5211 60.3141 86.4122 60.0765C86.3037 59.8386 86.0665 59.6862 85.8052 59.6862H83.4329L95.9518 48.4492L91.2466 57.4292C91.1381 57.6362 91.146 57.8848 91.2668 58.0846C91.3877 58.2844 91.6043 58.4066 91.8381 58.4066H94.8673L88.6291 65.4159C88.4543 65.6123 88.4111 65.8931 88.5185 66.1331C88.6263 66.3731 88.8649 66.5276 89.1279 66.5276H91.5164L85.6981 70.5761C85.3957 70.7865 85.3208 71.2026 85.5313 71.5051C85.7421 71.8079 86.1582 71.8824 86.4606 71.672L94.0261 66.4078C94.2654 66.2413 94.3691 65.9384 94.2819 65.66C94.1947 65.3816 93.9365 65.1924 93.645 65.1924H90.6155L94.3344 61.0142H104.039C108.45 61.0142 112.039 57.4257 112.039 53.0154C112.039 50.9112 111.228 48.9251 109.756 47.422Z" fill="black"/>
</g>
<defs>
<clipPath id="clip0_56_1043">
<rect width="45" height="45" fill="white" transform="translate(67 33)"/>
</clipPath>
</defs>
</svg>
