<svg width="232" height="25" viewBox="0 0 232 25" fill="none" xmlns="http://www.w3.org/2000/svg">
<path d="M37 5.192H30.112V3.4H45.96V5.192H39.072V23H37V5.192ZM63.1301 21.208V23H49.2701V3.4H62.7101V5.192H51.3421V12.164H61.4781V13.928H51.3421V21.208H63.1301ZM80.2926 17.764H69.3726L67.0206 23H64.8646L73.8246 3.4H75.8686L84.8286 23H82.6446L80.2926 17.764ZM79.5366 16.084L74.8326 5.556L70.1286 16.084H79.5366Z" fill="#686361"/>
<path d="M180.54 12.892C181.828 13.172 182.817 13.732 183.508 14.572C184.217 15.3933 184.572 16.4573 184.572 17.764C184.572 19.444 183.947 20.7413 182.696 21.656C181.464 22.552 179.635 23 177.208 23H168.192V3.4H176.648C178.832 3.4 180.521 3.83867 181.716 4.716C182.929 5.59333 183.536 6.83467 183.536 8.44C183.536 9.52267 183.265 10.4467 182.724 11.212C182.201 11.9587 181.473 12.5187 180.54 12.892ZM170.264 5.108V12.22H176.508C178.095 12.22 179.317 11.9213 180.176 11.324C181.035 10.708 181.464 9.82133 181.464 8.664C181.464 7.50667 181.035 6.62933 180.176 6.032C179.317 5.416 178.095 5.108 176.508 5.108H170.264ZM177.18 21.292C178.935 21.292 180.26 20.9933 181.156 20.396C182.052 19.7987 182.5 18.8653 182.5 17.596C182.5 15.1507 180.727 13.928 177.18 13.928H170.264V21.292H177.18ZM197.197 23.168C194.659 23.168 192.68 22.44 191.261 20.984C189.843 19.528 189.133 17.4093 189.133 14.628V3.4H191.205V14.544C191.205 16.8213 191.719 18.52 192.745 19.64C193.772 20.76 195.256 21.32 197.197 21.32C199.157 21.32 200.651 20.76 201.677 19.64C202.704 18.52 203.217 16.8213 203.217 14.544V3.4H205.233V14.628C205.233 17.4093 204.524 19.528 203.105 20.984C201.705 22.44 199.736 23.168 197.197 23.168ZM211.477 3.4H219.457C221.529 3.4 223.358 3.82 224.945 4.66C226.532 5.48133 227.764 6.63867 228.641 8.132C229.518 9.60667 229.957 11.296 229.957 13.2C229.957 15.104 229.518 16.8027 228.641 18.296C227.764 19.7707 226.532 20.928 224.945 21.768C223.358 22.5893 221.529 23 219.457 23H211.477V3.4ZM219.345 21.208C221.062 21.208 222.565 20.872 223.853 20.2C225.141 19.5093 226.14 18.5667 226.849 17.372C227.558 16.1587 227.913 14.768 227.913 13.2C227.913 11.632 227.558 10.2507 226.849 9.056C226.14 7.84267 225.141 6.9 223.853 6.228C222.565 5.53733 221.062 5.192 219.345 5.192H213.549V21.208H219.345Z" fill="#686361"/>
<g clip-path="url(#clip0_320_2007)">
<path d="M135 13C135 12.2 134.3 11.5 133.5 11.5H128L123 3.5H121L123.5 11.5H118L116.5 9.5H115L116 13L115 16.5H116.5L118 14.5H123.5L121 22.5H123L128 14.5H133.5C134.3 14.5 135 13.8 135 13Z" fill="#686361"/>
</g>
<g clip-path="url(#clip1_320_2007)">
<path d="M7.5 5C3.35813 5 0 8.35813 0 12.5C0 16.6419 3.35813 20 7.5 20C11.6419 20 15 16.6419 15 12.5C15 8.35813 11.6419 5 7.5 5ZM7.5 17.2875C6.91375 17.2875 6.5125 16.8356 6.5125 16.25C6.5125 15.6475 6.93062 15.2125 7.5 15.2125C8.10188 15.2125 8.4875 15.6475 8.4875 16.25C8.4875 16.8363 8.10188 17.2875 7.5 17.2875ZM7.88875 13.3256C7.73937 13.835 7.26875 13.8438 7.11187 13.3256C6.93125 12.7281 6.28937 10.46 6.28937 8.98688C6.28937 7.04313 8.72125 7.03375 8.72125 8.98688C8.72062 10.4688 8.04437 12.7956 7.88875 13.3256Z" fill="#E75D43"/>
</g>
<defs>
<clipPath id="clip0_320_2007">
<rect width="20" height="20" fill="white" transform="translate(115 3)"/>
</clipPath>
<clipPath id="clip1_320_2007">
<rect width="15" height="15" fill="white" transform="translate(0 5)"/>
</clipPath>
</defs>
</svg>
