<svg width="178" height="176" viewBox="0 0 178 176" fill="none" xmlns="http://www.w3.org/2000/svg">
<rect width="178" height="176" rx="10" fill="white"/>
<rect x="0.5" y="0.5" width="177" height="175" rx="9.5" stroke="#A9B7C8" stroke-opacity="0.5"/>
<path d="M70.008 119.192C69.1227 119.192 68.264 119.075 67.432 118.84C66.6107 118.595 65.9493 118.28 65.448 117.896L66.328 115.944C66.808 116.296 67.3787 116.579 68.04 116.792C68.7013 117.005 69.3627 117.112 70.024 117.112C70.76 117.112 71.304 117.005 71.656 116.792C72.008 116.568 72.184 116.275 72.184 115.912C72.184 115.645 72.0773 115.427 71.864 115.256C71.6613 115.075 71.3947 114.931 71.064 114.824C70.744 114.717 70.3067 114.6 69.752 114.472C68.8987 114.269 68.2 114.067 67.656 113.864C67.112 113.661 66.6427 113.336 66.248 112.888C65.864 112.44 65.672 111.843 65.672 111.096C65.672 110.445 65.848 109.859 66.2 109.336C66.552 108.803 67.08 108.381 67.784 108.072C68.4987 107.763 69.368 107.608 70.392 107.608C71.1067 107.608 71.8053 107.693 72.488 107.864C73.1707 108.035 73.768 108.28 74.28 108.6L73.48 110.568C72.4453 109.981 71.4107 109.688 70.376 109.688C69.6507 109.688 69.112 109.805 68.76 110.04C68.4187 110.275 68.248 110.584 68.248 110.968C68.248 111.352 68.4453 111.64 68.84 111.832C69.2453 112.013 69.8587 112.195 70.68 112.376C71.5333 112.579 72.232 112.781 72.776 112.984C73.32 113.187 73.784 113.507 74.168 113.944C74.5627 114.381 74.76 114.973 74.76 115.72C74.76 116.36 74.5787 116.947 74.216 117.48C73.864 118.003 73.3307 118.419 72.616 118.728C71.9013 119.037 71.032 119.192 70.008 119.192ZM81.9071 118.584C81.6618 118.765 81.3578 118.904 80.9951 119C80.6431 119.085 80.2698 119.128 79.8751 119.128C78.8511 119.128 78.0565 118.867 77.4911 118.344C76.9365 117.821 76.6591 117.053 76.6591 116.04V112.504H75.3311V110.584H76.6591V108.488H79.1551V110.584H81.2991V112.504H79.1551V116.008C79.1551 116.371 79.2458 116.653 79.4271 116.856C79.6191 117.048 79.8858 117.144 80.2271 117.144C80.6218 117.144 80.9578 117.037 81.2351 116.824L81.9071 118.584ZM85.6923 111.528C85.9909 111.112 86.3909 110.797 86.8923 110.584C87.4043 110.371 87.9909 110.264 88.6523 110.264V112.568C88.3749 112.547 88.1883 112.536 88.0923 112.536C87.3776 112.536 86.8176 112.739 86.4123 113.144C86.0069 113.539 85.8043 114.136 85.8043 114.936V119H83.3083V110.392H85.6923V111.528ZM90.1364 110.392H92.6324V119H90.1364V110.392ZM91.3844 109.192C90.9257 109.192 90.5524 109.059 90.2644 108.792C89.9764 108.525 89.8324 108.195 89.8324 107.8C89.8324 107.405 89.9764 107.075 90.2644 106.808C90.5524 106.541 90.9257 106.408 91.3844 106.408C91.843 106.408 92.2164 106.536 92.5044 106.792C92.7924 107.048 92.9364 107.368 92.9364 107.752C92.9364 108.168 92.7924 108.515 92.5044 108.792C92.2164 109.059 91.843 109.192 91.3844 109.192ZM98.6449 115.624L97.4449 116.808V119H94.9489V107.128H97.4449V113.848L101.093 110.392H104.069L100.485 114.04L104.389 119H101.365L98.6449 115.624ZM113.568 114.728C113.568 114.76 113.552 114.984 113.52 115.4H107.008C107.126 115.933 107.403 116.355 107.84 116.664C108.278 116.973 108.822 117.128 109.472 117.128C109.92 117.128 110.315 117.064 110.656 116.936C111.008 116.797 111.334 116.584 111.632 116.296L112.96 117.736C112.15 118.664 110.966 119.128 109.408 119.128C108.438 119.128 107.579 118.941 106.832 118.568C106.086 118.184 105.51 117.656 105.104 116.984C104.699 116.312 104.496 115.549 104.496 114.696C104.496 113.853 104.694 113.096 105.088 112.424C105.494 111.741 106.043 111.213 106.736 110.84C107.44 110.456 108.224 110.264 109.088 110.264C109.931 110.264 110.694 110.445 111.376 110.808C112.059 111.171 112.592 111.693 112.976 112.376C113.371 113.048 113.568 113.832 113.568 114.728ZM109.104 112.152C108.539 112.152 108.064 112.312 107.68 112.632C107.296 112.952 107.062 113.389 106.976 113.944H111.216C111.131 113.4 110.896 112.968 110.512 112.648C110.128 112.317 109.659 112.152 109.104 112.152Z" fill="#686361"/>
<g clip-path="url(#clip0_56_1053)">
<path d="M98.4941 70.1305C97.2509 70.1305 96.2432 69.1228 96.2432 67.8796V66.8292L78.2363 59.6265V49.1224L96.2433 41.9197V40.8693C96.2433 39.6261 97.2509 38.6184 98.4942 38.6184C99.7374 38.6184 100.745 39.6261 100.745 40.8693V67.8797C100.745 69.1229 99.7374 70.1305 98.4941 70.1305Z" fill="#EBEBEB"/>
<path d="M72.9844 49.1223H78.2364V59.6264H72.9844C70.0838 59.6264 67.7324 57.275 67.7324 54.3744C67.7324 51.4737 70.0838 49.1223 72.9844 49.1223Z" fill="#4398D1"/>
<path d="M105.247 56.6253L100.745 58.1259V50.623L105.247 52.1236V56.6253Z" fill="#E0E0E0"/>
<path d="M80.8702 71.2934L75.2356 72.3813L72.2344 59.6265H78.2367L80.4876 68.6299L81.3879 69.5302C81.7953 69.9429 81.7916 70.6077 81.379 71.0158C81.2386 71.1546 81.0623 71.2506 80.8702 71.2934Z" fill="#EBEBEB"/>
<path d="M112 53.6243H107.498V55.1248H112V53.6243Z" fill="#4398D1"/>
<path d="M107.883 48.2675L111.634 46.0166L110.862 44.73L107.111 46.9809L107.883 48.2675Z" fill="#4398D1"/>
<path d="M110.857 64.022L111.629 62.7354L107.878 60.4854L107.106 61.772L110.857 64.022Z" fill="#4398D1"/>
<path d="M75.9869 51.3733H74.4863V54.3744H75.9869V51.3733Z" fill="#126099"/>
<path d="M72.9859 51.3733H71.4854V54.3744H72.9859V51.3733Z" fill="#126099"/>
<path d="M96.2444 49.0325C93.6837 54.448 89.5975 58.9986 84.4873 62.125L96.2444 66.8294V49.0325Z" fill="#E0E0E0"/>
<path d="M98.495 38.6184C99.7382 38.6184 100.746 39.6261 100.746 40.8693V67.8797C100.746 69.1229 99.7382 70.1305 98.495 70.1305C97.2518 70.1305 96.2441 69.1229 96.2441 67.8797V40.8693C96.2442 39.6261 97.2518 38.6184 98.495 38.6184Z" fill="#4398D1"/>
<path d="M71.6045 60.2116L74.4857 72.5539C74.5674 72.8998 74.8803 73.1414 75.236 73.1316H75.3786L81.0132 72.0512C81.9804 71.8201 82.5776 70.8485 82.3457 69.8814C82.2707 69.5685 82.1139 69.2819 81.8911 69.05L81.1407 68.2997L79.295 60.9169L95.4937 67.3393V67.8795C95.4937 69.5368 96.8375 70.8806 98.4948 70.8806C100.152 70.8806 101.496 69.5368 101.496 67.8795V58.6659L105.488 57.3754C105.806 57.2681 106.015 56.9613 105.998 56.6251V52.1233C105.999 51.8007 105.793 51.5141 105.488 51.4105L101.496 50.0825V40.8693C101.496 39.2119 100.152 37.8682 98.4948 37.8682C96.8375 37.8682 95.4937 39.2119 95.4937 40.8693V41.4095L78.0945 48.3721H72.9851C69.6703 48.3819 66.9903 51.0769 67 54.3917C67.0083 57.1617 68.9103 59.5664 71.6045 60.2116ZM79.9553 69.1626L80.8556 70.0555C80.9359 70.1327 80.9651 70.2498 80.9307 70.3556C80.9052 70.4606 80.8197 70.5402 80.7131 70.5582L75.7987 71.511L73.1801 60.3767H77.6819L79.7377 68.8099C79.776 68.9458 79.851 69.068 79.9553 69.1626ZM95.4937 65.7188L78.9874 59.1162V49.6326L95.4937 43.0301V65.7188ZM104.497 52.6638V56.0851L101.496 57.083V51.6659L104.497 52.6638ZM96.9943 40.8693C96.9943 40.0402 97.6658 39.3687 98.4948 39.3687C99.3239 39.3687 99.9954 40.0402 99.9954 40.8693V67.8796C99.9954 68.7087 99.3239 69.3802 98.4948 69.3802C97.6658 69.3802 96.9943 68.7087 96.9943 67.8796V66.8293V40.8693ZM72.9851 49.8727H77.4869V58.8761H72.9851C70.4987 58.8761 68.4834 56.8609 68.4834 54.3744C68.4834 51.8879 70.4986 49.8727 72.9851 49.8727Z" fill="black"/>
<path d="M112 53.6243H107.498V55.1248H112V53.6243Z" fill="black"/>
<path d="M107.883 48.2673L111.634 46.0164L110.862 44.7298L107.111 46.9807L107.883 48.2673Z" fill="black"/>
<path d="M110.859 64.022L111.631 62.7354L107.88 60.4854L107.108 61.772L110.859 64.022Z" fill="black"/>
<path d="M75.9859 51.3733H74.4854V54.3744H75.9859V51.3733Z" fill="black"/>
<path d="M72.9859 51.3733H71.4854V54.3744H72.9859V51.3733Z" fill="black"/>
</g>
<defs>
<clipPath id="clip0_56_1053">
<rect width="45" height="45" fill="white" transform="translate(67 33)"/>
</clipPath>
</defs>
</svg>
