<svg width="178" height="176" viewBox="0 0 178 176" fill="none" xmlns="http://www.w3.org/2000/svg">
<rect width="178" height="176" rx="10" fill="white"/>
<rect x="0.5" y="0.5" width="177" height="175" rx="9.5" stroke="#A9B7C8" stroke-opacity="0.5"/>
<path d="M66.6728 116.6H61.4728L60.4808 119H57.8247L62.8168 107.8H65.3768L70.3848 119H67.6648L66.6728 116.6ZM65.8568 114.632L64.0808 110.344L62.3048 114.632H65.8568ZM71.3708 110.392H73.8668V119H71.3708V110.392ZM72.6188 109.192C72.1601 109.192 71.7868 109.059 71.4988 108.792C71.2108 108.525 71.0668 108.195 71.0668 107.8C71.0668 107.405 71.2108 107.075 71.4988 106.808C71.7868 106.541 72.1601 106.408 72.6188 106.408C73.0774 106.408 73.4508 106.536 73.7388 106.792C74.0268 107.048 74.1708 107.368 74.1708 107.752C74.1708 108.168 74.0268 108.515 73.7388 108.792C73.4508 109.059 73.0774 109.192 72.6188 109.192ZM78.5673 111.528C78.8659 111.112 79.2659 110.797 79.7673 110.584C80.2793 110.371 80.8659 110.264 81.5273 110.264V112.568C81.2499 112.547 81.0633 112.536 80.9673 112.536C80.2526 112.536 79.6926 112.739 79.2873 113.144C78.8819 113.539 78.6793 114.136 78.6793 114.936V119H76.1833V110.392H78.5673V111.528ZM87.0933 119.128C86.1759 119.128 85.3493 118.941 84.6133 118.568C83.8879 118.184 83.3173 117.656 82.9013 116.984C82.4959 116.312 82.2933 115.549 82.2933 114.696C82.2933 113.843 82.4959 113.08 82.9013 112.408C83.3173 111.736 83.8879 111.213 84.6133 110.84C85.3493 110.456 86.1759 110.264 87.0933 110.264C87.9999 110.264 88.7893 110.456 89.4613 110.84C90.1439 111.213 90.6399 111.752 90.9493 112.456L89.0133 113.496C88.5653 112.707 87.9199 112.312 87.0773 112.312C86.4266 112.312 85.8879 112.525 85.4613 112.952C85.0346 113.379 84.8213 113.96 84.8213 114.696C84.8213 115.432 85.0346 116.013 85.4613 116.44C85.8879 116.867 86.4266 117.08 87.0773 117.08C87.9306 117.08 88.5759 116.685 89.0133 115.896L90.9493 116.952C90.6399 117.635 90.1439 118.168 89.4613 118.552C88.7893 118.936 87.9999 119.128 87.0933 119.128ZM94.7704 111.528C95.069 111.112 95.469 110.797 95.9704 110.584C96.4824 110.371 97.069 110.264 97.7304 110.264V112.568C97.453 112.547 97.2664 112.536 97.1704 112.536C96.4557 112.536 95.8957 112.739 95.4904 113.144C95.085 113.539 94.8824 114.136 94.8824 114.936V119H92.3864V110.392H94.7704V111.528ZM102.64 110.264C103.973 110.264 104.997 110.584 105.712 111.224C106.426 111.853 106.784 112.808 106.784 114.088V119H104.448V117.928C103.978 118.728 103.104 119.128 101.824 119.128C101.162 119.128 100.586 119.016 100.096 118.792C99.6156 118.568 99.2476 118.259 98.9916 117.864C98.7356 117.469 98.6076 117.021 98.6076 116.52C98.6076 115.72 98.9063 115.091 99.5036 114.632C100.112 114.173 101.045 113.944 102.304 113.944H104.288C104.288 113.4 104.122 112.984 103.792 112.696C103.461 112.397 102.965 112.248 102.304 112.248C101.845 112.248 101.392 112.323 100.944 112.472C100.506 112.611 100.133 112.803 99.8236 113.048L98.9276 111.304C99.397 110.973 99.957 110.717 100.608 110.536C101.269 110.355 101.946 110.264 102.64 110.264ZM102.448 117.448C102.874 117.448 103.253 117.352 103.584 117.16C103.914 116.957 104.149 116.664 104.288 116.28V115.4H102.576C101.552 115.4 101.04 115.736 101.04 116.408C101.04 116.728 101.162 116.984 101.408 117.176C101.664 117.357 102.01 117.448 102.448 117.448ZM111.779 110.584H113.987V112.504H111.843V119H109.347V112.504H108.019V110.584H109.347V110.2C109.347 109.219 109.635 108.44 110.211 107.864C110.797 107.288 111.619 107 112.675 107C113.048 107 113.4 107.043 113.731 107.128C114.072 107.203 114.355 107.315 114.579 107.464L113.923 109.272C113.635 109.069 113.299 108.968 112.915 108.968C112.157 108.968 111.779 109.384 111.779 110.216V110.584ZM120.782 118.584C120.537 118.765 120.233 118.904 119.87 119C119.518 119.085 119.145 119.128 118.75 119.128C117.726 119.128 116.931 118.867 116.366 118.344C115.811 117.821 115.534 117.053 115.534 116.04V112.504H114.206V110.584H115.534V108.488H118.03V110.584H120.174V112.504H118.03V116.008C118.03 116.371 118.121 116.653 118.302 116.856C118.494 117.048 118.761 117.144 119.102 117.144C119.497 117.144 119.833 117.037 120.11 116.824L120.782 118.584ZM57.579 138.584C57.3337 138.765 57.0297 138.904 56.667 139C56.315 139.085 55.9417 139.128 55.547 139.128C54.523 139.128 53.7283 138.867 53.163 138.344C52.6083 137.821 52.331 137.053 52.331 136.04V132.504H51.003V130.584H52.331V128.488H54.827V130.584H56.971V132.504H54.827V136.008C54.827 136.371 54.9177 136.653 55.099 136.856C55.291 137.048 55.5577 137.144 55.899 137.144C56.2937 137.144 56.6297 137.037 56.907 136.824L57.579 138.584ZM67.1465 134.728C67.1465 134.76 67.1305 134.984 67.0985 135.4H60.5865C60.7038 135.933 60.9812 136.355 61.4185 136.664C61.8558 136.973 62.3998 137.128 63.0505 137.128C63.4985 137.128 63.8932 137.064 64.2345 136.936C64.5865 136.797 64.9118 136.584 65.2105 136.296L66.5385 137.736C65.7278 138.664 64.5438 139.128 62.9865 139.128C62.0158 139.128 61.1572 138.941 60.4105 138.568C59.6638 138.184 59.0878 137.656 58.6825 136.984C58.2772 136.312 58.0745 135.549 58.0745 134.696C58.0745 133.853 58.2718 133.096 58.6665 132.424C59.0718 131.741 59.6212 131.213 60.3145 130.84C61.0185 130.456 61.8025 130.264 62.6665 130.264C63.5092 130.264 64.2718 130.445 64.9545 130.808C65.6372 131.171 66.1705 131.693 66.5545 132.376C66.9492 133.048 67.1465 133.832 67.1465 134.728ZM62.6825 132.152C62.1172 132.152 61.6425 132.312 61.2585 132.632C60.8745 132.952 60.6398 133.389 60.5545 133.944H64.7945C64.7092 133.4 64.4745 132.968 64.0905 132.648C63.7065 132.317 63.2372 132.152 62.6825 132.152ZM72.9683 139.128C72.0509 139.128 71.2243 138.941 70.4883 138.568C69.7629 138.184 69.1923 137.656 68.7763 136.984C68.3709 136.312 68.1683 135.549 68.1683 134.696C68.1683 133.843 68.3709 133.08 68.7763 132.408C69.1923 131.736 69.7629 131.213 70.4883 130.84C71.2243 130.456 72.0509 130.264 72.9683 130.264C73.8749 130.264 74.6643 130.456 75.3363 130.84C76.0189 131.213 76.5149 131.752 76.8243 132.456L74.8883 133.496C74.4403 132.707 73.7949 132.312 72.9523 132.312C72.3016 132.312 71.7629 132.525 71.3363 132.952C70.9096 133.379 70.6963 133.96 70.6963 134.696C70.6963 135.432 70.9096 136.013 71.3363 136.44C71.7629 136.867 72.3016 137.08 72.9523 137.08C73.8056 137.08 74.4509 136.685 74.8883 135.896L76.8243 136.952C76.5149 137.635 76.0189 138.168 75.3363 138.552C74.6643 138.936 73.8749 139.128 72.9683 139.128ZM83.4309 130.264C84.4975 130.264 85.3562 130.584 86.0069 131.224C86.6682 131.864 86.9989 132.813 86.9989 134.072V139H84.5029V134.456C84.5029 133.773 84.3535 133.267 84.0549 132.936C83.7562 132.595 83.3242 132.424 82.7589 132.424C82.1295 132.424 81.6282 132.621 81.2549 133.016C80.8815 133.4 80.6949 133.976 80.6949 134.744V139H78.1989V127.128H80.6949V131.288C81.0255 130.957 81.4255 130.707 81.8949 130.536C82.3642 130.355 82.8762 130.264 83.4309 130.264ZM94.4934 130.264C95.56 130.264 96.4187 130.584 97.0694 131.224C97.7307 131.864 98.0614 132.813 98.0614 134.072V139H95.5654V134.456C95.5654 133.773 95.416 133.267 95.1174 132.936C94.8187 132.595 94.3867 132.424 93.8214 132.424C93.192 132.424 92.6907 132.621 92.3174 133.016C91.944 133.4 91.7574 133.976 91.7574 134.744V139H89.2614V130.392H91.6454V131.4C91.976 131.037 92.3867 130.76 92.8774 130.568C93.368 130.365 93.9067 130.264 94.4934 130.264ZM100.324 130.392H102.82V139H100.324V130.392ZM101.572 129.192C101.113 129.192 100.74 129.059 100.452 128.792C100.164 128.525 100.02 128.195 100.02 127.8C100.02 127.405 100.164 127.075 100.452 126.808C100.74 126.541 101.113 126.408 101.572 126.408C102.031 126.408 102.404 126.536 102.692 126.792C102.98 127.048 103.124 127.368 103.124 127.752C103.124 128.168 102.98 128.515 102.692 128.792C102.404 129.059 102.031 129.192 101.572 129.192ZM109.296 139.128C108.379 139.128 107.552 138.941 106.816 138.568C106.091 138.184 105.52 137.656 105.104 136.984C104.699 136.312 104.496 135.549 104.496 134.696C104.496 133.843 104.699 133.08 105.104 132.408C105.52 131.736 106.091 131.213 106.816 130.84C107.552 130.456 108.379 130.264 109.296 130.264C110.203 130.264 110.992 130.456 111.664 130.84C112.347 131.213 112.843 131.752 113.152 132.456L111.216 133.496C110.768 132.707 110.123 132.312 109.28 132.312C108.63 132.312 108.091 132.525 107.664 132.952C107.238 133.379 107.024 133.96 107.024 134.696C107.024 135.432 107.238 136.013 107.664 136.44C108.091 136.867 108.63 137.08 109.28 137.08C110.134 137.08 110.779 136.685 111.216 135.896L113.152 136.952C112.843 137.635 112.347 138.168 111.664 138.552C110.992 138.936 110.203 139.128 109.296 139.128ZM118.062 130.264C119.395 130.264 120.419 130.584 121.134 131.224C121.848 131.853 122.206 132.808 122.206 134.088V139H119.87V137.928C119.4 138.728 118.526 139.128 117.246 139.128C116.584 139.128 116.008 139.016 115.518 138.792C115.038 138.568 114.67 138.259 114.414 137.864C114.158 137.469 114.03 137.021 114.03 136.52C114.03 135.72 114.328 135.091 114.926 134.632C115.534 134.173 116.467 133.944 117.726 133.944H119.71C119.71 133.4 119.544 132.984 119.214 132.696C118.883 132.397 118.387 132.248 117.726 132.248C117.267 132.248 116.814 132.323 116.366 132.472C115.928 132.611 115.555 132.803 115.246 133.048L114.35 131.304C114.819 130.973 115.379 130.717 116.03 130.536C116.691 130.355 117.368 130.264 118.062 130.264ZM117.87 137.448C118.296 137.448 118.675 137.352 119.006 137.16C119.336 136.957 119.571 136.664 119.71 136.28V135.4H117.998C116.974 135.4 116.462 135.736 116.462 136.408C116.462 136.728 116.584 136.984 116.83 137.176C117.086 137.357 117.432 137.448 117.87 137.448ZM124.465 127.128H126.961V139H124.465V127.128ZM60.2322 150.264C61.0322 150.264 61.7575 150.451 62.4082 150.824C63.0695 151.187 63.5869 151.704 63.9602 152.376C64.3335 153.037 64.5202 153.811 64.5202 154.696C64.5202 155.581 64.3335 156.36 63.9602 157.032C63.5869 157.693 63.0695 158.211 62.4082 158.584C61.7575 158.947 61.0322 159.128 60.2322 159.128C59.1335 159.128 58.2695 158.781 57.6402 158.088V162.104H55.1442V150.392H57.5282V151.384C58.1469 150.637 59.0482 150.264 60.2322 150.264ZM59.8002 157.08C60.4402 157.08 60.9629 156.867 61.3682 156.44C61.7842 156.003 61.9922 155.421 61.9922 154.696C61.9922 153.971 61.7842 153.395 61.3682 152.968C60.9629 152.531 60.4402 152.312 59.8002 152.312C59.1602 152.312 58.6322 152.531 58.2162 152.968C57.8109 153.395 57.6082 153.971 57.6082 154.696C57.6082 155.421 57.8109 156.003 58.2162 156.44C58.6322 156.867 59.1602 157.08 59.8002 157.08ZM68.5751 151.528C68.8737 151.112 69.2737 150.797 69.7751 150.584C70.2871 150.371 70.8737 150.264 71.5351 150.264V152.568C71.2577 152.547 71.0711 152.536 70.9751 152.536C70.2604 152.536 69.7004 152.739 69.2951 153.144C68.8897 153.539 68.6871 154.136 68.6871 154.936V159H66.1911V150.392H68.5751V151.528ZM77.0371 159.128C76.1304 159.128 75.3144 158.941 74.5891 158.568C73.8744 158.184 73.3144 157.656 72.9091 156.984C72.5037 156.312 72.3011 155.549 72.3011 154.696C72.3011 153.843 72.5037 153.08 72.9091 152.408C73.3144 151.736 73.8744 151.213 74.5891 150.84C75.3144 150.456 76.1304 150.264 77.0371 150.264C77.9437 150.264 78.7544 150.456 79.4691 150.84C80.1837 151.213 80.7437 151.736 81.1491 152.408C81.5544 153.08 81.7571 153.843 81.7571 154.696C81.7571 155.549 81.5544 156.312 81.1491 156.984C80.7437 157.656 80.1837 158.184 79.4691 158.568C78.7544 158.941 77.9437 159.128 77.0371 159.128ZM77.0371 157.08C77.6771 157.08 78.1997 156.867 78.6051 156.44C79.0211 156.003 79.2291 155.421 79.2291 154.696C79.2291 153.971 79.0211 153.395 78.6051 152.968C78.1997 152.531 77.6771 152.312 77.0371 152.312C76.3971 152.312 75.8691 152.531 75.4531 152.968C75.0371 153.395 74.8291 153.971 74.8291 154.696C74.8291 155.421 75.0371 156.003 75.4531 156.44C75.8691 156.867 76.3971 157.08 77.0371 157.08ZM88.5134 150.264C89.3134 150.264 90.0388 150.451 90.6894 150.824C91.3508 151.187 91.8681 151.704 92.2414 152.376C92.6148 153.037 92.8014 153.811 92.8014 154.696C92.8014 155.581 92.6148 156.36 92.2414 157.032C91.8681 157.693 91.3508 158.211 90.6894 158.584C90.0388 158.947 89.3134 159.128 88.5134 159.128C87.3294 159.128 86.4281 158.755 85.8094 158.008V159H83.4254V147.128H85.9214V151.304C86.5508 150.611 87.4148 150.264 88.5134 150.264ZM88.0814 157.08C88.7214 157.08 89.2441 156.867 89.6494 156.44C90.0654 156.003 90.2734 155.421 90.2734 154.696C90.2734 153.971 90.0654 153.395 89.6494 152.968C89.2441 152.531 88.7214 152.312 88.0814 152.312C87.4414 152.312 86.9134 152.531 86.4974 152.968C86.0921 153.395 85.8894 153.971 85.8894 154.696C85.8894 155.421 86.0921 156.003 86.4974 156.44C86.9134 156.867 87.4414 157.08 88.0814 157.08ZM94.4723 147.128H96.9683V159H94.4723V147.128ZM107.717 154.728C107.717 154.76 107.701 154.984 107.669 155.4H101.157C101.274 155.933 101.551 156.355 101.989 156.664C102.426 156.973 102.97 157.128 103.621 157.128C104.069 157.128 104.463 157.064 104.805 156.936C105.157 156.797 105.482 156.584 105.781 156.296L107.109 157.736C106.298 158.664 105.114 159.128 103.557 159.128C102.586 159.128 101.727 158.941 100.981 158.568C100.234 158.184 99.6581 157.656 99.2528 156.984C98.8475 156.312 98.6448 155.549 98.6448 154.696C98.6448 153.853 98.8421 153.096 99.2368 152.424C99.6421 151.741 100.191 151.213 100.885 150.84C101.589 150.456 102.373 150.264 103.237 150.264C104.079 150.264 104.842 150.445 105.525 150.808C106.207 151.171 106.741 151.693 107.125 152.376C107.519 153.048 107.717 153.832 107.717 154.728ZM103.253 152.152C102.687 152.152 102.213 152.312 101.829 152.632C101.445 152.952 101.21 153.389 101.125 153.944H105.365C105.279 153.4 105.045 152.968 104.661 152.648C104.277 152.317 103.807 152.152 103.253 152.152ZM120.403 150.264C121.48 150.264 122.333 150.584 122.963 151.224C123.603 151.853 123.923 152.803 123.923 154.072V159H121.427V154.456C121.427 153.773 121.283 153.267 120.995 152.936C120.717 152.595 120.317 152.424 119.795 152.424C119.208 152.424 118.744 152.616 118.403 153C118.061 153.373 117.891 153.933 117.891 154.68V159H115.395V154.456C115.395 153.101 114.851 152.424 113.763 152.424C113.187 152.424 112.728 152.616 112.387 153C112.045 153.373 111.875 153.933 111.875 154.68V159H109.379V150.392H111.763V151.384C112.083 151.021 112.472 150.744 112.931 150.552C113.4 150.36 113.912 150.264 114.467 150.264C115.075 150.264 115.624 150.387 116.115 150.632C116.605 150.867 117 151.213 117.299 151.672C117.651 151.224 118.093 150.877 118.627 150.632C119.171 150.387 119.763 150.264 120.403 150.264Z" fill="#686361"/>
<g clip-path="url(#clip0_56_1013)">
<path d="M109.678 68.182L100.736 59.2394L100.361 59.6142C99.7402 60.235 98.7326 60.235 98.1119 59.6142C97.4912 58.9935 97.4912 57.986 98.1119 57.3653L98.4867 56.9904L96.2377 54.7415L88.7412 62.238L90.9902 64.487L91.365 64.1122C91.9857 63.4915 92.9933 63.4915 93.614 64.1122C94.2347 64.733 94.2347 65.7405 93.614 66.3612L93.2392 66.736L102.182 75.6786C102.453 75.9478 102.752 76.1869 103.075 76.3915L110.391 69.0749C110.187 68.7525 109.947 68.4534 109.678 68.182Z" fill="#88B337"/>
<path d="M110.389 69.0747L103.072 76.3914C105.533 77.9716 108.809 77.2588 110.389 74.7983C111.509 73.0554 111.509 70.8184 110.389 69.0747Z" fill="#DADDDF"/>
<path d="M76.7459 39.7485L75.9962 36.7498L70.7487 33.7512L67.75 36.7498L70.7487 41.9974L73.7473 42.7471L90.9893 59.9891L93.9879 56.9905L76.7459 39.7485Z" fill="#CFD2D4"/>
<path d="M110.976 40.0017L105.982 44.996L101.484 43.4967L99.9844 38.9988L104.979 34.0045C100.584 32.883 96.1132 35.5368 94.9917 39.9312C94.6521 41.2633 94.6521 42.6592 94.9917 43.9913L77.9896 60.9935C73.5501 59.8668 69.0379 62.5513 67.9112 66.9907C66.7845 71.4302 69.469 75.9423 73.9084 77.0691C78.3479 78.1958 82.86 75.5113 83.9868 71.0719C84.3264 69.7329 84.3264 68.3296 83.9868 66.9908L100.989 49.9886C105.386 51.1071 109.857 48.4489 110.976 44.0513C111.314 42.7229 111.314 41.3309 110.976 40.0017ZM78.2444 72.7331H73.7465L71.4975 68.9848L73.7465 65.2365H78.2444L80.4934 68.9848L78.2444 72.7331Z" fill="#DADDDF"/>
<path d="M111.23 71.9302C111.229 70.9174 110.938 69.9263 110.39 69.0747L108.231 71.2337V76.6994C110.064 75.8171 111.229 73.964 111.23 71.9302Z" fill="#CFD2D4"/>
<path d="M67.098 37.1246L70.0966 42.3722C70.1978 42.5499 70.3672 42.6781 70.5652 42.7276L73.3628 43.427L82.9584 53.0226L84.0184 51.9626L74.2729 42.217C74.1769 42.121 74.057 42.0528 73.9251 42.0198L71.2368 41.3451L68.6835 36.875L70.8725 34.686L75.3449 37.2416L76.0196 39.9299C76.0526 40.0618 76.1208 40.1825 76.2168 40.2785L85.9623 50.024L87.0223 48.964L77.4268 39.3684L76.7273 36.5722C76.6778 36.3735 76.5496 36.2041 76.372 36.1029L71.1244 33.1042C70.8313 32.9378 70.4632 32.9873 70.2248 33.2249L67.2261 36.2235C66.9848 36.4604 66.9323 36.83 67.098 37.1246Z" fill="black"/>
<path d="M97.2051 46.7148L80.7129 63.207L81.773 64.2672L98.2652 47.775L97.2051 46.7148Z" fill="black"/>
<path d="M78.8876 64.8504C78.7519 64.6248 78.5082 64.4868 78.2452 64.4868H73.7473C73.4841 64.4868 73.2405 64.6247 73.1048 64.8504L70.8558 68.5987C70.7134 68.8364 70.7134 69.1332 70.8558 69.3709L73.1048 73.1192C73.2405 73.3448 73.4842 73.4828 73.7473 73.4828H78.2452C78.5083 73.4828 78.7519 73.3449 78.8876 73.1192L81.1366 69.3709C81.279 69.1332 81.279 68.8364 81.1366 68.5987L78.8876 64.8504ZM77.8209 71.9834H74.1715L72.3724 68.9848L74.1715 65.9862H77.8209L79.6201 68.9848L77.8209 71.9834Z" fill="black"/>
<path d="M102.983 50.9932C107.935 51.0096 111.962 47.0095 111.978 42.058C111.981 41.3046 111.888 40.5535 111.703 39.8233C111.604 39.4214 111.196 39.1771 110.795 39.2768C110.663 39.3098 110.542 39.378 110.446 39.474L105.779 44.1376L102.077 42.9037L100.842 39.2019L105.509 34.5345C105.801 34.2415 105.801 33.7669 105.508 33.4745C105.411 33.3778 105.29 33.3096 105.157 33.2766C100.356 32.0607 95.4777 34.967 94.2618 39.7686C94.0774 40.4973 93.9852 41.2462 93.9875 41.9973C93.989 42.5873 94.0505 43.1758 94.1696 43.7537L77.7522 60.1712C77.1743 60.052 76.5858 59.9913 75.9958 59.9891C71.0279 59.9891 67 64.0169 67 68.9849C67 73.9528 71.0279 77.9807 75.9958 77.9807C80.9638 77.9807 84.9916 73.9528 84.9916 68.9849C84.9901 68.3949 84.9286 67.8064 84.8095 67.2285L88.7399 63.2981L90.4588 65.017C90.7512 65.3093 91.2265 65.3093 91.5188 65.017L91.8936 64.6422C92.2228 64.3154 92.7535 64.3154 93.0826 64.6422C93.4109 64.9698 93.4117 65.5013 93.0841 65.8297C93.0834 65.8304 93.0834 65.8304 93.0826 65.8312L92.7078 66.206C92.4155 66.4983 92.4155 66.9737 92.7078 67.266L101.65 76.2086C104.003 78.582 107.834 78.5993 110.207 76.2476C112.58 73.8951 112.598 70.0644 110.246 67.691C110.233 67.6783 110.22 67.6655 110.207 67.6521L101.264 58.7094C100.972 58.4171 100.497 58.4171 100.204 58.7094L99.8295 59.0842C99.5004 59.411 98.9697 59.411 98.6405 59.0842C98.3122 58.7566 98.3114 58.2251 98.639 57.8967C98.6398 57.896 98.6398 57.896 98.6405 57.8952L99.0153 57.5204C99.3077 57.2281 99.3077 56.7527 99.0153 56.4604L97.2964 54.7414L101.227 50.811C101.805 50.9302 102.393 50.9909 102.983 50.9932ZM105.929 76.4814C105.384 76.4807 104.844 76.3824 104.334 76.1906L110.189 70.3357C111.073 72.6859 109.884 75.3074 107.534 76.1906C107.02 76.3832 106.477 76.4821 105.929 76.4814ZM97.4359 56.9979C96.606 57.9882 96.7357 59.4642 97.726 60.2942C98.5964 61.0235 99.8647 61.0228 100.734 60.2919L109.147 68.712C109.238 68.8034 109.324 68.9002 109.406 68.9984L102.997 75.408C102.899 75.3255 102.802 75.24 102.71 75.1486L94.2911 66.7285C95.1209 65.7382 94.9913 64.2621 94.001 63.4322C93.1306 62.7029 91.8622 62.7036 90.9926 63.4345L89.7932 62.2351L96.2365 55.8015L97.4359 56.9979ZM100.463 49.4579L83.457 66.4608C83.2704 66.6467 83.1954 66.9173 83.2591 67.1729C84.2876 71.2121 81.8468 75.3202 77.8076 76.3487C73.7685 77.3765 69.6604 74.9363 68.6319 70.8972C67.6033 66.8581 70.0442 62.75 74.0833 61.7214C75.3053 61.4104 76.5857 61.4104 77.8076 61.7214C78.0632 61.7837 78.3331 61.7087 78.5198 61.5235L95.5219 44.5206C95.7078 44.3347 95.7828 44.0641 95.7191 43.8084C94.6973 39.8165 97.1052 35.7526 101.097 34.7316C101.851 34.5383 102.632 34.4648 103.409 34.5127L99.4546 38.4687C99.2536 38.6696 99.1832 38.9665 99.2731 39.2356L100.772 43.7335C100.847 43.9576 101.023 44.1331 101.247 44.2073L105.745 45.7066C106.014 45.7965 106.311 45.7268 106.512 45.5259L110.466 41.5715C110.475 41.7147 110.48 41.8563 110.48 41.9973C110.501 46.1166 107.179 49.4728 103.06 49.4938C102.422 49.4968 101.788 49.4188 101.171 49.2606C100.916 49.1969 100.645 49.2719 100.459 49.4578C100.459 49.4579 100.463 49.4579 100.463 49.4579Z" fill="black"/>
<path d="M98.2643 63.2074L97.2041 64.2676L104.7 71.7639L105.761 70.7037L98.2643 63.2074Z" fill="black"/>
</g>
<defs>
<clipPath id="clip0_56_1013">
<rect width="45" height="45" fill="white" transform="translate(67 33)"/>
</clipPath>
</defs>
</svg>
