<svg width="178" height="176" viewBox="0 0 178 176" fill="none" xmlns="http://www.w3.org/2000/svg">
<rect width="178" height="176" rx="10" fill="white"/>
<rect x="0.5" y="0.5" width="177" height="175" rx="9.5" stroke="#A9B7C8" stroke-opacity="0.5"/>
<path d="M71.8966 109.88V112.84H77.0806V114.92H71.8966V119H69.3046V107.8H77.7686V109.88H71.8966ZM83.2246 119.128C82.3179 119.128 81.5019 118.941 80.7766 118.568C80.0619 118.184 79.5019 117.656 79.0966 116.984C78.6912 116.312 78.4886 115.549 78.4886 114.696C78.4886 113.843 78.6912 113.08 79.0966 112.408C79.5019 111.736 80.0619 111.213 80.7766 110.84C81.5019 110.456 82.3179 110.264 83.2246 110.264C84.1312 110.264 84.9419 110.456 85.6566 110.84C86.3712 111.213 86.9312 111.736 87.3366 112.408C87.7419 113.08 87.9446 113.843 87.9446 114.696C87.9446 115.549 87.7419 116.312 87.3366 116.984C86.9312 117.656 86.3712 118.184 85.6566 118.568C84.9419 118.941 84.1312 119.128 83.2246 119.128ZM83.2246 117.08C83.8646 117.08 84.3872 116.867 84.7926 116.44C85.2086 116.003 85.4166 115.421 85.4166 114.696C85.4166 113.971 85.2086 113.395 84.7926 112.968C84.3872 112.531 83.8646 112.312 83.2246 112.312C82.5846 112.312 82.0566 112.531 81.6406 112.968C81.2246 113.395 81.0166 113.971 81.0166 114.696C81.0166 115.421 81.2246 116.003 81.6406 116.44C82.0566 116.867 82.5846 117.08 83.2246 117.08ZM93.7089 119.128C92.8023 119.128 91.9863 118.941 91.2609 118.568C90.5463 118.184 89.9863 117.656 89.5809 116.984C89.1756 116.312 88.9729 115.549 88.9729 114.696C88.9729 113.843 89.1756 113.08 89.5809 112.408C89.9863 111.736 90.5463 111.213 91.2609 110.84C91.9863 110.456 92.8023 110.264 93.7089 110.264C94.6156 110.264 95.4263 110.456 96.1409 110.84C96.8556 111.213 97.4156 111.736 97.8209 112.408C98.2263 113.08 98.4289 113.843 98.4289 114.696C98.4289 115.549 98.2263 116.312 97.8209 116.984C97.4156 117.656 96.8556 118.184 96.1409 118.568C95.4263 118.941 94.6156 119.128 93.7089 119.128ZM93.7089 117.08C94.3489 117.08 94.8716 116.867 95.2769 116.44C95.6929 116.003 95.9009 115.421 95.9009 114.696C95.9009 113.971 95.6929 113.395 95.2769 112.968C94.8716 112.531 94.3489 112.312 93.7089 112.312C93.0689 112.312 92.5409 112.531 92.1249 112.968C91.7089 113.395 91.5009 113.971 91.5009 114.696C91.5009 115.421 91.7089 116.003 92.1249 116.44C92.5409 116.867 93.0689 117.08 93.7089 117.08ZM108.865 107.128V119H106.481V118.008C105.863 118.755 104.967 119.128 103.793 119.128C102.983 119.128 102.247 118.947 101.585 118.584C100.935 118.221 100.423 117.704 100.049 117.032C99.676 116.36 99.4893 115.581 99.4893 114.696C99.4893 113.811 99.676 113.032 100.049 112.36C100.423 111.688 100.935 111.171 101.585 110.808C102.247 110.445 102.983 110.264 103.793 110.264C104.892 110.264 105.751 110.611 106.369 111.304V107.128H108.865ZM104.225 117.08C104.855 117.08 105.377 116.867 105.793 116.44C106.209 116.003 106.417 115.421 106.417 114.696C106.417 113.971 106.209 113.395 105.793 112.968C105.377 112.531 104.855 112.312 104.225 112.312C103.585 112.312 103.057 112.531 102.641 112.968C102.225 113.395 102.017 113.971 102.017 114.696C102.017 115.421 102.225 116.003 102.641 116.44C103.057 116.867 103.585 117.08 104.225 117.08Z" fill="#686361"/>
<g clip-path="url(#clip0_59_110)">
<path d="M84.776 45.3966C84.743 44.0303 84.2115 42.7351 83.2999 41.7454L74.1221 34.0248C73.7609 33.7211 73.2274 33.7438 72.8937 34.0775C72.5387 34.4325 72.5387 35.0083 72.8937 35.3633L79.8954 42.365C80.3247 42.7943 80.3247 43.4905 79.8954 43.9198L76.7884 47.0268C76.3591 47.4561 75.6629 47.4561 75.2336 47.0268L68.2319 40.0251C67.8769 39.6701 67.3011 39.6701 66.9461 40.0251C66.6124 40.3588 66.5893 40.8923 66.8931 41.2535L74.614 50.4313C75.6037 51.3429 76.8989 51.8744 78.2652 51.9074L80.9195 51.9156C82.1458 51.9198 83.3147 52.4358 84.1441 53.3394L105.254 76.5164C106.286 77.6323 108.212 77.4927 109.287 76.418C110.361 75.3437 110.501 73.4174 109.385 72.3857L86.208 51.2755C85.3044 50.4461 84.7884 49.2772 84.7842 48.0509L84.776 45.3966Z" fill="#E2E2E2"/>
<path d="M110.144 73.9688C110.14 73.923 110.134 73.8773 110.127 73.8315C110.113 73.7404 110.095 73.6502 110.072 73.5615C110.061 73.5171 110.049 73.4731 110.035 73.4294C109.913 73.0366 109.698 72.6757 109.384 72.3857L86.2075 51.2755C86.0689 51.1482 85.9402 51.012 85.8205 50.8695C85.7452 50.7801 85.6723 50.689 85.6045 50.594C85.5608 50.5328 85.5185 50.4705 85.4779 50.4069C85.3155 50.1534 85.1797 49.8843 85.0727 49.6036C84.8852 49.1128 84.7854 48.5871 84.7837 48.0509L84.7755 45.3963C84.7651 44.9694 84.7063 44.5497 84.6021 44.1434C84.5605 43.9811 84.5116 43.8211 84.4559 43.6636C84.2048 42.9553 83.8123 42.302 83.2994 41.7454L74.1216 34.0248C74.0762 33.9866 74.0284 33.954 73.9789 33.9261C73.8543 33.8566 73.7174 33.8188 73.5798 33.8122C73.5248 33.8098 73.4694 33.8119 73.4147 33.8195C73.2234 33.8453 73.0394 33.9316 72.8932 34.0778C72.5382 34.4328 72.5382 35.0083 72.8932 35.3636L79.8949 42.3653C80.029 42.4995 80.1216 42.6598 80.1718 42.8297C80.1917 42.8975 80.2052 42.967 80.212 43.0371C80.2186 43.1073 80.2186 43.1778 80.212 43.248C80.2021 43.3533 80.1766 43.4572 80.1364 43.5562C80.0827 43.6887 80.0022 43.8125 79.8949 43.9198L78.932 44.883L79.6001 45.4451C80.5117 46.4348 81.0431 47.7299 81.0761 49.0963C81.0761 49.0963 81.0761 49.1245 81.0765 49.1761C81.082 50.5586 81.857 51.8042 83.062 52.4822C83.0631 52.4829 83.0644 52.4836 83.0655 52.4843C83.0895 52.4977 83.1129 52.5121 83.1367 52.5262C83.1718 52.5469 83.2065 52.5679 83.2409 52.5892C83.265 52.6043 83.2891 52.6198 83.3128 52.6356C83.3486 52.659 83.384 52.6827 83.4191 52.7072C83.4394 52.7216 83.4597 52.7354 83.48 52.7498C83.533 52.7884 83.5856 52.8279 83.6372 52.8688C83.6482 52.8774 83.6585 52.8864 83.6695 52.8953C83.7118 52.9297 83.7541 52.9648 83.7954 53.0013C83.8126 53.0161 83.8295 53.0316 83.8467 53.0467C83.8828 53.0794 83.9186 53.1127 83.954 53.1468C83.9691 53.1616 83.9846 53.176 83.9998 53.1912C84.0486 53.2393 84.0968 53.2889 84.1435 53.3398L100.85 71.6816L105.685 76.0854C106.013 76.3884 106.231 76.7689 106.351 77.1824C106.537 77.236 106.73 77.2694 106.925 77.2832H106.926C107.054 77.2925 107.184 77.2928 107.314 77.2852C107.317 77.2849 107.321 77.2846 107.325 77.2846C107.453 77.2763 107.581 77.2605 107.708 77.2364C107.712 77.2357 107.716 77.2347 107.721 77.2336C107.779 77.2226 107.837 77.2096 107.894 77.1951C107.901 77.1934 107.907 77.192 107.913 77.1903C107.975 77.1745 108.036 77.1566 108.097 77.137C108.098 77.1366 108.099 77.1363 108.1 77.1359C108.157 77.1174 108.213 77.0971 108.268 77.0754C108.28 77.0713 108.291 77.0668 108.302 77.062C108.358 77.0396 108.412 77.0162 108.466 76.9908C108.468 76.9901 108.469 76.9897 108.47 76.9894C108.525 76.9633 108.579 76.9351 108.633 76.9058C108.645 76.8989 108.657 76.8921 108.669 76.8852C108.712 76.8608 108.754 76.8353 108.796 76.8088C108.807 76.8019 108.818 76.7954 108.829 76.7885C108.878 76.7558 108.927 76.7218 108.975 76.6863C108.985 76.6791 108.994 76.6719 109.003 76.665C109.042 76.6351 109.08 76.6045 109.118 76.5725C109.13 76.5622 109.143 76.5515 109.155 76.5405C109.2 76.5009 109.244 76.4607 109.286 76.4184C109.857 75.8473 110.164 75.0362 110.159 74.2464C110.158 74.1535 110.154 74.0606 110.144 73.9688Z" fill="#D8D6D4"/>
<path d="M102.122 50.214C103.799 50.0726 105.322 49.1834 106.27 47.7929L108.364 44.72C110.079 42.203 110.753 39.1198 110.244 36.1167C110.161 35.6255 109.912 35.1962 109.56 34.8838C109.208 34.5715 108.751 34.3758 108.254 34.352C105.211 34.2069 102.231 35.2454 99.9375 37.2502L97.1381 39.6977C95.8712 40.805 95.1712 42.4245 95.2317 44.106L95.3827 46.7561C95.4522 47.9804 95.0074 49.1782 94.155 50.0602L72.2879 72.5244C71.236 73.6211 71.4909 75.5354 72.6282 76.5437C73.7651 77.5516 75.6966 77.5753 76.6591 76.3995L96.3394 51.9965C97.113 51.0451 98.2489 50.4596 99.4728 50.3818L102.122 50.214Z" fill="#E2E2E2"/>
<path d="M110.244 36.1166C110.161 35.6253 109.912 35.196 109.56 34.8837C109.428 34.7664 109.281 34.6656 109.123 34.5844C108.965 34.5029 108.795 34.441 108.618 34.4011C108.5 34.3746 108.378 34.3577 108.254 34.3519C108.144 34.3467 108.035 34.3436 107.926 34.3412C107.893 34.3405 107.86 34.3405 107.827 34.3402C107.749 34.3391 107.671 34.3391 107.593 34.3398C107.557 34.3398 107.522 34.3405 107.486 34.3409C107.405 34.3426 107.324 34.345 107.243 34.3477C107.215 34.3491 107.186 34.3498 107.157 34.3512C107.047 34.356 106.937 34.3622 106.827 34.3705C106.854 36.7677 106.149 39.1331 104.782 41.1385L102.688 44.2111C101.943 45.3036 100.843 46.0869 99.5929 46.4409C98.6355 46.7119 97.6995 47.0535 96.813 47.5049C95.9899 47.9238 95.1804 48.3425 95.1705 48.3731C95.1677 48.382 95.1643 48.391 95.1615 48.3996C95.1412 48.4594 95.1206 48.5189 95.0979 48.5778C95.0934 48.5898 95.0882 48.6015 95.0834 48.6135C95.0618 48.6689 95.0394 48.7243 95.0153 48.779C95.0084 48.7941 95.0012 48.8093 94.9943 48.8244C94.9709 48.8753 94.9476 48.9262 94.9224 48.9765C94.9132 48.995 94.9028 49.0129 94.8935 49.0315C94.8695 49.0779 94.845 49.124 94.8192 49.1698C94.8069 49.1918 94.7934 49.2131 94.7807 49.2348C94.7563 49.2764 94.7322 49.3177 94.7064 49.3586C94.6902 49.3841 94.673 49.4089 94.6562 49.4343C94.6321 49.4704 94.6087 49.5069 94.5833 49.5423C94.5626 49.5719 94.5403 49.6008 94.5186 49.6297C94.4959 49.6603 94.4739 49.6913 94.4505 49.7209C94.4223 49.7566 94.3927 49.7914 94.3635 49.8265C94.3449 49.8488 94.327 49.8715 94.3077 49.8936C94.2585 49.9503 94.2076 50.0057 94.155 50.06L72.2879 72.5243C71.236 73.6209 71.4909 75.5353 72.6282 76.5435C73.7651 77.5514 75.6966 77.5751 76.6591 76.3994L96.3394 51.9964C97.113 51.0449 98.2489 50.4594 99.4728 50.3817L102.122 50.2138C103.799 50.0724 105.322 49.1832 106.269 47.7928L108.364 44.7199C110.079 42.2029 110.753 39.1196 110.244 36.1166Z" fill="#D8D6D4"/>
<path d="M99.5147 51.0564L102.164 50.8885C102.168 50.8882 102.173 50.8878 102.178 50.8875C104.066 50.7282 105.76 49.7392 106.827 48.1734L108.922 45.1008C110.744 42.4259 111.451 39.1951 110.909 36.0039C110.803 35.3771 110.483 34.7996 110.007 34.3782C109.531 33.9564 108.92 33.7074 108.285 33.6771C105.051 33.5223 101.929 34.611 99.492 36.7414L96.6925 39.1889C95.266 40.4359 94.4872 42.2367 94.5553 44.1304C94.5556 44.1349 94.5556 44.1397 94.556 44.1445L94.707 46.7943C94.7658 47.8273 94.3871 48.8466 93.6698 49.5889L71.7994 72.0566C71.2139 72.6672 70.9115 73.5048 70.9483 74.4153C70.9889 75.4178 71.4488 76.4023 72.1788 77.0493C72.8382 77.6338 73.7446 77.9668 74.6507 77.9668C74.7477 77.9668 74.8447 77.963 74.9414 77.9551C75.8499 77.8825 76.6456 77.4821 77.1843 76.8237L96.8631 52.4227C97.5157 51.6199 98.4823 51.1218 99.5147 51.0564ZM95.8126 51.5724L76.1354 75.9712C75.8348 76.3386 75.3724 76.565 74.8337 76.608C74.1929 76.6592 73.5358 76.4459 73.0756 76.038C72.6153 75.6297 72.325 75.0029 72.2992 74.3607C72.2772 73.8209 72.4461 73.3349 72.7715 72.9957L94.6403 50.5297C95.6206 49.5153 96.1366 48.1259 96.0568 46.7176L95.9058 44.0747C95.8546 42.5924 96.4651 41.1831 97.5821 40.2065L100.382 37.7589C102.554 35.8597 105.338 34.89 108.22 35.0269C108.549 35.0428 108.864 35.1714 109.11 35.3895C109.356 35.6073 109.522 35.9058 109.577 36.2295C110.059 39.0747 109.43 41.9546 107.805 44.3392L105.71 47.4121C104.875 48.6381 103.549 49.4131 102.071 49.5401L99.429 49.7072C98.0214 49.7967 96.7039 50.4757 95.8126 51.5724Z" fill="black"/>
<path d="M109.839 71.8859L95.1752 58.5296C94.8993 58.2781 94.472 58.2981 94.2202 58.5739C93.9691 58.8498 93.9891 59.2774 94.2649 59.5289L108.925 72.8821C109.274 73.2044 109.472 73.6795 109.483 74.2195C109.495 74.8621 109.243 75.505 108.808 75.9402C108.373 76.375 107.731 76.6278 107.087 76.6148C106.547 76.6041 106.072 76.4063 105.753 76.0613L92.6863 61.7153C92.4349 61.4391 92.0073 61.4195 91.7314 61.6706C91.4555 61.9221 91.4356 62.3496 91.687 62.6255L104.757 76.9749C105.332 77.5962 106.15 77.9484 107.061 77.9663C107.085 77.9667 107.108 77.967 107.132 77.967C108.111 77.967 109.09 77.5697 109.764 76.8961C110.454 76.2061 110.854 75.1958 110.834 74.193C110.816 73.2818 110.464 72.4638 109.839 71.8859Z" fill="black"/>
<path d="M74.1563 50.9284C75.275 51.959 76.7284 52.5465 78.2489 52.583C78.2537 52.5833 78.2585 52.5833 78.263 52.5833L80.9172 52.5916C81.952 52.5947 82.9464 53.034 83.6444 53.7945L84.8136 55.078C84.9471 55.2245 85.1298 55.2988 85.3135 55.2988C85.4758 55.2988 85.6389 55.2407 85.7682 55.1227C86.0445 54.8712 86.0644 54.4437 85.813 54.1678L84.642 52.8826C83.6884 51.8431 82.3324 51.2445 80.9217 51.2397L78.2747 51.2314C77.0985 51.2015 75.974 50.7512 75.1027 49.9624L67.4106 40.8184C67.3322 40.7248 67.338 40.5893 67.4244 40.5029C67.4835 40.4434 67.553 40.4348 67.5891 40.4348C67.6253 40.4348 67.6948 40.4434 67.7543 40.5029L74.7559 47.5049C75.448 48.1971 76.5743 48.1971 77.2664 47.5046L78.0892 46.6821V46.6818L79.5502 45.2208C79.5502 45.2208 79.5505 45.2208 79.5505 45.2205L79.5509 45.2201L80.3734 44.3976C81.0655 43.7055 81.0655 42.5793 80.3734 41.8872L73.3717 34.8855C73.2809 34.7947 73.2809 34.6464 73.3717 34.5556C73.458 34.4693 73.5936 34.4634 73.6871 34.5419L82.8312 42.2343C83.6203 43.1053 84.0706 44.2301 84.1005 45.4059L84.1085 48.0533C84.1133 49.4637 84.7122 50.8197 85.7531 51.7753L87.0059 52.9163C87.2822 53.1678 87.7094 53.1478 87.9609 52.872C88.212 52.5957 88.192 52.1685 87.9161 51.917L86.6654 50.7777C85.9027 50.078 85.4638 49.0832 85.4604 48.0488L85.4521 45.3945C85.4521 45.3897 85.4521 45.3849 85.4518 45.3801C85.4153 43.8596 84.8277 42.4063 83.7971 41.2876C83.7779 41.2666 83.7572 41.2467 83.7352 41.2281L74.5571 33.5075C73.9228 32.9736 73.0022 33.0135 72.4161 33.5997C71.7979 34.2178 71.7979 35.2233 72.4161 35.8411L79.4177 42.8431C79.5829 43.0083 79.5829 43.2769 79.4177 43.442L79.0727 43.7867L71.2692 35.9835C71.0054 35.7193 70.5774 35.7193 70.3136 35.9835C70.0497 36.2474 70.0497 36.6753 70.3136 36.9392L78.1171 44.7427L77.6114 45.248L69.8079 37.4448C69.5441 37.181 69.1161 37.181 68.8523 37.4448C68.5881 37.7087 68.5881 38.1366 68.8523 38.4004L76.6555 46.204L76.3108 46.549C76.1457 46.7141 75.877 46.7141 75.7119 46.549L68.7099 39.5473C68.4106 39.248 68.0126 39.0829 67.5891 39.0829C67.1657 39.0829 66.7677 39.248 66.4684 39.5473C65.8822 40.1335 65.8427 41.054 66.3762 41.6887L74.0972 50.8665C74.1154 50.8885 74.1354 50.9091 74.1563 50.9284Z" fill="black"/>
</g>
<defs>
<clipPath id="clip0_59_110">
<rect width="45.0879" height="45" fill="white" transform="translate(66 33)"/>
</clipPath>
</defs>
</svg>
