<svg width="417" height="100" viewBox="0 0 417 100" fill="none" xmlns="http://www.w3.org/2000/svg">
<rect width="417" height="100" rx="10" fill="#A9B7C8" fill-opacity="0.15"/>
<rect x="322" y="33" width="65" height="35" rx="17.5" fill="#CDD5DF"/>
<g filter="url(#filter0_d_292_1204)">
<circle cx="339.5" cy="50.5" r="13.5" fill="white"/>
</g>
<g clip-path="url(#clip0_292_1204)">
<path d="M42.5031 38H42.4969C35.6047 38 30 43.6062 30 50.5C30 53.2344 30.8813 55.7687 32.3797 57.8266L30.8219 62.4703L35.6266 60.9344C37.6031 62.2438 39.9609 63 42.5031 63C49.3953 63 55 57.3922 55 50.5C55 43.6078 49.3953 38 42.5031 38Z" fill="#4CAF50"/>
<path d="M49.7773 55.6517C49.4758 56.5032 48.2789 57.2095 47.3242 57.4157C46.6711 57.5548 45.818 57.6657 42.9461 56.4751C39.2727 54.9532 36.907 51.2204 36.7227 50.9782C36.5461 50.736 35.2383 49.0017 35.2383 47.2079C35.2383 45.4142 36.1492 44.5407 36.5164 44.1657C36.818 43.8579 37.3164 43.7173 37.7945 43.7173C37.9492 43.7173 38.0883 43.7251 38.2133 43.7313C38.5805 43.747 38.7648 43.7688 39.007 44.3485C39.3086 45.0751 40.043 46.8688 40.1305 47.0532C40.2195 47.2376 40.3086 47.4876 40.1836 47.7298C40.0664 47.9798 39.9633 48.0907 39.7789 48.3032C39.5945 48.5157 39.4195 48.6782 39.2352 48.9063C39.0664 49.1048 38.8758 49.3173 39.0883 49.6845C39.3008 50.0438 40.0352 51.2423 41.1164 52.2048C42.5117 53.447 43.643 53.8438 44.0477 54.0126C44.3492 54.1376 44.7086 54.1079 44.9289 53.8735C45.2086 53.572 45.5539 53.072 45.9055 52.5798C46.1555 52.2267 46.4711 52.1829 46.8023 52.3079C47.1398 52.4251 48.9258 53.3079 49.293 53.4907C49.6602 53.6751 49.9023 53.7626 49.9914 53.9173C50.0789 54.072 50.0789 54.7985 49.7773 55.6517Z" fill="#FAFAFA"/>
</g>
<path d="M77.308 35.232V36H71.368V27.6H77.128V28.368H72.256V31.356H76.6V32.112H72.256V35.232H77.308ZM82.4313 29.64C83.2233 29.64 83.8513 29.872 84.3153 30.336C84.7873 30.792 85.0233 31.46 85.0233 32.34V36H84.1713V32.424C84.1713 31.768 84.0073 31.268 83.6793 30.924C83.3513 30.58 82.8833 30.408 82.2753 30.408C81.5953 30.408 81.0553 30.612 80.6553 31.02C80.2633 31.42 80.0673 31.976 80.0673 32.688V36H79.2153V29.688H80.0313V30.852C80.2633 30.468 80.5833 30.172 80.9913 29.964C81.4073 29.748 81.8873 29.64 82.4313 29.64ZM89.5444 29.64C90.3684 29.64 91.0004 29.848 91.4404 30.264C91.8804 30.672 92.1004 31.28 92.1004 32.088V36H91.2844V35.016C91.0924 35.344 90.8084 35.6 90.4324 35.784C90.0644 35.968 89.6244 36.06 89.1124 36.06C88.4084 36.06 87.8484 35.892 87.4324 35.556C87.0164 35.22 86.8084 34.776 86.8084 34.224C86.8084 33.688 87.0004 33.256 87.3844 32.928C87.7764 32.6 88.3964 32.436 89.2444 32.436H91.2484V32.052C91.2484 31.508 91.0964 31.096 90.7924 30.816C90.4884 30.528 90.0444 30.384 89.4604 30.384C89.0604 30.384 88.6764 30.452 88.3084 30.588C87.9404 30.716 87.6244 30.896 87.3604 31.128L86.9764 30.492C87.2964 30.22 87.6804 30.012 88.1284 29.868C88.5764 29.716 89.0484 29.64 89.5444 29.64ZM89.2444 35.388C89.7244 35.388 90.1364 35.28 90.4804 35.064C90.8244 34.84 91.0804 34.52 91.2484 34.104V33.072H89.2684C88.1884 33.072 87.6484 33.448 87.6484 34.2C87.6484 34.568 87.7884 34.86 88.0684 35.076C88.3484 35.284 88.7404 35.388 89.2444 35.388ZM97.6666 29.64C98.2586 29.64 98.7946 29.776 99.2746 30.048C99.7546 30.312 100.131 30.688 100.403 31.176C100.675 31.664 100.811 32.22 100.811 32.844C100.811 33.468 100.675 34.024 100.403 34.512C100.131 35 99.7546 35.38 99.2746 35.652C98.7946 35.924 98.2586 36.06 97.6666 36.06C97.1386 36.06 96.6626 35.948 96.2386 35.724C95.8226 35.5 95.4866 35.176 95.2306 34.752V36H94.4146V27.096H95.2666V30.888C95.5306 30.48 95.8666 30.172 96.2746 29.964C96.6906 29.748 97.1546 29.64 97.6666 29.64ZM97.6066 35.304C98.0466 35.304 98.4466 35.204 98.8066 35.004C99.1666 34.796 99.4466 34.504 99.6466 34.128C99.8546 33.752 99.9586 33.324 99.9586 32.844C99.9586 32.364 99.8546 31.936 99.6466 31.56C99.4466 31.184 99.1666 30.896 98.8066 30.696C98.4466 30.488 98.0466 30.384 97.6066 30.384C97.1586 30.384 96.7546 30.488 96.3946 30.696C96.0426 30.896 95.7626 31.184 95.5546 31.56C95.3546 31.936 95.2546 32.364 95.2546 32.844C95.2546 33.324 95.3546 33.752 95.5546 34.128C95.7626 34.504 96.0426 34.796 96.3946 35.004C96.7546 35.204 97.1586 35.304 97.6066 35.304ZM102.547 27.096H103.399V36H102.547V27.096ZM111.266 33.108H105.986C106.034 33.764 106.286 34.296 106.742 34.704C107.198 35.104 107.774 35.304 108.47 35.304C108.862 35.304 109.222 35.236 109.55 35.1C109.878 34.956 110.162 34.748 110.402 34.476L110.882 35.028C110.602 35.364 110.25 35.62 109.826 35.796C109.41 35.972 108.95 36.06 108.446 36.06C107.798 36.06 107.222 35.924 106.718 35.652C106.222 35.372 105.834 34.988 105.554 34.5C105.274 34.012 105.134 33.46 105.134 32.844C105.134 32.228 105.266 31.676 105.53 31.188C105.802 30.7 106.17 30.32 106.634 30.048C107.106 29.776 107.634 29.64 108.218 29.64C108.802 29.64 109.326 29.776 109.79 30.048C110.254 30.32 110.618 30.7 110.882 31.188C111.146 31.668 111.278 32.22 111.278 32.844L111.266 33.108ZM108.218 30.372C107.61 30.372 107.098 30.568 106.682 30.96C106.274 31.344 106.042 31.848 105.986 32.472H110.462C110.406 31.848 110.17 31.344 109.754 30.96C109.346 30.568 108.834 30.372 108.218 30.372ZM119.477 35.616C119.317 35.76 119.117 35.872 118.877 35.952C118.645 36.024 118.401 36.06 118.145 36.06C117.553 36.06 117.097 35.9 116.777 35.58C116.457 35.26 116.297 34.808 116.297 34.224V30.408H115.169V29.688H116.297V28.308H117.149V29.688H119.069V30.408H117.149V34.176C117.149 34.552 117.241 34.84 117.425 35.04C117.617 35.232 117.889 35.328 118.241 35.328C118.417 35.328 118.585 35.3 118.745 35.244C118.913 35.188 119.057 35.108 119.177 35.004L119.477 35.616ZM124.244 29.64C125.036 29.64 125.664 29.872 126.128 30.336C126.6 30.792 126.836 31.46 126.836 32.34V36H125.984V32.424C125.984 31.768 125.82 31.268 125.492 30.924C125.164 30.58 124.696 30.408 124.088 30.408C123.408 30.408 122.868 30.612 122.468 31.02C122.076 31.42 121.88 31.976 121.88 32.688V36H121.028V27.096H121.88V30.792C122.112 30.424 122.432 30.14 122.84 29.94C123.248 29.74 123.716 29.64 124.244 29.64ZM129.149 29.688H130.001V36H129.149V29.688ZM129.581 28.308C129.405 28.308 129.257 28.248 129.137 28.128C129.017 28.008 128.957 27.864 128.957 27.696C128.957 27.536 129.017 27.396 129.137 27.276C129.257 27.156 129.405 27.096 129.581 27.096C129.757 27.096 129.905 27.156 130.025 27.276C130.145 27.388 130.205 27.524 130.205 27.684C130.205 27.86 130.145 28.008 130.025 28.128C129.905 28.248 129.757 28.308 129.581 28.308ZM134.064 36.06C133.552 36.06 133.06 35.988 132.588 35.844C132.124 35.692 131.76 35.504 131.496 35.28L131.88 34.608C132.144 34.816 132.476 34.988 132.876 35.124C133.276 35.252 133.692 35.316 134.124 35.316C134.7 35.316 135.124 35.228 135.396 35.052C135.676 34.868 135.816 34.612 135.816 34.284C135.816 34.052 135.74 33.872 135.588 33.744C135.436 33.608 135.244 33.508 135.012 33.444C134.78 33.372 134.472 33.304 134.088 33.24C133.576 33.144 133.164 33.048 132.852 32.952C132.54 32.848 132.272 32.676 132.048 32.436C131.832 32.196 131.724 31.864 131.724 31.44C131.724 30.912 131.944 30.48 132.384 30.144C132.824 29.808 133.436 29.64 134.22 29.64C134.628 29.64 135.036 29.696 135.444 29.808C135.852 29.912 136.188 30.052 136.452 30.228L136.08 30.912C135.56 30.552 134.94 30.372 134.22 30.372C133.676 30.372 133.264 30.468 132.984 30.66C132.712 30.852 132.576 31.104 132.576 31.416C132.576 31.656 132.652 31.848 132.804 31.992C132.964 32.136 133.16 32.244 133.392 32.316C133.624 32.38 133.944 32.448 134.352 32.52C134.856 32.616 135.26 32.712 135.564 32.808C135.868 32.904 136.128 33.068 136.344 33.3C136.56 33.532 136.668 33.852 136.668 34.26C136.668 34.812 136.436 35.252 135.972 35.58C135.516 35.9 134.88 36.06 134.064 36.06ZM141.383 29.688H142.235V36H141.383V29.688ZM141.815 28.308C141.639 28.308 141.491 28.248 141.371 28.128C141.251 28.008 141.191 27.864 141.191 27.696C141.191 27.536 141.251 27.396 141.371 27.276C141.491 27.156 141.639 27.096 141.815 27.096C141.991 27.096 142.139 27.156 142.259 27.276C142.379 27.388 142.439 27.524 142.439 27.684C142.439 27.86 142.379 28.008 142.259 28.128C142.139 28.248 141.991 28.308 141.815 28.308ZM146.694 27.756C146.326 27.756 146.046 27.856 145.854 28.056C145.67 28.256 145.578 28.552 145.578 28.944V29.688H147.522V30.408H145.602V36H144.75V30.408H143.622V29.688H144.75V28.908C144.75 28.332 144.914 27.876 145.242 27.54C145.578 27.204 146.05 27.036 146.658 27.036C146.898 27.036 147.13 27.072 147.354 27.144C147.578 27.208 147.766 27.304 147.918 27.432L147.63 28.068C147.382 27.86 147.07 27.756 146.694 27.756ZM157.117 29.688L153.961 36.756C153.705 37.348 153.409 37.768 153.073 38.016C152.737 38.264 152.333 38.388 151.861 38.388C151.557 38.388 151.273 38.34 151.009 38.244C150.745 38.148 150.517 38.004 150.325 37.812L150.721 37.176C151.041 37.496 151.425 37.656 151.873 37.656C152.161 37.656 152.405 37.576 152.605 37.416C152.813 37.256 153.005 36.984 153.181 36.6L153.457 35.988L150.637 29.688H151.525L153.901 35.052L156.277 29.688H157.117ZM160.721 36.06C160.113 36.06 159.565 35.924 159.077 35.652C158.589 35.372 158.205 34.988 157.925 34.5C157.645 34.012 157.505 33.46 157.505 32.844C157.505 32.228 157.645 31.676 157.925 31.188C158.205 30.7 158.589 30.32 159.077 30.048C159.565 29.776 160.113 29.64 160.721 29.64C161.329 29.64 161.877 29.776 162.365 30.048C162.853 30.32 163.233 30.7 163.505 31.188C163.785 31.676 163.925 32.228 163.925 32.844C163.925 33.46 163.785 34.012 163.505 34.5C163.233 34.988 162.853 35.372 162.365 35.652C161.877 35.924 161.329 36.06 160.721 36.06ZM160.721 35.304C161.169 35.304 161.569 35.204 161.921 35.004C162.281 34.796 162.561 34.504 162.761 34.128C162.961 33.752 163.061 33.324 163.061 32.844C163.061 32.364 162.961 31.936 162.761 31.56C162.561 31.184 162.281 30.896 161.921 30.696C161.569 30.488 161.169 30.384 160.721 30.384C160.273 30.384 159.869 30.488 159.509 30.696C159.157 30.896 158.877 31.184 158.669 31.56C158.469 31.936 158.369 32.364 158.369 32.844C158.369 33.324 158.469 33.752 158.669 34.128C158.877 34.504 159.157 34.796 159.509 35.004C159.869 35.204 160.273 35.304 160.721 35.304ZM171.353 29.688V36H170.537V34.848C170.313 35.232 170.005 35.532 169.613 35.748C169.221 35.956 168.773 36.06 168.269 36.06C167.445 36.06 166.793 35.832 166.313 35.376C165.841 34.912 165.605 34.236 165.605 33.348V29.688H166.457V33.264C166.457 33.928 166.621 34.432 166.949 34.776C167.277 35.12 167.745 35.292 168.353 35.292C169.017 35.292 169.541 35.092 169.925 34.692C170.309 34.284 170.501 33.72 170.501 33V29.688H171.353ZM186.143 29.688L183.755 36H182.951L180.959 30.828L178.967 36H178.163L175.787 29.688H176.603L178.583 35.052L180.611 29.688H181.343L183.359 35.052L185.363 29.688H186.143ZM189.447 29.64C190.271 29.64 190.903 29.848 191.343 30.264C191.783 30.672 192.003 31.28 192.003 32.088V36H191.187V35.016C190.995 35.344 190.711 35.6 190.335 35.784C189.967 35.968 189.527 36.06 189.015 36.06C188.311 36.06 187.751 35.892 187.335 35.556C186.919 35.22 186.711 34.776 186.711 34.224C186.711 33.688 186.903 33.256 187.287 32.928C187.679 32.6 188.299 32.436 189.147 32.436H191.151V32.052C191.151 31.508 190.999 31.096 190.695 30.816C190.391 30.528 189.947 30.384 189.363 30.384C188.963 30.384 188.579 30.452 188.211 30.588C187.843 30.716 187.527 30.896 187.263 31.128L186.879 30.492C187.199 30.22 187.583 30.012 188.031 29.868C188.479 29.716 188.951 29.64 189.447 29.64ZM189.147 35.388C189.627 35.388 190.039 35.28 190.383 35.064C190.727 34.84 190.983 34.52 191.151 34.104V33.072H189.171C188.091 33.072 187.551 33.448 187.551 34.2C187.551 34.568 187.691 34.86 187.971 35.076C188.251 35.284 188.643 35.388 189.147 35.388ZM197.533 29.64C198.325 29.64 198.953 29.872 199.417 30.336C199.889 30.792 200.125 31.46 200.125 32.34V36H199.273V32.424C199.273 31.768 199.109 31.268 198.781 30.924C198.453 30.58 197.985 30.408 197.377 30.408C196.697 30.408 196.157 30.612 195.757 31.02C195.365 31.42 195.169 31.976 195.169 32.688V36H194.317V29.688H195.133V30.852C195.365 30.468 195.685 30.172 196.093 29.964C196.509 29.748 196.989 29.64 197.533 29.64ZM205.762 35.616C205.602 35.76 205.402 35.872 205.162 35.952C204.93 36.024 204.686 36.06 204.43 36.06C203.838 36.06 203.382 35.9 203.062 35.58C202.742 35.26 202.582 34.808 202.582 34.224V30.408H201.454V29.688H202.582V28.308H203.434V29.688H205.354V30.408H203.434V34.176C203.434 34.552 203.526 34.84 203.71 35.04C203.902 35.232 204.174 35.328 204.526 35.328C204.702 35.328 204.87 35.3 205.03 35.244C205.198 35.188 205.342 35.108 205.462 35.004L205.762 35.616ZM212.542 27.756C212.174 27.756 211.894 27.856 211.702 28.056C211.518 28.256 211.426 28.552 211.426 28.944V29.688H213.37V30.408H211.45V36H210.598V30.408H209.47V29.688H210.598V28.908C210.598 28.332 210.762 27.876 211.09 27.54C211.426 27.204 211.898 27.036 212.506 27.036C212.746 27.036 212.978 27.072 213.202 27.144C213.426 27.208 213.614 27.304 213.766 27.432L213.478 28.068C213.23 27.86 212.918 27.756 212.542 27.756ZM216.995 36.06C216.387 36.06 215.839 35.924 215.351 35.652C214.863 35.372 214.479 34.988 214.199 34.5C213.919 34.012 213.779 33.46 213.779 32.844C213.779 32.228 213.919 31.676 214.199 31.188C214.479 30.7 214.863 30.32 215.351 30.048C215.839 29.776 216.387 29.64 216.995 29.64C217.603 29.64 218.151 29.776 218.639 30.048C219.127 30.32 219.507 30.7 219.779 31.188C220.059 31.676 220.199 32.228 220.199 32.844C220.199 33.46 220.059 34.012 219.779 34.5C219.507 34.988 219.127 35.372 218.639 35.652C218.151 35.924 217.603 36.06 216.995 36.06ZM216.995 35.304C217.443 35.304 217.843 35.204 218.195 35.004C218.555 34.796 218.835 34.504 219.035 34.128C219.235 33.752 219.335 33.324 219.335 32.844C219.335 32.364 219.235 31.936 219.035 31.56C218.835 31.184 218.555 30.896 218.195 30.696C217.843 30.488 217.443 30.384 216.995 30.384C216.547 30.384 216.143 30.488 215.783 30.696C215.431 30.896 215.151 31.184 214.943 31.56C214.743 31.936 214.643 32.364 214.643 32.844C214.643 33.324 214.743 33.752 214.943 34.128C215.151 34.504 215.431 34.796 215.783 35.004C216.143 35.204 216.547 35.304 216.995 35.304ZM222.754 30.924C222.954 30.5 223.25 30.18 223.642 29.964C224.042 29.748 224.534 29.64 225.118 29.64V30.468L224.914 30.456C224.25 30.456 223.73 30.66 223.354 31.068C222.978 31.476 222.79 32.048 222.79 32.784V36H221.938V29.688H222.754V30.924ZM235.583 29.688V36H234.767V34.848C234.543 35.232 234.235 35.532 233.843 35.748C233.451 35.956 233.003 36.06 232.499 36.06C231.675 36.06 231.023 35.832 230.543 35.376C230.071 34.912 229.835 34.236 229.835 33.348V29.688H230.687V33.264C230.687 33.928 230.851 34.432 231.179 34.776C231.507 35.12 231.975 35.292 232.583 35.292C233.247 35.292 233.771 35.092 234.155 34.692C234.539 34.284 234.731 33.72 234.731 33V29.688H235.583ZM239.661 36.06C239.149 36.06 238.657 35.988 238.185 35.844C237.721 35.692 237.357 35.504 237.093 35.28L237.477 34.608C237.741 34.816 238.073 34.988 238.473 35.124C238.873 35.252 239.289 35.316 239.721 35.316C240.297 35.316 240.721 35.228 240.993 35.052C241.273 34.868 241.413 34.612 241.413 34.284C241.413 34.052 241.337 33.872 241.185 33.744C241.033 33.608 240.841 33.508 240.609 33.444C240.377 33.372 240.069 33.304 239.685 33.24C239.173 33.144 238.761 33.048 238.449 32.952C238.137 32.848 237.869 32.676 237.645 32.436C237.429 32.196 237.321 31.864 237.321 31.44C237.321 30.912 237.541 30.48 237.981 30.144C238.421 29.808 239.033 29.64 239.817 29.64C240.225 29.64 240.633 29.696 241.041 29.808C241.449 29.912 241.785 30.052 242.049 30.228L241.677 30.912C241.157 30.552 240.537 30.372 239.817 30.372C239.273 30.372 238.861 30.468 238.581 30.66C238.309 30.852 238.173 31.104 238.173 31.416C238.173 31.656 238.249 31.848 238.401 31.992C238.561 32.136 238.757 32.244 238.989 32.316C239.221 32.38 239.541 32.448 239.949 32.52C240.453 32.616 240.857 32.712 241.161 32.808C241.465 32.904 241.725 33.068 241.941 33.3C242.157 33.532 242.265 33.852 242.265 34.26C242.265 34.812 242.033 35.252 241.569 35.58C241.113 35.9 240.477 36.06 239.661 36.06ZM250.305 35.616C250.145 35.76 249.945 35.872 249.705 35.952C249.473 36.024 249.229 36.06 248.973 36.06C248.381 36.06 247.925 35.9 247.605 35.58C247.285 35.26 247.125 34.808 247.125 34.224V30.408H245.997V29.688H247.125V28.308H247.977V29.688H249.897V30.408H247.977V34.176C247.977 34.552 248.069 34.84 248.253 35.04C248.445 35.232 248.717 35.328 249.069 35.328C249.245 35.328 249.413 35.3 249.573 35.244C249.741 35.188 249.885 35.108 250.005 35.004L250.305 35.616ZM254.213 36.06C253.605 36.06 253.057 35.924 252.569 35.652C252.081 35.372 251.697 34.988 251.417 34.5C251.137 34.012 250.997 33.46 250.997 32.844C250.997 32.228 251.137 31.676 251.417 31.188C251.697 30.7 252.081 30.32 252.569 30.048C253.057 29.776 253.605 29.64 254.213 29.64C254.821 29.64 255.369 29.776 255.857 30.048C256.345 30.32 256.725 30.7 256.997 31.188C257.277 31.676 257.417 32.228 257.417 32.844C257.417 33.46 257.277 34.012 256.997 34.5C256.725 34.988 256.345 35.372 255.857 35.652C255.369 35.924 254.821 36.06 254.213 36.06ZM254.213 35.304C254.661 35.304 255.061 35.204 255.413 35.004C255.773 34.796 256.053 34.504 256.253 34.128C256.453 33.752 256.553 33.324 256.553 32.844C256.553 32.364 256.453 31.936 256.253 31.56C256.053 31.184 255.773 30.896 255.413 30.696C255.061 30.488 254.661 30.384 254.213 30.384C253.765 30.384 253.361 30.488 253.001 30.696C252.649 30.896 252.369 31.184 252.161 31.56C251.961 31.936 251.861 32.364 251.861 32.844C251.861 33.324 251.961 33.752 252.161 34.128C252.369 34.504 252.649 34.796 253.001 35.004C253.361 35.204 253.765 35.304 254.213 35.304ZM265.513 29.64C266.305 29.64 266.933 29.872 267.397 30.336C267.869 30.792 268.105 31.46 268.105 32.34V36H267.253V32.424C267.253 31.768 267.089 31.268 266.761 30.924C266.433 30.58 265.965 30.408 265.357 30.408C264.677 30.408 264.137 30.612 263.737 31.02C263.345 31.42 263.149 31.976 263.149 32.688V36H262.297V27.096H263.149V30.792C263.381 30.424 263.701 30.14 264.109 29.94C264.517 29.74 264.985 29.64 265.513 29.64ZM272.626 29.64C273.45 29.64 274.082 29.848 274.522 30.264C274.962 30.672 275.182 31.28 275.182 32.088V36H274.366V35.016C274.174 35.344 273.89 35.6 273.514 35.784C273.146 35.968 272.706 36.06 272.194 36.06C271.49 36.06 270.93 35.892 270.514 35.556C270.098 35.22 269.89 34.776 269.89 34.224C269.89 33.688 270.082 33.256 270.466 32.928C270.858 32.6 271.478 32.436 272.326 32.436H274.33V32.052C274.33 31.508 274.178 31.096 273.874 30.816C273.57 30.528 273.126 30.384 272.542 30.384C272.142 30.384 271.758 30.452 271.39 30.588C271.022 30.716 270.706 30.896 270.442 31.128L270.058 30.492C270.378 30.22 270.762 30.012 271.21 29.868C271.658 29.716 272.13 29.64 272.626 29.64ZM272.326 35.388C272.806 35.388 273.218 35.28 273.562 35.064C273.906 34.84 274.162 34.52 274.33 34.104V33.072H272.35C271.27 33.072 270.73 33.448 270.73 34.2C270.73 34.568 270.87 34.86 271.15 35.076C271.43 35.284 271.822 35.388 272.326 35.388ZM282.683 29.688L279.875 36H278.999L276.203 29.688H277.091L279.455 35.064L281.843 29.688H282.683ZM289.204 33.108H283.924C283.972 33.764 284.224 34.296 284.68 34.704C285.136 35.104 285.712 35.304 286.408 35.304C286.8 35.304 287.16 35.236 287.488 35.1C287.816 34.956 288.1 34.748 288.34 34.476L288.82 35.028C288.54 35.364 288.188 35.62 287.764 35.796C287.348 35.972 286.888 36.06 286.384 36.06C285.736 36.06 285.16 35.924 284.656 35.652C284.16 35.372 283.772 34.988 283.492 34.5C283.212 34.012 283.072 33.46 283.072 32.844C283.072 32.228 283.204 31.676 283.468 31.188C283.74 30.7 284.108 30.32 284.572 30.048C285.044 29.776 285.572 29.64 286.156 29.64C286.74 29.64 287.264 29.776 287.728 30.048C288.192 30.32 288.556 30.7 288.82 31.188C289.084 31.668 289.216 32.22 289.216 32.844L289.204 33.108ZM286.156 30.372C285.548 30.372 285.036 30.568 284.62 30.96C284.212 31.344 283.98 31.848 283.924 32.472H288.4C288.344 31.848 288.108 31.344 287.692 30.96C287.284 30.568 286.772 30.372 286.156 30.372ZM74.512 53.616C74.352 53.76 74.152 53.872 73.912 53.952C73.68 54.024 73.436 54.06 73.18 54.06C72.588 54.06 72.132 53.9 71.812 53.58C71.492 53.26 71.332 52.808 71.332 52.224V48.408H70.204V47.688H71.332V46.308H72.184V47.688H74.104V48.408H72.184V52.176C72.184 52.552 72.276 52.84 72.46 53.04C72.652 53.232 72.924 53.328 73.276 53.328C73.452 53.328 73.62 53.3 73.78 53.244C73.948 53.188 74.092 53.108 74.212 53.004L74.512 53.616ZM79.279 47.64C80.071 47.64 80.699 47.872 81.163 48.336C81.635 48.792 81.871 49.46 81.871 50.34V54H81.019V50.424C81.019 49.768 80.855 49.268 80.527 48.924C80.199 48.58 79.731 48.408 79.123 48.408C78.443 48.408 77.903 48.612 77.503 49.02C77.111 49.42 76.915 49.976 76.915 50.688V54H76.063V45.096H76.915V48.792C77.147 48.424 77.467 48.14 77.875 47.94C78.283 47.74 78.751 47.64 79.279 47.64ZM89.7035 51.108H84.4235C84.4715 51.764 84.7235 52.296 85.1795 52.704C85.6355 53.104 86.2115 53.304 86.9075 53.304C87.2995 53.304 87.6595 53.236 87.9875 53.1C88.3155 52.956 88.5995 52.748 88.8395 52.476L89.3195 53.028C89.0395 53.364 88.6875 53.62 88.2635 53.796C87.8475 53.972 87.3875 54.06 86.8835 54.06C86.2355 54.06 85.6595 53.924 85.1555 53.652C84.6595 53.372 84.2715 52.988 83.9915 52.5C83.7115 52.012 83.5715 51.46 83.5715 50.844C83.5715 50.228 83.7035 49.676 83.9675 49.188C84.2395 48.7 84.6075 48.32 85.0715 48.048C85.5435 47.776 86.0715 47.64 86.6555 47.64C87.2395 47.64 87.7635 47.776 88.2275 48.048C88.6915 48.32 89.0555 48.7 89.3195 49.188C89.5835 49.668 89.7155 50.22 89.7155 50.844L89.7035 51.108ZM86.6555 48.372C86.0475 48.372 85.5355 48.568 85.1195 48.96C84.7115 49.344 84.4795 49.848 84.4235 50.472H88.8995C88.8435 49.848 88.6075 49.344 88.1915 48.96C87.7835 48.568 87.2715 48.372 86.6555 48.372ZM97.1703 54.06C96.5623 54.06 96.0143 53.924 95.5263 53.652C95.0383 53.372 94.6543 52.988 94.3743 52.5C94.0943 52.012 93.9543 51.46 93.9543 50.844C93.9543 50.228 94.0943 49.676 94.3743 49.188C94.6543 48.7 95.0383 48.32 95.5263 48.048C96.0143 47.776 96.5623 47.64 97.1703 47.64C97.7783 47.64 98.3263 47.776 98.8143 48.048C99.3023 48.32 99.6823 48.7 99.9543 49.188C100.234 49.676 100.374 50.228 100.374 50.844C100.374 51.46 100.234 52.012 99.9543 52.5C99.6823 52.988 99.3023 53.372 98.8143 53.652C98.3263 53.924 97.7783 54.06 97.1703 54.06ZM97.1703 53.304C97.6183 53.304 98.0183 53.204 98.3703 53.004C98.7303 52.796 99.0103 52.504 99.2103 52.128C99.4103 51.752 99.5103 51.324 99.5103 50.844C99.5103 50.364 99.4103 49.936 99.2103 49.56C99.0103 49.184 98.7303 48.896 98.3703 48.696C98.0183 48.488 97.6183 48.384 97.1703 48.384C96.7223 48.384 96.3183 48.488 95.9583 48.696C95.6063 48.896 95.3263 49.184 95.1183 49.56C94.9183 49.936 94.8183 50.364 94.8183 50.844C94.8183 51.324 94.9183 51.752 95.1183 52.128C95.3263 52.504 95.6063 52.796 95.9583 53.004C96.3183 53.204 96.7223 53.304 97.1703 53.304ZM105.366 47.64C105.958 47.64 106.494 47.776 106.974 48.048C107.454 48.312 107.83 48.688 108.102 49.176C108.374 49.664 108.51 50.22 108.51 50.844C108.51 51.476 108.374 52.036 108.102 52.524C107.83 53.012 107.454 53.392 106.974 53.664C106.502 53.928 105.966 54.06 105.366 54.06C104.854 54.06 104.39 53.956 103.974 53.748C103.566 53.532 103.23 53.22 102.966 52.812V56.328H102.114V47.688H102.93V48.936C103.186 48.52 103.522 48.2 103.938 47.976C104.362 47.752 104.838 47.64 105.366 47.64ZM105.306 53.304C105.746 53.304 106.146 53.204 106.506 53.004C106.866 52.796 107.146 52.504 107.346 52.128C107.554 51.752 107.658 51.324 107.658 50.844C107.658 50.364 107.554 49.94 107.346 49.572C107.146 49.196 106.866 48.904 106.506 48.696C106.146 48.488 105.746 48.384 105.306 48.384C104.858 48.384 104.454 48.488 104.094 48.696C103.742 48.904 103.462 49.196 103.254 49.572C103.054 49.94 102.954 50.364 102.954 50.844C102.954 51.324 103.054 51.752 103.254 52.128C103.462 52.504 103.742 52.796 104.094 53.004C104.454 53.204 104.858 53.304 105.306 53.304ZM113.571 53.616C113.411 53.76 113.211 53.872 112.971 53.952C112.739 54.024 112.495 54.06 112.239 54.06C111.647 54.06 111.191 53.9 110.871 53.58C110.551 53.26 110.391 52.808 110.391 52.224V48.408H109.263V47.688H110.391V46.308H111.243V47.688H113.163V48.408H111.243V52.176C111.243 52.552 111.335 52.84 111.519 53.04C111.711 53.232 111.983 53.328 112.335 53.328C112.511 53.328 112.679 53.3 112.839 53.244C113.007 53.188 113.151 53.108 113.271 53.004L113.571 53.616ZM115.122 47.688H115.974V54H115.122V47.688ZM115.554 46.308C115.378 46.308 115.23 46.248 115.11 46.128C114.99 46.008 114.93 45.864 114.93 45.696C114.93 45.536 114.99 45.396 115.11 45.276C115.23 45.156 115.378 45.096 115.554 45.096C115.73 45.096 115.878 45.156 115.998 45.276C116.118 45.388 116.178 45.524 116.178 45.684C116.178 45.86 116.118 46.008 115.998 46.128C115.878 46.248 115.73 46.308 115.554 46.308ZM120.924 54.06C120.316 54.06 119.768 53.924 119.28 53.652C118.792 53.372 118.408 52.988 118.128 52.5C117.848 52.012 117.708 51.46 117.708 50.844C117.708 50.228 117.848 49.676 118.128 49.188C118.408 48.7 118.792 48.32 119.28 48.048C119.768 47.776 120.316 47.64 120.924 47.64C121.532 47.64 122.08 47.776 122.568 48.048C123.056 48.32 123.436 48.7 123.708 49.188C123.988 49.676 124.128 50.228 124.128 50.844C124.128 51.46 123.988 52.012 123.708 52.5C123.436 52.988 123.056 53.372 122.568 53.652C122.08 53.924 121.532 54.06 120.924 54.06ZM120.924 53.304C121.372 53.304 121.772 53.204 122.124 53.004C122.484 52.796 122.764 52.504 122.964 52.128C123.164 51.752 123.264 51.324 123.264 50.844C123.264 50.364 123.164 49.936 122.964 49.56C122.764 49.184 122.484 48.896 122.124 48.696C121.772 48.488 121.372 48.384 120.924 48.384C120.476 48.384 120.072 48.488 119.712 48.696C119.36 48.896 119.08 49.184 118.872 49.56C118.672 49.936 118.572 50.364 118.572 50.844C118.572 51.324 118.672 51.752 118.872 52.128C119.08 52.504 119.36 52.796 119.712 53.004C120.072 53.204 120.476 53.304 120.924 53.304ZM129.084 47.64C129.876 47.64 130.504 47.872 130.968 48.336C131.44 48.792 131.676 49.46 131.676 50.34V54H130.824V50.424C130.824 49.768 130.66 49.268 130.332 48.924C130.004 48.58 129.536 48.408 128.928 48.408C128.248 48.408 127.708 48.612 127.308 49.02C126.916 49.42 126.72 49.976 126.72 50.688V54H125.868V47.688H126.684V48.852C126.916 48.468 127.236 48.172 127.644 47.964C128.06 47.748 128.54 47.64 129.084 47.64ZM140.453 53.616C140.293 53.76 140.093 53.872 139.853 53.952C139.621 54.024 139.377 54.06 139.121 54.06C138.529 54.06 138.073 53.9 137.753 53.58C137.433 53.26 137.273 52.808 137.273 52.224V48.408H136.145V47.688H137.273V46.308H138.125V47.688H140.045V48.408H138.125V52.176C138.125 52.552 138.217 52.84 138.401 53.04C138.593 53.232 138.865 53.328 139.217 53.328C139.393 53.328 139.561 53.3 139.721 53.244C139.889 53.188 140.033 53.108 140.153 53.004L140.453 53.616ZM144.362 54.06C143.754 54.06 143.206 53.924 142.718 53.652C142.23 53.372 141.846 52.988 141.566 52.5C141.286 52.012 141.146 51.46 141.146 50.844C141.146 50.228 141.286 49.676 141.566 49.188C141.846 48.7 142.23 48.32 142.718 48.048C143.206 47.776 143.754 47.64 144.362 47.64C144.97 47.64 145.518 47.776 146.006 48.048C146.494 48.32 146.874 48.7 147.146 49.188C147.426 49.676 147.566 50.228 147.566 50.844C147.566 51.46 147.426 52.012 147.146 52.5C146.874 52.988 146.494 53.372 146.006 53.652C145.518 53.924 144.97 54.06 144.362 54.06ZM144.362 53.304C144.81 53.304 145.21 53.204 145.562 53.004C145.922 52.796 146.202 52.504 146.402 52.128C146.602 51.752 146.702 51.324 146.702 50.844C146.702 50.364 146.602 49.936 146.402 49.56C146.202 49.184 145.922 48.896 145.562 48.696C145.21 48.488 144.81 48.384 144.362 48.384C143.914 48.384 143.51 48.488 143.15 48.696C142.798 48.896 142.518 49.184 142.31 49.56C142.11 49.936 142.01 50.364 142.01 50.844C142.01 51.324 142.11 51.752 142.31 52.128C142.518 52.504 142.798 52.796 143.15 53.004C143.51 53.204 143.914 53.304 144.362 53.304ZM153.262 48.924C153.462 48.5 153.758 48.18 154.15 47.964C154.55 47.748 155.042 47.64 155.626 47.64V48.468L155.422 48.456C154.758 48.456 154.238 48.66 153.862 49.068C153.486 49.476 153.298 50.048 153.298 50.784V54H152.446V47.688H153.262V48.924ZM162.606 51.108H157.326C157.374 51.764 157.626 52.296 158.082 52.704C158.538 53.104 159.114 53.304 159.81 53.304C160.202 53.304 160.562 53.236 160.89 53.1C161.218 52.956 161.502 52.748 161.742 52.476L162.222 53.028C161.942 53.364 161.59 53.62 161.166 53.796C160.75 53.972 160.29 54.06 159.786 54.06C159.138 54.06 158.562 53.924 158.058 53.652C157.562 53.372 157.174 52.988 156.894 52.5C156.614 52.012 156.474 51.46 156.474 50.844C156.474 50.228 156.606 49.676 156.87 49.188C157.142 48.7 157.51 48.32 157.974 48.048C158.446 47.776 158.974 47.64 159.558 47.64C160.142 47.64 160.666 47.776 161.13 48.048C161.594 48.32 161.958 48.7 162.222 49.188C162.486 49.668 162.618 50.22 162.618 50.844L162.606 51.108ZM159.558 48.372C158.95 48.372 158.438 48.568 158.022 48.96C157.614 49.344 157.382 49.848 157.326 50.472H161.802C161.746 49.848 161.51 49.344 161.094 48.96C160.686 48.568 160.174 48.372 159.558 48.372ZM166.384 47.64C167.208 47.64 167.84 47.848 168.28 48.264C168.72 48.672 168.94 49.28 168.94 50.088V54H168.124V53.016C167.932 53.344 167.648 53.6 167.272 53.784C166.904 53.968 166.464 54.06 165.952 54.06C165.248 54.06 164.688 53.892 164.272 53.556C163.856 53.22 163.648 52.776 163.648 52.224C163.648 51.688 163.84 51.256 164.224 50.928C164.616 50.6 165.236 50.436 166.084 50.436H168.088V50.052C168.088 49.508 167.936 49.096 167.632 48.816C167.328 48.528 166.884 48.384 166.3 48.384C165.9 48.384 165.516 48.452 165.148 48.588C164.78 48.716 164.464 48.896 164.2 49.128L163.816 48.492C164.136 48.22 164.52 48.012 164.968 47.868C165.416 47.716 165.888 47.64 166.384 47.64ZM166.084 53.388C166.564 53.388 166.976 53.28 167.32 53.064C167.664 52.84 167.92 52.52 168.088 52.104V51.072H166.108C165.028 51.072 164.488 51.448 164.488 52.2C164.488 52.568 164.628 52.86 164.908 53.076C165.188 53.284 165.58 53.388 166.084 53.388ZM173.894 54.06C173.27 54.06 172.71 53.924 172.214 53.652C171.726 53.38 171.342 53 171.062 52.512C170.782 52.016 170.642 51.46 170.642 50.844C170.642 50.228 170.782 49.676 171.062 49.188C171.342 48.7 171.726 48.32 172.214 48.048C172.71 47.776 173.27 47.64 173.894 47.64C174.438 47.64 174.922 47.748 175.346 47.964C175.778 48.172 176.118 48.48 176.366 48.888L175.73 49.32C175.522 49.008 175.258 48.776 174.938 48.624C174.618 48.464 174.27 48.384 173.894 48.384C173.438 48.384 173.026 48.488 172.658 48.696C172.298 48.896 172.014 49.184 171.806 49.56C171.606 49.936 171.506 50.364 171.506 50.844C171.506 51.332 171.606 51.764 171.806 52.14C172.014 52.508 172.298 52.796 172.658 53.004C173.026 53.204 173.438 53.304 173.894 53.304C174.27 53.304 174.618 53.228 174.938 53.076C175.258 52.924 175.522 52.692 175.73 52.38L176.366 52.812C176.118 53.22 175.778 53.532 175.346 53.748C174.914 53.956 174.43 54.06 173.894 54.06ZM181.162 47.64C181.954 47.64 182.582 47.872 183.046 48.336C183.518 48.792 183.754 49.46 183.754 50.34V54H182.902V50.424C182.902 49.768 182.738 49.268 182.41 48.924C182.082 48.58 181.614 48.408 181.006 48.408C180.326 48.408 179.786 48.612 179.386 49.02C178.994 49.42 178.798 49.976 178.798 50.688V54H177.946V45.096H178.798V48.792C179.03 48.424 179.35 48.14 179.758 47.94C180.166 47.74 180.634 47.64 181.162 47.64ZM194.512 47.688L191.356 54.756C191.1 55.348 190.804 55.768 190.468 56.016C190.132 56.264 189.728 56.388 189.256 56.388C188.952 56.388 188.668 56.34 188.404 56.244C188.14 56.148 187.912 56.004 187.72 55.812L188.116 55.176C188.436 55.496 188.82 55.656 189.268 55.656C189.556 55.656 189.8 55.576 190 55.416C190.208 55.256 190.4 54.984 190.576 54.6L190.852 53.988L188.032 47.688H188.92L191.296 53.052L193.672 47.688H194.512ZM198.116 54.06C197.508 54.06 196.96 53.924 196.472 53.652C195.984 53.372 195.6 52.988 195.32 52.5C195.04 52.012 194.9 51.46 194.9 50.844C194.9 50.228 195.04 49.676 195.32 49.188C195.6 48.7 195.984 48.32 196.472 48.048C196.96 47.776 197.508 47.64 198.116 47.64C198.724 47.64 199.272 47.776 199.76 48.048C200.248 48.32 200.628 48.7 200.9 49.188C201.18 49.676 201.32 50.228 201.32 50.844C201.32 51.46 201.18 52.012 200.9 52.5C200.628 52.988 200.248 53.372 199.76 53.652C199.272 53.924 198.724 54.06 198.116 54.06ZM198.116 53.304C198.564 53.304 198.964 53.204 199.316 53.004C199.676 52.796 199.956 52.504 200.156 52.128C200.356 51.752 200.456 51.324 200.456 50.844C200.456 50.364 200.356 49.936 200.156 49.56C199.956 49.184 199.676 48.896 199.316 48.696C198.964 48.488 198.564 48.384 198.116 48.384C197.668 48.384 197.264 48.488 196.904 48.696C196.552 48.896 196.272 49.184 196.064 49.56C195.864 49.936 195.764 50.364 195.764 50.844C195.764 51.324 195.864 51.752 196.064 52.128C196.272 52.504 196.552 52.796 196.904 53.004C197.264 53.204 197.668 53.304 198.116 53.304ZM208.747 47.688V54H207.931V52.848C207.707 53.232 207.399 53.532 207.007 53.748C206.615 53.956 206.167 54.06 205.663 54.06C204.839 54.06 204.187 53.832 203.707 53.376C203.235 52.912 202.999 52.236 202.999 51.348V47.688H203.851V51.264C203.851 51.928 204.015 52.432 204.343 52.776C204.671 53.12 205.139 53.292 205.747 53.292C206.411 53.292 206.935 53.092 207.319 52.692C207.703 52.284 207.895 51.72 207.895 51V47.688H208.747ZM219.578 47.688L216.77 54H215.894L213.098 47.688H213.986L216.35 53.064L218.738 47.688H219.578ZM220.778 47.688H221.63V54H220.778V47.688ZM221.21 46.308C221.034 46.308 220.886 46.248 220.766 46.128C220.646 46.008 220.586 45.864 220.586 45.696C220.586 45.536 220.646 45.396 220.766 45.276C220.886 45.156 221.034 45.096 221.21 45.096C221.386 45.096 221.534 45.156 221.654 45.276C221.774 45.388 221.834 45.524 221.834 45.684C221.834 45.86 221.774 46.008 221.654 46.128C221.534 46.248 221.386 46.308 221.21 46.308ZM226.209 47.64C227.033 47.64 227.665 47.848 228.105 48.264C228.545 48.672 228.765 49.28 228.765 50.088V54H227.949V53.016C227.757 53.344 227.473 53.6 227.097 53.784C226.729 53.968 226.289 54.06 225.777 54.06C225.073 54.06 224.513 53.892 224.097 53.556C223.681 53.22 223.473 52.776 223.473 52.224C223.473 51.688 223.665 51.256 224.049 50.928C224.441 50.6 225.061 50.436 225.909 50.436H227.913V50.052C227.913 49.508 227.761 49.096 227.457 48.816C227.153 48.528 226.709 48.384 226.125 48.384C225.725 48.384 225.341 48.452 224.973 48.588C224.605 48.716 224.289 48.896 224.025 49.128L223.641 48.492C223.961 48.22 224.345 48.012 224.793 47.868C225.241 47.716 225.713 47.64 226.209 47.64ZM225.909 53.388C226.389 53.388 226.801 53.28 227.145 53.064C227.489 52.84 227.745 52.52 227.913 52.104V51.072H225.933C224.853 51.072 224.312 51.448 224.312 52.2C224.312 52.568 224.453 52.86 224.733 53.076C225.013 53.284 225.405 53.388 225.909 53.388ZM246.723 45.6L243.975 54H241.887L240.039 48.312L238.131 54H236.055L233.295 45.6H235.311L237.207 51.504L239.187 45.6H240.987L242.907 51.552L244.863 45.6H246.723ZM251.776 47.448C252.576 47.448 253.22 47.688 253.708 48.168C254.204 48.648 254.452 49.36 254.452 50.304V54H252.58V50.592C252.58 50.08 252.468 49.7 252.244 49.452C252.02 49.196 251.696 49.068 251.272 49.068C250.8 49.068 250.424 49.216 250.144 49.512C249.864 49.8 249.724 50.232 249.724 50.808V54H247.852V45.096H249.724V48.216C249.972 47.968 250.272 47.78 250.624 47.652C250.976 47.516 251.36 47.448 251.776 47.448ZM258.753 47.448C259.753 47.448 260.521 47.688 261.057 48.168C261.593 48.64 261.861 49.356 261.861 50.316V54H260.109V53.196C259.757 53.796 259.101 54.096 258.141 54.096C257.645 54.096 257.213 54.012 256.845 53.844C256.485 53.676 256.209 53.444 256.017 53.148C255.825 52.852 255.729 52.516 255.729 52.14C255.729 51.54 255.953 51.068 256.401 50.724C256.857 50.38 257.557 50.208 258.501 50.208H259.989C259.989 49.8 259.865 49.488 259.617 49.272C259.369 49.048 258.997 48.936 258.501 48.936C258.157 48.936 257.817 48.992 257.481 49.104C257.153 49.208 256.873 49.352 256.641 49.536L255.969 48.228C256.321 47.98 256.741 47.788 257.229 47.652C257.725 47.516 258.233 47.448 258.753 47.448ZM258.609 52.836C258.929 52.836 259.213 52.764 259.461 52.62C259.709 52.468 259.885 52.248 259.989 51.96V51.3H258.705C257.937 51.3 257.553 51.552 257.553 52.056C257.553 52.296 257.645 52.488 257.829 52.632C258.021 52.768 258.281 52.836 258.609 52.836ZM267.719 53.688C267.535 53.824 267.307 53.928 267.035 54C266.771 54.064 266.491 54.096 266.195 54.096C265.427 54.096 264.831 53.9 264.407 53.508C263.991 53.116 263.783 52.54 263.783 51.78V49.128H262.787V47.688H263.783V46.116H265.655V47.688H267.263V49.128H265.655V51.756C265.655 52.028 265.723 52.24 265.859 52.392C266.003 52.536 266.203 52.608 266.459 52.608C266.755 52.608 267.007 52.528 267.215 52.368L267.719 53.688ZM270.942 54.096C270.406 54.096 269.882 54.032 269.37 53.904C268.858 53.768 268.45 53.6 268.146 53.4L268.77 52.056C269.058 52.24 269.406 52.392 269.814 52.512C270.222 52.624 270.622 52.68 271.014 52.68C271.806 52.68 272.202 52.484 272.202 52.092C272.202 51.908 272.094 51.776 271.878 51.696C271.662 51.616 271.33 51.548 270.882 51.492C270.354 51.412 269.918 51.32 269.574 51.216C269.23 51.112 268.93 50.928 268.674 50.664C268.426 50.4 268.302 50.024 268.302 49.536C268.302 49.128 268.418 48.768 268.65 48.456C268.89 48.136 269.234 47.888 269.682 47.712C270.138 47.536 270.674 47.448 271.29 47.448C271.746 47.448 272.198 47.5 272.646 47.604C273.102 47.7 273.478 47.836 273.774 48.012L273.15 49.344C272.582 49.024 271.962 48.864 271.29 48.864C270.89 48.864 270.59 48.92 270.39 49.032C270.19 49.144 270.09 49.288 270.09 49.464C270.09 49.664 270.198 49.804 270.414 49.884C270.63 49.964 270.974 50.04 271.446 50.112C271.974 50.2 272.406 50.296 272.742 50.4C273.078 50.496 273.37 50.676 273.618 50.94C273.866 51.204 273.99 51.572 273.99 52.044C273.99 52.444 273.87 52.8 273.63 53.112C273.39 53.424 273.038 53.668 272.574 53.844C272.118 54.012 271.574 54.096 270.942 54.096ZM280.809 52.2H276.909L276.165 54H274.173L277.917 45.6H279.837L283.593 54H281.553L280.809 52.2ZM280.197 50.724L278.865 47.508L277.533 50.724H280.197ZM288.149 47.448C288.749 47.448 289.293 47.588 289.781 47.868C290.277 48.14 290.665 48.528 290.945 49.032C291.225 49.528 291.365 50.108 291.365 50.772C291.365 51.436 291.225 52.02 290.945 52.524C290.665 53.02 290.277 53.408 289.781 53.688C289.293 53.96 288.749 54.096 288.149 54.096C287.325 54.096 286.677 53.836 286.205 53.316V56.328H284.333V47.544H286.121V48.288C286.585 47.728 287.261 47.448 288.149 47.448ZM287.825 52.56C288.305 52.56 288.697 52.4 289.001 52.08C289.313 51.752 289.469 51.316 289.469 50.772C289.469 50.228 289.313 49.796 289.001 49.476C288.697 49.148 288.305 48.984 287.825 48.984C287.345 48.984 286.949 49.148 286.637 49.476C286.333 49.796 286.181 50.228 286.181 50.772C286.181 51.316 286.333 51.752 286.637 52.08C286.949 52.4 287.345 52.56 287.825 52.56ZM296.434 47.448C297.034 47.448 297.578 47.588 298.066 47.868C298.562 48.14 298.95 48.528 299.23 49.032C299.51 49.528 299.65 50.108 299.65 50.772C299.65 51.436 299.51 52.02 299.23 52.524C298.95 53.02 298.562 53.408 298.066 53.688C297.578 53.96 297.034 54.096 296.434 54.096C295.61 54.096 294.962 53.836 294.49 53.316V56.328H292.618V47.544H294.406V48.288C294.87 47.728 295.546 47.448 296.434 47.448ZM296.11 52.56C296.59 52.56 296.982 52.4 297.286 52.08C297.598 51.752 297.754 51.316 297.754 50.772C297.754 50.228 297.598 49.796 297.286 49.476C296.982 49.148 296.59 48.984 296.11 48.984C295.63 48.984 295.234 49.148 294.922 49.476C294.618 49.796 294.466 50.228 294.466 50.772C294.466 51.316 294.618 51.752 294.922 52.08C295.234 52.4 295.63 52.56 296.11 52.56ZM76.876 65.688V72H76.06V70.848C75.836 71.232 75.528 71.532 75.136 71.748C74.744 71.956 74.296 72.06 73.792 72.06C72.968 72.06 72.316 71.832 71.836 71.376C71.364 70.912 71.128 70.236 71.128 69.348V65.688H71.98V69.264C71.98 69.928 72.144 70.432 72.472 70.776C72.8 71.12 73.268 71.292 73.876 71.292C74.54 71.292 75.064 71.092 75.448 70.692C75.832 70.284 76.024 69.72 76.024 69V65.688H76.876ZM80.9542 72.06C80.4422 72.06 79.9502 71.988 79.4782 71.844C79.0142 71.692 78.6502 71.504 78.3862 71.28L78.7702 70.608C79.0342 70.816 79.3662 70.988 79.7662 71.124C80.1662 71.252 80.5822 71.316 81.0142 71.316C81.5902 71.316 82.0142 71.228 82.2862 71.052C82.5662 70.868 82.7062 70.612 82.7062 70.284C82.7062 70.052 82.6302 69.872 82.4782 69.744C82.3262 69.608 82.1342 69.508 81.9022 69.444C81.6702 69.372 81.3622 69.304 80.9782 69.24C80.4662 69.144 80.0542 69.048 79.7422 68.952C79.4302 68.848 79.1622 68.676 78.9382 68.436C78.7222 68.196 78.6142 67.864 78.6142 67.44C78.6142 66.912 78.8342 66.48 79.2742 66.144C79.7142 65.808 80.3262 65.64 81.1102 65.64C81.5182 65.64 81.9262 65.696 82.3342 65.808C82.7422 65.912 83.0782 66.052 83.3422 66.228L82.9702 66.912C82.4502 66.552 81.8302 66.372 81.1102 66.372C80.5662 66.372 80.1542 66.468 79.8742 66.66C79.6022 66.852 79.4662 67.104 79.4662 67.416C79.4662 67.656 79.5422 67.848 79.6942 67.992C79.8542 68.136 80.0502 68.244 80.2822 68.316C80.5142 68.38 80.8342 68.448 81.2422 68.52C81.7462 68.616 82.1502 68.712 82.4542 68.808C82.7582 68.904 83.0182 69.068 83.2342 69.3C83.4502 69.532 83.5582 69.852 83.5582 70.26C83.5582 70.812 83.3262 71.252 82.8622 71.58C82.4062 71.9 81.7702 72.06 80.9542 72.06ZM85.1333 65.688H85.9853V72H85.1333V65.688ZM85.5653 64.308C85.3893 64.308 85.2413 64.248 85.1213 64.128C85.0013 64.008 84.9413 63.864 84.9413 63.696C84.9413 63.536 85.0013 63.396 85.1213 63.276C85.2413 63.156 85.3893 63.096 85.5653 63.096C85.7413 63.096 85.8893 63.156 86.0093 63.276C86.1293 63.388 86.1893 63.524 86.1893 63.684C86.1893 63.86 86.1293 64.008 86.0093 64.128C85.8893 64.248 85.7413 64.308 85.5653 64.308ZM91.572 65.64C92.364 65.64 92.992 65.872 93.456 66.336C93.928 66.792 94.164 67.46 94.164 68.34V72H93.312V68.424C93.312 67.768 93.148 67.268 92.82 66.924C92.492 66.58 92.024 66.408 91.416 66.408C90.736 66.408 90.196 66.612 89.796 67.02C89.404 67.42 89.208 67.976 89.208 68.688V72H88.356V65.688H89.172V66.852C89.404 66.468 89.724 66.172 90.132 65.964C90.548 65.748 91.028 65.64 91.572 65.64ZM102.345 65.688V71.232C102.345 72.304 102.081 73.096 101.553 73.608C101.033 74.128 100.245 74.388 99.1885 74.388C98.6045 74.388 98.0485 74.3 97.5205 74.124C97.0005 73.956 96.5765 73.72 96.2485 73.416L96.6805 72.768C96.9845 73.04 97.3525 73.252 97.7845 73.404C98.2245 73.556 98.6845 73.632 99.1645 73.632C99.9645 73.632 100.553 73.444 100.929 73.068C101.305 72.7 101.493 72.124 101.493 71.34V70.536C101.229 70.936 100.881 71.24 100.449 71.448C100.025 71.656 99.5525 71.76 99.0325 71.76C98.4405 71.76 97.9005 71.632 97.4125 71.376C96.9325 71.112 96.5525 70.748 96.2725 70.284C96.0005 69.812 95.8645 69.28 95.8645 68.688C95.8645 68.096 96.0005 67.568 96.2725 67.104C96.5525 66.64 96.9325 66.28 97.4125 66.024C97.8925 65.768 98.4325 65.64 99.0325 65.64C99.5685 65.64 100.053 65.748 100.485 65.964C100.917 66.18 101.265 66.492 101.529 66.9V65.688H102.345ZM99.1165 71.004C99.5725 71.004 99.9845 70.908 100.353 70.716C100.721 70.516 101.005 70.24 101.205 69.888C101.413 69.536 101.517 69.136 101.517 68.688C101.517 68.24 101.413 67.844 101.205 67.5C101.005 67.148 100.721 66.876 100.353 66.684C99.9925 66.484 99.5805 66.384 99.1165 66.384C98.6605 66.384 98.2485 66.48 97.8805 66.672C97.5205 66.864 97.2365 67.136 97.0285 67.488C96.8285 67.84 96.7285 68.24 96.7285 68.688C96.7285 69.136 96.8285 69.536 97.0285 69.888C97.2365 70.24 97.5205 70.516 97.8805 70.716C98.2485 70.908 98.6605 71.004 99.1165 71.004ZM111.192 71.616C111.032 71.76 110.832 71.872 110.592 71.952C110.36 72.024 110.116 72.06 109.86 72.06C109.268 72.06 108.812 71.9 108.492 71.58C108.172 71.26 108.012 70.808 108.012 70.224V66.408H106.884V65.688H108.012V64.308H108.864V65.688H110.784V66.408H108.864V70.176C108.864 70.552 108.956 70.84 109.14 71.04C109.332 71.232 109.604 71.328 109.956 71.328C110.132 71.328 110.3 71.3 110.46 71.244C110.628 71.188 110.772 71.108 110.892 71.004L111.192 71.616ZM115.959 65.64C116.751 65.64 117.379 65.872 117.843 66.336C118.315 66.792 118.551 67.46 118.551 68.34V72H117.699V68.424C117.699 67.768 117.535 67.268 117.207 66.924C116.879 66.58 116.411 66.408 115.803 66.408C115.123 66.408 114.583 66.612 114.183 67.02C113.791 67.42 113.595 67.976 113.595 68.688V72H112.743V63.096H113.595V66.792C113.827 66.424 114.147 66.14 114.555 65.94C114.963 65.74 115.431 65.64 115.959 65.64ZM126.383 69.108H121.103C121.151 69.764 121.403 70.296 121.859 70.704C122.315 71.104 122.891 71.304 123.587 71.304C123.979 71.304 124.339 71.236 124.667 71.1C124.995 70.956 125.279 70.748 125.519 70.476L125.999 71.028C125.719 71.364 125.367 71.62 124.943 71.796C124.527 71.972 124.067 72.06 123.563 72.06C122.915 72.06 122.339 71.924 121.835 71.652C121.339 71.372 120.951 70.988 120.671 70.5C120.391 70.012 120.251 69.46 120.251 68.844C120.251 68.228 120.383 67.676 120.647 67.188C120.919 66.7 121.287 66.32 121.751 66.048C122.223 65.776 122.751 65.64 123.335 65.64C123.919 65.64 124.443 65.776 124.907 66.048C125.371 66.32 125.735 66.7 125.999 67.188C126.263 67.668 126.395 68.22 126.395 68.844L126.383 69.108ZM123.335 66.372C122.727 66.372 122.215 66.568 121.799 66.96C121.391 67.344 121.159 67.848 121.103 68.472H125.579C125.523 67.848 125.287 67.344 124.871 66.96C124.463 66.568 123.951 66.372 123.335 66.372ZM134.486 65.64C135.278 65.64 135.906 65.872 136.37 66.336C136.842 66.792 137.078 67.46 137.078 68.34V72H136.226V68.424C136.226 67.768 136.062 67.268 135.734 66.924C135.406 66.58 134.938 66.408 134.33 66.408C133.65 66.408 133.11 66.612 132.71 67.02C132.318 67.42 132.122 67.976 132.122 68.688V72H131.27V65.688H132.086V66.852C132.318 66.468 132.638 66.172 133.046 65.964C133.462 65.748 133.942 65.64 134.486 65.64ZM145.079 65.688V72H144.263V70.848C144.039 71.232 143.731 71.532 143.339 71.748C142.947 71.956 142.499 72.06 141.995 72.06C141.171 72.06 140.519 71.832 140.039 71.376C139.567 70.912 139.331 70.236 139.331 69.348V65.688H140.183V69.264C140.183 69.928 140.347 70.432 140.675 70.776C141.003 71.12 141.471 71.292 142.079 71.292C142.743 71.292 143.267 71.092 143.651 70.692C144.035 70.284 144.227 69.72 144.227 69V65.688H145.079ZM155.337 65.64C156.129 65.64 156.749 65.868 157.197 66.324C157.653 66.78 157.881 67.452 157.881 68.34V72H157.029V68.424C157.029 67.768 156.869 67.268 156.549 66.924C156.237 66.58 155.793 66.408 155.217 66.408C154.561 66.408 154.045 66.612 153.669 67.02C153.293 67.42 153.105 67.976 153.105 68.688V72H152.253V68.424C152.253 67.768 152.093 67.268 151.773 66.924C151.461 66.58 151.013 66.408 150.429 66.408C149.781 66.408 149.265 66.612 148.881 67.02C148.505 67.42 148.317 67.976 148.317 68.688V72H147.465V65.688H148.281V66.84C148.505 66.456 148.817 66.16 149.217 65.952C149.617 65.744 150.077 65.64 150.597 65.64C151.125 65.64 151.581 65.752 151.965 65.976C152.357 66.2 152.649 66.532 152.841 66.972C153.073 66.556 153.405 66.232 153.837 66C154.277 65.76 154.777 65.64 155.337 65.64ZM163.444 65.64C164.036 65.64 164.572 65.776 165.052 66.048C165.532 66.312 165.908 66.688 166.18 67.176C166.452 67.664 166.588 68.22 166.588 68.844C166.588 69.468 166.452 70.024 166.18 70.512C165.908 71 165.532 71.38 165.052 71.652C164.572 71.924 164.036 72.06 163.444 72.06C162.916 72.06 162.44 71.948 162.016 71.724C161.6 71.5 161.264 71.176 161.008 70.752V72H160.192V63.096H161.044V66.888C161.308 66.48 161.644 66.172 162.052 65.964C162.468 65.748 162.932 65.64 163.444 65.64ZM163.384 71.304C163.824 71.304 164.224 71.204 164.584 71.004C164.944 70.796 165.224 70.504 165.424 70.128C165.632 69.752 165.736 69.324 165.736 68.844C165.736 68.364 165.632 67.936 165.424 67.56C165.224 67.184 164.944 66.896 164.584 66.696C164.224 66.488 163.824 66.384 163.384 66.384C162.936 66.384 162.532 66.488 162.172 66.696C161.82 66.896 161.54 67.184 161.332 67.56C161.132 67.936 161.032 68.364 161.032 68.844C161.032 69.324 161.132 69.752 161.332 70.128C161.54 70.504 161.82 70.796 162.172 71.004C162.532 71.204 162.936 71.304 163.384 71.304ZM173.821 69.108H168.541C168.589 69.764 168.841 70.296 169.297 70.704C169.753 71.104 170.329 71.304 171.025 71.304C171.417 71.304 171.777 71.236 172.105 71.1C172.433 70.956 172.717 70.748 172.957 70.476L173.437 71.028C173.157 71.364 172.805 71.62 172.381 71.796C171.965 71.972 171.505 72.06 171.001 72.06C170.353 72.06 169.777 71.924 169.273 71.652C168.777 71.372 168.389 70.988 168.109 70.5C167.829 70.012 167.689 69.46 167.689 68.844C167.689 68.228 167.821 67.676 168.085 67.188C168.357 66.7 168.725 66.32 169.189 66.048C169.661 65.776 170.189 65.64 170.773 65.64C171.357 65.64 171.881 65.776 172.345 66.048C172.809 66.32 173.173 66.7 173.437 67.188C173.701 67.668 173.833 68.22 173.833 68.844L173.821 69.108ZM170.773 66.372C170.165 66.372 169.653 66.568 169.237 66.96C168.829 67.344 168.597 67.848 168.541 68.472H173.017C172.961 67.848 172.725 67.344 172.309 66.96C171.901 66.568 171.389 66.372 170.773 66.372ZM176.383 66.924C176.583 66.5 176.879 66.18 177.271 65.964C177.671 65.748 178.163 65.64 178.747 65.64V66.468L178.543 66.456C177.879 66.456 177.359 66.66 176.983 67.068C176.607 67.476 176.419 68.048 176.419 68.784V72H175.567V65.688H176.383V66.924ZM186.776 65.64C187.368 65.64 187.904 65.776 188.384 66.048C188.864 66.312 189.24 66.688 189.512 67.176C189.784 67.664 189.92 68.22 189.92 68.844C189.92 69.476 189.784 70.036 189.512 70.524C189.24 71.012 188.864 71.392 188.384 71.664C187.912 71.928 187.376 72.06 186.776 72.06C186.264 72.06 185.8 71.956 185.384 71.748C184.976 71.532 184.64 71.22 184.376 70.812V74.328H183.524V65.688H184.34V66.936C184.596 66.52 184.932 66.2 185.348 65.976C185.772 65.752 186.248 65.64 186.776 65.64ZM186.716 71.304C187.156 71.304 187.556 71.204 187.916 71.004C188.276 70.796 188.556 70.504 188.756 70.128C188.964 69.752 189.068 69.324 189.068 68.844C189.068 68.364 188.964 67.94 188.756 67.572C188.556 67.196 188.276 66.904 187.916 66.696C187.556 66.488 187.156 66.384 186.716 66.384C186.268 66.384 185.864 66.488 185.504 66.696C185.152 66.904 184.872 67.196 184.664 67.572C184.464 67.94 184.364 68.364 184.364 68.844C184.364 69.324 184.464 69.752 184.664 70.128C184.872 70.504 185.152 70.796 185.504 71.004C185.864 71.204 186.268 71.304 186.716 71.304ZM192.473 66.924C192.673 66.5 192.969 66.18 193.361 65.964C193.761 65.748 194.253 65.64 194.837 65.64V66.468L194.633 66.456C193.969 66.456 193.449 66.66 193.073 67.068C192.697 67.476 192.509 68.048 192.509 68.784V72H191.657V65.688H192.473V66.924ZM198.901 72.06C198.293 72.06 197.745 71.924 197.257 71.652C196.769 71.372 196.385 70.988 196.105 70.5C195.825 70.012 195.685 69.46 195.685 68.844C195.685 68.228 195.825 67.676 196.105 67.188C196.385 66.7 196.769 66.32 197.257 66.048C197.745 65.776 198.293 65.64 198.901 65.64C199.509 65.64 200.057 65.776 200.545 66.048C201.033 66.32 201.413 66.7 201.685 67.188C201.965 67.676 202.105 68.228 202.105 68.844C202.105 69.46 201.965 70.012 201.685 70.5C201.413 70.988 201.033 71.372 200.545 71.652C200.057 71.924 199.509 72.06 198.901 72.06ZM198.901 71.304C199.349 71.304 199.749 71.204 200.101 71.004C200.461 70.796 200.741 70.504 200.941 70.128C201.141 69.752 201.241 69.324 201.241 68.844C201.241 68.364 201.141 67.936 200.941 67.56C200.741 67.184 200.461 66.896 200.101 66.696C199.749 66.488 199.349 66.384 198.901 66.384C198.453 66.384 198.049 66.488 197.689 66.696C197.337 66.896 197.057 67.184 196.849 67.56C196.649 67.936 196.549 68.364 196.549 68.844C196.549 69.324 196.649 69.752 196.849 70.128C197.057 70.504 197.337 70.796 197.689 71.004C198.049 71.204 198.453 71.304 198.901 71.304ZM208.972 65.688L206.164 72H205.288L202.492 65.688H203.38L205.744 71.064L208.132 65.688H208.972ZM210.172 65.688H211.024V72H210.172V65.688ZM210.604 64.308C210.428 64.308 210.28 64.248 210.16 64.128C210.04 64.008 209.98 63.864 209.98 63.696C209.98 63.536 210.04 63.396 210.16 63.276C210.28 63.156 210.428 63.096 210.604 63.096C210.78 63.096 210.928 63.156 211.048 63.276C211.168 63.388 211.228 63.524 211.228 63.684C211.228 63.86 211.168 64.008 211.048 64.128C210.928 64.248 210.78 64.308 210.604 64.308ZM219.155 63.096V72H218.339V70.752C218.083 71.176 217.743 71.5 217.319 71.724C216.903 71.948 216.431 72.06 215.903 72.06C215.311 72.06 214.775 71.924 214.295 71.652C213.815 71.38 213.439 71 213.167 70.512C212.895 70.024 212.759 69.468 212.759 68.844C212.759 68.22 212.895 67.664 213.167 67.176C213.439 66.688 213.815 66.312 214.295 66.048C214.775 65.776 215.311 65.64 215.903 65.64C216.415 65.64 216.875 65.748 217.283 65.964C217.699 66.172 218.039 66.48 218.303 66.888V63.096H219.155ZM215.975 71.304C216.415 71.304 216.811 71.204 217.163 71.004C217.523 70.796 217.803 70.504 218.003 70.128C218.211 69.752 218.315 69.324 218.315 68.844C218.315 68.364 218.211 67.936 218.003 67.56C217.803 67.184 217.523 66.896 217.163 66.696C216.811 66.488 216.415 66.384 215.975 66.384C215.527 66.384 215.123 66.488 214.763 66.696C214.411 66.896 214.131 67.184 213.923 67.56C213.723 67.936 213.623 68.364 213.623 68.844C213.623 69.324 213.723 69.752 213.923 70.128C214.131 70.504 214.411 70.796 214.763 71.004C215.123 71.204 215.527 71.304 215.975 71.304ZM227.024 69.108H221.744C221.792 69.764 222.044 70.296 222.5 70.704C222.956 71.104 223.532 71.304 224.228 71.304C224.62 71.304 224.98 71.236 225.308 71.1C225.636 70.956 225.92 70.748 226.16 70.476L226.64 71.028C226.36 71.364 226.008 71.62 225.584 71.796C225.168 71.972 224.708 72.06 224.204 72.06C223.556 72.06 222.98 71.924 222.476 71.652C221.98 71.372 221.592 70.988 221.312 70.5C221.032 70.012 220.892 69.46 220.892 68.844C220.892 68.228 221.024 67.676 221.288 67.188C221.56 66.7 221.928 66.32 222.392 66.048C222.864 65.776 223.392 65.64 223.976 65.64C224.56 65.64 225.084 65.776 225.548 66.048C226.012 66.32 226.376 66.7 226.64 67.188C226.904 67.668 227.036 68.22 227.036 68.844L227.024 69.108ZM223.976 66.372C223.368 66.372 222.856 66.568 222.44 66.96C222.032 67.344 221.8 67.848 221.744 68.472H226.22C226.164 67.848 225.928 67.344 225.512 66.96C225.104 66.568 224.592 66.372 223.976 66.372ZM234.53 63.096V72H233.714V70.752C233.458 71.176 233.118 71.5 232.694 71.724C232.278 71.948 231.806 72.06 231.278 72.06C230.686 72.06 230.15 71.924 229.67 71.652C229.19 71.38 228.814 71 228.542 70.512C228.27 70.024 228.134 69.468 228.134 68.844C228.134 68.22 228.27 67.664 228.542 67.176C228.814 66.688 229.19 66.312 229.67 66.048C230.15 65.776 230.686 65.64 231.278 65.64C231.79 65.64 232.25 65.748 232.658 65.964C233.074 66.172 233.414 66.48 233.678 66.888V63.096H234.53ZM231.35 71.304C231.79 71.304 232.186 71.204 232.538 71.004C232.898 70.796 233.178 70.504 233.378 70.128C233.586 69.752 233.69 69.324 233.69 68.844C233.69 68.364 233.586 67.936 233.378 67.56C233.178 67.184 232.898 66.896 232.538 66.696C232.186 66.488 231.79 66.384 231.35 66.384C230.902 66.384 230.498 66.488 230.138 66.696C229.786 66.896 229.506 67.184 229.298 67.56C229.098 67.936 228.998 68.364 228.998 68.844C228.998 69.324 229.098 69.752 229.298 70.128C229.506 70.504 229.786 70.796 230.138 71.004C230.498 71.204 230.902 71.304 231.35 71.304ZM242.251 65.64C243.075 65.64 243.707 65.848 244.147 66.264C244.587 66.672 244.807 67.28 244.807 68.088V72H243.991V71.016C243.799 71.344 243.515 71.6 243.139 71.784C242.771 71.968 242.331 72.06 241.819 72.06C241.115 72.06 240.555 71.892 240.139 71.556C239.723 71.22 239.515 70.776 239.515 70.224C239.515 69.688 239.707 69.256 240.091 68.928C240.483 68.6 241.103 68.436 241.951 68.436H243.955V68.052C243.955 67.508 243.803 67.096 243.499 66.816C243.195 66.528 242.751 66.384 242.167 66.384C241.767 66.384 241.383 66.452 241.015 66.588C240.647 66.716 240.331 66.896 240.067 67.128L239.683 66.492C240.003 66.22 240.387 66.012 240.835 65.868C241.283 65.716 241.755 65.64 242.251 65.64ZM241.951 71.388C242.431 71.388 242.843 71.28 243.187 71.064C243.531 70.84 243.787 70.52 243.955 70.104V69.072H241.975C240.895 69.072 240.355 69.448 240.355 70.2C240.355 70.568 240.495 70.86 240.775 71.076C241.055 71.284 241.447 71.388 241.951 71.388ZM250.374 65.64C250.966 65.64 251.502 65.776 251.982 66.048C252.462 66.312 252.838 66.688 253.11 67.176C253.382 67.664 253.518 68.22 253.518 68.844C253.518 69.468 253.382 70.024 253.11 70.512C252.838 71 252.462 71.38 251.982 71.652C251.502 71.924 250.966 72.06 250.374 72.06C249.846 72.06 249.37 71.948 248.946 71.724C248.53 71.5 248.194 71.176 247.938 70.752V72H247.122V63.096H247.974V66.888C248.238 66.48 248.574 66.172 248.982 65.964C249.398 65.748 249.862 65.64 250.374 65.64ZM250.314 71.304C250.754 71.304 251.154 71.204 251.514 71.004C251.874 70.796 252.154 70.504 252.354 70.128C252.562 69.752 252.666 69.324 252.666 68.844C252.666 68.364 252.562 67.936 252.354 67.56C252.154 67.184 251.874 66.896 251.514 66.696C251.154 66.488 250.754 66.384 250.314 66.384C249.866 66.384 249.462 66.488 249.102 66.696C248.75 66.896 248.47 67.184 248.262 67.56C248.062 67.936 247.962 68.364 247.962 68.844C247.962 69.324 248.062 69.752 248.262 70.128C248.47 70.504 248.75 70.796 249.102 71.004C249.462 71.204 249.866 71.304 250.314 71.304ZM257.834 72.06C257.226 72.06 256.678 71.924 256.19 71.652C255.702 71.372 255.318 70.988 255.038 70.5C254.758 70.012 254.618 69.46 254.618 68.844C254.618 68.228 254.758 67.676 255.038 67.188C255.318 66.7 255.702 66.32 256.19 66.048C256.678 65.776 257.226 65.64 257.834 65.64C258.442 65.64 258.99 65.776 259.478 66.048C259.966 66.32 260.346 66.7 260.618 67.188C260.898 67.676 261.038 68.228 261.038 68.844C261.038 69.46 260.898 70.012 260.618 70.5C260.346 70.988 259.966 71.372 259.478 71.652C258.99 71.924 258.442 72.06 257.834 72.06ZM257.834 71.304C258.282 71.304 258.682 71.204 259.034 71.004C259.394 70.796 259.674 70.504 259.874 70.128C260.074 69.752 260.174 69.324 260.174 68.844C260.174 68.364 260.074 67.936 259.874 67.56C259.674 67.184 259.394 66.896 259.034 66.696C258.682 66.488 258.282 66.384 257.834 66.384C257.386 66.384 256.982 66.488 256.622 66.696C256.27 66.896 255.99 67.184 255.782 67.56C255.582 67.936 255.482 68.364 255.482 68.844C255.482 69.324 255.582 69.752 255.782 70.128C255.99 70.504 256.27 70.796 256.622 71.004C256.982 71.204 257.386 71.304 257.834 71.304ZM267.906 65.688L265.098 72H264.222L261.426 65.688H262.314L264.678 71.064L267.066 65.688H267.906ZM274.426 69.108H269.146C269.194 69.764 269.446 70.296 269.902 70.704C270.358 71.104 270.934 71.304 271.63 71.304C272.022 71.304 272.382 71.236 272.71 71.1C273.038 70.956 273.322 70.748 273.562 70.476L274.042 71.028C273.762 71.364 273.41 71.62 272.986 71.796C272.57 71.972 272.11 72.06 271.606 72.06C270.958 72.06 270.382 71.924 269.878 71.652C269.382 71.372 268.994 70.988 268.714 70.5C268.434 70.012 268.294 69.46 268.294 68.844C268.294 68.228 268.426 67.676 268.69 67.188C268.962 66.7 269.33 66.32 269.794 66.048C270.266 65.776 270.794 65.64 271.378 65.64C271.962 65.64 272.486 65.776 272.95 66.048C273.414 66.32 273.778 66.7 274.042 67.188C274.306 67.668 274.438 68.22 274.438 68.844L274.426 69.108ZM271.378 66.372C270.77 66.372 270.258 66.568 269.842 66.96C269.434 67.344 269.202 67.848 269.146 68.472H273.622C273.566 67.848 273.33 67.344 272.914 66.96C272.506 66.568 271.994 66.372 271.378 66.372ZM276.256 72.06C276.08 72.06 275.928 71.996 275.8 71.868C275.68 71.74 275.62 71.584 275.62 71.4C275.62 71.216 275.68 71.064 275.8 70.944C275.928 70.816 276.08 70.752 276.256 70.752C276.432 70.752 276.584 70.816 276.712 70.944C276.84 71.064 276.904 71.216 276.904 71.4C276.904 71.584 276.84 71.74 276.712 71.868C276.584 71.996 276.432 72.06 276.256 72.06Z" fill="#686361"/>
<defs>
<filter id="filter0_d_292_1204" x="322" y="37" width="35" height="35" filterUnits="userSpaceOnUse" color-interpolation-filters="sRGB">
<feFlood flood-opacity="0" result="BackgroundImageFix"/>
<feColorMatrix in="SourceAlpha" type="matrix" values="0 0 0 0 0 0 0 0 0 0 0 0 0 0 0 0 0 0 127 0" result="hardAlpha"/>
<feOffset dy="4"/>
<feGaussianBlur stdDeviation="2"/>
<feColorMatrix type="matrix" values="0 0 0 0 0.537255 0 0 0 0 0.533333 0 0 0 0 0.564706 0 0 0 0.25 0"/>
<feBlend mode="normal" in2="BackgroundImageFix" result="effect1_dropShadow_292_1204"/>
<feBlend mode="normal" in="SourceGraphic" in2="effect1_dropShadow_292_1204" result="shape"/>
</filter>
<clipPath id="clip0_292_1204">
<rect width="25" height="25" fill="white" transform="translate(30 38)"/>
</clipPath>
</defs>
</svg>
