<svg width="28" height="30" viewBox="0 0 28 30" fill="none" xmlns="http://www.w3.org/2000/svg">
<path d="M17.3199 26.2917C17.288 26.1869 17.2606 26.0775 17.2333 25.968C17.2196 25.9088 17.2105 25.8496 17.1968 25.7903C17.1787 25.6855 17.1603 25.5806 17.1466 25.4713C17.1375 25.412 17.1331 25.3482 17.1238 25.2889C17.1147 25.175 17.1103 25.061 17.1057 24.9424C17.1057 24.9015 17.101 24.8604 17.101 24.8194C17.101 24.8057 17.101 24.792 17.101 24.7785C17.101 24.6508 17.1103 24.5185 17.1194 24.391C17.1238 24.3545 17.1238 24.318 17.1238 24.2815C17.1559 23.958 17.2196 23.6389 17.3108 23.3289C17.8031 21.6652 19.1067 20.3614 20.7704 19.8691C21.085 19.7779 21.4041 19.7142 21.7276 19.6823C21.7641 19.6777 21.8053 19.6777 21.8462 19.6732C21.9739 19.664 22.106 19.6549 22.229 19.6549C22.2427 19.6549 22.2565 19.6549 22.2702 19.6549C22.3111 19.6549 22.3523 19.6595 22.3932 19.6595C22.5072 19.664 22.6257 19.6686 22.7397 19.6777C22.7988 19.6823 22.8627 19.6914 22.922 19.7005C23.0267 19.7142 23.1362 19.7324 23.2411 19.7507C23.3002 19.7598 23.3595 19.7735 23.4188 19.7872C23.5281 19.81 23.633 19.8372 23.7425 19.8737C23.7925 19.8874 23.8472 19.9012 23.8928 19.9193C24.0479 19.9695 24.1983 20.0242 24.3442 20.0926V1.0392C24.3442 0.46942 23.8793 0.0045166 23.3095 0.0045166H7.27807V5.16884C7.27807 5.73862 6.81316 6.2037 6.24339 6.2037H0.554688V25.8541C0.554688 26.4239 1.01977 26.8888 1.58955 26.8888H17.5387C17.475 26.7429 17.4157 26.5925 17.3654 26.4376C17.3517 26.392 17.3382 26.3418 17.3199 26.2917Z" fill="#FFE9CC"/>
<path d="M7.27734 26.8887H23.3088C23.8785 26.8887 24.3434 26.4238 24.3434 25.8541V10.9077C21.5173 18.643 15.1814 24.5778 7.27734 26.8887Z" fill="#FFE2BD"/>
<path d="M17.1484 25.4713C17.1622 25.5762 17.1805 25.6855 17.1987 25.7904C17.1805 25.6855 17.1622 25.5762 17.1484 25.4713Z" fill="#FFE9CC"/>
<path d="M17.2344 25.968C17.2572 26.0775 17.2844 26.1869 17.321 26.2917C17.2891 26.1822 17.2572 26.0775 17.2344 25.968Z" fill="#FFE9CC"/>
<path d="M21.8516 19.6732C21.9791 19.6639 22.1067 19.6548 22.2344 19.6548C22.1067 19.6504 21.9791 19.6595 21.8516 19.6732Z" fill="#FFE9CC"/>
<path d="M17.3196 23.3242C17.2284 23.6342 17.1647 23.9579 17.1328 24.277C17.388 21.8474 19.307 19.933 21.7366 19.6732C21.4129 19.7051 21.0938 19.7688 20.7793 19.86C19.111 20.3569 17.8119 21.6605 17.3196 23.3242Z" fill="#FFE9CC"/>
<path d="M17.1016 24.7786C17.1016 24.6463 17.1108 24.5186 17.1199 24.3911C17.1153 24.5186 17.1062 24.6509 17.1016 24.7786Z" fill="#FFE9CC"/>
<path d="M23.2409 19.7461C23.1361 19.7279 23.0312 19.7096 22.9219 19.696C23.0312 19.7096 23.1361 19.7233 23.2409 19.7461Z" fill="#FFE9CC"/>
<path d="M22.7411 19.6732C22.6271 19.664 22.5131 19.6595 22.3945 19.6549C22.5131 19.6595 22.6271 19.664 22.7411 19.6732Z" fill="#FFE9CC"/>
<path d="M17.1094 24.9424C17.1138 25.061 17.1185 25.1749 17.1276 25.2889C17.1185 25.1749 17.1094 25.0563 17.1094 24.9424Z" fill="#FFE9CC"/>
<path d="M17.5365 26.8888C17.4728 26.743 17.4135 26.5925 17.3633 26.4376C17.4135 26.5925 17.4728 26.743 17.5365 26.8888Z" fill="#FFE9CC"/>
<path d="M23.7417 19.8692C23.6368 19.8373 23.5273 19.81 23.418 19.7826C23.5273 19.8054 23.6368 19.8373 23.7417 19.8692Z" fill="#FFE9CC"/>
<path d="M24.3459 20.0834C24.2001 20.0195 24.0496 19.9602 23.8945 19.9102C24.0496 19.9648 24.2001 20.0195 24.3459 20.0834Z" fill="#FFE9CC"/>
<path d="M7.27805 5.16883V-0.00012207L0.554688 6.20369H6.24337C6.81315 6.20369 7.27805 5.74324 7.27805 5.16883Z" fill="#FFA993"/>
<path d="M24.3447 20.0835C24.1989 20.0196 24.0484 19.9603 23.8933 19.9103C23.8433 19.8919 23.7931 19.8829 23.743 19.8647C23.6382 19.8328 23.5287 19.8054 23.4193 19.778C23.36 19.7645 23.3007 19.7507 23.2416 19.7417C23.1368 19.7233 23.0319 19.7052 22.9226 19.6915C22.8633 19.6824 22.7993 19.6777 22.7402 19.6687C22.6263 19.6596 22.5123 19.655 22.3937 19.6505C22.3391 19.6505 22.2844 19.6459 22.2296 19.6459C22.1021 19.6459 21.9744 19.655 21.8467 19.664C21.8058 19.6687 21.7693 19.6687 21.7282 19.6733C19.2988 19.9284 17.3843 21.8475 17.1244 24.2771C17.1199 24.3134 17.1199 24.3499 17.1199 24.3864C17.1108 24.5141 17.1016 24.6462 17.1016 24.7739C17.1016 24.8285 17.1062 24.8832 17.1062 24.938C17.1108 25.0565 17.1153 25.1704 17.1244 25.2844C17.129 25.3437 17.1381 25.4074 17.1471 25.4667C17.1609 25.5716 17.1792 25.6809 17.1974 25.7858C17.2064 25.8451 17.2201 25.9044 17.2339 25.9637C17.2566 26.073 17.2839 26.1823 17.3204 26.2872C17.3341 26.3374 17.3478 26.3874 17.366 26.4376C17.4162 26.5925 17.4708 26.743 17.5392 26.8888C18.6788 29.5098 21.7237 30.7087 24.3447 29.5691C26.9657 28.4295 28.1645 25.3846 27.025 22.7636C26.5008 21.565 25.5435 20.6077 24.3447 20.0835ZM21.2405 26.8888L19.563 25.2115L21.2405 26.8888L25.1105 23.019L21.2405 26.8888Z" fill="#7EBD50"/>
<path d="M17.3203 26.2917C17.334 26.3418 17.3478 26.392 17.3659 26.4422C17.3522 26.392 17.3387 26.3418 17.3203 26.2917Z" fill="#FFE9CC"/>
<path d="M17.2031 25.7904C17.2122 25.8497 17.2259 25.9088 17.2395 25.9681C17.2259 25.9044 17.2122 25.8497 17.2031 25.7904Z" fill="#FFE9CC"/>
<path d="M23.8925 19.9102C23.8425 19.8919 23.7922 19.8828 23.7422 19.8646C23.7922 19.8828 23.8425 19.8965 23.8925 19.9102Z" fill="#FFE9CC"/>
<path d="M17.1114 24.9426C17.1114 24.8925 17.1068 24.8332 17.1068 24.7786C17.1068 24.7921 17.1068 24.8058 17.1068 24.8195C17.1021 24.8605 17.1114 24.9016 17.1114 24.9426Z" fill="#FFE9CC"/>
<path d="M23.4199 19.7826C23.3606 19.7689 23.3013 19.7552 23.2422 19.7461C23.3013 19.7552 23.3606 19.7689 23.4199 19.7826Z" fill="#FFE9CC"/>
<path d="M22.2305 19.6505C22.2852 19.6505 22.3398 19.655 22.3947 19.655C22.3536 19.655 22.3126 19.6505 22.2714 19.6505C22.2579 19.6505 22.2442 19.6505 22.2305 19.6505Z" fill="#FFE9CC"/>
<path d="M17.1289 25.2888C17.1335 25.3481 17.1426 25.4119 17.1517 25.4712C17.1426 25.4119 17.1335 25.3481 17.1289 25.2888Z" fill="#FFE9CC"/>
<path d="M21.853 19.6732C21.8118 19.6777 21.7753 19.6777 21.7344 19.6823C21.7753 19.6732 21.8118 19.6732 21.853 19.6732Z" fill="#FFE9CC"/>
<path d="M17.1336 24.2816C17.1289 24.3181 17.1289 24.3546 17.1289 24.3911C17.1289 24.3546 17.1289 24.3181 17.1336 24.2816Z" fill="#FFE9CC"/>
<path d="M22.9246 19.696C22.8653 19.6868 22.8015 19.6823 22.7422 19.6732C22.8015 19.6777 22.8608 19.6868 22.9246 19.696Z" fill="#FFE9CC"/>
<path d="M20.2065 13.9617H4.6948C4.4076 13.9617 4.17969 13.7292 4.17969 13.4466C4.17969 13.1641 4.41223 12.9315 4.6948 12.9315H20.2065C20.4937 12.9315 20.7216 13.1641 20.7216 13.4466C20.7216 13.7292 20.4937 13.9617 20.2065 13.9617Z" fill="#FF7956"/>
<path d="M20.2065 17.0658H4.6948C4.4076 17.0658 4.17969 16.8335 4.17969 16.5509C4.17969 16.2637 4.41223 16.0358 4.6948 16.0358H20.2065C20.4937 16.0358 20.7216 16.2681 20.7216 16.5509C20.726 16.8335 20.4937 17.0658 20.2065 17.0658Z" fill="#FF7956"/>
<path d="M17.622 20.1653H4.6948C4.4076 20.1653 4.17969 19.933 4.17969 19.6504C4.17969 19.3632 4.41223 19.1353 4.6948 19.1353H17.622C17.9092 19.1353 18.1371 19.3676 18.1371 19.6504C18.1371 19.933 17.9092 20.1653 17.622 20.1653Z" fill="#FF7956"/>
<path d="M15.5525 23.2695H4.6948C4.4076 23.2695 4.17969 23.0369 4.17969 22.7544C4.17969 22.4672 4.41223 22.2393 4.6948 22.2393H15.5525C15.8397 22.2393 16.0676 22.4718 16.0676 22.7544C16.0722 23.0369 15.8397 23.2695 15.5525 23.2695Z" fill="#FF7956"/>
<path d="M20.2087 10.8576H8.83134C8.54432 10.8576 8.31641 10.6252 8.31641 10.3425C8.31641 10.0599 8.54877 9.82751 8.83134 9.82751H20.2087C20.4959 9.82751 20.7238 10.0599 20.7238 10.3425C20.7238 10.6252 20.4959 10.8576 20.2087 10.8576Z" fill="#FF7956"/>
<path d="M6.76434 10.8576H4.6948C4.4076 10.8576 4.17969 10.6252 4.17969 10.3425C4.17969 10.0599 4.41223 9.82751 4.6948 9.82751H6.76434C7.05137 9.82751 7.27928 10.0599 7.27928 10.3425C7.27928 10.6252 7.04692 10.8576 6.76434 10.8576Z" fill="#FF7956"/>
<path d="M21.2422 27.4039C21.1054 27.4039 20.9733 27.3492 20.8775 27.2534L19.2001 25.5762C18.9996 25.371 19.0086 25.0427 19.2138 24.8468C19.4144 24.6553 19.7335 24.6553 19.934 24.8468L21.2468 26.1595L24.752 22.6543C24.9571 22.4538 25.2852 22.4629 25.4813 22.668C25.6727 22.8685 25.6727 23.1876 25.4813 23.3882L21.6114 27.2581C21.5112 27.3492 21.3789 27.4039 21.2422 27.4039Z" fill="#F1F2F2"/>
</svg>
