<svg width="178" height="176" viewBox="0 0 178 176" fill="none" xmlns="http://www.w3.org/2000/svg">
<rect width="178" height="176" rx="10" fill="white"/>
<rect x="0.5" y="0.5" width="177" height="175" rx="9.5" stroke="#A9B7C8" stroke-opacity="0.5"/>
<path d="M30.52 129L30.504 122.28L27.208 127.816H26.04L22.76 122.424V129H20.328V117.8H22.472L26.664 124.76L30.792 117.8H32.92L32.952 129H30.52ZM39.5293 129.128C38.6226 129.128 37.8066 128.941 37.0813 128.568C36.3666 128.184 35.8066 127.656 35.4013 126.984C34.9959 126.312 34.7933 125.549 34.7933 124.696C34.7933 123.843 34.9959 123.08 35.4013 122.408C35.8066 121.736 36.3666 121.213 37.0813 120.84C37.8066 120.456 38.6226 120.264 39.5293 120.264C40.4359 120.264 41.2466 120.456 41.9613 120.84C42.6759 121.213 43.2359 121.736 43.6413 122.408C44.0466 123.08 44.2493 123.843 44.2493 124.696C44.2493 125.549 44.0466 126.312 43.6413 126.984C43.2359 127.656 42.6759 128.184 41.9613 128.568C41.2466 128.941 40.4359 129.128 39.5293 129.128ZM39.5293 127.08C40.1693 127.08 40.6919 126.867 41.0973 126.44C41.5133 126.003 41.7213 125.421 41.7213 124.696C41.7213 123.971 41.5133 123.395 41.0973 122.968C40.6919 122.531 40.1693 122.312 39.5293 122.312C38.8893 122.312 38.3613 122.531 37.9453 122.968C37.5293 123.395 37.3213 123.971 37.3213 124.696C37.3213 125.421 37.5293 126.003 37.9453 126.44C38.3613 126.867 38.8893 127.08 39.5293 127.08ZM48.3016 121.528C48.6003 121.112 49.0003 120.797 49.5016 120.584C50.0136 120.371 50.6003 120.264 51.2616 120.264V122.568C50.9843 122.547 50.7976 122.536 50.7016 122.536C49.987 122.536 49.427 122.739 49.0216 123.144C48.6163 123.539 48.4136 124.136 48.4136 124.936V129H45.9176V120.392H48.3016V121.528ZM61.0996 124.728C61.0996 124.76 61.0836 124.984 61.0516 125.4H54.5396C54.657 125.933 54.9343 126.355 55.3716 126.664C55.809 126.973 56.353 127.128 57.0036 127.128C57.4516 127.128 57.8463 127.064 58.1876 126.936C58.5396 126.797 58.865 126.584 59.1636 126.296L60.4916 127.736C59.681 128.664 58.497 129.128 56.9396 129.128C55.969 129.128 55.1103 128.941 54.3636 128.568C53.617 128.184 53.041 127.656 52.6356 126.984C52.2303 126.312 52.0276 125.549 52.0276 124.696C52.0276 123.853 52.225 123.096 52.6196 122.424C53.025 121.741 53.5743 121.213 54.2676 120.84C54.9716 120.456 55.7556 120.264 56.6196 120.264C57.4623 120.264 58.225 120.445 58.9076 120.808C59.5903 121.171 60.1236 121.693 60.5076 122.376C60.9023 123.048 61.0996 123.832 61.0996 124.728ZM56.6356 122.152C56.0703 122.152 55.5956 122.312 55.2116 122.632C54.8276 122.952 54.593 123.389 54.5076 123.944H58.7476C58.6623 123.4 58.4276 122.968 58.0436 122.648C57.6596 122.317 57.1903 122.152 56.6356 122.152ZM72.8446 128.584C72.5993 128.765 72.2953 128.904 71.9326 129C71.5806 129.085 71.2073 129.128 70.8126 129.128C69.7886 129.128 68.994 128.867 68.4286 128.344C67.874 127.821 67.5966 127.053 67.5966 126.04V122.504H66.2686V120.584H67.5966V118.488H70.0926V120.584H72.2366V122.504H70.0926V126.008C70.0926 126.371 70.1833 126.653 70.3646 126.856C70.5566 127.048 70.8233 127.144 71.1646 127.144C71.5593 127.144 71.8953 127.037 72.1726 126.824L72.8446 128.584ZM79.4778 120.264C80.5444 120.264 81.4031 120.584 82.0538 121.224C82.7151 121.864 83.0458 122.813 83.0458 124.072V129H80.5498V124.456C80.5498 123.773 80.4004 123.267 80.1018 122.936C79.8031 122.595 79.3711 122.424 78.8058 122.424C78.1764 122.424 77.6751 122.621 77.3018 123.016C76.9284 123.4 76.7418 123.976 76.7418 124.744V129H74.2458V117.128H76.7418V121.288C77.0724 120.957 77.4724 120.707 77.9418 120.536C78.4111 120.355 78.9231 120.264 79.4778 120.264ZM88.7803 120.264C90.1136 120.264 91.1376 120.584 91.8523 121.224C92.5669 121.853 92.9243 122.808 92.9243 124.088V129H90.5883V127.928C90.1189 128.728 89.2443 129.128 87.9643 129.128C87.3029 129.128 86.7269 129.016 86.2363 128.792C85.7563 128.568 85.3883 128.259 85.1323 127.864C84.8763 127.469 84.7483 127.021 84.7483 126.52C84.7483 125.72 85.0469 125.091 85.6443 124.632C86.2523 124.173 87.1856 123.944 88.4443 123.944H90.4283C90.4283 123.4 90.2629 122.984 89.9323 122.696C89.6016 122.397 89.1056 122.248 88.4443 122.248C87.9856 122.248 87.5323 122.323 87.0843 122.472C86.6469 122.611 86.2736 122.803 85.9643 123.048L85.0683 121.304C85.5376 120.973 86.0976 120.717 86.7483 120.536C87.4096 120.355 88.0869 120.264 88.7803 120.264ZM88.5883 127.448C89.0149 127.448 89.3936 127.352 89.7243 127.16C90.0549 126.957 90.2896 126.664 90.4283 126.28V125.4H88.7163C87.6923 125.4 87.1803 125.736 87.1803 126.408C87.1803 126.728 87.3029 126.984 87.5483 127.176C87.8043 127.357 88.1509 127.448 88.5883 127.448ZM100.415 120.264C101.482 120.264 102.341 120.584 102.991 121.224C103.653 121.864 103.983 122.813 103.983 124.072V129H101.487V124.456C101.487 123.773 101.338 123.267 101.039 122.936C100.741 122.595 100.309 122.424 99.7433 122.424C99.1139 122.424 98.6126 122.621 98.2393 123.016C97.8659 123.4 97.6793 123.976 97.6793 124.744V129H95.1833V120.392H97.5673V121.4C97.8979 121.037 98.3086 120.76 98.7993 120.568C99.2899 120.365 99.8286 120.264 100.415 120.264ZM117.913 123.112C118.468 123.389 118.889 123.752 119.177 124.2C119.476 124.648 119.625 125.165 119.625 125.752C119.625 126.445 119.428 127.053 119.033 127.576C118.638 128.088 118.084 128.488 117.369 128.776C116.654 129.053 115.828 129.192 114.889 129.192C113.95 129.192 113.124 129.053 112.409 128.776C111.705 128.488 111.156 128.088 110.761 127.576C110.377 127.053 110.185 126.445 110.185 125.752C110.185 125.165 110.329 124.648 110.617 124.2C110.916 123.752 111.337 123.389 111.881 123.112C111.465 122.856 111.145 122.536 110.921 122.152C110.697 121.757 110.585 121.309 110.585 120.808C110.585 120.157 110.766 119.592 111.129 119.112C111.492 118.632 111.998 118.264 112.649 118.008C113.3 117.741 114.046 117.608 114.889 117.608C115.742 117.608 116.494 117.741 117.145 118.008C117.806 118.264 118.318 118.632 118.681 119.112C119.044 119.592 119.225 120.157 119.225 120.808C119.225 121.309 119.113 121.757 118.889 122.152C118.665 122.536 118.34 122.856 117.913 123.112ZM114.889 119.512C114.366 119.512 113.945 119.64 113.625 119.896C113.316 120.141 113.161 120.483 113.161 120.92C113.161 121.347 113.316 121.683 113.625 121.928C113.934 122.173 114.356 122.296 114.889 122.296C115.422 122.296 115.849 122.173 116.169 121.928C116.489 121.683 116.649 121.347 116.649 120.92C116.649 120.483 116.489 120.141 116.169 119.896C115.849 119.64 115.422 119.512 114.889 119.512ZM114.889 127.288C115.54 127.288 116.052 127.144 116.425 126.856C116.809 126.557 117.001 126.163 117.001 125.672C117.001 125.181 116.809 124.792 116.425 124.504C116.052 124.216 115.54 124.072 114.889 124.072C114.249 124.072 113.742 124.216 113.369 124.504C112.996 124.792 112.809 125.181 112.809 125.672C112.809 126.173 112.996 126.568 113.369 126.856C113.742 127.144 114.249 127.288 114.889 127.288ZM131.103 120.264C132.169 120.264 133.028 120.584 133.679 121.224C134.34 121.864 134.671 122.813 134.671 124.072V129H132.175V124.456C132.175 123.773 132.025 123.267 131.727 122.936C131.428 122.595 130.996 122.424 130.431 122.424C129.801 122.424 129.3 122.621 128.927 123.016C128.553 123.4 128.367 123.976 128.367 124.744V129H125.871V117.128H128.367V121.288C128.697 120.957 129.097 120.707 129.567 120.536C130.036 120.355 130.548 120.264 131.103 120.264ZM141.123 129.128C140.216 129.128 139.4 128.941 138.675 128.568C137.96 128.184 137.4 127.656 136.995 126.984C136.59 126.312 136.387 125.549 136.387 124.696C136.387 123.843 136.59 123.08 136.995 122.408C137.4 121.736 137.96 121.213 138.675 120.84C139.4 120.456 140.216 120.264 141.123 120.264C142.03 120.264 142.84 120.456 143.555 120.84C144.27 121.213 144.83 121.736 145.235 122.408C145.64 123.08 145.843 123.843 145.843 124.696C145.843 125.549 145.64 126.312 145.235 126.984C144.83 127.656 144.27 128.184 143.555 128.568C142.84 128.941 142.03 129.128 141.123 129.128ZM141.123 127.08C141.763 127.08 142.286 126.867 142.691 126.44C143.107 126.003 143.315 125.421 143.315 124.696C143.315 123.971 143.107 123.395 142.691 122.968C142.286 122.531 141.763 122.312 141.123 122.312C140.483 122.312 139.955 122.531 139.539 122.968C139.123 123.395 138.915 123.971 138.915 124.696C138.915 125.421 139.123 126.003 139.539 126.44C139.955 126.867 140.483 127.08 141.123 127.08ZM156.183 120.392V129H153.815V127.976C153.485 128.349 153.09 128.637 152.631 128.84C152.173 129.032 151.677 129.128 151.143 129.128C150.013 129.128 149.117 128.803 148.455 128.152C147.794 127.501 147.463 126.536 147.463 125.256V120.392H149.959V124.888C149.959 126.275 150.541 126.968 151.703 126.968C152.301 126.968 152.781 126.776 153.143 126.392C153.506 125.997 153.687 125.416 153.687 124.648V120.392H156.183ZM160.88 121.528C161.178 121.112 161.578 120.797 162.08 120.584C162.592 120.371 163.178 120.264 163.84 120.264V122.568C163.562 122.547 163.376 122.536 163.28 122.536C162.565 122.536 162.005 122.739 161.6 123.144C161.194 123.539 160.992 124.136 160.992 124.936V129H158.496V120.392H160.88V121.528Z" fill="#686361"/>
<g clip-path="url(#clip0_126_29)">
<path d="M90.3041 66.8677C90.3041 67.2844 89.9663 67.6223 89.5495 67.6223C89.1328 67.6223 88.7949 67.2844 88.7949 66.8677C88.7949 66.4509 89.1328 66.113 89.5495 66.113C89.9663 66.113 90.3041 66.4509 90.3041 66.8677Z" fill="black"/>
<path d="M89.5499 53.2847C82.0483 53.2847 75.9668 59.3662 75.9668 66.8677C75.9668 74.3697 82.0483 80.4508 89.5499 80.4508C97.0518 80.4508 103.133 74.3697 103.133 66.8677C103.124 59.3699 97.0481 53.2935 89.5499 53.2847ZM78.9853 67.6224H77.476V66.1131H78.9853V67.6224ZM88.7953 54.7939H90.3045V56.3031H88.7953V54.7939ZM90.3045 78.9416H88.7953V77.4324H90.3045V78.9416ZM89.5499 69.1316C88.5941 69.1275 87.7437 68.5236 87.4249 67.6224H82.0037V66.1131H87.4249C87.6534 65.4742 88.1563 64.9713 88.7953 64.7428V57.8124H90.3045V64.7428C91.3432 65.1087 91.9666 66.1706 91.7802 67.2557C91.5934 68.3412 90.6512 69.1338 89.5499 69.1316ZM100.114 67.6224V66.1131H101.624V67.6224H100.114Z" fill="black"/>
<path d="M109.171 66.8676C109.172 77.4853 100.728 86.1778 90.1143 86.4828C79.501 86.7879 70.5709 78.5948 69.963 67.9944C69.3546 57.3944 77.2895 48.2337 87.8678 47.3232L86.0619 49.4754L87.2182 50.4452L90.1287 46.9739C90.3965 46.6544 90.3553 46.1784 90.0358 45.9105L86.5645 43L85.5973 44.1607L87.5885 45.8328C76.2232 46.8928 67.7544 56.7879 68.4622 68.1809C69.1697 79.5738 78.7984 88.3447 90.2075 87.9899C101.617 87.635 110.682 78.2827 110.68 66.8676H109.171Z" fill="black"/>
<path d="M108.755 62.8338L110.232 62.525C110.126 62.0166 109.999 61.5062 109.855 61.0066L108.404 61.4241C108.538 61.8872 108.656 62.3622 108.755 62.8338Z" fill="black"/>
<path d="M107.951 60.0444L109.366 59.5201C109.186 59.0341 108.989 58.5481 108.769 58.075L107.396 58.7036C107.597 59.1428 107.784 59.593 107.951 60.0444Z" fill="black"/>
<path d="M106.744 57.4071L108.065 56.6782C107.814 56.2254 107.543 55.7726 107.26 55.3381L105.996 56.162C106.259 56.5651 106.511 56.9822 106.744 57.4071Z" fill="black"/>
<path d="M109.136 65.7126L110.645 65.6234C110.614 65.1035 110.565 64.5799 110.495 64.0674L108.998 64.266C109.061 64.742 109.107 65.2288 109.136 65.7126Z" fill="black"/>
<path d="M105.158 54.9765L106.358 54.0605C106.043 53.6474 105.708 53.2414 105.364 52.853L104.232 53.8541C104.556 54.2156 104.869 54.5929 105.158 54.9765Z" fill="black"/>
<path d="M99.2226 48.0778C98.7624 47.8401 98.2856 47.6161 97.8055 47.4116L97.2148 48.8007C97.6607 48.9901 98.1028 49.1983 98.5306 49.4186L99.2226 48.0778Z" fill="black"/>
<path d="M96.3419 46.8545C95.8508 46.6873 95.346 46.5369 94.8412 46.4065L94.4639 47.8675C94.9318 47.9879 95.4001 48.1283 95.8559 48.2831L96.3419 46.8545Z" fill="black"/>
<path d="M104.283 51.7226C103.911 51.3597 103.52 51.007 103.122 50.6736L102.152 51.8298C102.522 52.1397 102.885 52.4673 103.23 52.804L104.283 51.7226Z" fill="black"/>
<path d="M93.314 46.0719C92.8044 45.9802 92.283 45.9061 91.7646 45.8516L91.6084 47.3534C92.09 47.4032 92.5738 47.4717 93.0421 47.5572L93.314 46.0719Z" fill="black"/>
<path d="M101.889 49.7129C101.466 49.4112 101.028 49.1175 100.586 48.8467L99.7969 50.1297C100.207 50.3817 100.614 50.6525 101.004 50.9355L101.889 49.7129Z" fill="black"/>
</g>
<defs>
<clipPath id="clip0_126_29">
<rect width="45" height="45" fill="white" transform="translate(67 43)"/>
</clipPath>
</defs>
</svg>
