<svg width="178" height="176" viewBox="0 0 178 176" fill="none" xmlns="http://www.w3.org/2000/svg">
<rect width="178" height="176" rx="10" fill="white"/>
<rect x="0.5" y="0.5" width="177" height="175" rx="9.5" stroke="#A9B7C8" stroke-opacity="0.5"/>
<path d="M20.328 117.8H22.92V126.888H28.536V129H20.328V117.8ZM38.1778 124.728C38.1778 124.76 38.1618 124.984 38.1298 125.4H31.6178C31.7351 125.933 32.0124 126.355 32.4498 126.664C32.8871 126.973 33.4311 127.128 34.0818 127.128C34.5298 127.128 34.9244 127.064 35.2658 126.936C35.6178 126.797 35.9431 126.584 36.2418 126.296L37.5698 127.736C36.7591 128.664 35.5751 129.128 34.0178 129.128C33.0471 129.128 32.1884 128.941 31.4418 128.568C30.6951 128.184 30.1191 127.656 29.7138 126.984C29.3084 126.312 29.1058 125.549 29.1058 124.696C29.1058 123.853 29.3031 123.096 29.6978 122.424C30.1031 121.741 30.6524 121.213 31.3458 120.84C32.0498 120.456 32.8338 120.264 33.6978 120.264C34.5404 120.264 35.3031 120.445 35.9858 120.808C36.6684 121.171 37.2018 121.693 37.5858 122.376C37.9804 123.048 38.1778 123.832 38.1778 124.728ZM33.7138 122.152C33.1484 122.152 32.6738 122.312 32.2898 122.632C31.9058 122.952 31.6711 123.389 31.5858 123.944H35.8258C35.7404 123.4 35.5058 122.968 35.1218 122.648C34.7378 122.317 34.2684 122.152 33.7138 122.152ZM42.7355 129.128C42.0208 129.128 41.3222 129.043 40.6395 128.872C39.9568 128.691 39.4128 128.467 39.0075 128.2L39.8395 126.408C40.2235 126.653 40.6875 126.856 41.2315 127.016C41.7755 127.165 42.3088 127.24 42.8315 127.24C43.8875 127.24 44.4155 126.979 44.4155 126.456C44.4155 126.211 44.2715 126.035 43.9835 125.928C43.6955 125.821 43.2528 125.731 42.6555 125.656C41.9515 125.549 41.3702 125.427 40.9115 125.288C40.4528 125.149 40.0528 124.904 39.7115 124.552C39.3808 124.2 39.2155 123.699 39.2155 123.048C39.2155 122.504 39.3702 122.024 39.6795 121.608C39.9995 121.181 40.4582 120.851 41.0555 120.616C41.6635 120.381 42.3782 120.264 43.1995 120.264C43.8075 120.264 44.4102 120.333 45.0075 120.472C45.6155 120.6 46.1168 120.781 46.5115 121.016L45.6795 122.792C44.9222 122.365 44.0955 122.152 43.1995 122.152C42.6662 122.152 42.2662 122.227 41.9995 122.376C41.7328 122.525 41.5995 122.717 41.5995 122.952C41.5995 123.219 41.7435 123.405 42.0315 123.512C42.3195 123.619 42.7782 123.72 43.4075 123.816C44.1115 123.933 44.6875 124.061 45.1355 124.2C45.5835 124.328 45.9728 124.568 46.3035 124.92C46.6342 125.272 46.7995 125.763 46.7995 126.392C46.7995 126.925 46.6395 127.4 46.3195 127.816C45.9995 128.232 45.5302 128.557 44.9115 128.792C44.3035 129.016 43.5782 129.128 42.7355 129.128ZM51.2355 129.128C50.5208 129.128 49.8222 129.043 49.1395 128.872C48.4568 128.691 47.9128 128.467 47.5075 128.2L48.3395 126.408C48.7235 126.653 49.1875 126.856 49.7315 127.016C50.2755 127.165 50.8088 127.24 51.3315 127.24C52.3875 127.24 52.9155 126.979 52.9155 126.456C52.9155 126.211 52.7715 126.035 52.4835 125.928C52.1955 125.821 51.7528 125.731 51.1555 125.656C50.4515 125.549 49.8702 125.427 49.4115 125.288C48.9528 125.149 48.5528 124.904 48.2115 124.552C47.8808 124.2 47.7155 123.699 47.7155 123.048C47.7155 122.504 47.8702 122.024 48.1795 121.608C48.4995 121.181 48.9582 120.851 49.5555 120.616C50.1635 120.381 50.8782 120.264 51.6995 120.264C52.3075 120.264 52.9102 120.333 53.5075 120.472C54.1155 120.6 54.6168 120.781 55.0115 121.016L54.1795 122.792C53.4222 122.365 52.5955 122.152 51.6995 122.152C51.1662 122.152 50.7662 122.227 50.4995 122.376C50.2328 122.525 50.0995 122.717 50.0995 122.952C50.0995 123.219 50.2435 123.405 50.5315 123.512C50.8195 123.619 51.2782 123.72 51.9075 123.816C52.6115 123.933 53.1875 124.061 53.6355 124.2C54.0835 124.328 54.4728 124.568 54.8035 124.92C55.1342 125.272 55.2995 125.763 55.2995 126.392C55.2995 126.925 55.1395 127.4 54.8195 127.816C54.4995 128.232 54.0302 128.557 53.4115 128.792C52.8035 129.016 52.0782 129.128 51.2355 129.128ZM66.9228 128.584C66.6774 128.765 66.3734 128.904 66.0108 129C65.6588 129.085 65.2854 129.128 64.8908 129.128C63.8668 129.128 63.0721 128.867 62.5068 128.344C61.9521 127.821 61.6748 127.053 61.6748 126.04V122.504H60.3468V120.584H61.6748V118.488H64.1708V120.584H66.3148V122.504H64.1708V126.008C64.1708 126.371 64.2614 126.653 64.4427 126.856C64.6348 127.048 64.9014 127.144 65.2428 127.144C65.6374 127.144 65.9734 127.037 66.2508 126.824L66.9228 128.584ZM73.5559 120.264C74.6225 120.264 75.4812 120.584 76.1319 121.224C76.7932 121.864 77.1239 122.813 77.1239 124.072V129H74.6279V124.456C74.6279 123.773 74.4785 123.267 74.1799 122.936C73.8812 122.595 73.4492 122.424 72.8839 122.424C72.2545 122.424 71.7532 122.621 71.3799 123.016C71.0065 123.4 70.8199 123.976 70.8199 124.744V129H68.3239V117.128H70.8199V121.288C71.1505 120.957 71.5505 120.707 72.0199 120.536C72.4892 120.355 73.0012 120.264 73.5559 120.264ZM82.8584 120.264C84.1917 120.264 85.2157 120.584 85.9304 121.224C86.645 121.853 87.0024 122.808 87.0024 124.088V129H84.6664V127.928C84.197 128.728 83.3224 129.128 82.0424 129.128C81.381 129.128 80.805 129.016 80.3144 128.792C79.8344 128.568 79.4664 128.259 79.2104 127.864C78.9544 127.469 78.8264 127.021 78.8264 126.52C78.8264 125.72 79.125 125.091 79.7224 124.632C80.3304 124.173 81.2637 123.944 82.5224 123.944H84.5064C84.5064 123.4 84.341 122.984 84.0104 122.696C83.6797 122.397 83.1837 122.248 82.5224 122.248C82.0637 122.248 81.6104 122.323 81.1624 122.472C80.725 122.611 80.3517 122.803 80.0424 123.048L79.1464 121.304C79.6157 120.973 80.1757 120.717 80.8264 120.536C81.4877 120.355 82.165 120.264 82.8584 120.264ZM82.6664 127.448C83.093 127.448 83.4717 127.352 83.8024 127.16C84.133 126.957 84.3677 126.664 84.5064 126.28V125.4H82.7944C81.7704 125.4 81.2584 125.736 81.2584 126.408C81.2584 126.728 81.381 126.984 81.6264 127.176C81.8824 127.357 82.229 127.448 82.6664 127.448ZM94.4934 120.264C95.56 120.264 96.4187 120.584 97.0694 121.224C97.7307 121.864 98.0614 122.813 98.0614 124.072V129H95.5654V124.456C95.5654 123.773 95.416 123.267 95.1174 122.936C94.8187 122.595 94.3867 122.424 93.8214 122.424C93.192 122.424 92.6907 122.621 92.3174 123.016C91.944 123.4 91.7574 123.976 91.7574 124.744V129H89.2614V120.392H91.6454V121.4C91.976 121.037 92.3867 120.76 92.8774 120.568C93.368 120.365 93.9067 120.264 94.4934 120.264ZM109.559 122.36C110.54 122.52 111.292 122.888 111.815 123.464C112.338 124.029 112.599 124.733 112.599 125.576C112.599 126.227 112.428 126.829 112.087 127.384C111.746 127.928 111.223 128.365 110.519 128.696C109.826 129.027 108.972 129.192 107.959 129.192C107.17 129.192 106.391 129.091 105.623 128.888C104.866 128.675 104.22 128.376 103.687 127.992L104.695 126.008C105.122 126.328 105.612 126.579 106.167 126.76C106.732 126.931 107.308 127.016 107.895 127.016C108.546 127.016 109.058 126.893 109.431 126.648C109.804 126.392 109.991 126.035 109.991 125.576C109.991 124.659 109.292 124.2 107.895 124.2H106.711V122.488L109.015 119.88H104.247V117.8H112.087V119.48L109.559 122.36ZM124.087 120.264C125.154 120.264 126.012 120.584 126.663 121.224C127.324 121.864 127.655 122.813 127.655 124.072V129H125.159V124.456C125.159 123.773 125.01 123.267 124.711 122.936C124.412 122.595 123.98 122.424 123.415 122.424C122.786 122.424 122.284 122.621 121.911 123.016C121.538 123.4 121.351 123.976 121.351 124.744V129H118.855V117.128H121.351V121.288C121.682 120.957 122.082 120.707 122.551 120.536C123.02 120.355 123.532 120.264 124.087 120.264ZM134.107 129.128C133.201 129.128 132.385 128.941 131.659 128.568C130.945 128.184 130.385 127.656 129.979 126.984C129.574 126.312 129.371 125.549 129.371 124.696C129.371 123.843 129.574 123.08 129.979 122.408C130.385 121.736 130.945 121.213 131.659 120.84C132.385 120.456 133.201 120.264 134.107 120.264C135.014 120.264 135.825 120.456 136.539 120.84C137.254 121.213 137.814 121.736 138.219 122.408C138.625 123.08 138.827 123.843 138.827 124.696C138.827 125.549 138.625 126.312 138.219 126.984C137.814 127.656 137.254 128.184 136.539 128.568C135.825 128.941 135.014 129.128 134.107 129.128ZM134.107 127.08C134.747 127.08 135.27 126.867 135.675 126.44C136.091 126.003 136.299 125.421 136.299 124.696C136.299 123.971 136.091 123.395 135.675 122.968C135.27 122.531 134.747 122.312 134.107 122.312C133.467 122.312 132.939 122.531 132.523 122.968C132.107 123.395 131.899 123.971 131.899 124.696C131.899 125.421 132.107 126.003 132.523 126.44C132.939 126.867 133.467 127.08 134.107 127.08ZM149.168 120.392V129H146.8V127.976C146.469 128.349 146.074 128.637 145.616 128.84C145.157 129.032 144.661 129.128 144.128 129.128C142.997 129.128 142.101 128.803 141.44 128.152C140.778 127.501 140.448 126.536 140.448 125.256V120.392H142.944V124.888C142.944 126.275 143.525 126.968 144.688 126.968C145.285 126.968 145.765 126.776 146.128 126.392C146.49 125.997 146.672 125.416 146.672 124.648V120.392H149.168ZM153.864 121.528C154.163 121.112 154.563 120.797 155.064 120.584C155.576 120.371 156.163 120.264 156.824 120.264V122.568C156.547 122.547 156.36 122.536 156.264 122.536C155.549 122.536 154.989 122.739 154.584 123.144C154.179 123.539 153.976 124.136 153.976 124.936V129H151.48V120.392H153.864V121.528ZM161.236 129.128C160.521 129.128 159.822 129.043 159.14 128.872C158.457 128.691 157.913 128.467 157.508 128.2L158.34 126.408C158.724 126.653 159.188 126.856 159.732 127.016C160.276 127.165 160.809 127.24 161.332 127.24C162.388 127.24 162.916 126.979 162.916 126.456C162.916 126.211 162.772 126.035 162.484 125.928C162.196 125.821 161.753 125.731 161.156 125.656C160.452 125.549 159.87 125.427 159.412 125.288C158.953 125.149 158.553 124.904 158.212 124.552C157.881 124.2 157.715 123.699 157.715 123.048C157.715 122.504 157.87 122.024 158.18 121.608C158.5 121.181 158.958 120.851 159.556 120.616C160.164 120.381 160.878 120.264 161.7 120.264C162.308 120.264 162.91 120.333 163.508 120.472C164.116 120.6 164.617 120.781 165.012 121.016L164.18 122.792C163.422 122.365 162.596 122.152 161.7 122.152C161.166 122.152 160.766 122.227 160.5 122.376C160.233 122.525 160.1 122.717 160.1 122.952C160.1 123.219 160.244 123.405 160.532 123.512C160.82 123.619 161.278 123.72 161.908 123.816C162.612 123.933 163.188 124.061 163.636 124.2C164.084 124.328 164.473 124.568 164.804 124.92C165.134 125.272 165.3 125.763 165.3 126.392C165.3 126.925 165.14 127.4 164.82 127.816C164.5 128.232 164.03 128.557 163.412 128.792C162.804 129.016 162.078 129.128 161.236 129.128Z" fill="#686361"/>
<g clip-path="url(#clip0_126_27)">
<path d="M90.3041 66.8677C90.3041 67.2844 89.9663 67.6223 89.5495 67.6223C89.1328 67.6223 88.7949 67.2844 88.7949 66.8677C88.7949 66.4509 89.1328 66.113 89.5495 66.113C89.9663 66.113 90.3041 66.4509 90.3041 66.8677Z" fill="black"/>
<path d="M89.5499 53.2847C82.0483 53.2847 75.9668 59.3662 75.9668 66.8677C75.9668 74.3697 82.0483 80.4508 89.5499 80.4508C97.0518 80.4508 103.133 74.3697 103.133 66.8677C103.124 59.3699 97.0481 53.2935 89.5499 53.2847ZM78.9853 67.6224H77.476V66.1131H78.9853V67.6224ZM88.7953 54.7939H90.3045V56.3031H88.7953V54.7939ZM90.3045 78.9416H88.7953V77.4324H90.3045V78.9416ZM89.5499 69.1316C88.5941 69.1275 87.7437 68.5236 87.4249 67.6224H82.0037V66.1131H87.4249C87.6534 65.4742 88.1563 64.9713 88.7953 64.7428V57.8124H90.3045V64.7428C91.3432 65.1087 91.9666 66.1706 91.7802 67.2557C91.5934 68.3412 90.6512 69.1338 89.5499 69.1316ZM100.114 67.6224V66.1131H101.624V67.6224H100.114Z" fill="black"/>
<path d="M109.171 66.8676C109.172 77.4853 100.728 86.1778 90.1143 86.4828C79.501 86.7879 70.5709 78.5948 69.963 67.9944C69.3546 57.3944 77.2895 48.2337 87.8678 47.3232L86.0619 49.4754L87.2182 50.4452L90.1287 46.9739C90.3965 46.6544 90.3553 46.1784 90.0358 45.9105L86.5645 43L85.5973 44.1607L87.5885 45.8328C76.2232 46.8928 67.7544 56.7879 68.4622 68.1809C69.1697 79.5738 78.7984 88.3447 90.2075 87.9899C101.617 87.635 110.682 78.2827 110.68 66.8676H109.171Z" fill="black"/>
<path d="M108.755 62.8338L110.232 62.525C110.126 62.0166 109.999 61.5062 109.855 61.0066L108.404 61.4241C108.538 61.8872 108.656 62.3622 108.755 62.8338Z" fill="black"/>
<path d="M107.951 60.0444L109.366 59.5201C109.186 59.0341 108.989 58.5481 108.769 58.075L107.396 58.7036C107.597 59.1428 107.784 59.593 107.951 60.0444Z" fill="black"/>
<path d="M106.744 57.4071L108.065 56.6782C107.814 56.2254 107.543 55.7726 107.26 55.3381L105.996 56.162C106.259 56.5651 106.511 56.9822 106.744 57.4071Z" fill="black"/>
<path d="M109.136 65.7126L110.645 65.6234C110.614 65.1035 110.565 64.5799 110.495 64.0674L108.998 64.266C109.061 64.742 109.107 65.2288 109.136 65.7126Z" fill="black"/>
<path d="M105.158 54.9765L106.358 54.0605C106.043 53.6474 105.708 53.2414 105.364 52.853L104.232 53.8541C104.556 54.2156 104.869 54.5929 105.158 54.9765Z" fill="black"/>
<path d="M99.2226 48.0778C98.7624 47.8401 98.2856 47.6161 97.8055 47.4116L97.2148 48.8007C97.6607 48.9901 98.1028 49.1983 98.5306 49.4186L99.2226 48.0778Z" fill="black"/>
<path d="M96.3419 46.8545C95.8508 46.6873 95.346 46.5369 94.8412 46.4065L94.4639 47.8675C94.9318 47.9879 95.4001 48.1283 95.8559 48.2831L96.3419 46.8545Z" fill="black"/>
<path d="M104.283 51.7226C103.911 51.3597 103.52 51.007 103.122 50.6736L102.152 51.8298C102.522 52.1397 102.885 52.4673 103.23 52.804L104.283 51.7226Z" fill="black"/>
<path d="M93.314 46.0719C92.8044 45.9802 92.283 45.9061 91.7646 45.8516L91.6084 47.3534C92.09 47.4032 92.5738 47.4717 93.0421 47.5572L93.314 46.0719Z" fill="black"/>
<path d="M101.889 49.7129C101.466 49.4112 101.028 49.1175 100.586 48.8467L99.7969 50.1297C100.207 50.3817 100.614 50.6525 101.004 50.9355L101.889 49.7129Z" fill="black"/>
</g>
<defs>
<clipPath id="clip0_126_27">
<rect width="45" height="45" fill="white" transform="translate(67 43)"/>
</clipPath>
</defs>
</svg>
