<svg width="178" height="176" viewBox="0 0 178 176" fill="none" xmlns="http://www.w3.org/2000/svg">
<rect width="178" height="176" rx="10" fill="white"/>
<rect x="0.5" y="0.5" width="177" height="175" rx="9.5" stroke="#A9B7C8" stroke-opacity="0.5"/>
<path d="M45.6 117.8V129H43.472L37.888 122.2V129H35.328V117.8H37.472L43.04 124.6V117.8H45.6ZM56.5059 124.728C56.5059 124.76 56.4899 124.984 56.4579 125.4H49.9459C50.0632 125.933 50.3405 126.355 50.7779 126.664C51.2152 126.973 51.7592 127.128 52.4099 127.128C52.8579 127.128 53.2525 127.064 53.5939 126.936C53.9459 126.797 54.2712 126.584 54.5699 126.296L55.8979 127.736C55.0872 128.664 53.9032 129.128 52.3459 129.128C51.3752 129.128 50.5165 128.941 49.7699 128.568C49.0232 128.184 48.4472 127.656 48.0419 126.984C47.6365 126.312 47.4339 125.549 47.4339 124.696C47.4339 123.853 47.6312 123.096 48.0259 122.424C48.4312 121.741 48.9805 121.213 49.6739 120.84C50.3779 120.456 51.1619 120.264 52.0259 120.264C52.8685 120.264 53.6312 120.445 54.3139 120.808C54.9965 121.171 55.5299 121.693 55.9139 122.376C56.3085 123.048 56.5059 123.832 56.5059 124.728ZM52.0419 122.152C51.4765 122.152 51.0019 122.312 50.6179 122.632C50.2339 122.952 49.9992 123.389 49.9139 123.944H54.1539C54.0685 123.4 53.8339 122.968 53.4499 122.648C53.0659 122.317 52.5965 122.152 52.0419 122.152ZM66.5554 120.392L62.9234 129H60.3474L56.7314 120.392H59.3074L61.6914 126.248L64.1554 120.392H66.5554ZM75.7715 124.728C75.7715 124.76 75.7555 124.984 75.7235 125.4H69.2115C69.3288 125.933 69.6062 126.355 70.0435 126.664C70.4808 126.973 71.0248 127.128 71.6755 127.128C72.1235 127.128 72.5182 127.064 72.8595 126.936C73.2115 126.797 73.5368 126.584 73.8355 126.296L75.1635 127.736C74.3528 128.664 73.1688 129.128 71.6115 129.128C70.6408 129.128 69.7822 128.941 69.0355 128.568C68.2888 128.184 67.7128 127.656 67.3075 126.984C66.9022 126.312 66.6995 125.549 66.6995 124.696C66.6995 123.853 66.8968 123.096 67.2915 122.424C67.6968 121.741 68.2462 121.213 68.9395 120.84C69.6435 120.456 70.4275 120.264 71.2915 120.264C72.1342 120.264 72.8968 120.445 73.5795 120.808C74.2622 121.171 74.7955 121.693 75.1795 122.376C75.5742 123.048 75.7715 123.832 75.7715 124.728ZM71.3075 122.152C70.7422 122.152 70.2675 122.312 69.8835 122.632C69.4995 122.952 69.2648 123.389 69.1795 123.944H73.4195C73.3342 123.4 73.0995 122.968 72.7155 122.648C72.3315 122.317 71.8622 122.152 71.3075 122.152ZM79.8173 121.528C80.1159 121.112 80.5159 120.797 81.0173 120.584C81.5293 120.371 82.1159 120.264 82.7773 120.264V122.568C82.4999 122.547 82.3133 122.536 82.2173 122.536C81.5026 122.536 80.9426 122.739 80.5373 123.144C80.1319 123.539 79.9293 124.136 79.9293 124.936V129H77.4333V120.392H79.8173V121.528ZM92.3271 120.264C93.6605 120.264 94.6845 120.584 95.3991 121.224C96.1138 121.853 96.4711 122.808 96.4711 124.088V129H94.1351V127.928C93.6658 128.728 92.7911 129.128 91.5111 129.128C90.8498 129.128 90.2738 129.016 89.7831 128.792C89.3031 128.568 88.9351 128.259 88.6791 127.864C88.4231 127.469 88.2951 127.021 88.2951 126.52C88.2951 125.72 88.5938 125.091 89.1911 124.632C89.7991 124.173 90.7325 123.944 91.9911 123.944H93.9751C93.9751 123.4 93.8098 122.984 93.4791 122.696C93.1485 122.397 92.6525 122.248 91.9911 122.248C91.5325 122.248 91.0791 122.323 90.6311 122.472C90.1938 122.611 89.8205 122.803 89.5111 123.048L88.6151 121.304C89.0845 120.973 89.6445 120.717 90.2951 120.536C90.9565 120.355 91.6338 120.264 92.3271 120.264ZM92.1351 127.448C92.5618 127.448 92.9405 127.352 93.2711 127.16C93.6018 126.957 93.8365 126.664 93.9751 126.28V125.4H92.2631C91.2391 125.4 90.7271 125.736 90.7271 126.408C90.7271 126.728 90.8498 126.984 91.0951 127.176C91.3511 127.357 91.6978 127.448 92.1351 127.448ZM101.114 121.528C101.413 121.112 101.813 120.797 102.314 120.584C102.826 120.371 103.413 120.264 104.074 120.264V122.568C103.797 122.547 103.61 122.536 103.514 122.536C102.799 122.536 102.239 122.739 101.834 123.144C101.429 123.539 101.226 124.136 101.226 124.936V129H98.7301V120.392H101.114V121.528ZM107.942 121.528C108.241 121.112 108.641 120.797 109.142 120.584C109.654 120.371 110.241 120.264 110.902 120.264V122.568C110.625 122.547 110.438 122.536 110.342 122.536C109.628 122.536 109.068 122.739 108.662 123.144C108.257 123.539 108.054 124.136 108.054 124.936V129H105.558V120.392H107.942V121.528ZM112.386 120.392H114.882V129H112.386V120.392ZM113.634 119.192C113.176 119.192 112.802 119.059 112.514 118.792C112.226 118.525 112.082 118.195 112.082 117.8C112.082 117.405 112.226 117.075 112.514 116.808C112.802 116.541 113.176 116.408 113.634 116.408C114.093 116.408 114.466 116.536 114.754 116.792C115.042 117.048 115.186 117.368 115.186 117.752C115.186 118.168 115.042 118.515 114.754 118.792C114.466 119.059 114.093 119.192 113.634 119.192ZM125.743 120.392L122.111 129H119.535L115.919 120.392H118.495L120.879 126.248L123.343 120.392H125.743ZM134.959 124.728C134.959 124.76 134.943 124.984 134.911 125.4H128.399C128.516 125.933 128.794 126.355 129.231 126.664C129.668 126.973 130.212 127.128 130.863 127.128C131.311 127.128 131.706 127.064 132.047 126.936C132.399 126.797 132.724 126.584 133.023 126.296L134.351 127.736C133.54 128.664 132.356 129.128 130.799 129.128C129.828 129.128 128.97 128.941 128.223 128.568C127.476 128.184 126.9 127.656 126.495 126.984C126.09 126.312 125.887 125.549 125.887 124.696C125.887 123.853 126.084 123.096 126.479 122.424C126.884 121.741 127.434 121.213 128.127 120.84C128.831 120.456 129.615 120.264 130.479 120.264C131.322 120.264 132.084 120.445 132.767 120.808C133.45 121.171 133.983 121.693 134.367 122.376C134.762 123.048 134.959 123.832 134.959 124.728ZM130.495 122.152C129.93 122.152 129.455 122.312 129.071 122.632C128.687 122.952 128.452 123.389 128.367 123.944H132.607C132.522 123.4 132.287 122.968 131.903 122.648C131.519 122.317 131.05 122.152 130.495 122.152ZM145.389 117.128V129H143.005V128.008C142.386 128.755 141.49 129.128 140.317 129.128C139.506 129.128 138.77 128.947 138.109 128.584C137.458 128.221 136.946 127.704 136.573 127.032C136.199 126.36 136.013 125.581 136.013 124.696C136.013 123.811 136.199 123.032 136.573 122.36C136.946 121.688 137.458 121.171 138.109 120.808C138.77 120.445 139.506 120.264 140.317 120.264C141.415 120.264 142.274 120.611 142.893 121.304V117.128H145.389ZM140.749 127.08C141.378 127.08 141.901 126.867 142.317 126.44C142.733 126.003 142.941 125.421 142.941 124.696C142.941 123.971 142.733 123.395 142.317 122.968C141.901 122.531 141.378 122.312 140.749 122.312C140.109 122.312 139.581 122.531 139.165 122.968C138.749 123.395 138.541 123.971 138.541 124.696C138.541 125.421 138.749 126.003 139.165 126.44C139.581 126.867 140.109 127.08 140.749 127.08Z" fill="#686361"/>
<g clip-path="url(#clip0_126_31)">
<path d="M90.3041 66.8677C90.3041 67.2844 89.9663 67.6223 89.5495 67.6223C89.1328 67.6223 88.7949 67.2844 88.7949 66.8677C88.7949 66.4509 89.1328 66.113 89.5495 66.113C89.9663 66.113 90.3041 66.4509 90.3041 66.8677Z" fill="black"/>
<path d="M89.5499 53.2847C82.0483 53.2847 75.9668 59.3662 75.9668 66.8677C75.9668 74.3697 82.0483 80.4508 89.5499 80.4508C97.0518 80.4508 103.133 74.3697 103.133 66.8677C103.124 59.3699 97.0481 53.2935 89.5499 53.2847ZM78.9853 67.6224H77.476V66.1131H78.9853V67.6224ZM88.7953 54.7939H90.3045V56.3031H88.7953V54.7939ZM90.3045 78.9416H88.7953V77.4324H90.3045V78.9416ZM89.5499 69.1316C88.5941 69.1275 87.7437 68.5236 87.4249 67.6224H82.0037V66.1131H87.4249C87.6534 65.4742 88.1563 64.9713 88.7953 64.7428V57.8124H90.3045V64.7428C91.3432 65.1087 91.9666 66.1706 91.7802 67.2557C91.5934 68.3412 90.6512 69.1338 89.5499 69.1316ZM100.114 67.6224V66.1131H101.624V67.6224H100.114Z" fill="black"/>
<path d="M109.171 66.8676C109.172 77.4853 100.728 86.1778 90.1143 86.4828C79.501 86.7879 70.5709 78.5948 69.963 67.9944C69.3546 57.3944 77.2895 48.2337 87.8678 47.3232L86.0619 49.4754L87.2182 50.4452L90.1287 46.9739C90.3965 46.6544 90.3553 46.1784 90.0358 45.9105L86.5645 43L85.5973 44.1607L87.5885 45.8328C76.2232 46.8928 67.7544 56.7879 68.4622 68.1809C69.1697 79.5738 78.7984 88.3447 90.2075 87.9899C101.617 87.635 110.682 78.2827 110.68 66.8676H109.171Z" fill="black"/>
<path d="M108.755 62.8338L110.232 62.525C110.126 62.0166 109.999 61.5062 109.855 61.0066L108.404 61.4241C108.538 61.8872 108.656 62.3622 108.755 62.8338Z" fill="black"/>
<path d="M107.951 60.0444L109.366 59.5201C109.186 59.0341 108.989 58.5481 108.769 58.075L107.396 58.7036C107.597 59.1428 107.784 59.593 107.951 60.0444Z" fill="black"/>
<path d="M106.744 57.4071L108.065 56.6782C107.814 56.2254 107.543 55.7726 107.26 55.3381L105.996 56.162C106.259 56.5651 106.511 56.9822 106.744 57.4071Z" fill="black"/>
<path d="M109.136 65.7126L110.645 65.6234C110.614 65.1035 110.565 64.5799 110.495 64.0674L108.998 64.266C109.061 64.742 109.107 65.2288 109.136 65.7126Z" fill="black"/>
<path d="M105.158 54.9765L106.358 54.0605C106.043 53.6474 105.708 53.2414 105.364 52.853L104.232 53.8541C104.556 54.2156 104.869 54.5929 105.158 54.9765Z" fill="black"/>
<path d="M99.2226 48.0778C98.7624 47.8401 98.2856 47.6161 97.8055 47.4116L97.2148 48.8007C97.6607 48.9901 98.1028 49.1983 98.5306 49.4186L99.2226 48.0778Z" fill="black"/>
<path d="M96.3419 46.8545C95.8508 46.6873 95.346 46.5369 94.8412 46.4065L94.4639 47.8675C94.9318 47.9879 95.4001 48.1283 95.8559 48.2831L96.3419 46.8545Z" fill="black"/>
<path d="M104.283 51.7226C103.911 51.3597 103.52 51.007 103.122 50.6736L102.152 51.8298C102.522 52.1397 102.885 52.4673 103.23 52.804L104.283 51.7226Z" fill="black"/>
<path d="M93.314 46.0719C92.8044 45.9802 92.283 45.9061 91.7646 45.8516L91.6084 47.3534C92.09 47.4032 92.5738 47.4717 93.0421 47.5572L93.314 46.0719Z" fill="black"/>
<path d="M101.889 49.7129C101.466 49.4112 101.028 49.1175 100.586 48.8467L99.7969 50.1297C100.207 50.3817 100.614 50.6525 101.004 50.9355L101.889 49.7129Z" fill="black"/>
</g>
<defs>
<clipPath id="clip0_126_31">
<rect width="45" height="45" fill="white" transform="translate(67 43)"/>
</clipPath>
</defs>
</svg>
