<svg width="178" height="176" viewBox="0 0 178 176" fill="none" xmlns="http://www.w3.org/2000/svg">
<rect width="178" height="176" rx="10" fill="white"/>
<rect x="0.5" y="0.5" width="177" height="175" rx="9.5" stroke="#A9B7C8" stroke-opacity="0.5"/>
<path d="M54.4895 123.176C55.1295 123.379 55.6308 123.72 55.9935 124.2C56.3562 124.669 56.5375 125.251 56.5375 125.944C56.5375 126.925 56.1535 127.683 55.3855 128.216C54.6282 128.739 53.5188 129 52.0575 129H46.2655V117.8H51.7375C53.1028 117.8 54.1482 118.061 54.8735 118.584C55.6095 119.107 55.9775 119.816 55.9775 120.712C55.9775 121.256 55.8442 121.741 55.5775 122.168C55.3215 122.595 54.9588 122.931 54.4895 123.176ZM48.8415 119.752V122.392H51.4175C52.0575 122.392 52.5428 122.28 52.8735 122.056C53.2042 121.832 53.3695 121.501 53.3695 121.064C53.3695 120.627 53.2042 120.301 52.8735 120.088C52.5428 119.864 52.0575 119.752 51.4175 119.752H48.8415ZM51.8655 127.048C52.5482 127.048 53.0602 126.936 53.4015 126.712C53.7535 126.488 53.9295 126.141 53.9295 125.672C53.9295 124.744 53.2415 124.28 51.8655 124.28H48.8415V127.048H51.8655ZM66.7559 124.728C66.7559 124.76 66.7399 124.984 66.7079 125.4H60.1959C60.3132 125.933 60.5905 126.355 61.0279 126.664C61.4652 126.973 62.0092 127.128 62.6599 127.128C63.1079 127.128 63.5025 127.064 63.8439 126.936C64.1959 126.797 64.5212 126.584 64.8199 126.296L66.1479 127.736C65.3372 128.664 64.1532 129.128 62.5959 129.128C61.6252 129.128 60.7665 128.941 60.0199 128.568C59.2732 128.184 58.6972 127.656 58.2919 126.984C57.8865 126.312 57.6839 125.549 57.6839 124.696C57.6839 123.853 57.8812 123.096 58.2759 122.424C58.6812 121.741 59.2305 121.213 59.9239 120.84C60.6279 120.456 61.4119 120.264 62.2759 120.264C63.1185 120.264 63.8812 120.445 64.5639 120.808C65.2465 121.171 65.7799 121.693 66.1639 122.376C66.5585 123.048 66.7559 123.832 66.7559 124.728ZM62.2919 122.152C61.7265 122.152 61.2519 122.312 60.8679 122.632C60.4839 122.952 60.2492 123.389 60.1639 123.944H64.4039C64.3185 123.4 64.0839 122.968 63.6999 122.648C63.3159 122.317 62.8465 122.152 62.2919 122.152ZM73.9696 128.584C73.7243 128.765 73.4203 128.904 73.0576 129C72.7056 129.085 72.3323 129.128 71.9376 129.128C70.9136 129.128 70.119 128.867 69.5536 128.344C68.999 127.821 68.7216 127.053 68.7216 126.04V122.504H67.3936V120.584H68.7216V118.488H71.2176V120.584H73.3616V122.504H71.2176V126.008C71.2176 126.371 71.3083 126.653 71.4896 126.856C71.6816 127.048 71.9483 127.144 72.2896 127.144C72.6843 127.144 73.0203 127.037 73.2976 126.824L73.9696 128.584ZM89.0385 120.392L85.9185 129H83.5185L81.5825 123.656L79.5825 129H77.1825L74.0785 120.392H76.4305L78.4625 126.216L80.5745 120.392H82.6865L84.7345 126.216L86.8305 120.392H89.0385ZM98.3965 124.728C98.3965 124.76 98.3805 124.984 98.3485 125.4H91.8365C91.9538 125.933 92.2312 126.355 92.6685 126.664C93.1058 126.973 93.6498 127.128 94.3005 127.128C94.7485 127.128 95.1432 127.064 95.4845 126.936C95.8365 126.797 96.1618 126.584 96.4605 126.296L97.7885 127.736C96.9778 128.664 95.7938 129.128 94.2365 129.128C93.2658 129.128 92.4072 128.941 91.6605 128.568C90.9138 128.184 90.3378 127.656 89.9325 126.984C89.5272 126.312 89.3245 125.549 89.3245 124.696C89.3245 123.853 89.5218 123.096 89.9165 122.424C90.3218 121.741 90.8712 121.213 91.5645 120.84C92.2685 120.456 93.0525 120.264 93.9165 120.264C94.7592 120.264 95.5218 120.445 96.2045 120.808C96.8872 121.171 97.4205 121.693 97.8045 122.376C98.1992 123.048 98.3965 123.832 98.3965 124.728ZM93.9325 122.152C93.3672 122.152 92.8925 122.312 92.5085 122.632C92.1245 122.952 91.8898 123.389 91.8045 123.944H96.0445C95.9592 123.4 95.7245 122.968 95.3405 122.648C94.9565 122.317 94.4872 122.152 93.9325 122.152ZM108.49 124.728C108.49 124.76 108.474 124.984 108.442 125.4H101.93C102.048 125.933 102.325 126.355 102.762 126.664C103.2 126.973 103.744 127.128 104.394 127.128C104.842 127.128 105.237 127.064 105.578 126.936C105.93 126.797 106.256 126.584 106.554 126.296L107.882 127.736C107.072 128.664 105.888 129.128 104.33 129.128C103.36 129.128 102.501 128.941 101.754 128.568C101.008 128.184 100.432 127.656 100.026 126.984C99.6209 126.312 99.4183 125.549 99.4183 124.696C99.4183 123.853 99.6156 123.096 100.01 122.424C100.416 121.741 100.965 121.213 101.658 120.84C102.362 120.456 103.146 120.264 104.01 120.264C104.853 120.264 105.616 120.445 106.298 120.808C106.981 121.171 107.514 121.693 107.898 122.376C108.293 123.048 108.49 123.832 108.49 124.728ZM104.026 122.152C103.461 122.152 102.986 122.312 102.602 122.632C102.218 122.952 101.984 123.389 101.898 123.944H106.138C106.053 123.4 105.818 122.968 105.434 122.648C105.05 122.317 104.581 122.152 104.026 122.152ZM115.384 120.264C116.451 120.264 117.309 120.584 117.96 121.224C118.621 121.864 118.952 122.813 118.952 124.072V129H116.456V124.456C116.456 123.773 116.307 123.267 116.008 122.936C115.709 122.595 115.277 122.424 114.712 122.424C114.083 122.424 113.581 122.621 113.208 123.016C112.835 123.4 112.648 123.976 112.648 124.744V129H110.152V120.392H112.536V121.4C112.867 121.037 113.277 120.76 113.768 120.568C114.259 120.365 114.797 120.264 115.384 120.264ZM130.45 122.36C131.431 122.52 132.183 122.888 132.706 123.464C133.228 124.029 133.49 124.733 133.49 125.576C133.49 126.227 133.319 126.829 132.978 127.384C132.636 127.928 132.114 128.365 131.41 128.696C130.716 129.027 129.863 129.192 128.85 129.192C128.06 129.192 127.282 129.091 126.514 128.888C125.756 128.675 125.111 128.376 124.578 127.992L125.586 126.008C126.012 126.328 126.503 126.579 127.058 126.76C127.623 126.931 128.199 127.016 128.786 127.016C129.436 127.016 129.948 126.893 130.322 126.648C130.695 126.392 130.882 126.035 130.882 125.576C130.882 124.659 130.183 124.2 128.786 124.2H127.602V122.488L129.906 119.88H125.138V117.8H132.978V119.48L130.45 122.36ZM70.5224 140.264C71.8558 140.264 72.8798 140.584 73.5944 141.224C74.3091 141.853 74.6664 142.808 74.6664 144.088V149H72.3304V147.928C71.8611 148.728 70.9864 149.128 69.7064 149.128C69.0451 149.128 68.4691 149.016 67.9784 148.792C67.4984 148.568 67.1304 148.259 66.8744 147.864C66.6184 147.469 66.4904 147.021 66.4904 146.52C66.4904 145.72 66.7891 145.091 67.3864 144.632C67.9944 144.173 68.9278 143.944 70.1864 143.944H72.1704C72.1704 143.4 72.0051 142.984 71.6744 142.696C71.3438 142.397 70.8478 142.248 70.1864 142.248C69.7278 142.248 69.2744 142.323 68.8264 142.472C68.3891 142.611 68.0158 142.803 67.7064 143.048L66.8104 141.304C67.2798 140.973 67.8398 140.717 68.4904 140.536C69.1518 140.355 69.8291 140.264 70.5224 140.264ZM70.3304 147.448C70.7571 147.448 71.1358 147.352 71.4664 147.16C71.7971 146.957 72.0318 146.664 72.1704 146.28V145.4H70.4584C69.4344 145.4 68.9224 145.736 68.9224 146.408C68.9224 146.728 69.0451 146.984 69.2904 147.176C69.5464 147.357 69.8931 147.448 70.3304 147.448ZM82.1574 140.264C83.2241 140.264 84.0828 140.584 84.7334 141.224C85.3948 141.864 85.7254 142.813 85.7254 144.072V149H83.2294V144.456C83.2294 143.773 83.0801 143.267 82.7814 142.936C82.4828 142.595 82.0508 142.424 81.4854 142.424C80.8561 142.424 80.3548 142.621 79.9814 143.016C79.6081 143.4 79.4214 143.976 79.4214 144.744V149H76.9254V140.392H79.3094V141.4C79.6401 141.037 80.0508 140.76 80.5414 140.568C81.0321 140.365 81.5708 140.264 82.1574 140.264ZM96.8497 137.128V149H94.4657V148.008C93.847 148.755 92.951 149.128 91.7777 149.128C90.967 149.128 90.231 148.947 89.5697 148.584C88.919 148.221 88.407 147.704 88.0337 147.032C87.6604 146.36 87.4737 145.581 87.4737 144.696C87.4737 143.811 87.6604 143.032 88.0337 142.36C88.407 141.688 88.919 141.171 89.5697 140.808C90.231 140.445 90.967 140.264 91.7777 140.264C92.8764 140.264 93.735 140.611 94.3537 141.304V137.128H96.8497ZM92.2097 147.08C92.839 147.08 93.3617 146.867 93.7777 146.44C94.1937 146.003 94.4017 145.421 94.4017 144.696C94.4017 143.971 94.1937 143.395 93.7777 142.968C93.3617 142.531 92.839 142.312 92.2097 142.312C91.5697 142.312 91.0417 142.531 90.6257 142.968C90.2097 143.395 90.0017 143.971 90.0017 144.696C90.0017 145.421 90.2097 146.003 90.6257 146.44C91.0417 146.867 91.5697 147.08 92.2097 147.08ZM110.827 143.112C111.382 143.389 111.803 143.752 112.091 144.2C112.39 144.648 112.539 145.165 112.539 145.752C112.539 146.445 112.342 147.053 111.947 147.576C111.552 148.088 110.998 148.488 110.283 148.776C109.568 149.053 108.742 149.192 107.803 149.192C106.864 149.192 106.038 149.053 105.323 148.776C104.619 148.488 104.07 148.088 103.675 147.576C103.291 147.053 103.099 146.445 103.099 145.752C103.099 145.165 103.243 144.648 103.531 144.2C103.83 143.752 104.251 143.389 104.795 143.112C104.379 142.856 104.059 142.536 103.835 142.152C103.611 141.757 103.499 141.309 103.499 140.808C103.499 140.157 103.68 139.592 104.043 139.112C104.406 138.632 104.912 138.264 105.563 138.008C106.214 137.741 106.96 137.608 107.803 137.608C108.656 137.608 109.408 137.741 110.059 138.008C110.72 138.264 111.232 138.632 111.595 139.112C111.958 139.592 112.139 140.157 112.139 140.808C112.139 141.309 112.027 141.757 111.803 142.152C111.579 142.536 111.254 142.856 110.827 143.112ZM107.803 139.512C107.28 139.512 106.859 139.64 106.539 139.896C106.23 140.141 106.075 140.483 106.075 140.92C106.075 141.347 106.23 141.683 106.539 141.928C106.848 142.173 107.27 142.296 107.803 142.296C108.336 142.296 108.763 142.173 109.083 141.928C109.403 141.683 109.563 141.347 109.563 140.92C109.563 140.483 109.403 140.141 109.083 139.896C108.763 139.64 108.336 139.512 107.803 139.512ZM107.803 147.288C108.454 147.288 108.966 147.144 109.339 146.856C109.723 146.557 109.915 146.163 109.915 145.672C109.915 145.181 109.723 144.792 109.339 144.504C108.966 144.216 108.454 144.072 107.803 144.072C107.163 144.072 106.656 144.216 106.283 144.504C105.91 144.792 105.723 145.181 105.723 145.672C105.723 146.173 105.91 146.568 106.283 146.856C106.656 147.144 107.163 147.288 107.803 147.288ZM71.8918 160.264C72.9585 160.264 73.8171 160.584 74.4678 161.224C75.1291 161.864 75.4598 162.813 75.4598 164.072V169H72.9638V164.456C72.9638 163.773 72.8145 163.267 72.5158 162.936C72.2171 162.595 71.7851 162.424 71.2198 162.424C70.5905 162.424 70.0891 162.621 69.7158 163.016C69.3425 163.4 69.1558 163.976 69.1558 164.744V169H66.6598V157.128H69.1558V161.288C69.4865 160.957 69.8865 160.707 70.3558 160.536C70.8251 160.355 71.3371 160.264 71.8918 160.264ZM81.9121 169.128C81.0054 169.128 80.1894 168.941 79.4641 168.568C78.7494 168.184 78.1894 167.656 77.7841 166.984C77.3787 166.312 77.1761 165.549 77.1761 164.696C77.1761 163.843 77.3787 163.08 77.7841 162.408C78.1894 161.736 78.7494 161.213 79.4641 160.84C80.1894 160.456 81.0054 160.264 81.9121 160.264C82.8187 160.264 83.6294 160.456 84.3441 160.84C85.0587 161.213 85.6187 161.736 86.0241 162.408C86.4294 163.08 86.6321 163.843 86.6321 164.696C86.6321 165.549 86.4294 166.312 86.0241 166.984C85.6187 167.656 85.0587 168.184 84.3441 168.568C83.6294 168.941 82.8187 169.128 81.9121 169.128ZM81.9121 167.08C82.5521 167.08 83.0747 166.867 83.4801 166.44C83.8961 166.003 84.1041 165.421 84.1041 164.696C84.1041 163.971 83.8961 163.395 83.4801 162.968C83.0747 162.531 82.5521 162.312 81.9121 162.312C81.2721 162.312 80.7441 162.531 80.3281 162.968C79.9121 163.395 79.7041 163.971 79.7041 164.696C79.7041 165.421 79.9121 166.003 80.3281 166.44C80.7441 166.867 81.2721 167.08 81.9121 167.08ZM96.9724 160.392V169H94.6044V167.976C94.2738 168.349 93.8791 168.637 93.4204 168.84C92.9618 169.032 92.4658 169.128 91.9324 169.128C90.8018 169.128 89.9058 168.803 89.2444 168.152C88.5831 167.501 88.2524 166.536 88.2524 165.256V160.392H90.7484V164.888C90.7484 166.275 91.3298 166.968 92.4924 166.968C93.0898 166.968 93.5698 166.776 93.9324 166.392C94.2951 165.997 94.4764 165.416 94.4764 164.648V160.392H96.9724ZM101.669 161.528C101.967 161.112 102.367 160.797 102.869 160.584C103.381 160.371 103.967 160.264 104.629 160.264V162.568C104.351 162.547 104.165 162.536 104.069 162.536C103.354 162.536 102.794 162.739 102.389 163.144C101.983 163.539 101.781 164.136 101.781 164.936V169H99.2848V160.392H101.669V161.528ZM109.04 169.128C108.326 169.128 107.627 169.043 106.944 168.872C106.262 168.691 105.718 168.467 105.312 168.2L106.144 166.408C106.528 166.653 106.992 166.856 107.536 167.016C108.08 167.165 108.614 167.24 109.136 167.24C110.192 167.24 110.72 166.979 110.72 166.456C110.72 166.211 110.576 166.035 110.288 165.928C110 165.821 109.558 165.731 108.96 165.656C108.256 165.549 107.675 165.427 107.216 165.288C106.758 165.149 106.358 164.904 106.016 164.552C105.686 164.2 105.52 163.699 105.52 163.048C105.52 162.504 105.675 162.024 105.984 161.608C106.304 161.181 106.763 160.851 107.36 160.616C107.968 160.381 108.683 160.264 109.504 160.264C110.112 160.264 110.715 160.333 111.312 160.472C111.92 160.6 112.422 160.781 112.816 161.016L111.984 162.792C111.227 162.365 110.4 162.152 109.504 162.152C108.971 162.152 108.571 162.227 108.304 162.376C108.038 162.525 107.904 162.717 107.904 162.952C107.904 163.219 108.048 163.405 108.336 163.512C108.624 163.619 109.083 163.72 109.712 163.816C110.416 163.933 110.992 164.061 111.44 164.2C111.888 164.328 112.278 164.568 112.608 164.92C112.939 165.272 113.104 165.763 113.104 166.392C113.104 166.925 112.944 167.4 112.624 167.816C112.304 168.232 111.835 168.557 111.216 168.792C110.608 169.016 109.883 169.128 109.04 169.128Z" fill="#686361"/>
<g clip-path="url(#clip0_126_28)">
<path d="M90.3041 66.8677C90.3041 67.2844 89.9663 67.6223 89.5495 67.6223C89.1328 67.6223 88.7949 67.2844 88.7949 66.8677C88.7949 66.4509 89.1328 66.113 89.5495 66.113C89.9663 66.113 90.3041 66.4509 90.3041 66.8677Z" fill="black"/>
<path d="M89.5499 53.2847C82.0483 53.2847 75.9668 59.3662 75.9668 66.8677C75.9668 74.3697 82.0483 80.4508 89.5499 80.4508C97.0518 80.4508 103.133 74.3697 103.133 66.8677C103.124 59.3699 97.0481 53.2935 89.5499 53.2847ZM78.9853 67.6224H77.476V66.1131H78.9853V67.6224ZM88.7953 54.7939H90.3045V56.3031H88.7953V54.7939ZM90.3045 78.9416H88.7953V77.4324H90.3045V78.9416ZM89.5499 69.1316C88.5941 69.1275 87.7437 68.5236 87.4249 67.6224H82.0037V66.1131H87.4249C87.6534 65.4742 88.1563 64.9713 88.7953 64.7428V57.8124H90.3045V64.7428C91.3432 65.1087 91.9666 66.1706 91.7802 67.2557C91.5934 68.3412 90.6512 69.1338 89.5499 69.1316ZM100.114 67.6224V66.1131H101.624V67.6224H100.114Z" fill="black"/>
<path d="M109.171 66.8676C109.172 77.4853 100.728 86.1778 90.1143 86.4828C79.501 86.7879 70.5709 78.5948 69.963 67.9944C69.3546 57.3944 77.2895 48.2337 87.8678 47.3232L86.0619 49.4754L87.2182 50.4452L90.1287 46.9739C90.3965 46.6544 90.3553 46.1784 90.0358 45.9105L86.5645 43L85.5973 44.1607L87.5885 45.8328C76.2232 46.8928 67.7544 56.7879 68.4622 68.1809C69.1697 79.5738 78.7984 88.3447 90.2075 87.9899C101.617 87.635 110.682 78.2827 110.68 66.8676H109.171Z" fill="black"/>
<path d="M108.755 62.8338L110.232 62.525C110.126 62.0166 109.999 61.5062 109.855 61.0066L108.404 61.4241C108.538 61.8872 108.656 62.3622 108.755 62.8338Z" fill="black"/>
<path d="M107.951 60.0444L109.366 59.5201C109.186 59.0341 108.989 58.5481 108.769 58.075L107.396 58.7036C107.597 59.1428 107.784 59.593 107.951 60.0444Z" fill="black"/>
<path d="M106.744 57.4071L108.065 56.6782C107.814 56.2254 107.543 55.7726 107.26 55.3381L105.996 56.162C106.259 56.5651 106.511 56.9822 106.744 57.4071Z" fill="black"/>
<path d="M109.136 65.7126L110.645 65.6234C110.614 65.1035 110.565 64.5799 110.495 64.0674L108.998 64.266C109.061 64.742 109.107 65.2288 109.136 65.7126Z" fill="black"/>
<path d="M105.158 54.9765L106.358 54.0605C106.043 53.6474 105.708 53.2414 105.364 52.853L104.232 53.8541C104.556 54.2156 104.869 54.5929 105.158 54.9765Z" fill="black"/>
<path d="M99.2226 48.0778C98.7624 47.8401 98.2856 47.6161 97.8055 47.4116L97.2148 48.8007C97.6607 48.9901 98.1028 49.1983 98.5306 49.4186L99.2226 48.0778Z" fill="black"/>
<path d="M96.3419 46.8545C95.8508 46.6873 95.346 46.5369 94.8412 46.4065L94.4639 47.8675C94.9318 47.9879 95.4001 48.1283 95.8559 48.2831L96.3419 46.8545Z" fill="black"/>
<path d="M104.283 51.7226C103.911 51.3597 103.52 51.007 103.122 50.6736L102.152 51.8298C102.522 52.1397 102.885 52.4673 103.23 52.804L104.283 51.7226Z" fill="black"/>
<path d="M93.314 46.0719C92.8044 45.9802 92.283 45.9061 91.7646 45.8516L91.6084 47.3534C92.09 47.4032 92.5738 47.4717 93.0421 47.5572L93.314 46.0719Z" fill="black"/>
<path d="M101.889 49.7129C101.466 49.4112 101.028 49.1175 100.586 48.8467L99.7969 50.1297C100.207 50.3817 100.614 50.6525 101.004 50.9355L101.889 49.7129Z" fill="black"/>
</g>
<defs>
<clipPath id="clip0_126_28">
<rect width="45" height="45" fill="white" transform="translate(67 43)"/>
</clipPath>
</defs>
</svg>
