<svg width="124" height="21" viewBox="0 0 124 21" fill="none" xmlns="http://www.w3.org/2000/svg">
<g clip-path="url(#clip0_72_115)">
<path fill-rule="evenodd" clip-rule="evenodd" d="M103.129 0H124V21H103.129V0Z" fill="#DCDCE6"/>
<path fill-rule="evenodd" clip-rule="evenodd" d="M103.129 0H113.565V21H103.129V0Z" fill="#00B67A"/>
<path d="M113.566 14.0594L116.766 13.2432L118.104 17.3903L113.566 14.0594ZM120.932 8.69908H115.298L113.566 3.36084L111.834 8.69908H106.199L110.759 12.0079L109.027 17.3461L113.587 14.0373L116.394 12.0079L120.932 8.69908Z" fill="white"/>
<path fill-rule="evenodd" clip-rule="evenodd" d="M77.3477 0H98.2189V21H77.3477V0Z" fill="#00B67A"/>
<path d="M87.7804 14.0594L90.9812 13.2432L92.3186 17.3903L87.7804 14.0594ZM95.1467 8.69908H89.5124L87.7804 3.36084L86.0484 8.69908H80.4141L84.9742 12.0079L83.2422 17.3461L87.8023 14.0373L90.6085 12.0079L95.1467 8.69908Z" fill="white"/>
<path fill-rule="evenodd" clip-rule="evenodd" d="M51.5625 0H72.4338V21H51.5625V0Z" fill="#00B67A"/>
<path d="M61.9991 14.0594L65.2 13.2432L66.5373 17.3903L61.9991 14.0594ZM69.3655 8.69908H63.7311L61.9991 3.36084L60.2672 8.69908H54.6328L59.1929 12.0079L57.461 17.3461L62.0211 14.0373L64.8273 12.0079L69.3655 8.69908Z" fill="white"/>
<path fill-rule="evenodd" clip-rule="evenodd" d="M25.7812 0H46.6525V21H25.7812V0Z" fill="#00B67A"/>
<path d="M36.2179 14.0594L39.4187 13.2432L40.7561 17.3903L36.2179 14.0594ZM43.5842 8.69908H37.9499L36.2179 3.36084L34.4859 8.69908H28.8516L33.4117 12.0079L31.6797 17.3461L36.2398 14.0373L39.046 12.0079L43.5842 8.69908Z" fill="white"/>
<path fill-rule="evenodd" clip-rule="evenodd" d="M0 0H20.8713V21H0V0Z" fill="#00B67A"/>
<path d="M10.4366 14.0594L13.6375 13.2432L14.9748 17.3903L10.4366 14.0594ZM17.803 8.69908H12.1686L10.4366 3.36084L8.70468 8.69908H3.07031L7.63043 12.0079L5.89846 17.3461L10.4586 14.0373L13.2648 12.0079L17.803 8.69908Z" fill="white"/>
</g>
<defs>
<clipPath id="clip0_72_115">
<rect width="124" height="21" fill="white"/>
</clipPath>
</defs>
</svg>
