<svg width="350" height="350" viewBox="0 0 350 350" fill="none" xmlns="http://www.w3.org/2000/svg">
<g filter="url(#filter0_d_94_9)">
<circle cx="175" cy="171" r="125" fill="white"/>
</g>
<g clip-path="url(#clip0_94_9)">
<path d="M240.942 138.804L213.87 111.681V220.373H250.101V160.827C250.101 152.559 246.804 144.633 240.942 138.804Z" fill="#FFB782"/>
<path d="M121.16 200.568L100.694 147.438C98.6398 142.104 101.297 136.113 106.633 134.058L203.233 96.849C208.567 94.7949 214.558 97.4522 216.612 102.789L237.078 155.919C239.132 161.252 236.475 167.243 231.138 169.298L134.542 206.508C129.205 208.562 123.217 205.901 121.16 200.568Z" fill="#DE4C3C"/>
<path d="M223.988 121.928L108.163 166.824L115.876 186.845L231.705 141.97L223.988 121.928Z" fill="#7A4930"/>
<path d="M100.001 163.439V106.505C100.001 100.788 104.636 96.1528 110.353 96.1528H213.87C219.586 96.1528 224.222 100.788 224.222 106.505V163.439C224.222 169.156 219.586 173.791 213.87 173.791H110.353C104.636 173.791 100.001 169.156 100.001 163.439Z" fill="#4398D1"/>
<path d="M213.87 96.1527H202.871L125.233 173.791H213.87C219.586 173.791 224.222 169.156 224.222 163.439V106.505C224.222 100.788 219.586 96.1527 213.87 96.1527Z" fill="#3E8CC7"/>
<path d="M110.352 137.559H120.704V142.735H110.352V137.559Z" fill="#5EB3D1"/>
<path d="M110.352 153.087H120.704V158.263H110.352V153.087Z" fill="#5EB3D1"/>
<path d="M156.935 153.087H167.286V158.263H156.935V153.087Z" fill="#5EB3D1"/>
<path d="M125.88 137.559H136.231V142.735H125.88V137.559Z" fill="#5EB3D1"/>
<path d="M141.407 137.559H151.759V142.735H141.407V137.559Z" fill="#5EB3D1"/>
<path d="M156.935 137.559H167.286V142.735H156.935V137.559Z" fill="#5EB3D1"/>
<path d="M206.106 106.505H211.282V114.269H206.106V106.505Z" fill="#5EB3D1"/>
<path d="M195.753 106.505H200.929V114.269H195.753V106.505Z" fill="#5EB3D1"/>
<path d="M185.402 106.505H190.578V114.269H185.402V106.505Z" fill="#5EB3D1"/>
<path d="M175.051 106.505H180.226V114.269H175.051V106.505Z" fill="#5EB3D1"/>
<path d="M203.517 220.373H250.1V246.252H203.517V220.373Z" fill="#005ECE"/>
<path d="M195.922 142.903C191.533 138.53 184.43 138.543 180.056 142.932C175.827 147.176 175.68 153.995 179.722 158.418L200.93 181.555C194.556 192.711 194.828 206.468 201.636 217.363L203.518 220.373H237.161V184.143L195.922 142.903Z" fill="#FFB782"/>
<path d="M211.281 228.137H216.457V233.313H211.281V228.137Z" fill="#004FAC"/>
<path d="M110.352 123.067V110.646C110.352 108.358 112.205 106.505 114.493 106.505H126.915C129.203 106.505 131.055 108.358 131.055 110.646V123.067C131.055 125.355 129.203 127.208 126.915 127.208H114.493C112.205 127.208 110.352 125.355 110.352 123.067Z" fill="#FDB62F"/>
<path d="M110.352 114.269H118.116V119.444H110.352V114.269Z" fill="#FD7B2F"/>
<path d="M123.292 114.269H131.055V119.444H123.292V114.269Z" fill="#FD7B2F"/>
<path d="M234.573 184.143C233.887 184.143 233.228 183.871 232.743 183.384L222.392 173.032C221.398 172.005 221.427 170.367 222.457 169.373C223.461 168.405 225.05 168.405 226.051 169.373L236.403 179.725C237.412 180.737 237.412 182.375 236.403 183.384C235.916 183.871 235.259 184.143 234.573 184.143Z" fill="#F2A46F"/>
</g>
<defs>
<filter id="filter0_d_94_9" x="0" y="0" width="350" height="350" filterUnits="userSpaceOnUse" color-interpolation-filters="sRGB">
<feFlood flood-opacity="0" result="BackgroundImageFix"/>
<feColorMatrix in="SourceAlpha" type="matrix" values="0 0 0 0 0 0 0 0 0 0 0 0 0 0 0 0 0 0 127 0" result="hardAlpha"/>
<feOffset dy="4"/>
<feGaussianBlur stdDeviation="25"/>
<feColorMatrix type="matrix" values="0 0 0 0 0.662745 0 0 0 0 0.717647 0 0 0 0 0.784314 0 0 0 0.25 0"/>
<feBlend mode="normal" in2="BackgroundImageFix" result="effect1_dropShadow_94_9"/>
<feBlend mode="normal" in="SourceGraphic" in2="effect1_dropShadow_94_9" result="shape"/>
</filter>
<clipPath id="clip0_94_9">
<rect width="150" height="150" fill="white" transform="translate(100 96)"/>
</clipPath>
</defs>
</svg>
