<svg width="32" height="13" viewBox="0 0 32 13" fill="none" xmlns="http://www.w3.org/2000/svg">
<path d="M7.08 5.936H4.104V3.008H3.096V5.936H0.12V6.88H3.096V9.792H4.104V6.88H7.08V5.936ZM8.0815 0.799999V1.824H10.7215V12H11.8735V0.799999H8.0815ZM16.0388 10.976L19.8468 7.232C21.3508 5.76 21.6868 4.8 21.6868 3.728C21.6868 1.856 20.2468 0.704 17.9748 0.704C16.2628 0.704 14.8708 1.28 14.0068 2.304L14.8228 3.008C15.5588 2.16 16.5668 1.76 17.8788 1.76C19.5908 1.76 20.5028 2.56 20.5028 3.856C20.5028 4.624 20.2628 5.376 18.9988 6.624L14.3428 11.184V12H22.1988V10.976H16.0388ZM27.4525 5.6L30.6205 1.616V0.799999H23.4205V1.824H29.1485L26.0445 5.712V6.56H26.8445C28.9245 6.56 29.8685 7.44 29.8685 8.784C29.8685 10.176 28.8445 11.04 26.9885 11.04C25.5325 11.04 24.2365 10.496 23.5165 9.744L22.9565 10.656C23.8205 11.536 25.3725 12.096 26.9885 12.096C29.6925 12.096 31.0525 10.656 31.0525 8.784C31.0525 6.992 29.8525 5.728 27.4525 5.6Z" fill="#686361" fill-opacity="0.5"/>
</svg>
