<svg width="45" height="43" viewBox="0 0 45 43" fill="none" xmlns="http://www.w3.org/2000/svg">
<path d="M22.4991 29.8394C21.2411 29.8394 20.1865 30.8939 20.1865 32.152C20.1865 33.41 21.2411 34.4646 22.4991 34.4646C23.7109 34.4646 24.8117 33.41 24.7562 32.2075C24.8117 30.8847 23.7664 29.8394 22.4991 29.8394Z" fill="#1A7CFA"/>
<path d="M43.905 38.0352C45.3573 35.5283 45.3665 32.5404 43.9235 30.0428L29.4373 4.95559C28.0035 2.43021 25.4133 0.931641 22.5087 0.931641C19.6041 0.931641 17.0139 2.43946 15.5801 4.94633L1.07541 30.0613C-0.367661 32.5867 -0.358411 35.5931 1.10316 38.0999C2.54623 40.5791 5.1271 42.0684 8.01324 42.0684H36.9486C39.844 42.0684 42.4434 40.5606 43.905 38.0352ZM40.7598 36.2221C39.955 37.6097 38.5305 38.4329 36.9394 38.4329H8.00399C6.43142 38.4329 5.0161 37.6282 4.22981 36.2683C3.43427 34.89 3.42502 33.2435 4.22056 31.8559L18.7253 6.75017C19.5115 5.37185 20.9176 4.55782 22.5087 4.55782C24.0905 4.55782 25.5058 5.38111 26.2921 6.75942L40.7876 31.8651C41.5646 33.2157 41.5554 34.8438 40.7598 36.2221Z" fill="#1A7CFA"/>
<path d="M21.926 13.6048C20.8252 13.9194 20.1406 14.9184 20.1406 16.1302C20.1961 16.861 20.2424 17.601 20.2979 18.3318C20.4551 21.1162 20.6124 23.8451 20.7697 26.6295C20.8252 27.573 21.5559 28.2575 22.4995 28.2575C23.443 28.2575 24.1831 27.5268 24.2293 26.574C24.2293 26.0004 24.2293 25.4732 24.2848 24.8904C24.3866 23.105 24.4976 21.3197 24.5993 19.5344C24.6548 18.3781 24.7566 17.2218 24.8121 16.0655C24.8121 15.6492 24.7566 15.2792 24.5993 14.9092C24.1276 13.8731 23.0268 13.3458 21.926 13.6048Z" fill="#1A7CFA"/>
</svg>
