<svg width="200" height="200" viewBox="0 0 200 200" fill="none" xmlns="http://www.w3.org/2000/svg">
<g opacity="0.5" filter="url(#filter0_d_67_744)">
<circle cx="100" cy="96" r="50" fill="#F6D2CE"/>
</g>
<g clip-path="url(#clip0_67_744)">
<path d="M92.7245 96.1467L92.4962 84.0518L71.9727 94.9903V101.278L86.9832 97.5664L92.7245 96.1467Z" fill="#37BBDA"/>
<path d="M101.382 96.1467L101.611 84.0518L122.134 94.9904V99.1117C119.926 97.5811 117.246 96.6835 114.356 96.6835C112.31 96.6835 110.37 97.1335 108.628 97.9385L107.124 97.5665L101.382 96.1467Z" fill="#37BBDA"/>
<path d="M114.355 124.027C121.886 124.027 128.027 117.886 128.027 110.356C128.027 102.825 121.886 96.6838 114.355 96.6838C106.825 96.6838 100.684 102.825 100.684 110.356C100.684 117.886 106.825 124.027 114.355 124.027Z" fill="#E3E5E5"/>
<path d="M101.085 107.056L101.351 96.1469L101.611 84.0205L101.682 80.7035L101.851 72.7862C101.908 70.1395 99.6852 67.9727 97.0377 67.9727C94.3904 67.9727 92.1676 70.1393 92.2243 72.786L92.3743 79.7876L92.4962 84.0519L92.7245 96.1467L93.0249 108.443L87.981 112.81V118.103L97.0377 114.983L102.291 116.792C101.265 114.874 100.684 112.683 100.684 110.356C100.684 109.22 100.823 108.116 101.085 107.061V107.056Z" fill="#69DAF4"/>
<path d="M127.211 117.706C128.455 115.538 129.167 113.028 129.167 110.355C129.167 107.682 128.455 105.172 127.21 103.004C127.201 102.986 127.193 102.968 127.182 102.95C127.168 102.925 127.152 102.902 127.137 102.879C126.138 101.179 124.811 99.6941 123.242 98.5138V94.9904C123.242 94.5702 123.011 94.1842 122.641 93.986L102.765 83.346L102.99 72.8105C103.024 71.254 102.432 69.7731 101.323 68.6406C100.199 67.4921 98.6369 66.8333 97.0377 66.8333C95.4387 66.8333 93.8768 67.4921 92.7525 68.6407C91.6441 69.7731 91.052 71.254 91.0853 72.8105L91.3374 83.3786L71.437 93.9851C71.0655 94.183 70.8335 94.5696 70.8335 94.9904V101.278C70.8335 101.629 70.9947 101.96 71.2705 102.175C71.5464 102.391 71.9064 102.468 72.2463 102.384L85.844 99.0218V100.279C85.844 100.908 86.3542 101.418 86.9833 101.418C87.6126 101.418 88.1227 100.908 88.1227 100.279V98.4585L91.6204 97.5935L91.8729 107.934L87.2352 111.949C86.9854 112.165 86.8417 112.48 86.8417 112.81V118.103C86.8417 118.471 87.0198 118.816 87.3194 119.03C87.5152 119.17 87.7469 119.242 87.9811 119.242C88.1058 119.242 88.2311 119.221 88.3521 119.18L97.0378 116.188L101.513 117.729C101.518 117.74 101.523 117.751 101.529 117.761C101.539 117.778 101.551 117.793 101.562 117.81C102.848 120.009 104.684 121.848 106.88 123.137C106.903 123.153 106.926 123.168 106.95 123.182C106.963 123.189 106.976 123.194 106.989 123.201C109.16 124.451 111.676 125.167 114.356 125.167C117.036 125.167 119.552 124.451 121.723 123.201C121.736 123.194 121.749 123.189 121.761 123.182C121.786 123.168 121.808 123.153 121.831 123.137C124.027 121.848 125.863 120.009 127.149 117.81C127.16 117.794 127.172 117.778 127.182 117.761C127.193 117.743 127.202 117.724 127.211 117.706ZM120.964 95.6729V97.0968C119.61 96.4203 118.165 95.9599 116.669 95.7253C116.643 95.7211 116.616 95.7165 116.589 95.7125C116.504 95.6997 116.419 95.688 116.333 95.6766C116.283 95.6698 116.232 95.663 116.181 95.6567C116.107 95.6476 116.033 95.6393 115.959 95.6313C115.895 95.6243 115.83 95.6179 115.766 95.6117C115.701 95.6055 115.635 95.5995 115.57 95.5943C115.494 95.5881 115.418 95.5829 115.342 95.5779C115.285 95.5741 115.228 95.5701 115.171 95.5669C115.08 95.562 114.989 95.5585 114.898 95.5551C114.854 95.5535 114.81 95.5513 114.766 95.5501C114.63 95.5463 114.493 95.5441 114.356 95.5441C114.289 95.5441 114.223 95.5457 114.157 95.5466C112.196 95.5722 110.299 95.9734 108.511 96.7434L108.232 96.6745V95.6034C108.232 94.9741 107.722 94.4641 107.092 94.4641C106.463 94.4641 105.953 94.9741 105.953 95.6034V96.1111L102.51 95.2595L102.71 85.9012L120.964 95.6729ZM102.355 101.685L102.455 97.5935L105.647 98.3827C104.384 99.3038 103.273 100.419 102.355 101.685ZM86.9833 94.4643C86.3542 94.4643 85.844 94.9744 85.844 95.6036V96.6747L73.1121 99.823V95.6742L91.3923 85.9313L91.5684 95.2591L88.1227 96.1112V95.6035C88.1227 94.9744 87.6126 94.4643 86.9833 94.4643ZM97.4089 113.906C97.1686 113.823 96.9071 113.823 96.6667 113.906L89.1204 116.505V113.331L93.7708 109.305C94.0281 109.082 94.1724 108.756 94.164 108.415L93.3635 72.7616C93.3635 72.7596 93.3636 72.7618 93.3635 72.7596C93.3635 72.758 93.3635 72.7596 93.3635 72.758V72.7616C93.3434 71.823 93.7046 70.9255 94.3809 70.2346C95.0792 69.5212 96.0476 69.1119 97.0378 69.1119C98.028 69.1119 98.9964 69.5211 99.6947 70.2345C100.371 70.9254 100.732 71.823 100.712 72.7618L99.9345 106.974C99.9345 106.974 99.9345 106.974 99.9345 106.974L99.9486 106.911C99.9435 106.932 99.9394 106.953 99.9345 106.973C99.9163 107.051 99.8993 107.129 99.8824 107.208C99.8715 107.257 99.8601 107.307 99.8499 107.356C99.8228 107.488 99.7974 107.62 99.7737 107.753C99.7707 107.77 99.7682 107.787 99.7652 107.804C99.7446 107.922 99.7252 108.041 99.7075 108.16C99.7023 108.194 99.6979 108.229 99.6931 108.263C99.6785 108.365 99.665 108.467 99.6526 108.57C99.6478 108.61 99.6433 108.65 99.6388 108.69C99.6278 108.787 99.6178 108.884 99.6089 108.982C99.6049 109.025 99.6011 109.067 99.5974 109.11C99.5894 109.206 99.5825 109.302 99.5763 109.398C99.5736 109.441 99.5705 109.484 99.5681 109.528C99.5625 109.627 99.5586 109.726 99.555 109.826C99.5537 109.865 99.5517 109.904 99.5506 109.943C99.5468 110.08 99.5445 110.217 99.5445 110.356C99.5445 110.531 99.5488 110.705 99.5548 110.879C99.5561 110.913 99.5572 110.946 99.5587 110.98C99.6148 112.328 99.8519 113.63 100.247 114.863C100.249 114.87 100.251 114.878 100.253 114.886L97.4089 113.906ZM121.58 120.59L121.351 120.193C121.037 119.648 120.34 119.462 119.795 119.776C119.25 120.091 119.063 120.788 119.378 121.333L119.609 121.732C118.337 122.322 116.952 122.704 115.495 122.836V122.373C115.495 121.744 114.985 121.234 114.356 121.234C113.726 121.234 113.216 121.744 113.216 122.373V122.836C111.76 122.704 110.374 122.322 109.103 121.732L109.334 121.333C109.648 120.788 109.462 120.091 108.917 119.776C108.372 119.462 107.675 119.648 107.36 120.193L107.131 120.59C105.965 119.765 104.946 118.746 104.121 117.58L104.518 117.351C105.063 117.036 105.249 116.34 104.935 115.795C104.62 115.25 103.924 115.063 103.378 115.378L102.979 115.608C102.843 115.315 102.718 115.017 102.605 114.712C102.592 114.677 102.579 114.643 102.566 114.608C102.545 114.549 102.524 114.49 102.504 114.43C102.478 114.354 102.452 114.277 102.427 114.2C102.419 114.174 102.41 114.148 102.402 114.122C102.137 113.278 101.961 112.406 101.878 111.522C101.877 111.513 101.876 111.504 101.875 111.495H102.338C102.967 111.495 103.477 110.985 103.477 110.355C103.477 109.726 102.967 109.216 102.338 109.216H101.875C101.877 109.198 101.878 109.18 101.88 109.162C101.888 109.074 101.898 108.986 101.908 108.899C101.912 108.868 101.915 108.837 101.919 108.806C101.933 108.692 101.948 108.577 101.966 108.464C101.966 108.46 101.967 108.456 101.967 108.453C101.985 108.339 102.004 108.225 102.025 108.112C102.033 108.064 102.043 108.016 102.052 107.969C102.064 107.906 102.076 107.843 102.09 107.78C102.102 107.719 102.116 107.658 102.13 107.597C102.14 107.552 102.15 107.506 102.161 107.461C102.356 106.641 102.631 105.852 102.979 105.102L103.378 105.333C103.558 105.437 103.754 105.486 103.947 105.486C104.341 105.486 104.724 105.282 104.935 104.916C105.249 104.371 105.063 103.675 104.518 103.36L104.121 103.131C104.946 101.965 105.965 100.946 107.131 100.121L107.36 100.518C107.571 100.883 107.954 101.087 108.348 101.087C108.541 101.087 108.737 101.038 108.916 100.935C109.461 100.62 109.648 99.9232 109.333 99.3783L109.103 98.9785C110.374 98.3892 111.759 98.0071 113.216 97.8752V98.3377C113.216 98.967 113.726 99.4771 114.356 99.4771C114.985 99.4771 115.495 98.967 115.495 98.3377V97.8761C115.568 97.8827 115.64 97.8887 115.713 97.8966C115.761 97.9018 115.81 97.9074 115.858 97.9132C115.953 97.9245 116.047 97.9373 116.142 97.9507C116.214 97.9611 116.287 97.9721 116.359 97.9838C116.445 97.9974 116.53 98.0119 116.615 98.0273C116.687 98.0404 116.758 98.0543 116.83 98.0686C116.879 98.0784 116.928 98.089 116.977 98.0995C117.139 98.1341 117.3 98.1714 117.46 98.2123C117.47 98.2148 117.479 98.2171 117.489 98.2195C118.224 98.4093 118.932 98.665 119.608 98.9785L119.378 99.3783C119.063 99.9232 119.25 100.62 119.795 100.935C119.974 101.038 120.17 101.087 120.363 101.087C120.757 101.087 121.14 100.883 121.351 100.518L121.58 100.121C122.746 100.946 123.765 101.965 124.59 103.131L124.193 103.36C123.649 103.675 123.462 104.371 123.776 104.916C123.987 105.282 124.37 105.486 124.764 105.486C124.958 105.486 125.153 105.437 125.333 105.334L125.733 105.103C126.322 106.374 126.704 107.759 126.836 109.216H126.373C125.744 109.216 125.234 109.726 125.234 110.356C125.234 110.985 125.744 111.495 126.373 111.495H126.836C126.704 112.952 126.322 114.338 125.733 115.609L125.333 115.378C124.788 115.063 124.091 115.25 123.776 115.795C123.462 116.34 123.649 117.037 124.193 117.351L124.59 117.58C123.765 118.746 122.746 119.765 121.58 120.59Z" fill="black"/>
<path d="M118.863 109.216H115.495V102.326C115.495 101.696 114.985 101.186 114.356 101.186C113.726 101.186 113.216 101.696 113.216 102.326V110.355C113.216 110.985 113.726 111.495 114.356 111.495H118.863C119.492 111.495 120.003 110.985 120.003 110.355C120.003 109.726 119.493 109.216 118.863 109.216Z" fill="black"/>
<path d="M88.1229 92.3033C88.1229 91.6741 87.6128 91.164 86.9836 91.164C86.3544 91.164 85.8442 91.6741 85.8442 92.3033V92.3302C85.8442 92.9595 86.3544 93.4695 86.9836 93.4695C87.6128 93.4695 88.1229 92.9595 88.1229 92.3302V92.3033Z" fill="black"/>
<path d="M107.092 93.4695C107.722 93.4695 108.232 92.9595 108.232 92.3302V92.3033C108.232 91.6741 107.722 91.164 107.092 91.164C106.463 91.164 105.953 91.6741 105.953 92.3033V92.3302C105.953 92.9595 106.463 93.4695 107.092 93.4695Z" fill="black"/>
</g>
<defs>
<filter id="filter0_d_67_744" x="0" y="0" width="200" height="200" filterUnits="userSpaceOnUse" color-interpolation-filters="sRGB">
<feFlood flood-opacity="0" result="BackgroundImageFix"/>
<feColorMatrix in="SourceAlpha" type="matrix" values="0 0 0 0 0 0 0 0 0 0 0 0 0 0 0 0 0 0 127 0" result="hardAlpha"/>
<feOffset dy="4"/>
<feGaussianBlur stdDeviation="25"/>
<feColorMatrix type="matrix" values="0 0 0 0 0.662745 0 0 0 0 0.717647 0 0 0 0 0.784314 0 0 0 0.25 0"/>
<feBlend mode="normal" in2="BackgroundImageFix" result="effect1_dropShadow_67_744"/>
<feBlend mode="normal" in="SourceGraphic" in2="effect1_dropShadow_67_744" result="shape"/>
</filter>
<clipPath id="clip0_67_744">
<rect width="58.3333" height="58.3333" fill="white" transform="translate(70.8335 66.8333)"/>
</clipPath>
</defs>
</svg>
