<svg width="200" height="200" viewBox="0 0 200 200" fill="none" xmlns="http://www.w3.org/2000/svg">
<g opacity="0.5" filter="url(#filter0_d_94_13)">
<circle cx="100" cy="96" r="50" fill="#FDB62F"/>
</g>
<g clip-path="url(#clip0_94_13)">
<path d="M92.5167 96.1511L92.2817 83.7106L71.1719 94.9617V101.429L86.611 97.6114L92.5167 96.1511Z" fill="#37BBDA"/>
<path d="M101.421 96.1511L101.656 83.7106L122.766 94.9617V99.2008C120.494 97.6265 117.738 96.7032 114.765 96.7032C112.661 96.7032 110.666 97.166 108.874 97.9941L107.326 97.6114L101.421 96.1511Z" fill="#37BBDA"/>
<path d="M114.765 124.828C122.51 124.828 128.827 118.511 128.827 110.766C128.827 103.02 122.51 96.7031 114.765 96.7031C107.019 96.7031 100.702 103.02 100.702 110.766C100.702 118.511 107.019 124.828 114.765 124.828Z" fill="#F95C4B"/>
<path d="M101.116 107.372L101.39 96.1511L101.657 83.6781L101.73 80.2665L101.904 72.1229C101.963 69.4008 99.6763 67.1719 96.9532 67.1719C94.2302 67.1719 91.9441 69.4005 92.0022 72.123L92.1564 79.3245L92.2819 83.7106L92.5169 96.1512L92.8259 108.799L87.6377 113.291V118.734L96.9532 115.525L102.356 117.387C101.302 115.413 100.704 113.16 100.704 110.766C100.704 109.597 100.847 108.462 101.116 107.377L101.116 107.372Z" fill="#69DAF4"/>
<path d="M123.906 98.5865V94.9625C123.906 94.5303 123.668 94.1332 123.287 93.9293L102.843 82.9854L103.075 72.1488C103.11 70.5477 102.501 69.0244 101.36 67.8596C100.204 66.6782 98.5975 66.0009 96.9524 66.001C95.3078 66.001 93.7014 66.6784 92.5453 67.8596C91.405 69.0243 90.796 70.5476 90.8302 72.1488L90.9847 79.3588L91.0894 83.0188L70.6206 93.9282C70.2387 94.132 70 94.5295 70 94.9625V101.43C70 101.79 70.1658 102.131 70.4495 102.353C70.7331 102.575 71.1032 102.654 71.4531 102.568L85.4392 99.1092V100.402C85.4392 101.049 85.9638 101.574 86.611 101.574C87.2583 101.574 87.7829 101.049 87.7829 100.402V98.5296L91.3808 97.64L91.6406 108.275L86.8702 112.406C86.6131 112.628 86.4655 112.951 86.4655 113.292V118.735C86.4655 119.114 86.6485 119.469 86.9568 119.689C87.1581 119.833 87.3965 119.907 87.6375 119.907C87.7657 119.907 87.8946 119.886 88.019 119.843L96.9529 116.765L101.557 118.352C104.191 122.919 109.125 126.001 114.766 126.001C123.166 126.001 130 119.167 130 110.766C130 105.793 127.604 101.369 123.906 98.5865ZM121.562 95.6643V97.1291C120.171 96.4335 118.684 95.9598 117.147 95.7187C117.119 95.7142 117.091 95.7095 117.063 95.7052C116.975 95.692 116.887 95.68 116.799 95.6684C116.747 95.6612 116.695 95.6545 116.643 95.648C116.567 95.6385 116.49 95.6298 116.413 95.6215C116.349 95.6145 116.283 95.6079 116.218 95.6017C116.15 95.5953 116.081 95.5889 116.012 95.5834C115.936 95.5772 115.861 95.5721 115.785 95.5669C115.724 95.563 115.663 95.5587 115.602 95.5553C115.513 95.5505 115.423 95.547 115.333 95.5437C115.284 95.5418 115.235 95.5394 115.186 95.5381C115.046 95.5343 114.906 95.532 114.766 95.532H114.766C112.676 95.532 110.655 95.9468 108.754 96.7656L108.467 96.6947V95.5932C108.467 94.9461 107.942 94.4213 107.295 94.4213C106.647 94.4213 106.123 94.9461 106.123 95.5932V96.1152L102.581 95.2393L102.787 85.6134L121.562 95.6643ZM102.525 97.64L105.808 98.4518C104.509 99.399 103.366 100.546 102.422 101.848L102.525 97.64ZM86.611 94.4214C85.9638 94.4214 85.4392 94.9462 85.4392 95.5933V96.6948L72.3437 99.9332V95.6658L91.1462 85.6445L91.3273 95.2388L87.7829 96.1153V95.5933C87.7829 94.9461 87.2583 94.4214 86.611 94.4214ZM100.26 115.426L97.3346 114.418C97.0873 114.333 96.8186 114.333 96.5712 114.418L88.8092 117.092V113.827L93.5927 109.686C93.8574 109.456 94.0056 109.121 93.9972 108.771L93.6882 96.1232V96.1231L93.4533 83.6891C93.4533 83.6868 93.453 83.6849 93.4529 83.6827C93.4529 83.6809 93.4531 83.6793 93.4531 83.6776L93.1735 72.0985C93.1529 71.1327 93.5246 70.2094 94.2202 69.4988C94.9383 68.7652 95.9342 68.3444 96.9531 68.3444C97.9715 68.3442 98.9675 68.7651 99.6857 69.4988C100.381 70.2094 100.753 71.1326 100.733 72.0985L100.485 83.6537L100.218 96.1226V96.123L99.9469 107.223C99.9418 107.244 99.9375 107.266 99.9325 107.288C99.9137 107.368 99.8963 107.448 99.8787 107.529C99.8677 107.58 99.856 107.63 99.8454 107.681C99.8174 107.817 99.7913 107.953 99.7668 108.09C99.764 108.106 99.7615 108.122 99.7587 108.139C99.7373 108.262 99.7172 108.385 99.6988 108.509C99.6937 108.543 99.6891 108.578 99.6842 108.613C99.6692 108.718 99.655 108.824 99.6422 108.93C99.6373 108.971 99.6329 109.011 99.6283 109.052C99.617 109.152 99.6066 109.253 99.5973 109.354C99.5934 109.398 99.5894 109.441 99.5856 109.485C99.5774 109.583 99.5704 109.682 99.5641 109.781C99.5613 109.826 99.5581 109.87 99.5556 109.914C99.55 110.017 99.5458 110.119 99.5421 110.222C99.5407 110.262 99.5387 110.302 99.5376 110.342C99.5337 110.483 99.5314 110.624 99.5314 110.766C99.5314 110.946 99.5357 111.126 99.5419 111.305C99.5432 111.339 99.5444 111.374 99.5459 111.409C99.6038 112.795 99.8473 114.133 100.253 115.4C100.255 115.408 100.258 115.417 100.26 115.426ZM114.766 123.657C109.23 123.657 104.499 120.149 102.676 115.241C102.665 115.21 102.653 115.179 102.642 115.148C102.619 115.083 102.596 115.018 102.573 114.953C102.549 114.881 102.525 114.808 102.501 114.736C102.49 114.703 102.48 114.67 102.469 114.637C102.197 113.771 102.017 112.875 101.931 111.968C101.93 111.955 101.929 111.943 101.928 111.931C101.918 111.822 101.91 111.713 101.903 111.604C101.901 111.577 101.899 111.55 101.898 111.523C101.892 111.425 101.888 111.328 101.884 111.229C101.883 111.199 101.882 111.169 101.881 111.139C101.877 111.015 101.875 110.891 101.875 110.766C101.875 110.644 101.877 110.522 101.881 110.399C101.882 110.363 101.884 110.327 101.885 110.292C101.888 110.204 101.892 110.116 101.897 110.029C101.899 109.989 101.902 109.949 101.904 109.909C101.91 109.824 101.916 109.739 101.924 109.654C101.927 109.616 101.93 109.577 101.934 109.539C101.942 109.449 101.952 109.359 101.963 109.27C101.966 109.237 101.97 109.205 101.974 109.173C101.988 109.056 102.004 108.94 102.021 108.824C102.022 108.819 102.023 108.814 102.024 108.809C102.042 108.692 102.061 108.576 102.082 108.459C102.092 108.409 102.102 108.359 102.111 108.309C102.124 108.245 102.136 108.182 102.149 108.119C102.163 108.055 102.177 107.992 102.191 107.928C102.201 107.882 102.212 107.836 102.223 107.79C103.495 102.425 108.13 98.3468 113.77 97.9141C113.784 97.913 113.798 97.9123 113.811 97.9114C113.906 97.9043 114 97.8982 114.095 97.8934C114.136 97.8913 114.177 97.8903 114.218 97.8885C114.287 97.8856 114.357 97.8823 114.427 97.8805C114.539 97.8777 114.651 97.8761 114.763 97.8761C114.764 97.8761 114.765 97.8761 114.766 97.8761C114.911 97.8761 115.056 97.8794 115.2 97.8842C115.239 97.8855 115.278 97.887 115.317 97.8886C115.445 97.894 115.573 97.9009 115.701 97.9102C115.719 97.9116 115.737 97.9122 115.756 97.9136C115.891 97.9239 116.026 97.9371 116.16 97.9517C116.211 97.9572 116.262 97.963 116.313 97.9691C116.409 97.9806 116.504 97.9934 116.6 98.007C116.677 98.0181 116.754 98.0297 116.831 98.0421C116.917 98.056 117.003 98.0705 117.089 98.0862C117.163 98.0997 117.237 98.114 117.311 98.1287C117.362 98.1389 117.412 98.1497 117.463 98.1605C117.628 98.196 117.793 98.2341 117.957 98.2758C117.968 98.2786 117.979 98.2813 117.99 98.284C123.543 99.7191 127.657 104.771 127.657 110.767C127.656 117.874 121.874 123.657 114.766 123.657Z" fill="black"/>
<path d="M119.646 105.884C119.189 105.427 118.447 105.427 117.989 105.884L114.765 109.108L111.541 105.884C111.083 105.427 110.341 105.427 109.883 105.884C109.426 106.342 109.426 107.084 109.883 107.541L113.107 110.766L109.883 113.99C109.426 114.448 109.426 115.19 109.883 115.647C110.112 115.876 110.412 115.991 110.712 115.991C111.012 115.991 111.312 115.876 111.541 115.647L114.765 112.423L117.989 115.647C118.218 115.876 118.518 115.991 118.818 115.991C119.117 115.991 119.417 115.876 119.646 115.647C120.104 115.19 120.104 114.448 119.646 113.99L116.422 110.766L119.646 107.541C120.104 107.084 120.104 106.342 119.646 105.884Z" fill="black"/>
<path d="M87.7832 92.1979C87.7832 91.5508 87.2585 91.0261 86.6113 91.0261C85.9641 91.0261 85.4395 91.5508 85.4395 92.1979V92.2256C85.4395 92.8727 85.9641 93.3975 86.6113 93.3975C87.2585 93.3975 87.7832 92.8727 87.7832 92.2256V92.1979Z" fill="black"/>
<path d="M107.295 93.3975C107.942 93.3975 108.467 92.8727 108.467 92.2256V92.1979C108.467 91.5508 107.942 91.0261 107.295 91.0261C106.648 91.0261 106.123 91.5508 106.123 92.1979V92.2256C106.123 92.8727 106.648 93.3975 107.295 93.3975Z" fill="black"/>
</g>
<defs>
<filter id="filter0_d_94_13" x="0" y="0" width="200" height="200" filterUnits="userSpaceOnUse" color-interpolation-filters="sRGB">
<feFlood flood-opacity="0" result="BackgroundImageFix"/>
<feColorMatrix in="SourceAlpha" type="matrix" values="0 0 0 0 0 0 0 0 0 0 0 0 0 0 0 0 0 0 127 0" result="hardAlpha"/>
<feOffset dy="4"/>
<feGaussianBlur stdDeviation="25"/>
<feColorMatrix type="matrix" values="0 0 0 0 0.662745 0 0 0 0 0.717647 0 0 0 0 0.784314 0 0 0 0.25 0"/>
<feBlend mode="normal" in2="BackgroundImageFix" result="effect1_dropShadow_94_13"/>
<feBlend mode="normal" in="SourceGraphic" in2="effect1_dropShadow_94_13" result="shape"/>
</filter>
<clipPath id="clip0_94_13">
<rect width="60" height="60" fill="white" transform="translate(70 66)"/>
</clipPath>
</defs>
</svg>
