<svg width="200" height="200" viewBox="0 0 200 200" fill="none" xmlns="http://www.w3.org/2000/svg">
<g opacity="0.5" filter="url(#filter0_d_94_15)">
<circle cx="100" cy="96" r="50" fill="#FD7B2F"/>
</g>
<g clip-path="url(#clip0_94_15)">
<path d="M86.8451 119.443H119.483V113.038C119.483 111.276 120.884 109.836 122.597 109.836H128.826V84.4131H71.1729V89.4237V103.328C71.1729 108.298 71.0157 111.749 71.1729 114.141V116.748C71.1729 118.23 72.3523 119.443 73.7936 119.443H77.1884C79.4664 119.541 82.5823 119.443 86.8451 119.443Z" fill="#E3E5E5"/>
<path d="M71.1729 84.413H128.826V79.0235C128.826 77.5416 127.647 76.3289 126.206 76.3289H123.585H118.344H113.103H107.861H102.62H97.3789H92.1378H86.8967H81.6554H76.4142H73.7935C72.3522 76.329 71.1729 77.5417 71.1729 79.0236V84.413Z" fill="#F95C4B"/>
<path d="M122.597 109.835C120.884 109.835 119.482 111.276 119.482 113.038V119.443L128.826 109.836L122.597 109.835Z" fill="#FFCFAC"/>
<path d="M128.827 109.835L119.483 119.443H126.206C127.648 119.443 128.827 118.23 128.827 116.748V109.835Z" fill="#E3E5E5"/>
<path d="M108.737 108.796L105.457 99.6211L107.496 97.6309L109.409 95.8344C110.349 94.9517 110.321 93.4304 109.409 92.5183C108.498 91.6066 106.974 91.5766 106.094 92.5186L104.606 94.1096L102.307 96.4924L93.1317 93.191L90.966 95.3567L98.2192 100.737L94.9595 104.204L91.7179 103.971L89.895 105.793L94.0894 107.838L96.1342 112.032L97.9571 110.21L97.724 106.968L101.191 103.708L106.571 110.962L108.737 108.796Z" fill="#69DAF4"/>
<path d="M70 116.748C70 118.881 71.7019 120.616 73.7939 120.616H86.8445H126.206C128.298 120.616 130 118.881 130 116.748V79.024C130 76.8913 128.298 75.1562 126.206 75.1562H124.759V72.5572C124.759 71.9094 124.234 71.3839 123.586 71.3839C122.938 71.3839 122.412 71.9093 122.412 72.5572V75.1562H119.517V72.5572C119.517 71.9094 118.992 71.3839 118.344 71.3839C117.696 71.3839 117.171 71.9093 117.171 72.5572V75.1562H114.276V72.5572C114.276 71.9094 113.751 71.3839 113.103 71.3839C112.455 71.3839 111.93 71.9093 111.93 72.5572V75.1562H109.035V72.5572C109.035 71.9094 108.509 71.3839 107.862 71.3839C107.214 71.3839 106.688 71.9093 106.688 72.5572V75.1562H103.793V72.5572C103.793 71.9094 103.268 71.3839 102.62 71.3839C101.972 71.3839 101.447 71.9093 101.447 72.5572V75.1562H98.552V72.5572C98.552 71.9094 98.0268 71.3839 97.3787 71.3839C96.7307 71.3839 96.2055 71.9093 96.2055 72.5572V75.1562H93.3108V72.5572C93.3108 71.9094 92.7856 71.3839 92.1375 71.3839C91.4896 71.3839 90.9643 71.9093 90.9643 72.5572V75.1562H88.0696V72.5572C88.0696 71.9094 87.5444 71.3839 86.8963 71.3839C86.2484 71.3839 85.723 71.9093 85.723 72.5572V75.1562H82.8283V72.5572C82.8283 71.9094 82.303 71.3839 81.655 71.3839C81.0071 71.3839 80.4817 71.9093 80.4817 72.5572V75.1562H77.5878V72.5572C77.5878 71.9094 77.0625 71.3839 76.4145 71.3839C75.7664 71.3839 75.2412 71.9093 75.2412 72.5572V75.1562H73.7939C71.7019 75.1561 70 76.8913 70 79.024V116.748ZM73.7939 77.5026H75.2413V78.3417C75.2413 78.9895 75.7666 79.515 76.4146 79.515C77.0627 79.515 77.5879 78.9896 77.5879 78.3417V77.5026H80.4827V78.3417C80.4827 78.9895 81.0079 79.515 81.6559 79.515C82.3039 79.515 82.8292 78.9896 82.8292 78.3417V77.5026H85.724V78.3417C85.724 78.9895 86.2492 79.515 86.8973 79.515C87.5452 79.515 88.0705 78.9896 88.0705 78.3417V77.5026H90.9654V78.3417C90.9654 78.9895 91.4907 79.515 92.1387 79.515C92.7866 79.515 93.312 78.9896 93.312 78.3417V77.5026H96.2066V78.3417C96.2066 78.9895 96.7319 79.515 97.3799 79.515C98.0279 79.515 98.5532 78.9896 98.5532 78.3417V77.5026H101.448V78.3417C101.448 78.9895 101.973 79.515 102.621 79.515C103.269 79.515 103.795 78.9896 103.795 78.3417V77.5026H106.689V78.3417C106.689 78.9895 107.215 79.515 107.863 79.515C108.511 79.515 109.036 78.9896 109.036 78.3417V77.5026H111.931V78.3417C111.931 78.9895 112.456 79.515 113.104 79.515C113.752 79.515 114.277 78.9896 114.277 78.3417V77.5026H117.172V78.3417C117.172 78.9895 117.697 79.515 118.345 79.515C118.993 79.515 119.519 78.9896 119.519 78.3417V77.5026H122.414V78.3417C122.414 78.9895 122.939 79.515 123.587 79.515C124.235 79.515 124.76 78.9896 124.76 78.3417V77.5026H126.207C127.006 77.5026 127.655 78.185 127.655 79.024V83.2401H72.3464V79.024C72.3464 78.185 72.9958 77.5026 73.7939 77.5026ZM72.3464 116.748V92.9966H75.9876C76.6355 92.9966 77.1609 92.4712 77.1609 91.8233C77.1609 91.1755 76.6356 90.65 75.9876 90.65H72.3464V85.5866H127.653V108.663H122.598C120.233 108.663 118.31 110.625 118.31 113.038V118.27H86.8444H73.7939C72.9958 118.27 72.3464 117.587 72.3464 116.748ZM126.049 111.009L120.657 116.554V113.038C120.657 111.919 121.527 111.009 122.598 111.009H126.049ZM126.206 118.27H122.261L127.654 112.725V116.748C127.654 117.587 127.004 118.27 126.206 118.27Z" fill="black"/>
<path d="M79.3865 90.6502H79.3588C78.7109 90.6502 78.1855 91.1755 78.1855 91.8235C78.1855 92.4714 78.7108 92.9967 79.3588 92.9967H79.3865C80.0344 92.9967 80.5598 92.4715 80.5598 91.8235C80.5598 91.1756 80.0345 90.6502 79.3865 90.6502Z" fill="black"/>
<path d="M89.3818 106.848L93.2128 108.716L95.0806 112.547C95.2468 112.888 95.5674 113.127 95.9415 113.19C96.0061 113.201 96.0709 113.206 96.1352 113.206C96.4437 113.206 96.743 113.084 96.9647 112.862L98.7875 111.039C99.0282 110.799 99.1526 110.465 99.1281 110.126L98.9349 107.441L101.034 105.466L105.629 111.661C105.833 111.935 106.145 112.107 106.485 112.132C106.825 112.158 107.16 112.033 107.401 111.792L109.567 109.626C109.888 109.305 109.995 108.828 109.842 108.401L106.816 99.9351L108.308 98.4786L110.213 96.6898C110.885 96.0593 111.263 95.1952 111.277 94.257C111.292 93.2996 110.914 92.3635 110.24 91.6889C109.579 91.0286 108.663 90.6501 107.726 90.6501C106.764 90.6501 105.881 91.0291 105.237 91.7172L103.756 93.3018L101.99 95.1317L93.5299 92.0875C93.1023 91.9337 92.6244 92.0405 92.3031 92.3619L90.1373 94.5276C89.896 94.7689 89.7717 95.1032 89.7969 95.4436C89.8219 95.7837 89.9939 96.0963 90.268 96.2996L96.4624 100.895L94.488 102.994L91.803 102.801C91.4633 102.777 91.1299 102.901 90.8892 103.142L89.0664 104.964C88.7981 105.233 88.6761 105.614 88.7388 105.988C88.8014 106.361 89.0408 106.682 89.3818 106.848ZM92.1692 105.179L94.8762 105.374C95.2292 105.401 95.5733 105.265 95.8151 105.008L99.0747 101.541C99.3041 101.297 99.4183 100.967 99.3886 100.633C99.3588 100.3 99.188 99.9946 98.9189 99.7951L92.7581 95.2249L93.4358 94.5472L101.91 97.5964C102.345 97.7527 102.831 97.6394 103.152 97.3071L105.451 94.9242C105.455 94.9197 105.459 94.9154 105.463 94.9109L106.951 93.3196C107.214 93.0384 107.55 92.9964 107.726 92.9964C108.046 92.9964 108.357 93.1245 108.58 93.3478C108.808 93.5758 108.936 93.8936 108.931 94.2199C108.926 94.5175 108.811 94.7872 108.607 94.9791L106.694 96.7757C106.688 96.7809 106.683 96.7862 106.677 96.7914L104.638 98.7816C104.31 99.1019 104.198 99.5843 104.353 100.016L107.382 108.492L106.703 109.171L102.133 103.01C101.934 102.74 101.629 102.57 101.295 102.54C100.962 102.509 100.631 102.624 100.387 102.854L96.9208 106.113C96.6636 106.355 96.5291 106.7 96.5543 107.052L96.749 109.759L96.4684 110.04L95.1444 107.324C95.0297 107.089 94.8394 106.899 94.604 106.784L91.8886 105.46L92.1692 105.179Z" fill="black"/>
</g>
<defs>
<filter id="filter0_d_94_15" x="0" y="0" width="200" height="200" filterUnits="userSpaceOnUse" color-interpolation-filters="sRGB">
<feFlood flood-opacity="0" result="BackgroundImageFix"/>
<feColorMatrix in="SourceAlpha" type="matrix" values="0 0 0 0 0 0 0 0 0 0 0 0 0 0 0 0 0 0 127 0" result="hardAlpha"/>
<feOffset dy="4"/>
<feGaussianBlur stdDeviation="25"/>
<feColorMatrix type="matrix" values="0 0 0 0 0.662745 0 0 0 0 0.717647 0 0 0 0 0.784314 0 0 0 0.25 0"/>
<feBlend mode="normal" in2="BackgroundImageFix" result="effect1_dropShadow_94_15"/>
<feBlend mode="normal" in="SourceGraphic" in2="effect1_dropShadow_94_15" result="shape"/>
</filter>
<clipPath id="clip0_94_15">
<rect width="60" height="60" fill="white" transform="translate(70 66)"/>
</clipPath>
</defs>
</svg>
