<svg width="200" height="200" viewBox="0 0 200 200" fill="none" xmlns="http://www.w3.org/2000/svg">
<g opacity="0.5" filter="url(#filter0_d_94_17)">
<circle cx="100" cy="96" r="50" fill="#88B337"/>
</g>
<path d="M97.9084 100.363L100.201 97.9868L101.685 96.4C102.563 95.4606 104.082 95.4906 104.991 96.4C105.901 97.3095 105.929 98.8266 104.991 99.7068L103.083 101.498L101.05 103.483L104.32 114.29L102.161 116.45L96.7952 107.559L93.3382 110.81L93.5706 114.042L91.7527 115.86L89.7135 111.678L85.5311 109.639L87.3489 107.821L90.5815 108.053L93.8323 104.596L84.9416 99.2306L87.1015 97.0708L97.9084 100.363ZM104.688 77.9534H85.9378H78.9066C77.6176 77.9534 76.563 79.0081 76.563 80.2971V122.484C76.563 123.774 77.6177 124.828 78.9066 124.828H103.985H111.719C113.008 124.828 114.063 123.774 114.063 122.484V114.047V112.407V87.3282H107.032C105.742 87.3282 104.688 86.2736 104.688 84.9846V82.5471V77.9534Z" fill="#E3E5E5"/>
<path d="M104.688 84.9846C104.688 86.2736 105.743 87.3282 107.032 87.3282H114.063L104.688 77.9534V82.5471V84.9846Z" fill="#6B6D72"/>
<path d="M104.688 77.9533L114.063 87.3282V112.407V114.047H121.094C122.383 114.047 123.438 112.992 123.438 111.703V69.5156C123.438 68.2266 122.383 67.1719 121.094 67.1719H96.0161H88.2817C86.9927 67.1719 85.938 68.2266 85.938 69.5156V77.9533H104.688Z" fill="#E3E5E5"/>
<path d="M100.201 97.9868L97.9082 100.363L87.1013 97.0708L84.9414 99.2305L93.832 104.596L90.5813 108.053L87.3487 107.821L85.5309 109.638L89.7133 111.678L91.7524 115.86L93.5704 114.042L93.338 110.81L96.795 107.559L102.16 116.45L104.32 114.29L101.049 103.483L103.083 101.498L104.991 99.7067C105.928 98.8265 105.9 97.3094 104.991 96.3999C104.082 95.4905 102.563 95.4605 101.684 96.3999L100.201 97.9868Z" fill="#69DAF4"/>
<path d="M97.6567 83.719H97.6844C98.3315 83.719 98.8563 83.1943 98.8563 82.5471C98.8563 81.8999 98.3315 81.3752 97.6844 81.3752H97.6567C97.0096 81.3752 96.4849 81.8999 96.4849 82.5471C96.4849 83.1943 97.0097 83.719 97.6567 83.719Z" fill="black"/>
<path d="M121.094 66H96.0159H88.2816C86.3431 66 84.766 67.5771 84.766 69.5156V76.7814H78.9066C76.9681 76.7814 75.3911 78.3585 75.3911 80.2971V122.484C75.3911 124.423 76.9681 126 78.9066 126H103.985H111.719C113.658 126 115.235 124.423 115.235 122.484V115.219H121.094C123.033 115.219 124.61 113.641 124.61 111.703V69.5156C124.61 67.5771 123.033 66 121.094 66ZM112.891 122.484C112.891 123.131 112.365 123.656 111.719 123.656H103.985H78.9066C78.2604 123.656 77.7349 123.131 77.7349 122.484V80.2971C77.7349 79.6509 78.2604 79.1252 78.9066 79.1252H103.516V81.3752H101.051C100.404 81.3752 99.8791 81.8998 99.8791 82.547C99.8791 83.1943 100.404 83.7189 101.051 83.7189H103.516V84.9845C103.516 86.9229 105.093 88.5 107.032 88.5H112.891V122.484ZM105.86 80.7824L111.234 86.1563H107.032C106.385 86.1563 105.86 85.6307 105.86 84.9845V80.7824ZM122.266 111.703C122.266 112.349 121.74 112.875 121.094 112.875H115.235V87.3757C115.235 87.3598 115.237 87.3442 115.237 87.3282C115.237 86.9821 115.087 86.6711 114.849 86.4565L105.517 77.1247C105.516 77.1243 105.516 77.124 105.515 77.1236C105.479 77.0873 105.439 77.0543 105.398 77.0228C105.389 77.0155 105.379 77.0082 105.369 77.0013C105.328 76.9715 105.285 76.9439 105.24 76.9197C105.236 76.9177 105.232 76.9162 105.228 76.9142C105.186 76.8922 105.142 76.8731 105.097 76.8562C105.087 76.8526 105.077 76.8488 105.068 76.8455C105.019 76.8289 104.969 76.8145 104.918 76.8043C104.915 76.8038 104.913 76.8036 104.91 76.803C104.864 76.7942 104.817 76.7887 104.769 76.7854C104.755 76.7845 104.74 76.7838 104.726 76.7833C104.714 76.7828 104.701 76.7813 104.688 76.7813H87.1097V69.5156C87.1097 68.8694 87.6354 68.3437 88.2816 68.3437H96.0159H121.094C121.74 68.3437 122.266 68.8694 122.266 69.5156V111.703Z" fill="black"/>
<path d="M103.312 94.5348C102.352 94.5348 101.471 94.9129 100.829 95.5995L99.3513 97.1796L97.5635 99.0327L87.4432 95.9497C87.0292 95.8235 86.5791 95.9358 86.2731 96.2421L84.1132 98.4018C83.8585 98.6566 83.735 99.0145 83.7787 99.3721C83.8223 99.7298 84.0279 100.048 84.3365 100.234L91.9854 104.85L90.1101 106.844L87.4334 106.652C87.0949 106.627 86.7612 106.751 86.5206 106.992L84.7028 108.81C84.435 109.078 84.3132 109.458 84.3757 109.832C84.4382 110.205 84.6774 110.526 85.0179 110.692L88.8376 112.554L90.7 116.374C90.8659 116.714 91.1862 116.953 91.5598 117.016C91.9334 117.078 92.3142 116.957 92.582 116.689L94.3999 114.871C94.6404 114.63 94.7645 114.297 94.7401 113.958L94.5476 111.281L96.5419 109.406L101.158 117.055C101.344 117.363 101.662 117.569 102.02 117.613C102.067 117.618 102.114 117.621 102.161 117.621C102.47 117.621 102.769 117.499 102.99 117.278L105.15 115.118C105.455 114.812 105.568 114.364 105.443 113.95L102.378 103.824L103.894 102.345L105.794 100.561C106.464 99.9317 106.841 99.0697 106.856 98.1335C106.871 97.1781 106.493 96.2442 105.82 95.571C105.161 94.9126 104.247 94.5348 103.312 94.5348ZM104.189 98.8524L102.281 100.644C102.276 100.649 102.27 100.654 102.265 100.66L100.231 102.644C99.9184 102.95 99.8015 103.404 99.9282 103.823L102.996 113.957L102.391 114.562L97.7987 106.954C97.6158 106.65 97.3057 106.446 96.9549 106.398C96.9017 106.391 96.8484 106.387 96.7955 106.387C96.4991 106.387 96.2115 106.5 95.9926 106.705L92.5356 109.956C92.2787 110.197 92.1442 110.542 92.1695 110.894L92.3636 113.592L92.0862 113.87L90.767 111.164C90.6525 110.929 90.4623 110.739 90.2274 110.624L87.5217 109.305L87.799 109.028L90.4975 109.222C90.8482 109.247 91.1937 109.113 91.4353 108.856L94.6861 105.398C94.9285 105.141 95.0415 104.787 94.9934 104.436C94.9451 104.085 94.7409 103.775 94.4379 103.592L86.8289 99.0004L87.4328 98.3965L97.5669 101.484C97.9882 101.612 98.4459 101.493 98.7518 101.176L101.044 98.8001C101.049 98.7958 101.053 98.7913 101.057 98.7869L102.541 97.2002C102.802 96.9201 103.136 96.8784 103.312 96.8784C103.63 96.8784 103.94 97.006 104.163 97.2284C104.39 97.4555 104.517 97.7719 104.512 98.0967C104.507 98.393 104.393 98.6614 104.189 98.8524Z" fill="black"/>
<defs>
<filter id="filter0_d_94_17" x="0" y="0" width="200" height="200" filterUnits="userSpaceOnUse" color-interpolation-filters="sRGB">
<feFlood flood-opacity="0" result="BackgroundImageFix"/>
<feColorMatrix in="SourceAlpha" type="matrix" values="0 0 0 0 0 0 0 0 0 0 0 0 0 0 0 0 0 0 127 0" result="hardAlpha"/>
<feOffset dy="4"/>
<feGaussianBlur stdDeviation="25"/>
<feColorMatrix type="matrix" values="0 0 0 0 0.662745 0 0 0 0 0.717647 0 0 0 0 0.784314 0 0 0 0.25 0"/>
<feBlend mode="normal" in2="BackgroundImageFix" result="effect1_dropShadow_94_17"/>
<feBlend mode="normal" in="SourceGraphic" in2="effect1_dropShadow_94_17" result="shape"/>
</filter>
</defs>
</svg>
