<svg width="200" height="200" viewBox="0 0 200 200" fill="none" xmlns="http://www.w3.org/2000/svg">
<g opacity="0.5" filter="url(#filter0_d_94_19)">
<circle cx="100" cy="96" r="50" fill="#8CBDFC"/>
</g>
<path d="M96.4722 76.6642H102.332C102.646 76.6642 102.917 76.9359 102.917 77.2501V81.9376H107.019V77.2501C107.019 74.672 104.91 72.5626 102.332 72.5626H96.4722C93.894 72.5626 91.7847 74.672 91.7847 77.2501V81.9376H95.8862V77.2501C95.8862 76.9359 96.1579 76.6642 96.4722 76.6642Z" fill="#FFA92C"/>
<path d="M102.917 81.9376H95.8859H91.7843H84.0039V104.306H84.5898V108.993H84.0039V119.437H115.996V108.993H115.41V104.306H115.996V81.9376H107.019H102.917Z" fill="#D37044"/>
<path d="M79.3165 104.306V81.9376H73.5156C72.2264 81.9376 71.1719 82.9922 71.1719 84.2812V117.094C71.1719 118.383 72.2264 119.437 73.5156 119.437H79.3165V108.993H78.7306V104.306H79.3165Z" fill="#D37044"/>
<path d="M84.0039 81.9375H79.3164V104.305H84.0039V81.9375Z" fill="#93603E"/>
<path d="M84.0039 104.306H79.3164H78.7305V108.993H79.3164H84.0039H84.5898V104.306H84.0039Z" fill="#FFA92C"/>
<path d="M84.0039 108.992H79.3164V119.437H84.0039V108.992Z" fill="#93603E"/>
<path d="M120.684 81.9375H115.996V104.305H120.684V81.9375Z" fill="#93603E"/>
<path d="M120.683 104.306H115.995H115.409V108.993H115.995H120.683H121.269V104.306H120.683Z" fill="#FFA92C"/>
<path d="M120.684 108.993H115.996V119.438H120.684V108.993Z" fill="#93603E"/>
<path d="M120.683 108.993V119.437H126.484C127.773 119.437 128.827 118.383 128.827 117.094V84.2812C128.827 82.9922 127.773 81.9376 126.484 81.9376H120.683V104.306H121.269V108.993H120.683Z" fill="#D37044"/>
<path d="M126.485 120.609C128.423 120.609 130 119.032 130 117.094V84.2812C130 82.3427 128.423 80.7657 126.485 80.7657H108.191V77.2501C108.191 74.0193 105.562 71.3908 102.331 71.3908H96.4719C93.241 71.3908 90.6125 74.0193 90.6125 77.2501V80.7657H73.5156C71.5771 80.7657 70 82.3428 70 84.2812V117.094C70 119.032 71.5771 120.609 73.5156 120.609H126.485ZM79.9024 105.477H83.4181V107.821H79.9024V105.477ZM114.824 83.1095V103.292C114.474 103.494 114.238 103.872 114.238 104.306V108.993C114.238 109.427 114.474 109.804 114.824 110.007V118.266H85.1759V110.007C85.5258 109.804 85.7618 109.427 85.7618 108.993V104.306C85.7618 103.872 85.5258 103.495 85.1759 103.292V83.1095H114.824ZM101.745 80.7657H97.0578V77.8361H101.745V80.7657ZM116.582 105.477H120.098V107.821H116.582V105.477ZM119.512 83.1095V103.134H117.168V83.1095H119.512ZM92.9563 77.2501C92.9563 75.3116 94.5334 73.7345 96.4719 73.7345H102.331C104.27 73.7345 105.847 75.3116 105.847 77.2501V80.7657H104.089V77.2501C104.089 76.2809 103.301 75.4923 102.331 75.4923H96.4719C95.5026 75.4923 94.7141 76.2809 94.7141 77.2501V80.7657H92.9563V77.2501ZM82.8321 83.1095V103.134H80.4884V83.1095H82.8321ZM72.3437 117.094V84.2812C72.3437 83.6351 72.8694 83.1095 73.5156 83.1095H78.1446V103.292C77.7947 103.495 77.5587 103.872 77.5587 104.306V108.993C77.5587 109.427 77.7947 109.804 78.1446 110.007V118.266H73.5156C72.8694 118.266 72.3437 117.74 72.3437 117.094ZM80.4884 118.266V110.165H82.8321V118.266H80.4884ZM117.168 118.266V110.165H119.512V118.266H117.168ZM127.656 117.094C127.656 117.74 127.131 118.266 126.485 118.266H121.855V110.007C122.205 109.804 122.441 109.426 122.441 108.993V104.305C122.441 103.872 122.205 103.494 121.855 103.292V83.1095H126.485C127.131 83.1095 127.656 83.6351 127.656 84.2812V117.094Z" fill="black"/>
<path d="M96.4261 114.37H96.3984C95.7512 114.37 95.2266 114.894 95.2266 115.542C95.2266 116.189 95.7512 116.713 96.3984 116.713H96.4261C97.0733 116.713 97.598 116.189 97.598 115.542C97.598 114.894 97.0733 114.37 96.4261 114.37Z" fill="black"/>
<path d="M93.0313 114.369H88.2227C87.5754 114.369 87.0508 114.894 87.0508 115.541C87.0508 116.189 87.5754 116.713 88.2227 116.713H93.0313C93.6785 116.713 94.2032 116.189 94.2032 115.541C94.2032 114.894 93.6785 114.369 93.0313 114.369Z" fill="black"/>
<defs>
<filter id="filter0_d_94_19" x="0" y="0" width="200" height="200" filterUnits="userSpaceOnUse" color-interpolation-filters="sRGB">
<feFlood flood-opacity="0" result="BackgroundImageFix"/>
<feColorMatrix in="SourceAlpha" type="matrix" values="0 0 0 0 0 0 0 0 0 0 0 0 0 0 0 0 0 0 127 0" result="hardAlpha"/>
<feOffset dy="4"/>
<feGaussianBlur stdDeviation="25"/>
<feColorMatrix type="matrix" values="0 0 0 0 0.662745 0 0 0 0 0.717647 0 0 0 0 0.784314 0 0 0 0.25 0"/>
<feBlend mode="normal" in2="BackgroundImageFix" result="effect1_dropShadow_94_19"/>
<feBlend mode="normal" in="SourceGraphic" in2="effect1_dropShadow_94_19" result="shape"/>
</filter>
</defs>
</svg>
