<svg width="200" height="200" viewBox="0 0 200 200" fill="none" xmlns="http://www.w3.org/2000/svg">
<g opacity="0.5" filter="url(#filter0_d_94_21)">
<circle cx="100" cy="96" r="50" fill="#EEA59D"/>
</g>
<path d="M83.5947 73.4387H116.407L116.407 71.0271C116.407 68.9068 114.672 67.1719 112.552 67.1719H87.45C85.3293 67.1719 83.5947 68.9068 83.5947 71.0271V73.4387Z" fill="#E3E5E5"/>
<path d="M116.406 73.4387H83.5938V114.801H116.406V73.4387ZM102.596 89.6991L104.888 87.3226L106.372 85.736C107.25 84.7966 108.769 84.8266 109.679 85.736C110.588 86.6454 110.616 88.1624 109.679 89.0427L107.771 90.8341L105.737 92.8191L109.008 103.626L106.848 105.786L101.483 96.8951L98.0255 100.146L98.258 103.379L96.4401 105.196L94.4009 101.014L90.2184 98.9746L92.0362 97.1568L95.2689 97.3893L98.5197 93.9322L89.629 88.5668L91.7888 86.4068L102.596 89.6991Z" fill="#69DAF4"/>
<path d="M102.596 89.6991L91.7887 86.4066L89.6289 88.5666L98.5196 93.9321L95.2688 97.3891L92.0361 97.1566L90.2182 98.9744L94.4008 101.014L96.44 105.196L98.2579 103.378L98.0254 100.146L101.482 96.8949L106.848 105.786L109.008 103.626L105.737 92.8189L107.771 90.834L109.679 89.0425C110.616 88.1622 110.588 86.6452 109.679 85.7358C108.769 84.8265 107.25 84.7965 106.372 85.7358L104.888 87.3224L102.596 89.6991Z" fill="#E3E5E5"/>
<path d="M116.406 114.801H83.5938V120.973C83.5938 123.094 85.3285 124.828 87.449 124.828H112.551C114.672 124.828 116.406 123.094 116.406 120.973V114.801Z" fill="#E3E5E5"/>
<path d="M100.03 117.905C98.9788 117.905 98.1211 118.763 98.1211 119.815C98.1211 120.866 98.9788 121.724 100.03 121.724C101.082 121.724 101.94 120.866 101.94 119.815C101.94 118.763 101.082 117.905 100.03 117.905Z" fill="black"/>
<path d="M117.578 71.0271C117.578 71.0264 117.578 71.0279 117.578 71.0271C117.578 68.2552 115.323 66 112.551 66H87.449C84.677 66 82.4219 68.2552 82.4219 71.0271V120.973C82.4219 123.745 84.677 126 87.449 126H112.551C115.323 126 117.578 123.745 117.578 120.973C117.578 120.972 117.578 120.974 117.578 120.973V71.0271ZM84.7656 74.6106H115.234V113.63H84.7656V74.6106ZM87.449 68.3438H112.551C114.031 68.3438 115.234 69.5475 115.234 71.0271V72.2667H84.7656V71.0271C84.7656 69.5475 85.9694 68.3438 87.449 68.3438ZM112.551 123.656H87.449C85.9694 123.656 84.7656 122.453 84.7656 120.973V115.973H115.234V120.973C115.234 122.453 114.031 123.656 112.551 123.656Z" fill="black"/>
<path d="M110.508 84.9074C109.849 84.2487 108.935 83.8709 107.999 83.8709C107.04 83.8709 106.159 84.249 105.516 84.9356L104.039 86.5157L102.251 88.3689L92.1307 85.2855C91.7167 85.159 91.2666 85.272 90.9605 85.5779L88.8007 87.7379C88.5459 87.9927 88.4225 88.3506 88.4661 88.7081C88.5097 89.0659 88.7154 89.3836 89.0238 89.5697L96.6727 94.1857L94.7973 96.18L92.1205 95.9876C91.7822 95.9629 91.4483 96.0872 91.2079 96.3277L89.39 98.1455C89.1222 98.4134 89.0003 98.7941 89.0629 99.1677C89.1254 99.5413 89.3646 99.8616 89.7052 100.028L93.5249 101.89L95.3872 105.71C95.5532 106.05 95.8735 106.289 96.247 106.352C96.6206 106.415 97.0013 106.293 97.2692 106.025L99.0871 104.207C99.3276 103.967 99.4517 103.633 99.4273 103.294L99.2348 100.617L101.229 98.7421L105.845 106.391C106.031 106.7 106.349 106.905 106.707 106.949C106.754 106.955 106.802 106.957 106.849 106.957C107.157 106.957 107.456 106.835 107.677 106.614L109.837 104.454C110.143 104.149 110.255 103.7 110.13 103.286L107.065 93.1604L108.582 91.6805L110.481 89.8968C111.151 89.2676 111.528 88.4056 111.543 87.4693C111.558 86.5144 111.181 85.5804 110.508 84.9074ZM108.877 88.1884L106.969 89.9799C106.964 89.985 106.958 89.9903 106.953 89.9956L104.919 91.9805C104.606 92.2859 104.489 92.74 104.616 93.1586L107.683 103.294L107.078 103.899L102.486 96.2895C102.303 95.9864 101.993 95.7823 101.642 95.734C101.589 95.7266 101.536 95.7231 101.483 95.7231C101.187 95.7231 100.899 95.8356 100.68 96.0413L97.2231 99.2921C96.9662 99.5337 96.8318 99.8781 96.857 100.23L97.0512 102.929L96.7738 103.206L95.4547 100.5C95.3401 100.265 95.1502 100.075 94.915 99.9604L92.2092 98.6411L92.4865 98.3638L95.1852 98.558C95.5369 98.5827 95.8814 98.4488 96.1229 98.1919L99.3737 94.7349C99.6162 94.4769 99.7292 94.1231 99.681 93.7725C99.6328 93.4218 99.4287 93.1116 99.1255 92.9288L91.5164 88.3366L92.1204 87.7327L102.255 90.8201C102.676 90.9488 103.134 90.8298 103.439 90.5127L105.732 88.1363C105.736 88.1319 105.74 88.1276 105.745 88.1231L107.228 86.5365C107.49 86.2564 107.824 86.2147 107.999 86.2147C108.318 86.2147 108.628 86.3423 108.85 86.5648C109.077 86.7919 109.205 87.1082 109.2 87.4328C109.195 87.729 109.08 87.9974 108.877 88.1884Z" fill="black"/>
<path d="M95.8711 78.7124H95.8988C96.546 78.7124 97.0706 78.1876 97.0706 77.5405C97.0706 76.8934 96.546 76.3686 95.8988 76.3686H95.8711C95.2239 76.3686 94.6992 76.8934 94.6992 77.5405C94.6992 78.1876 95.2239 78.7124 95.8711 78.7124Z" fill="black"/>
<path d="M93.676 77.5402C93.676 76.8931 93.1513 76.3684 92.5041 76.3684H87.6953C87.0481 76.3684 86.5234 76.8931 86.5234 77.5402C86.5234 78.1874 87.0481 78.7121 87.6953 78.7121H92.5041C93.1513 78.7121 93.676 78.1874 93.676 77.5402Z" fill="black"/>
<defs>
<filter id="filter0_d_94_21" x="0" y="0" width="200" height="200" filterUnits="userSpaceOnUse" color-interpolation-filters="sRGB">
<feFlood flood-opacity="0" result="BackgroundImageFix"/>
<feColorMatrix in="SourceAlpha" type="matrix" values="0 0 0 0 0 0 0 0 0 0 0 0 0 0 0 0 0 0 127 0" result="hardAlpha"/>
<feOffset dy="4"/>
<feGaussianBlur stdDeviation="25"/>
<feColorMatrix type="matrix" values="0 0 0 0 0.662745 0 0 0 0 0.717647 0 0 0 0 0.784314 0 0 0 0.25 0"/>
<feBlend mode="normal" in2="BackgroundImageFix" result="effect1_dropShadow_94_21"/>
<feBlend mode="normal" in="SourceGraphic" in2="effect1_dropShadow_94_21" result="shape"/>
</filter>
</defs>
</svg>
