<svg width="9" height="15" viewBox="0 0 9 15" fill="none" xmlns="http://www.w3.org/2000/svg">
<path d="M8.2492 0.003121L6.30403 0C4.11871 0 2.70646 1.44892 2.70646 3.69152V5.39356H0.750682C0.58168 5.39356 0.444824 5.53057 0.444824 5.69957V8.16563C0.444824 8.33463 0.581836 8.47149 0.750682 8.47149H2.70646V14.6941C2.70646 14.8631 2.84331 15 3.01231 15H5.56404C5.73305 15 5.8699 14.863 5.8699 14.6941V8.47149H8.15666C8.32566 8.47149 8.46252 8.33463 8.46252 8.16563L8.46345 5.69957C8.46345 5.61843 8.43115 5.54071 8.37388 5.48329C8.31661 5.42586 8.23858 5.39356 8.15744 5.39356H5.8699V3.95072C5.8699 3.25723 6.03516 2.90518 6.93853 2.90518L8.24888 2.90472C8.41773 2.90472 8.55459 2.7677 8.55459 2.59886V0.308979C8.55459 0.140289 8.41789 0.0034331 8.2492 0.003121Z" fill="#686361"/>
</svg>
