<svg width="15" height="13" viewBox="0 0 15 13" fill="none" xmlns="http://www.w3.org/2000/svg">
<path d="M5.59605 12.6536C4.9474 12.6536 4.27975 12.6011 3.60809 12.4958C2.42512 12.3101 1.22761 11.6914 0.888748 11.5061L0 11.0202L0.962219 10.7037C2.01405 10.3579 2.65388 10.1433 3.44593 9.80733C2.65285 9.42326 2.04163 8.73238 1.7474 7.83928L1.52355 7.15973L1.70712 7.18777C1.53305 7.01233 1.39561 6.83426 1.28906 6.67233C0.910149 6.09681 0.709534 5.39357 0.75222 4.79092L0.794334 4.19778L1.14944 4.33533C0.999641 4.05244 0.89138 3.75031 0.827751 3.43365C0.672684 2.66141 0.80246 1.84098 1.19328 1.12355L1.50261 0.555693L1.91631 1.0526C3.22472 2.62433 4.88194 3.55668 6.84883 3.82962C6.76849 3.27584 6.82869 2.7414 7.02793 2.26235C7.2599 1.70457 7.67258 1.23158 8.22098 0.894438C8.83003 0.520102 9.56863 0.338713 10.3007 0.383688C11.0774 0.43141 11.7826 0.722433 12.3427 1.22586C12.6162 1.15479 12.8177 1.07892 13.0901 0.976378C13.254 0.914694 13.4398 0.844656 13.6724 0.764548L14.5293 0.46929L13.9705 2.06528C14.0073 2.06219 14.0453 2.05956 14.085 2.05784L15.0001 2.01642L14.4593 2.75559C14.4283 2.79793 14.4204 2.80995 14.4094 2.82654C14.3658 2.89223 14.3115 2.97394 13.5691 3.96523C13.3833 4.21345 13.2905 4.53675 13.3078 4.87572C13.3736 6.16387 13.2155 7.32934 12.8378 8.33962C12.4805 9.29543 11.9268 10.1155 11.1923 10.7771C10.2834 11.5956 9.12449 12.156 7.74754 12.4426C7.07211 12.5831 6.34678 12.6536 5.59605 12.6536Z" fill="#686361"/>
</svg>
