<svg width="15" height="15" viewBox="0 0 15 15" fill="none" xmlns="http://www.w3.org/2000/svg">
<path d="M3.40819 4.99023H0.185547V14.6679H3.40819V4.99023Z" fill="#686361"/>
<path d="M13.9846 5.87413C13.3076 5.13517 12.4123 4.76562 11.2991 4.76562C10.8889 4.76562 10.5161 4.81608 10.1807 4.91705C9.84551 5.01795 9.56236 5.15953 9.33117 5.34184C9.10011 5.52415 8.91609 5.6934 8.77948 5.84957C8.64957 5.99792 8.52253 6.17072 8.39857 6.3662V4.99008H5.18555L5.1954 5.45889C5.202 5.77149 5.20525 6.73497 5.20525 8.34947C5.20525 9.9641 5.19875 12.0702 5.18568 14.6678H8.39857V9.26735C8.39857 8.93539 8.43418 8.67178 8.50594 8.4763C8.64276 8.1441 8.84926 7.86598 9.12611 7.64146C9.40293 7.41667 9.74624 7.30437 10.1565 7.30437C10.7163 7.30437 11.1282 7.49804 11.3919 7.88541C11.6555 8.27274 11.7873 8.80826 11.7873 9.49187V14.6675H15.0002V9.12102C15 7.69509 14.6617 6.61285 13.9846 5.87413Z" fill="#686361"/>
<path d="M1.81638 0.332031C1.27608 0.332031 0.838291 0.490023 0.502913 0.805699C0.167569 1.12144 0 1.52007 0 2.00194C0 2.47708 0.162746 2.87434 0.488273 3.19326C0.813698 3.51222 1.24345 3.67179 1.77728 3.67179H1.79681C2.34375 3.67179 2.78489 3.51236 3.12013 3.19326C3.45537 2.87434 3.61972 2.47722 3.61326 2.00194C3.60676 1.5201 3.44063 1.12144 3.1152 0.805699C2.78981 0.489886 2.35671 0.332031 1.81638 0.332031Z" fill="#686361"/>
</svg>
