<svg width="20" height="20" viewBox="0 0 20 20" fill="none" xmlns="http://www.w3.org/2000/svg">
<path d="M18.3056 4.43575L18.0064 4.53061L16.413 4.67257L15.9629 5.39131L15.6363 5.28755L14.3681 4.14418L14.1842 3.54958L13.9378 2.91551L13.1407 2.20058L12.2004 2.0166L12.1788 2.44696L13.1 3.34586L13.5507 3.8768L13.044 4.14163L12.6314 4.02004L12.0133 3.76221L12.0343 3.26374L11.2232 2.93015L10.9539 4.10216L10.1365 4.28742L10.2174 4.94123L11.2824 5.14622L11.4664 4.10153L12.3456 4.2314L12.7543 4.47076H13.41L13.8588 5.36967L15.0487 6.5767L14.9615 7.04589L14.0021 6.92366L12.3443 7.76081L11.1507 9.19256L10.9953 9.82663H10.5669L9.76857 9.45867L8.99316 9.82663L9.18606 10.6447L9.52347 10.2557L10.1168 10.2373L10.0754 10.9719L10.5669 11.1158L11.0577 11.6671L11.8592 11.4417L12.7747 11.5862L13.8378 11.8721L14.3688 11.9345L15.2689 12.9562L17.0063 13.978L15.8826 16.1247L14.6966 16.676L14.2465 17.9028L12.5302 19.0487L12.3475 19.7095C16.7351 18.6527 19.999 14.7114 19.999 9.99916C19.9977 7.94097 19.3739 6.02539 18.3056 4.43575Z" fill="#686361"/>
<path d="M11.1503 15.2259L10.422 13.8756L11.0904 12.4827L10.422 12.2828L9.6714 11.5291L8.00855 11.156L7.4566 10.0012V10.6868H7.21342L5.78039 8.74386V7.14786L4.72997 5.43982L3.06203 5.73712H1.9384L1.37308 5.36661L2.09437 4.79492L1.37499 4.96108C0.507916 6.44185 0.00244141 8.16009 0.00244141 10.0005C0.00244141 15.5219 4.4785 19.9999 10.0005 19.9999C10.4258 19.9999 10.8428 19.9623 11.2553 19.9127L11.1509 18.7012C11.1509 18.7012 11.6099 16.9021 11.6099 16.841C11.6093 16.7793 11.1503 15.2259 11.1503 15.2259Z" fill="#686361"/>
<path d="M3.71763 3.22447L5.4938 2.97683L6.31249 2.52801L7.23368 2.79348L8.70554 2.71199L9.20974 1.9194L9.94503 2.04036L11.7307 1.87293L12.2229 1.33053L12.9168 0.867074L13.8984 1.01477L14.2562 0.960657C12.9632 0.35205 11.5245 0 9.99978 0C6.89627 0 4.12125 1.41457 2.28906 3.63573H2.29416L3.71763 3.22447ZM10.4225 0.994398L11.4436 0.432264L12.0994 0.811052L11.1502 1.53361L10.2436 1.62465L9.83554 1.35982L10.4225 0.994398ZM7.39792 1.07652L7.84865 1.26432L8.4388 1.07652L8.76029 1.63356L7.39792 1.99134L6.74284 1.6081C6.74221 1.6081 7.38328 1.19557 7.39792 1.07652Z" fill="#686361"/>
</svg>
